G04*
G04 #@! TF.GenerationSoftware,Altium Limited,Altium Designer,22.0.2 (36)*
G04*
G04 Layer_Color=32896*
%FSLAX25Y25*%
%MOIN*%
G70*
G04*
G04 #@! TF.SameCoordinates,5C43ECB9-E52E-4D68-B8B3-2A23C74EF960*
G04*
G04*
G04 #@! TF.FilePolarity,Positive*
G04*
G01*
G75*
%ADD10C,0.00100*%
%ADD11C,0.00787*%
%ADD12C,0.01000*%
%ADD30C,0.01500*%
%ADD52C,0.00984*%
%ADD53C,0.00500*%
G36*
X27650Y71100D02*
X26350D01*
Y71450D01*
X27650D01*
Y71100D01*
D02*
G37*
G36*
X45650Y69600D02*
X45300D01*
Y71400D01*
X45650D01*
Y69600D01*
D02*
G37*
G36*
X44700D02*
X44350D01*
Y71400D01*
X44700D01*
Y69600D01*
D02*
G37*
G36*
X38150D02*
X37800D01*
Y71400D01*
X38150D01*
Y69600D01*
D02*
G37*
G36*
X37200D02*
X36850D01*
Y71400D01*
X37200D01*
Y69600D01*
D02*
G37*
G36*
X27650Y69550D02*
X26350D01*
X26350Y69900D01*
X27650D01*
X27650Y69550D01*
D02*
G37*
G36*
X26650Y33600D02*
X26300D01*
Y35400D01*
X26650D01*
Y33600D01*
D02*
G37*
G36*
X25700D02*
X25350D01*
Y35400D01*
X25700D01*
Y33600D01*
D02*
G37*
G36*
X26650Y30100D02*
X26300D01*
Y31900D01*
X26650D01*
Y30100D01*
D02*
G37*
G36*
X25700D02*
X25350D01*
Y31900D01*
X25700D01*
Y30100D01*
D02*
G37*
G36*
X51900Y25300D02*
X50100D01*
Y25650D01*
X51900D01*
Y25300D01*
D02*
G37*
G36*
Y24350D02*
X50100D01*
Y24700D01*
X51900D01*
Y24350D01*
D02*
G37*
G36*
X40900Y8300D02*
X39100D01*
Y8650D01*
X40900D01*
Y8300D01*
D02*
G37*
G36*
Y7350D02*
X39100D01*
Y7700D01*
X40900D01*
Y7350D01*
D02*
G37*
G36*
X37450D02*
X37100Y7350D01*
Y8650D01*
X37450Y8650D01*
Y7350D01*
D02*
G37*
G36*
X35900D02*
X35550D01*
Y8650D01*
X35900D01*
Y7350D01*
D02*
G37*
G36*
X33950D02*
X33600Y7350D01*
Y8650D01*
X33950Y8650D01*
Y7350D01*
D02*
G37*
G36*
X32400D02*
X32050D01*
Y8650D01*
X32400D01*
Y7350D01*
D02*
G37*
D10*
X36850Y69600D02*
X37200D01*
X36850Y71400D02*
X37200D01*
Y69600D02*
Y71400D01*
X36850Y69600D02*
Y71400D01*
X38150Y69600D02*
Y71400D01*
X37800Y69600D02*
Y71400D01*
Y69600D02*
X38150D01*
X37800Y71400D02*
X38150D01*
X26350Y71450D02*
X27650D01*
X26350Y71100D02*
Y71450D01*
Y71100D02*
X27650D01*
Y71450D01*
X26350Y69550D02*
X26350Y69900D01*
X27650D01*
X27650Y69550D01*
X26350D02*
X27650D01*
X45300Y71400D02*
X45650D01*
X45300Y69600D02*
X45650D01*
X45300D02*
Y71400D01*
X45650Y69600D02*
Y71400D01*
X44350Y69600D02*
Y71400D01*
X44700Y69600D02*
Y71400D01*
X44350D02*
X44700D01*
X44350Y69600D02*
X44700D01*
X50100Y25300D02*
Y25650D01*
X51900Y25300D02*
Y25650D01*
X50100Y25300D02*
X51900D01*
X50100Y25650D02*
X51900D01*
X50100Y24350D02*
X51900D01*
X50100Y24700D02*
X51900D01*
X50100Y24350D02*
Y24700D01*
X51900Y24350D02*
Y24700D01*
X25350Y30100D02*
X25700D01*
X25350Y31900D02*
X25700D01*
Y30100D02*
Y31900D01*
X25350Y30100D02*
Y31900D01*
X26650Y30100D02*
Y31900D01*
X26300Y30100D02*
Y31900D01*
Y30100D02*
X26650D01*
X26300Y31900D02*
X26650D01*
X25350Y33600D02*
X25700D01*
X25350Y35400D02*
X25700D01*
Y33600D02*
Y35400D01*
X25350Y33600D02*
Y35400D01*
X26650Y33600D02*
Y35400D01*
X26300Y33600D02*
Y35400D01*
Y33600D02*
X26650D01*
X26300Y35400D02*
X26650D01*
X39100Y8300D02*
Y8650D01*
X40900Y8300D02*
Y8650D01*
X39100Y8300D02*
X40900D01*
X39100Y8650D02*
X40900D01*
X39100Y7350D02*
X40900D01*
X39100Y7700D02*
X40900D01*
X39100Y7350D02*
Y7700D01*
X40900Y7350D02*
Y7700D01*
X32050Y7350D02*
Y8650D01*
Y7350D02*
X32400D01*
Y8650D01*
X32050D02*
X32400D01*
X33600Y7350D02*
X33950Y7350D01*
X33600Y7350D02*
Y8650D01*
X33950Y8650D01*
Y7350D02*
Y8650D01*
X35550Y7350D02*
Y8650D01*
Y7350D02*
X35900D01*
Y8650D01*
X35550D02*
X35900D01*
X37100Y7350D02*
X37450Y7350D01*
X37100Y7350D02*
Y8650D01*
X37450Y8650D01*
Y7350D02*
Y8650D01*
D11*
X29929Y14929D02*
Y16996D01*
Y14929D02*
X31996D01*
X44004D02*
X46071D01*
Y16996D01*
Y29004D02*
Y31071D01*
X44004D02*
X46071D01*
X29929D02*
X31996D01*
X29929Y29004D02*
Y31071D01*
D12*
X61485Y55145D02*
G03*
X61485Y52255I0J-1445D01*
G01*
X22115Y58031D02*
X61485D01*
X22115Y49369D02*
X61485D01*
X22115D02*
Y58031D01*
X61485Y55145D02*
Y58031D01*
Y49369D02*
Y52255D01*
X18563Y-1500D02*
Y2000D01*
X-18500Y-1500D02*
X18500D01*
X12563Y18500D02*
X18563D01*
Y13000D02*
Y18500D01*
X-18563D02*
X-12563D01*
X-18563Y13000D02*
Y18500D01*
Y-1500D02*
Y2000D01*
D30*
X-9434Y85587D02*
G03*
X-9434Y85587I-90J0D01*
G01*
D52*
X26681Y18079D02*
G03*
X26681Y18079I-492J0D01*
G01*
D53*
X-10236Y72095D02*
Y83906D01*
Y72095D02*
X10236D01*
Y83906D01*
X-10236D02*
X10236D01*
M02*
