G04*
G04 #@! TF.GenerationSoftware,Altium Limited,Altium Designer,22.0.2 (36)*
G04*
G04 Layer_Color=16711935*
%FSLAX25Y25*%
%MOIN*%
G70*
G04*
G04 #@! TF.SameCoordinates,5C43ECB9-E52E-4D68-B8B3-2A23C74EF960*
G04*
G04*
G04 #@! TF.FilePolarity,Negative*
G04*
G01*
G75*
G04:AMPARAMS|DCode=22|XSize=26mil|YSize=26mil|CornerRadius=8mil|HoleSize=0mil|Usage=FLASHONLY|Rotation=0.000|XOffset=0mil|YOffset=0mil|HoleType=Round|Shape=RoundedRectangle|*
%AMROUNDEDRECTD22*
21,1,0.02600,0.01000,0,0,0.0*
21,1,0.01000,0.02600,0,0,0.0*
1,1,0.01600,0.00500,-0.00500*
1,1,0.01600,-0.00500,-0.00500*
1,1,0.01600,-0.00500,0.00500*
1,1,0.01600,0.00500,0.00500*
%
%ADD22ROUNDEDRECTD22*%
G04:AMPARAMS|DCode=24|XSize=26mil|YSize=26mil|CornerRadius=8mil|HoleSize=0mil|Usage=FLASHONLY|Rotation=270.000|XOffset=0mil|YOffset=0mil|HoleType=Round|Shape=RoundedRectangle|*
%AMROUNDEDRECTD24*
21,1,0.02600,0.01000,0,0,270.0*
21,1,0.01000,0.02600,0,0,270.0*
1,1,0.01600,-0.00500,-0.00500*
1,1,0.01600,-0.00500,0.00500*
1,1,0.01600,0.00500,0.00500*
1,1,0.01600,0.00500,-0.00500*
%
%ADD24ROUNDEDRECTD24*%
%ADD27C,0.16348*%
G04:AMPARAMS|DCode=43|XSize=45.37mil|YSize=84.74mil|CornerRadius=12.84mil|HoleSize=0mil|Usage=FLASHONLY|Rotation=0.000|XOffset=0mil|YOffset=0mil|HoleType=Round|Shape=RoundedRectangle|*
%AMROUNDEDRECTD43*
21,1,0.04537,0.05906,0,0,0.0*
21,1,0.01968,0.08474,0,0,0.0*
1,1,0.02568,0.00984,-0.02953*
1,1,0.02568,-0.00984,-0.02953*
1,1,0.02568,-0.00984,0.02953*
1,1,0.02568,0.00984,0.02953*
%
%ADD43ROUNDEDRECTD43*%
G04:AMPARAMS|DCode=44|XSize=92mil|YSize=78mil|CornerRadius=21mil|HoleSize=0mil|Usage=FLASHONLY|Rotation=270.000|XOffset=0mil|YOffset=0mil|HoleType=Round|Shape=RoundedRectangle|*
%AMROUNDEDRECTD44*
21,1,0.09200,0.03600,0,0,270.0*
21,1,0.05000,0.07800,0,0,270.0*
1,1,0.04200,-0.01800,-0.02500*
1,1,0.04200,-0.01800,0.02500*
1,1,0.04200,0.01800,0.02500*
1,1,0.04200,0.01800,-0.02500*
%
%ADD44ROUNDEDRECTD44*%
G04:AMPARAMS|DCode=45|XSize=76.87mil|YSize=33.56mil|CornerRadius=9.89mil|HoleSize=0mil|Usage=FLASHONLY|Rotation=90.000|XOffset=0mil|YOffset=0mil|HoleType=Round|Shape=RoundedRectangle|*
%AMROUNDEDRECTD45*
21,1,0.07687,0.01378,0,0,90.0*
21,1,0.05709,0.03356,0,0,90.0*
1,1,0.01978,0.00689,0.02854*
1,1,0.01978,0.00689,-0.02854*
1,1,0.01978,-0.00689,-0.02854*
1,1,0.01978,-0.00689,0.02854*
%
%ADD45ROUNDEDRECTD45*%
%ADD46O,0.03356X0.01584*%
%ADD47O,0.01584X0.03356*%
%ADD48R,0.11624X0.11230*%
G04:AMPARAMS|DCode=49|XSize=56mil|YSize=16mil|CornerRadius=5.5mil|HoleSize=0mil|Usage=FLASHONLY|Rotation=90.000|XOffset=0mil|YOffset=0mil|HoleType=Round|Shape=RoundedRectangle|*
%AMROUNDEDRECTD49*
21,1,0.05600,0.00500,0,0,90.0*
21,1,0.04500,0.01600,0,0,90.0*
1,1,0.01100,0.00250,0.02250*
1,1,0.01100,0.00250,-0.02250*
1,1,0.01100,-0.00250,-0.02250*
1,1,0.01100,-0.00250,0.02250*
%
%ADD49ROUNDEDRECTD49*%
G04:AMPARAMS|DCode=50|XSize=19.78mil|YSize=37.5mil|CornerRadius=6.45mil|HoleSize=0mil|Usage=FLASHONLY|Rotation=270.000|XOffset=0mil|YOffset=0mil|HoleType=Round|Shape=RoundedRectangle|*
%AMROUNDEDRECTD50*
21,1,0.01978,0.02461,0,0,270.0*
21,1,0.00689,0.03750,0,0,270.0*
1,1,0.01289,-0.01230,-0.00345*
1,1,0.01289,-0.01230,0.00345*
1,1,0.01289,0.01230,0.00345*
1,1,0.01289,0.01230,-0.00345*
%
%ADD50ROUNDEDRECTD50*%
G04:AMPARAMS|DCode=51|XSize=19.78mil|YSize=37.5mil|CornerRadius=6.45mil|HoleSize=0mil|Usage=FLASHONLY|Rotation=180.000|XOffset=0mil|YOffset=0mil|HoleType=Round|Shape=RoundedRectangle|*
%AMROUNDEDRECTD51*
21,1,0.01978,0.02461,0,0,180.0*
21,1,0.00689,0.03750,0,0,180.0*
1,1,0.01289,-0.00345,0.01230*
1,1,0.01289,0.00345,0.01230*
1,1,0.01289,0.00345,-0.01230*
1,1,0.01289,-0.00345,-0.01230*
%
%ADD51ROUNDEDRECTD51*%
D22*
X51000Y23000D02*
D03*
Y27000D02*
D03*
X40000Y6000D02*
D03*
Y10000D02*
D03*
X33000D02*
D03*
Y6000D02*
D03*
X36500Y10000D02*
D03*
Y6000D02*
D03*
D24*
X39500Y70500D02*
D03*
X35500D02*
D03*
X29000D02*
D03*
X25000D02*
D03*
X43000D02*
D03*
X47000D02*
D03*
X28000Y31000D02*
D03*
X24000D02*
D03*
X28000Y34500D02*
D03*
X24000D02*
D03*
D27*
X55118Y82677D02*
D03*
X-31496D02*
D03*
D43*
X64000Y8000D02*
D03*
X52000D02*
D03*
X58000D02*
D03*
X46000D02*
D03*
D44*
X-18563Y7500D02*
D03*
X18563D02*
D03*
D45*
X24300Y43479D02*
D03*
X39300Y63920D02*
D03*
X24300D02*
D03*
X59300Y43479D02*
D03*
X54300D02*
D03*
X49300D02*
D03*
X44300D02*
D03*
X39300D02*
D03*
X34300D02*
D03*
X29300D02*
D03*
X59300Y63920D02*
D03*
X54300D02*
D03*
X49300D02*
D03*
X44300D02*
D03*
X34300D02*
D03*
X29300D02*
D03*
D46*
X29732Y18079D02*
D03*
Y20047D02*
D03*
Y22016D02*
D03*
Y23984D02*
D03*
Y25953D02*
D03*
Y27921D02*
D03*
X46268D02*
D03*
Y25953D02*
D03*
Y23984D02*
D03*
Y22016D02*
D03*
Y20047D02*
D03*
Y18079D02*
D03*
D47*
X33079Y31268D02*
D03*
X35047D02*
D03*
X37016D02*
D03*
X38984D02*
D03*
X40953D02*
D03*
X42921D02*
D03*
Y14732D02*
D03*
X40953D02*
D03*
X38984D02*
D03*
X37016D02*
D03*
X35047D02*
D03*
X33079D02*
D03*
D48*
X38000Y23000D02*
D03*
D49*
X-6890Y19900D02*
D03*
X-4921D02*
D03*
X-2953D02*
D03*
X-984D02*
D03*
X984D02*
D03*
X2953D02*
D03*
X4921D02*
D03*
X6890D02*
D03*
D50*
X-8347Y80402D02*
D03*
Y78000D02*
D03*
Y75598D02*
D03*
X8347D02*
D03*
Y78000D02*
D03*
Y80402D02*
D03*
D51*
X-3870Y73984D02*
D03*
X-1370D02*
D03*
X1130D02*
D03*
X3630D02*
D03*
Y82016D02*
D03*
X1130D02*
D03*
X-1370D02*
D03*
M02*
