G04*
G04 #@! TF.GenerationSoftware,Altium Limited,Altium Designer,22.0.2 (36)*
G04*
G04 Layer_Physical_Order=1*
G04 Layer_Color=255*
%FSLAX25Y25*%
%MOIN*%
G70*
G04*
G04 #@! TF.SameCoordinates,5C43ECB9-E52E-4D68-B8B3-2A23C74EF960*
G04*
G04*
G04 #@! TF.FilePolarity,Positive*
G04*
G01*
G75*
%ADD12C,0.01000*%
G04:AMPARAMS|DCode=13|XSize=86mil|YSize=72mil|CornerRadius=18mil|HoleSize=0mil|Usage=FLASHONLY|Rotation=0.000|XOffset=0mil|YOffset=0mil|HoleType=Round|Shape=RoundedRectangle|*
%AMROUNDEDRECTD13*
21,1,0.08600,0.03600,0,0,0.0*
21,1,0.05000,0.07200,0,0,0.0*
1,1,0.03600,0.02500,-0.01800*
1,1,0.03600,-0.02500,-0.01800*
1,1,0.03600,-0.02500,0.01800*
1,1,0.03600,0.02500,0.01800*
%
%ADD13ROUNDEDRECTD13*%
G04:AMPARAMS|DCode=14|XSize=39.37mil|YSize=59.06mil|CornerRadius=9.84mil|HoleSize=0mil|Usage=FLASHONLY|Rotation=180.000|XOffset=0mil|YOffset=0mil|HoleType=Round|Shape=RoundedRectangle|*
%AMROUNDEDRECTD14*
21,1,0.03937,0.03937,0,0,180.0*
21,1,0.01968,0.05906,0,0,180.0*
1,1,0.01968,-0.00984,0.01968*
1,1,0.01968,0.00984,0.01968*
1,1,0.01968,0.00984,-0.01968*
1,1,0.01968,-0.00984,-0.01968*
%
%ADD14ROUNDEDRECTD14*%
G04:AMPARAMS|DCode=15|XSize=20mil|YSize=20mil|CornerRadius=5mil|HoleSize=0mil|Usage=FLASHONLY|Rotation=0.000|XOffset=0mil|YOffset=0mil|HoleType=Round|Shape=RoundedRectangle|*
%AMROUNDEDRECTD15*
21,1,0.02000,0.01000,0,0,0.0*
21,1,0.01000,0.02000,0,0,0.0*
1,1,0.01000,0.00500,-0.00500*
1,1,0.01000,-0.00500,-0.00500*
1,1,0.01000,-0.00500,0.00500*
1,1,0.01000,0.00500,0.00500*
%
%ADD15ROUNDEDRECTD15*%
G04:AMPARAMS|DCode=16|XSize=23.62mil|YSize=35mil|CornerRadius=5.91mil|HoleSize=0mil|Usage=FLASHONLY|Rotation=90.000|XOffset=0mil|YOffset=0mil|HoleType=Round|Shape=RoundedRectangle|*
%AMROUNDEDRECTD16*
21,1,0.02362,0.02319,0,0,90.0*
21,1,0.01181,0.03500,0,0,90.0*
1,1,0.01181,0.01159,0.00591*
1,1,0.01181,0.01159,-0.00591*
1,1,0.01181,-0.01159,-0.00591*
1,1,0.01181,-0.01159,0.00591*
%
%ADD16ROUNDEDRECTD16*%
G04:AMPARAMS|DCode=17|XSize=20mil|YSize=20mil|CornerRadius=5mil|HoleSize=0mil|Usage=FLASHONLY|Rotation=270.000|XOffset=0mil|YOffset=0mil|HoleType=Round|Shape=RoundedRectangle|*
%AMROUNDEDRECTD17*
21,1,0.02000,0.01000,0,0,270.0*
21,1,0.01000,0.02000,0,0,270.0*
1,1,0.01000,-0.00500,-0.00500*
1,1,0.01000,-0.00500,0.00500*
1,1,0.01000,0.00500,0.00500*
1,1,0.01000,0.00500,-0.00500*
%
%ADD17ROUNDEDRECTD17*%
G04:AMPARAMS|DCode=18|XSize=50mil|YSize=10mil|CornerRadius=2.5mil|HoleSize=0mil|Usage=FLASHONLY|Rotation=180.000|XOffset=0mil|YOffset=0mil|HoleType=Round|Shape=RoundedRectangle|*
%AMROUNDEDRECTD18*
21,1,0.05000,0.00500,0,0,180.0*
21,1,0.04500,0.01000,0,0,180.0*
1,1,0.00500,-0.02250,0.00250*
1,1,0.00500,0.02250,0.00250*
1,1,0.00500,0.02250,-0.00250*
1,1,0.00500,-0.02250,-0.00250*
%
%ADD18ROUNDEDRECTD18*%
G04:AMPARAMS|DCode=19|XSize=15.75mil|YSize=59.06mil|CornerRadius=3.94mil|HoleSize=0mil|Usage=FLASHONLY|Rotation=0.000|XOffset=0mil|YOffset=0mil|HoleType=Round|Shape=RoundedRectangle|*
%AMROUNDEDRECTD19*
21,1,0.01575,0.05118,0,0,0.0*
21,1,0.00787,0.05906,0,0,0.0*
1,1,0.00787,0.00394,-0.02559*
1,1,0.00787,-0.00394,-0.02559*
1,1,0.00787,-0.00394,0.02559*
1,1,0.00787,0.00394,0.02559*
%
%ADD19ROUNDEDRECTD19*%
%ADD28C,0.00400*%
%ADD29C,0.00600*%
%ADD30C,0.01500*%
%ADD31C,0.15748*%
%ADD32C,0.01800*%
G36*
X38710Y83503D02*
X38605Y83390D01*
X38518Y83283D01*
X38449Y83180D01*
X38399Y83081D01*
X38368Y82987D01*
X38355Y82897D01*
X38360Y82812D01*
X38383Y82731D01*
X38425Y82655D01*
X38486Y82583D01*
X37083Y83986D01*
X37155Y83925D01*
X37231Y83883D01*
X37312Y83860D01*
X37397Y83855D01*
X37487Y83868D01*
X37581Y83899D01*
X37680Y83949D01*
X37783Y84018D01*
X37890Y84105D01*
X38003Y84210D01*
X38710Y83503D01*
D02*
G37*
G36*
X15707Y83006D02*
X15740Y83002D01*
X15798Y83000D01*
Y82000D01*
X15740Y81998D01*
X15688Y81992D01*
X15641Y81983D01*
X15599Y81969D01*
X15563Y81952D01*
X15532Y81931D01*
X15506Y81907D01*
X15485Y81878D01*
X15470Y81846D01*
X15460Y81810D01*
Y82109D01*
X14083Y83486D01*
X14155Y83425D01*
X14231Y83383D01*
X14312Y83360D01*
X14397Y83355D01*
X14487Y83368D01*
X14581Y83399D01*
X14680Y83449D01*
X14783Y83518D01*
X14890Y83605D01*
X15003Y83710D01*
X15707Y83006D01*
D02*
G37*
G36*
X35214Y83996D02*
X35233Y83943D01*
X35256Y83895D01*
X35284Y83854D01*
X35317Y83819D01*
X35353Y83791D01*
X35394Y83769D01*
X35440Y83753D01*
X35490Y83743D01*
X35544Y83740D01*
Y82740D01*
X35490Y82737D01*
X35440Y82727D01*
X35394Y82712D01*
X35353Y82689D01*
X35317Y82661D01*
X35284Y82626D01*
X35256Y82585D01*
X35233Y82538D01*
X35214Y82484D01*
X35199Y82424D01*
Y84056D01*
X35214Y83996D01*
D02*
G37*
G36*
X23814D02*
X23833Y83943D01*
X23856Y83895D01*
X23884Y83854D01*
X23917Y83819D01*
X23953Y83791D01*
X23994Y83769D01*
X24040Y83753D01*
X24090Y83743D01*
X24144Y83740D01*
Y82740D01*
X24090Y82737D01*
X24040Y82727D01*
X23994Y82712D01*
X23953Y82689D01*
X23917Y82661D01*
X23884Y82626D01*
X23856Y82585D01*
X23833Y82538D01*
X23814Y82484D01*
X23799Y82424D01*
Y84056D01*
X23814Y83996D01*
D02*
G37*
G36*
X20390Y82424D02*
X20375Y82484D01*
X20356Y82538D01*
X20333Y82585D01*
X20305Y82626D01*
X20272Y82661D01*
X20236Y82689D01*
X20195Y82712D01*
X20149Y82727D01*
X20099Y82737D01*
X20045Y82740D01*
Y83740D01*
X20099Y83743D01*
X20149Y83753D01*
X20195Y83769D01*
X20236Y83791D01*
X20272Y83819D01*
X20305Y83854D01*
X20333Y83895D01*
X20356Y83943D01*
X20375Y83996D01*
X20390Y84056D01*
Y82424D01*
D02*
G37*
G36*
X36540Y82310D02*
X36522Y82391D01*
X36499Y82465D01*
X36474Y82529D01*
X36445Y82585D01*
X36413Y82632D01*
X36378Y82671D01*
X36339Y82701D01*
X36297Y82723D01*
X36251Y82736D01*
X36202Y82740D01*
X36274Y83740D01*
X36331Y83741D01*
X36433Y83750D01*
X36478Y83758D01*
X36517Y83768D01*
X36552Y83780D01*
X36583Y83795D01*
X36609Y83812D01*
X36631Y83831D01*
X36648Y83852D01*
X36540Y82310D01*
D02*
G37*
G36*
X18798Y82740D02*
X18717Y82735D01*
X18646Y82720D01*
X18588Y82695D01*
X18540Y82660D01*
X18503Y82615D01*
X18477Y82560D01*
X18463Y82495D01*
X18459Y82420D01*
X18467Y82335D01*
X18486Y82240D01*
X18190Y83460D01*
X18120Y83513D01*
X18078Y83561D01*
X18062Y83603D01*
X18075Y83639D01*
X18114Y83670D01*
X18182Y83695D01*
X18277Y83715D01*
X18399Y83729D01*
X18549Y83737D01*
X18726Y83740D01*
X18798Y82740D01*
D02*
G37*
G36*
X16540Y81810D02*
X16530Y81846D01*
X16515Y81878D01*
X16494Y81907D01*
X16468Y81931D01*
X16437Y81952D01*
X16400Y81969D01*
X16359Y81983D01*
X16312Y81992D01*
X16260Y81998D01*
X16202Y82000D01*
Y83000D01*
X16260Y83002D01*
X16312Y83008D01*
X16359Y83017D01*
X16400Y83030D01*
X16437Y83048D01*
X16468Y83069D01*
X16494Y83093D01*
X16515Y83122D01*
X16530Y83154D01*
X16540Y83190D01*
Y81810D01*
D02*
G37*
G36*
X38001Y82439D02*
X38021Y82186D01*
X38032Y82118D01*
X38047Y82057D01*
X38052Y82040D01*
X38190D01*
X38154Y82030D01*
X38122Y82015D01*
X38093Y81994D01*
X38076Y81976D01*
X38083Y81959D01*
X38105Y81922D01*
X38130Y81893D01*
X38028D01*
X38017Y81859D01*
X38008Y81812D01*
X38002Y81760D01*
X38000Y81702D01*
X37000D01*
X36998Y81760D01*
X36992Y81812D01*
X36983Y81859D01*
X36972Y81893D01*
X36870D01*
X36895Y81922D01*
X36917Y81959D01*
X36924Y81976D01*
X36907Y81994D01*
X36878Y82015D01*
X36846Y82030D01*
X36810Y82040D01*
X36948D01*
X36953Y82057D01*
X36968Y82118D01*
X36979Y82186D01*
X36995Y82347D01*
X36999Y82439D01*
X37000Y82538D01*
X38000D01*
X38001Y82439D01*
D02*
G37*
G36*
X38002Y80740D02*
X38008Y80688D01*
X38017Y80641D01*
X38028Y80607D01*
X38130D01*
X38105Y80578D01*
X38083Y80541D01*
X38076Y80524D01*
X38093Y80506D01*
X38122Y80485D01*
X38154Y80470D01*
X38190Y80460D01*
X38052D01*
X38047Y80443D01*
X38032Y80382D01*
X38021Y80314D01*
X38005Y80153D01*
X38001Y80061D01*
X38000Y79962D01*
X37000D01*
X36999Y80061D01*
X36979Y80314D01*
X36968Y80382D01*
X36953Y80443D01*
X36948Y80460D01*
X36810D01*
X36846Y80470D01*
X36878Y80485D01*
X36907Y80506D01*
X36924Y80524D01*
X36917Y80541D01*
X36895Y80578D01*
X36870Y80607D01*
X36972D01*
X36983Y80641D01*
X36992Y80688D01*
X36998Y80740D01*
X37000Y80798D01*
X38000D01*
X38002Y80740D01*
D02*
G37*
G36*
X27224Y76317D02*
X27155Y76246D01*
X26990Y76054D01*
X26950Y75997D01*
X26917Y75944D01*
X26892Y75895D01*
X26874Y75849D01*
X26863Y75807D01*
X26860Y75769D01*
X25969Y76660D01*
X26007Y76663D01*
X26049Y76674D01*
X26095Y76692D01*
X26144Y76717D01*
X26197Y76750D01*
X26254Y76790D01*
X26378Y76893D01*
X26446Y76955D01*
X26517Y77024D01*
X27224Y76317D01*
D02*
G37*
G36*
X25317Y75130D02*
X25288Y75155D01*
X25251Y75177D01*
X25205Y75196D01*
X25153Y75213D01*
X25092Y75227D01*
X25023Y75239D01*
X24863Y75255D01*
X24771Y75259D01*
X24671Y75260D01*
Y76260D01*
X24771Y76261D01*
X25023Y76281D01*
X25092Y76292D01*
X25153Y76307D01*
X25205Y76324D01*
X25251Y76343D01*
X25288Y76365D01*
X25317Y76390D01*
Y75130D01*
D02*
G37*
G36*
X23814Y76516D02*
X23833Y76462D01*
X23856Y76415D01*
X23884Y76374D01*
X23917Y76339D01*
X23953Y76310D01*
X23994Y76288D01*
X24040Y76272D01*
X24090Y76263D01*
X24144Y76260D01*
Y75260D01*
X24090Y75257D01*
X24040Y75247D01*
X23994Y75231D01*
X23953Y75209D01*
X23917Y75181D01*
X23884Y75146D01*
X23856Y75105D01*
X23833Y75057D01*
X23814Y75004D01*
X23799Y74944D01*
Y76576D01*
X23814Y76516D01*
D02*
G37*
G36*
X26565Y75088D02*
X26543Y75050D01*
X26524Y75006D01*
X26507Y74953D01*
X26492Y74892D01*
X26481Y74823D01*
X26465Y74663D01*
X26461Y74571D01*
X26460Y74471D01*
X25460D01*
X25458Y74571D01*
X25439Y74823D01*
X25427Y74892D01*
X25413Y74953D01*
X25396Y75006D01*
X25377Y75050D01*
X25355Y75088D01*
X25330Y75117D01*
X26590D01*
X26565Y75088D01*
D02*
G37*
G36*
X43917Y71014D02*
X43845Y71075D01*
X43769Y71117D01*
X43688Y71140D01*
X43603Y71145D01*
X43513Y71132D01*
X43419Y71101D01*
X43320Y71051D01*
X43217Y70982D01*
X43110Y70895D01*
X42997Y70790D01*
X42290Y71497D01*
X42395Y71609D01*
X42482Y71717D01*
X42551Y71820D01*
X42601Y71919D01*
X42632Y72013D01*
X42645Y72103D01*
X42640Y72188D01*
X42617Y72269D01*
X42575Y72345D01*
X42514Y72417D01*
X43917Y71014D01*
D02*
G37*
G36*
X44470Y68654D02*
X44485Y68622D01*
X44506Y68593D01*
X44532Y68569D01*
X44563Y68548D01*
X44600Y68530D01*
X44641Y68517D01*
X44688Y68508D01*
X44740Y68502D01*
X44798Y68500D01*
Y68027D01*
X44918Y68130D01*
X45057Y68265D01*
X45764Y67557D01*
X45694Y67485D01*
X45486Y67244D01*
X45454Y67196D01*
X45428Y67152D01*
X45411Y67113D01*
X45401Y67079D01*
X45399Y67050D01*
X44798Y67651D01*
Y67500D01*
X44740Y67498D01*
X44688Y67492D01*
X44641Y67483D01*
X44600Y67470D01*
X44563Y67452D01*
X44532Y67431D01*
X44506Y67407D01*
X44485Y67378D01*
X44470Y67346D01*
X44460Y67310D01*
Y68690D01*
X44470Y68654D01*
D02*
G37*
G36*
X25544Y53297D02*
X25559Y53274D01*
X25576Y53254D01*
X25596Y53237D01*
X25618Y53223D01*
X25643Y53211D01*
X25670Y53202D01*
X25700Y53195D01*
X25732Y53191D01*
X25767Y53190D01*
Y52590D01*
X25732Y52588D01*
X25700Y52584D01*
X25670Y52578D01*
X25643Y52569D01*
X25618Y52557D01*
X25596Y52542D01*
X25576Y52525D01*
X25559Y52505D01*
X25544Y52483D01*
X25532Y52457D01*
Y53322D01*
X25544Y53297D01*
D02*
G37*
G36*
Y51328D02*
X25559Y51306D01*
X25576Y51286D01*
X25596Y51269D01*
X25618Y51254D01*
X25643Y51242D01*
X25670Y51233D01*
X25700Y51227D01*
X25732Y51222D01*
X25767Y51221D01*
Y50621D01*
X25732Y50620D01*
X25700Y50616D01*
X25670Y50609D01*
X25643Y50600D01*
X25618Y50588D01*
X25596Y50574D01*
X25576Y50556D01*
X25559Y50537D01*
X25544Y50514D01*
X25532Y50489D01*
Y51353D01*
X25544Y51328D01*
D02*
G37*
G36*
Y49360D02*
X25559Y49337D01*
X25576Y49317D01*
X25596Y49300D01*
X25618Y49286D01*
X25643Y49274D01*
X25670Y49265D01*
X25700Y49258D01*
X25732Y49254D01*
X25767Y49253D01*
Y48653D01*
X25732Y48651D01*
X25700Y48647D01*
X25670Y48641D01*
X25643Y48632D01*
X25618Y48620D01*
X25596Y48605D01*
X25576Y48588D01*
X25559Y48568D01*
X25544Y48546D01*
X25532Y48520D01*
Y49385D01*
X25544Y49360D01*
D02*
G37*
G36*
Y47391D02*
X25559Y47369D01*
X25576Y47349D01*
X25596Y47332D01*
X25618Y47317D01*
X25643Y47305D01*
X25670Y47296D01*
X25700Y47289D01*
X25732Y47286D01*
X25767Y47284D01*
Y46684D01*
X25732Y46683D01*
X25700Y46679D01*
X25670Y46672D01*
X25643Y46663D01*
X25618Y46651D01*
X25596Y46637D01*
X25576Y46619D01*
X25559Y46600D01*
X25544Y46577D01*
X25532Y46552D01*
Y47416D01*
X25544Y47391D01*
D02*
G37*
G36*
X44692Y47437D02*
X44756Y47387D01*
X44824Y47342D01*
X44895Y47304D01*
X44970Y47271D01*
X45048Y47245D01*
X45129Y47225D01*
X45213Y47210D01*
X45300Y47202D01*
X45391Y47200D01*
X44500Y46309D01*
X44498Y46400D01*
X44490Y46487D01*
X44475Y46571D01*
X44455Y46652D01*
X44429Y46730D01*
X44396Y46805D01*
X44358Y46876D01*
X44313Y46944D01*
X44263Y47008D01*
X44206Y47070D01*
X44630Y47494D01*
X44692Y47437D01*
D02*
G37*
G36*
X53757Y45370D02*
X53692Y45433D01*
X53624Y45489D01*
X53554Y45538D01*
X53483Y45581D01*
X53409Y45617D01*
X53333Y45647D01*
X53256Y45670D01*
X53176Y45687D01*
X53095Y45697D01*
X53012Y45700D01*
Y46300D01*
X53095Y46303D01*
X53176Y46313D01*
X53256Y46330D01*
X53333Y46353D01*
X53409Y46382D01*
X53483Y46419D01*
X53554Y46462D01*
X53624Y46511D01*
X53692Y46567D01*
X53757Y46630D01*
Y45370D01*
D02*
G37*
G36*
X25544Y45423D02*
X25559Y45400D01*
X25576Y45380D01*
X25596Y45363D01*
X25618Y45349D01*
X25643Y45337D01*
X25670Y45328D01*
X25700Y45321D01*
X25732Y45317D01*
X25767Y45316D01*
Y44716D01*
X25732Y44714D01*
X25700Y44710D01*
X25670Y44704D01*
X25643Y44695D01*
X25618Y44683D01*
X25596Y44668D01*
X25576Y44651D01*
X25559Y44631D01*
X25544Y44609D01*
X25532Y44583D01*
Y45448D01*
X25544Y45423D01*
D02*
G37*
G36*
X35626Y45548D02*
X35789Y45411D01*
X35869Y45355D01*
X35947Y45307D01*
X36024Y45269D01*
X36099Y45239D01*
X36173Y45217D01*
X36246Y45204D01*
X36318Y45200D01*
Y44800D01*
X36246Y44796D01*
X36173Y44783D01*
X36099Y44761D01*
X36024Y44731D01*
X35947Y44693D01*
X35869Y44645D01*
X35789Y44589D01*
X35709Y44525D01*
X35626Y44452D01*
X35543Y44370D01*
Y45630D01*
X35626Y45548D01*
D02*
G37*
G36*
X25544Y43454D02*
X25559Y43432D01*
X25576Y43412D01*
X25596Y43395D01*
X25618Y43380D01*
X25643Y43368D01*
X25670Y43359D01*
X25700Y43352D01*
X25732Y43349D01*
X25767Y43347D01*
Y42747D01*
X25732Y42746D01*
X25700Y42742D01*
X25670Y42735D01*
X25643Y42726D01*
X25618Y42714D01*
X25596Y42700D01*
X25576Y42682D01*
X25559Y42663D01*
X25544Y42640D01*
X25532Y42615D01*
Y43479D01*
X25544Y43454D01*
D02*
G37*
G36*
X40026Y43548D02*
X40189Y43411D01*
X40269Y43355D01*
X40347Y43308D01*
X40424Y43269D01*
X40499Y43239D01*
X40573Y43217D01*
X40646Y43204D01*
X40718Y43200D01*
Y42800D01*
X40646Y42796D01*
X40573Y42783D01*
X40499Y42761D01*
X40424Y42731D01*
X40347Y42693D01*
X40269Y42645D01*
X40189Y42589D01*
X40109Y42525D01*
X40026Y42452D01*
X39943Y42370D01*
Y43630D01*
X40026Y43548D01*
D02*
G37*
G36*
X48657Y40970D02*
X48592Y41033D01*
X48524Y41089D01*
X48454Y41138D01*
X48383Y41181D01*
X48309Y41217D01*
X48234Y41247D01*
X48156Y41270D01*
X48076Y41287D01*
X47995Y41297D01*
X47912Y41300D01*
Y41900D01*
X47995Y41903D01*
X48076Y41913D01*
X48156Y41930D01*
X48234Y41953D01*
X48309Y41982D01*
X48383Y42019D01*
X48454Y42062D01*
X48524Y42111D01*
X48592Y42167D01*
X48657Y42230D01*
Y40970D01*
D02*
G37*
G36*
X58757Y40770D02*
X58692Y40833D01*
X58624Y40889D01*
X58554Y40938D01*
X58483Y40981D01*
X58409Y41017D01*
X58333Y41047D01*
X58256Y41070D01*
X58176Y41087D01*
X58095Y41097D01*
X58012Y41100D01*
Y41700D01*
X58095Y41703D01*
X58176Y41713D01*
X58256Y41730D01*
X58333Y41753D01*
X58409Y41783D01*
X58483Y41819D01*
X58554Y41862D01*
X58624Y41911D01*
X58692Y41967D01*
X58757Y42030D01*
Y40770D01*
D02*
G37*
G36*
X29148Y36874D02*
X29011Y36711D01*
X28955Y36631D01*
X28907Y36553D01*
X28869Y36476D01*
X28839Y36401D01*
X28817Y36327D01*
X28804Y36254D01*
X28800Y36182D01*
X28400D01*
X28396Y36254D01*
X28383Y36327D01*
X28361Y36401D01*
X28331Y36476D01*
X28293Y36553D01*
X28245Y36631D01*
X28189Y36711D01*
X28125Y36791D01*
X28052Y36874D01*
X27970Y36957D01*
X29230D01*
X29148Y36874D01*
D02*
G37*
G36*
X27107Y37078D02*
X27207Y36755D01*
X27242Y36665D01*
X27317Y36510D01*
X27357Y36446D01*
X27397Y36391D01*
X27439Y36344D01*
X27227Y35990D01*
X27170Y36041D01*
X27107Y36083D01*
X27040Y36117D01*
X26967Y36143D01*
X26889Y36161D01*
X26806Y36170D01*
X26717Y36172D01*
X26624Y36165D01*
X26525Y36151D01*
X26421Y36127D01*
X27077Y37203D01*
X27107Y37078D01*
D02*
G37*
G36*
X20850Y40166D02*
X23075D01*
X23100Y40161D01*
X30241D01*
X32282Y38120D01*
Y35680D01*
X29711Y33109D01*
X29249Y33301D01*
Y36262D01*
X29264Y36298D01*
X29287Y36343D01*
X29318Y36394D01*
X29354Y36446D01*
X29469Y36582D01*
X29540Y36655D01*
X29571Y36732D01*
X29702Y36864D01*
X29900Y37341D01*
Y37859D01*
X29702Y38336D01*
X29336Y38702D01*
X28859Y38900D01*
X28341D01*
X27864Y38702D01*
X27498Y38336D01*
X27472Y38274D01*
X26936Y38102D01*
X26459Y38300D01*
X25941D01*
X25464Y38102D01*
X25098Y37736D01*
X24900Y37259D01*
Y36741D01*
X25098Y36264D01*
X25464Y35898D01*
X25941Y35700D01*
X26459D01*
X26483Y35710D01*
X26514Y35705D01*
X26837Y35482D01*
X26874Y35443D01*
X26951Y35333D01*
Y33069D01*
X21241Y27359D01*
X21051Y26900D01*
Y16500D01*
X20600Y16049D01*
X19400D01*
X17949Y17500D01*
Y18500D01*
X17759Y18959D01*
X16559Y20159D01*
X16100Y20349D01*
X13798D01*
X12435Y21712D01*
X12314Y21762D01*
X12019Y21959D01*
X11551Y22052D01*
X11083Y21959D01*
X11079Y21957D01*
X10677Y21718D01*
X10668Y21712D01*
X10668Y21712D01*
X10668Y21712D01*
X10668Y21712D01*
X10618Y21592D01*
X10421Y21297D01*
X10328Y20829D01*
X10421Y20361D01*
X10618Y20066D01*
X10668Y19945D01*
X11121Y19492D01*
X11218Y19301D01*
X11182Y19210D01*
X11016Y18855D01*
X10983Y18849D01*
X10805Y18834D01*
X10704Y18833D01*
X10627Y18800D01*
X10441D01*
X9964Y18602D01*
X9598Y18236D01*
X9400Y17759D01*
Y17241D01*
X9598Y16764D01*
X9964Y16398D01*
X10441Y16200D01*
X10959D01*
X11436Y16398D01*
X11802Y16764D01*
X12000Y17241D01*
Y17427D01*
X12033Y17504D01*
X12034Y17611D01*
X12039Y17699D01*
X12048Y17777D01*
X12060Y17845D01*
X12074Y17903D01*
X12090Y17951D01*
X12105Y17987D01*
X12259Y18141D01*
X12259Y18141D01*
X12401Y18282D01*
X12451Y18403D01*
X12648Y18698D01*
X12699Y18958D01*
X12742Y19013D01*
X13138Y19216D01*
X13224Y19226D01*
X13309Y19170D01*
X13657Y19100D01*
X13764Y19056D01*
X13875Y18803D01*
X13912Y18551D01*
X13598Y18236D01*
X13400Y17759D01*
Y17241D01*
X13598Y16764D01*
X13964Y16398D01*
X14441Y16200D01*
X14959D01*
X15436Y16398D01*
X15760Y16722D01*
X18341Y14141D01*
X18800Y13951D01*
X21200D01*
X21659Y14141D01*
X22543Y15024D01*
X23043Y14817D01*
Y13941D01*
X21439Y12337D01*
X21405Y12324D01*
X21272Y12201D01*
X21148Y12101D01*
X21021Y12014D01*
X20889Y11940D01*
X20754Y11877D01*
X20614Y11826D01*
X20468Y11786D01*
X20317Y11757D01*
X20158Y11739D01*
X19977Y11733D01*
X19944Y11718D01*
X8500D01*
X8149Y11648D01*
X7851Y11449D01*
X5286Y8884D01*
X4902Y9164D01*
X5100Y9641D01*
Y9825D01*
X5133Y9899D01*
X5135Y9974D01*
X5140Y10031D01*
X5149Y10083D01*
X5161Y10130D01*
X5175Y10174D01*
X5193Y10215D01*
X5214Y10254D01*
X5239Y10291D01*
X5267Y10328D01*
X5312Y10376D01*
X5328Y10418D01*
X6371Y11462D01*
X6526Y11693D01*
X6580Y11966D01*
Y16500D01*
X6655Y16550D01*
X6715Y16575D01*
X6724Y16596D01*
X6832Y16669D01*
X7007Y16931D01*
X7069Y17241D01*
Y22359D01*
X7049Y22459D01*
X7331Y22899D01*
X7415Y22959D01*
X15748D01*
Y22932D01*
X16946Y23090D01*
X18061Y23552D01*
X19019Y24288D01*
X19755Y25246D01*
X20217Y26362D01*
X20375Y27559D01*
X20348D01*
Y39795D01*
X20379Y39848D01*
X20848Y40166D01*
X20850Y40166D01*
D02*
G37*
G36*
X60764Y29857D02*
X60695Y29786D01*
X60530Y29594D01*
X60490Y29537D01*
X60457Y29484D01*
X60432Y29435D01*
X60414Y29389D01*
X60403Y29347D01*
X60400Y29309D01*
X59509Y30200D01*
X59547Y30203D01*
X59589Y30214D01*
X59635Y30232D01*
X59684Y30257D01*
X59737Y30290D01*
X59794Y30330D01*
X59918Y30433D01*
X59986Y30495D01*
X60057Y30564D01*
X60764Y29857D01*
D02*
G37*
G36*
X60592Y25137D02*
X60656Y25087D01*
X60724Y25042D01*
X60795Y25004D01*
X60870Y24971D01*
X60948Y24945D01*
X61028Y24925D01*
X61113Y24910D01*
X61200Y24902D01*
X61291Y24900D01*
X60400Y24009D01*
X60398Y24100D01*
X60390Y24187D01*
X60375Y24272D01*
X60355Y24352D01*
X60329Y24430D01*
X60296Y24505D01*
X60258Y24576D01*
X60213Y24644D01*
X60163Y24708D01*
X60106Y24770D01*
X60530Y25194D01*
X60592Y25137D01*
D02*
G37*
G36*
X-55409Y22899D02*
X-55128Y22459D01*
X-55148Y22359D01*
Y17241D01*
X-55086Y16931D01*
X-54911Y16669D01*
X-54880Y16648D01*
X-54878Y16615D01*
X-54878Y16570D01*
X-54862Y16533D01*
Y14445D01*
X-54793Y14094D01*
X-54594Y13796D01*
X-50949Y10151D01*
X-50651Y9952D01*
X-50300Y9882D01*
X-24066D01*
X-24040Y9869D01*
X-23997Y9882D01*
X-6856D01*
X-6823Y9867D01*
X-6642Y9861D01*
X-6483Y9843D01*
X-6332Y9814D01*
X-6186Y9774D01*
X-6046Y9723D01*
X-5911Y9660D01*
X-5779Y9586D01*
X-5652Y9499D01*
X-5528Y9399D01*
X-5395Y9276D01*
X-5361Y9263D01*
X-2849Y6751D01*
X-2551Y6552D01*
X-2200Y6482D01*
X5100D01*
X5451Y6552D01*
X5749Y6751D01*
X8880Y9882D01*
X19944D01*
X19977Y9867D01*
X20158Y9861D01*
X20317Y9843D01*
X20468Y9814D01*
X20614Y9774D01*
X20754Y9723D01*
X20889Y9660D01*
X21021Y9586D01*
X21148Y9499D01*
X21272Y9399D01*
X21405Y9276D01*
X21439Y9263D01*
X23251Y7451D01*
X23549Y7252D01*
X23900Y7182D01*
X32100D01*
X32451Y7252D01*
X32749Y7451D01*
X34561Y9263D01*
X34595Y9276D01*
X34727Y9399D01*
X34852Y9499D01*
X34980Y9586D01*
X35111Y9660D01*
X35246Y9723D01*
X35386Y9774D01*
X35532Y9814D01*
X35683Y9843D01*
X35842Y9861D01*
X36023Y9867D01*
X36056Y9882D01*
X46120D01*
X48051Y7951D01*
X48349Y7752D01*
X48700Y7682D01*
X59100D01*
X59451Y7752D01*
X59749Y7951D01*
X61859Y10061D01*
X61894Y10075D01*
X61956Y10134D01*
X62062Y10224D01*
X62092Y10245D01*
X62107Y10254D01*
X62134Y10243D01*
X62136Y10244D01*
X62241Y10200D01*
X62410D01*
X62423Y10190D01*
X62430Y10183D01*
X62434Y10182D01*
X62440Y10177D01*
X62456Y10173D01*
X62471Y10165D01*
X62498Y10149D01*
X62527Y10128D01*
X62694Y9985D01*
X62755Y9925D01*
X62791Y9911D01*
X62795Y9907D01*
X62817Y9868D01*
X62894Y9809D01*
X63351Y9351D01*
X63649Y9152D01*
X63724Y9137D01*
X63964Y8898D01*
X64441Y8700D01*
X64959D01*
X65436Y8898D01*
X65766Y9228D01*
X65934Y9211D01*
X66266Y9078D01*
Y1969D01*
X66254Y1969D01*
X66155Y1474D01*
X65875Y1054D01*
X65456Y774D01*
X64961Y675D01*
X64961Y675D01*
Y675D01*
X64948Y663D01*
X-64948D01*
X-64961Y675D01*
Y675D01*
X-64961Y675D01*
X-65456Y774D01*
X-65875Y1054D01*
X-66155Y1474D01*
X-66254Y1969D01*
X-66266Y1969D01*
Y19685D01*
X-66257Y19685D01*
X-66146Y20530D01*
X-65820Y21317D01*
X-65301Y21994D01*
X-64625Y22513D01*
X-63837Y22839D01*
X-62992Y22950D01*
X-62992Y22950D01*
Y22950D01*
X-62983Y22959D01*
X-55493D01*
X-55409Y22899D01*
D02*
G37*
G36*
X57593Y22836D02*
X57639Y22802D01*
X57688Y22774D01*
X57739Y22751D01*
X57793Y22734D01*
X57850Y22723D01*
X57908Y22718D01*
X57970Y22718D01*
X58034Y22724D01*
X58100Y22736D01*
X57050Y22508D01*
X57050Y22511D01*
X57047Y22517D01*
X57042Y22525D01*
X57034Y22535D01*
X57010Y22563D01*
X56930Y22646D01*
X57549Y22875D01*
X57593Y22836D01*
D02*
G37*
G36*
X25423Y22525D02*
X25433Y22468D01*
X25447Y22407D01*
X25464Y22354D01*
X25483Y22309D01*
X25505Y22272D01*
X25530Y22243D01*
X25428D01*
X25431Y22130D01*
X24369D01*
X24375Y22151D01*
X24380Y22201D01*
X24382Y22243D01*
X24270D01*
X24295Y22272D01*
X24317Y22309D01*
X24336Y22354D01*
X24353Y22407D01*
X24367Y22468D01*
X24379Y22536D01*
X24391Y22661D01*
X24400Y23659D01*
X25400D01*
X25423Y22525D01*
D02*
G37*
G36*
X37209Y37081D02*
X37441Y36926D01*
X37714Y36872D01*
X44204D01*
X53163Y27914D01*
X52956Y27414D01*
X45003D01*
X44730Y27359D01*
X44498Y27205D01*
X37807Y20514D01*
X33038D01*
Y22359D01*
X32976Y22669D01*
X32801Y22931D01*
X32538Y23107D01*
X32228Y23168D01*
X31441D01*
X31131Y23107D01*
X30869Y22931D01*
X30693Y22669D01*
X30632Y22359D01*
Y17241D01*
X30693Y16931D01*
X30869Y16669D01*
X30877Y16586D01*
X29518Y15228D01*
X29476Y15212D01*
X29427Y15167D01*
X29391Y15139D01*
X29354Y15114D01*
X29315Y15093D01*
X29274Y15075D01*
X29230Y15060D01*
X29183Y15048D01*
X29131Y15040D01*
X29074Y15034D01*
X28999Y15033D01*
X28925Y15000D01*
X28795D01*
X28650Y15169D01*
X28502Y15442D01*
X28557Y15525D01*
X28611Y15798D01*
Y16500D01*
X28686Y16550D01*
X28746Y16575D01*
X28755Y16596D01*
X28864Y16669D01*
X29039Y16931D01*
X29101Y17241D01*
Y22359D01*
X29039Y22669D01*
X28864Y22931D01*
X28601Y23107D01*
X28291Y23168D01*
X27504D01*
X27194Y23107D01*
X26932Y22931D01*
X26756Y22669D01*
X26695Y22359D01*
Y21871D01*
X26200Y21859D01*
X26002Y22336D01*
X25883Y22456D01*
X25881Y22472D01*
X25881Y22481D01*
X25879Y22486D01*
X25878Y22493D01*
X25870Y22507D01*
X25864Y22523D01*
X25857Y22554D01*
X25855Y22566D01*
X25833Y23668D01*
X25818Y23702D01*
Y26620D01*
X33849Y34651D01*
X34048Y34949D01*
X34118Y35300D01*
Y38500D01*
X34048Y38851D01*
X33849Y39149D01*
X31270Y41728D01*
X31112Y41833D01*
X31263Y42333D01*
X31957D01*
X37209Y37081D01*
D02*
G37*
G36*
X49176Y22508D02*
X49158Y20439D01*
X49157Y20573D01*
X49141Y20812D01*
X49125Y20918D01*
X49105Y21014D01*
X49080Y21101D01*
X49051Y21179D01*
X49017Y21248D01*
X48978Y21308D01*
X48934Y21359D01*
X48973Y22734D01*
X49176Y22508D01*
D02*
G37*
G36*
X32607Y20343D02*
X32613Y20292D01*
X32623Y20247D01*
X32636Y20208D01*
X32653Y20175D01*
X32675Y20148D01*
X32700Y20127D01*
X32728Y20112D01*
X32761Y20103D01*
X32798Y20100D01*
Y19500D01*
X32761Y19497D01*
X32728Y19488D01*
X32700Y19473D01*
X32675Y19452D01*
X32653Y19425D01*
X32636Y19392D01*
X32623Y19353D01*
X32613Y19308D01*
X32607Y19257D01*
X32605Y19200D01*
Y20400D01*
X32607Y20343D01*
D02*
G37*
G36*
X11844Y18361D02*
X11796Y18307D01*
X11754Y18247D01*
X11717Y18179D01*
X11685Y18105D01*
X11658Y18023D01*
X11636Y17934D01*
X11619Y17839D01*
X11608Y17736D01*
X11601Y17626D01*
X11600Y17509D01*
X10709Y18400D01*
X10826Y18401D01*
X11039Y18419D01*
X11134Y18436D01*
X11223Y18458D01*
X11305Y18485D01*
X11379Y18517D01*
X11447Y18554D01*
X11507Y18596D01*
X11561Y18644D01*
X11844Y18361D01*
D02*
G37*
G36*
X15544Y17821D02*
X15564Y17796D01*
X15589Y17774D01*
X15619Y17754D01*
X15653Y17738D01*
X15693Y17724D01*
X15737Y17714D01*
X15787Y17706D01*
X15841Y17702D01*
X15900Y17700D01*
Y17300D01*
X15841Y17299D01*
X15787Y17294D01*
X15737Y17287D01*
X15693Y17276D01*
X15653Y17263D01*
X15619Y17246D01*
X15589Y17226D01*
X15564Y17204D01*
X15544Y17178D01*
X15529Y17150D01*
Y17850D01*
X15544Y17821D01*
D02*
G37*
G36*
X58103Y17887D02*
X58106Y17804D01*
X58116Y17722D01*
X58133Y17643D01*
X58156Y17565D01*
X58185Y17490D01*
X58222Y17416D01*
X58264Y17344D01*
X58314Y17274D01*
X58370Y17207D01*
X58432Y17141D01*
X57172Y17145D01*
X57235Y17210D01*
X57291Y17278D01*
X57341Y17347D01*
X57384Y17419D01*
X57420Y17492D01*
X57450Y17568D01*
X57473Y17645D01*
X57490Y17725D01*
X57500Y17806D01*
X57503Y17890D01*
X58103Y17887D01*
D02*
G37*
G36*
X54169Y17716D02*
X54180Y17634D01*
X54197Y17555D01*
X54220Y17478D01*
X54251Y17404D01*
X54288Y17331D01*
X54332Y17262D01*
X54383Y17194D01*
X54441Y17129D01*
X54505Y17066D01*
X53246Y17019D01*
X53307Y17087D01*
X53361Y17157D01*
X53409Y17229D01*
X53451Y17302D01*
X53486Y17377D01*
X53515Y17453D01*
X53537Y17532D01*
X53553Y17611D01*
X53563Y17693D01*
X53566Y17776D01*
X54166Y17800D01*
X54169Y17716D01*
D02*
G37*
G36*
X58300Y16871D02*
X58258Y16858D01*
X58222Y16842D01*
X58191Y16825D01*
X58164Y16805D01*
X58142Y16783D01*
X58125Y16758D01*
X58113Y16732D01*
X58106Y16703D01*
X58103Y16672D01*
X57503D01*
X57501Y16703D01*
X57493Y16732D01*
X57481Y16758D01*
X57464Y16783D01*
X57442Y16805D01*
X57416Y16825D01*
X57384Y16842D01*
X57348Y16858D01*
X57307Y16871D01*
X57261Y16881D01*
X58346D01*
X58300Y16871D01*
D02*
G37*
G36*
X54363D02*
X54321Y16858D01*
X54285Y16842D01*
X54254Y16825D01*
X54227Y16805D01*
X54205Y16783D01*
X54188Y16758D01*
X54176Y16732D01*
X54169Y16703D01*
X54166Y16672D01*
X53566D01*
X53564Y16703D01*
X53556Y16732D01*
X53544Y16758D01*
X53527Y16783D01*
X53505Y16805D01*
X53479Y16825D01*
X53447Y16842D01*
X53411Y16858D01*
X53370Y16871D01*
X53324Y16881D01*
X54409D01*
X54363Y16871D01*
D02*
G37*
G36*
X32331D02*
X32290Y16858D01*
X32254Y16842D01*
X32222Y16825D01*
X32195Y16805D01*
X32173Y16783D01*
X32157Y16758D01*
X32144Y16732D01*
X32137Y16703D01*
X32135Y16672D01*
X31535D01*
X31532Y16703D01*
X31525Y16732D01*
X31513Y16758D01*
X31496Y16783D01*
X31474Y16805D01*
X31447Y16825D01*
X31416Y16842D01*
X31379Y16858D01*
X31338Y16871D01*
X31292Y16881D01*
X32377D01*
X32331Y16871D01*
D02*
G37*
G36*
X28394D02*
X28353Y16858D01*
X28317Y16842D01*
X28285Y16825D01*
X28258Y16805D01*
X28236Y16783D01*
X28220Y16758D01*
X28207Y16732D01*
X28200Y16703D01*
X28198Y16672D01*
X27598D01*
X27595Y16703D01*
X27588Y16732D01*
X27576Y16758D01*
X27559Y16783D01*
X27537Y16805D01*
X27510Y16825D01*
X27479Y16842D01*
X27442Y16858D01*
X27401Y16871D01*
X27355Y16881D01*
X28440D01*
X28394Y16871D01*
D02*
G37*
G36*
X6363D02*
X6321Y16858D01*
X6285Y16842D01*
X6254Y16825D01*
X6227Y16805D01*
X6205Y16783D01*
X6188Y16758D01*
X6176Y16732D01*
X6169Y16703D01*
X6166Y16672D01*
X5566D01*
X5564Y16703D01*
X5556Y16732D01*
X5544Y16758D01*
X5527Y16783D01*
X5505Y16805D01*
X5479Y16825D01*
X5447Y16842D01*
X5411Y16858D01*
X5370Y16871D01*
X5324Y16881D01*
X6409D01*
X6363Y16871D01*
D02*
G37*
G36*
X2426D02*
X2384Y16858D01*
X2348Y16842D01*
X2317Y16825D01*
X2290Y16805D01*
X2268Y16783D01*
X2251Y16758D01*
X2239Y16732D01*
X2232Y16703D01*
X2229Y16672D01*
X1629D01*
X1627Y16703D01*
X1619Y16732D01*
X1607Y16758D01*
X1590Y16783D01*
X1568Y16805D01*
X1542Y16825D01*
X1510Y16842D01*
X1474Y16858D01*
X1433Y16871D01*
X1386Y16881D01*
X2472D01*
X2426Y16871D01*
D02*
G37*
G36*
X-45574D02*
X-45616Y16858D01*
X-45652Y16842D01*
X-45684Y16825D01*
X-45710Y16805D01*
X-45732Y16783D01*
X-45749Y16758D01*
X-45761Y16732D01*
X-45768Y16703D01*
X-45771Y16672D01*
X-46371D01*
X-46373Y16703D01*
X-46381Y16732D01*
X-46393Y16758D01*
X-46410Y16783D01*
X-46431Y16805D01*
X-46458Y16825D01*
X-46490Y16842D01*
X-46526Y16858D01*
X-46567Y16871D01*
X-46613Y16881D01*
X-45528D01*
X-45574Y16871D01*
D02*
G37*
G36*
X-49511D02*
X-49553Y16858D01*
X-49589Y16842D01*
X-49621Y16825D01*
X-49647Y16805D01*
X-49669Y16783D01*
X-49686Y16758D01*
X-49698Y16732D01*
X-49705Y16703D01*
X-49708Y16672D01*
X-50308D01*
X-50310Y16703D01*
X-50318Y16732D01*
X-50330Y16758D01*
X-50347Y16783D01*
X-50368Y16805D01*
X-50395Y16825D01*
X-50427Y16842D01*
X-50463Y16858D01*
X-50504Y16871D01*
X-50551Y16881D01*
X-49465D01*
X-49511Y16871D01*
D02*
G37*
G36*
X24495Y16877D02*
X24488Y16866D01*
X24482Y16850D01*
X24476Y16828D01*
X24471Y16800D01*
X24467Y16766D01*
X24462Y16681D01*
X24461Y16573D01*
X23461D01*
X23460Y16630D01*
X23450Y16800D01*
X23445Y16828D01*
X23440Y16850D01*
X23433Y16866D01*
X23426Y16877D01*
X23418Y16881D01*
X24503D01*
X24495Y16877D01*
D02*
G37*
G36*
X-1473D02*
X-1481Y16866D01*
X-1487Y16850D01*
X-1493Y16828D01*
X-1497Y16800D01*
X-1501Y16766D01*
X-1506Y16681D01*
X-1508Y16573D01*
X-2508D01*
X-2508Y16630D01*
X-2519Y16800D01*
X-2523Y16828D01*
X-2529Y16850D01*
X-2535Y16866D01*
X-2542Y16877D01*
X-2551Y16881D01*
X-1465D01*
X-1473Y16877D01*
D02*
G37*
G36*
X-27442D02*
X-27449Y16866D01*
X-27455Y16850D01*
X-27461Y16828D01*
X-27466Y16800D01*
X-27470Y16766D01*
X-27475Y16681D01*
X-27476Y16573D01*
X-28476D01*
X-28477Y16630D01*
X-28487Y16800D01*
X-28492Y16828D01*
X-28497Y16850D01*
X-28504Y16866D01*
X-28511Y16877D01*
X-28519Y16881D01*
X-27434D01*
X-27442Y16877D01*
D02*
G37*
G36*
X-53410D02*
X-53418Y16866D01*
X-53424Y16850D01*
X-53430Y16828D01*
X-53434Y16800D01*
X-53438Y16766D01*
X-53443Y16681D01*
X-53445Y16573D01*
X-54445D01*
X-54445Y16630D01*
X-54456Y16800D01*
X-54460Y16828D01*
X-54466Y16850D01*
X-54472Y16866D01*
X-54479Y16877D01*
X-54488Y16881D01*
X-53402D01*
X-53410Y16877D01*
D02*
G37*
G36*
X56601Y22390D02*
X56604Y22380D01*
X56600Y22359D01*
Y17241D01*
X56633Y17078D01*
X56500Y16759D01*
Y16241D01*
X56698Y15764D01*
X57064Y15398D01*
X57541Y15200D01*
X58059D01*
X58536Y15398D01*
X58902Y15764D01*
X59100Y16241D01*
Y16759D01*
X58972Y17068D01*
X59006Y17241D01*
Y21434D01*
X59468Y21625D01*
X61186Y19907D01*
Y16800D01*
X58800Y14414D01*
X56896D01*
X55428Y15882D01*
X55412Y15924D01*
X55367Y15972D01*
X55339Y16009D01*
X55314Y16046D01*
X55293Y16085D01*
X55275Y16126D01*
X55260Y16170D01*
X55248Y16217D01*
X55240Y16269D01*
X55235Y16326D01*
X55233Y16401D01*
X55200Y16475D01*
Y16659D01*
X55033Y17061D01*
X55069Y17241D01*
Y22359D01*
X55007Y22669D01*
X54832Y22931D01*
X54570Y23107D01*
X54260Y23168D01*
X53472D01*
X53163Y23107D01*
X52900Y22931D01*
X52725Y22669D01*
X52663Y22359D01*
Y17241D01*
X52721Y16951D01*
X52600Y16659D01*
Y16141D01*
X52798Y15664D01*
X53164Y15298D01*
X53641Y15100D01*
X53825D01*
X53899Y15067D01*
X53974Y15066D01*
X54031Y15060D01*
X54083Y15051D01*
X54130Y15040D01*
X54174Y15025D01*
X54215Y15007D01*
X54254Y14986D01*
X54291Y14961D01*
X54327Y14933D01*
X54376Y14888D01*
X54418Y14872D01*
X55379Y13911D01*
X55188Y13449D01*
X53800D01*
X53341Y13259D01*
X52487Y12405D01*
X52451Y12390D01*
X52403Y12374D01*
X52345Y12360D01*
X52283Y12349D01*
X52105Y12334D01*
X52004Y12333D01*
X51927Y12300D01*
X51741D01*
X51264Y12102D01*
X50898Y11736D01*
X50700Y11259D01*
Y10741D01*
X50898Y10264D01*
X51144Y10018D01*
X50975Y9518D01*
X49080D01*
X47149Y11449D01*
X46851Y11648D01*
X46500Y11718D01*
X36354D01*
X36323Y11732D01*
X36159Y11741D01*
X36047Y11761D01*
X35962Y11789D01*
X35902Y11822D01*
X35858Y11858D01*
X35822Y11902D01*
X35789Y11962D01*
X35761Y12047D01*
X35741Y12159D01*
X35732Y12323D01*
X35718Y12354D01*
Y14420D01*
X44880Y23582D01*
X46120D01*
X48596Y21106D01*
X48606Y21076D01*
X48631Y21047D01*
X48640Y21033D01*
X48654Y21006D01*
X48669Y20966D01*
X48684Y20911D01*
X48699Y20842D01*
X48710Y20766D01*
X48724Y20556D01*
X48725Y20436D01*
X48726Y20434D01*
Y17241D01*
X48788Y16931D01*
X48963Y16669D01*
X49226Y16493D01*
X49535Y16432D01*
X50323D01*
X50633Y16493D01*
X50895Y16669D01*
X51070Y16931D01*
X51132Y17241D01*
Y22359D01*
X51070Y22669D01*
X50895Y22931D01*
X50633Y23107D01*
X50323Y23168D01*
X49535D01*
X49226Y23107D01*
X49205Y23093D01*
X47149Y25149D01*
X46851Y25348D01*
X46500Y25418D01*
X45910D01*
X45643Y25918D01*
X45689Y25986D01*
X53004D01*
X56601Y22390D01*
D02*
G37*
G36*
X-3472Y22899D02*
X-3191Y22459D01*
X-3211Y22359D01*
Y17241D01*
X-3149Y16931D01*
X-2974Y16669D01*
X-2943Y16648D01*
X-2941Y16615D01*
X-2941Y16570D01*
X-2926Y16533D01*
Y14772D01*
X-5361Y12337D01*
X-5395Y12324D01*
X-5528Y12201D01*
X-5652Y12101D01*
X-5779Y12014D01*
X-5911Y11940D01*
X-6046Y11877D01*
X-6186Y11826D01*
X-6332Y11786D01*
X-6483Y11757D01*
X-6642Y11739D01*
X-6823Y11733D01*
X-6856Y11718D01*
X-22727D01*
X-22752Y11731D01*
X-22765Y11727D01*
X-22777Y11733D01*
X-22958Y11739D01*
X-23117Y11757D01*
X-23268Y11786D01*
X-23414Y11826D01*
X-23554Y11877D01*
X-23689Y11940D01*
X-23821Y12014D01*
X-23948Y12101D01*
X-24072Y12201D01*
X-24205Y12324D01*
X-24239Y12337D01*
X-27059Y15157D01*
Y16531D01*
X-27044Y16566D01*
X-27042Y16647D01*
X-27010Y16669D01*
X-26835Y16931D01*
X-26773Y17241D01*
Y22359D01*
X-26793Y22459D01*
X-26512Y22899D01*
X-26428Y22959D01*
X-25588D01*
X-25504Y22899D01*
X-25222Y22459D01*
X-25242Y22359D01*
Y17839D01*
X-25400Y17459D01*
Y16941D01*
X-25202Y16464D01*
X-24836Y16098D01*
X-24359Y15900D01*
X-23841D01*
X-23364Y16098D01*
X-22998Y16464D01*
X-22800Y16941D01*
Y17459D01*
X-22836Y17547D01*
Y22359D01*
X-22856Y22459D01*
X-22575Y22899D01*
X-22491Y22959D01*
X-21651D01*
X-21567Y22899D01*
X-21285Y22459D01*
X-21305Y22359D01*
Y17787D01*
X-21400Y17559D01*
Y17041D01*
X-21202Y16564D01*
X-20836Y16198D01*
X-20359Y16000D01*
X-19841D01*
X-19364Y16198D01*
X-18998Y16564D01*
X-18800Y17041D01*
Y17559D01*
X-18899Y17799D01*
Y22359D01*
X-18919Y22459D01*
X-18638Y22899D01*
X-18554Y22959D01*
X-3556D01*
X-3472Y22899D01*
D02*
G37*
G36*
X-45768Y16176D02*
X-45758Y16094D01*
X-45741Y16015D01*
X-45718Y15937D01*
X-45688Y15862D01*
X-45652Y15788D01*
X-45609Y15717D01*
X-45560Y15647D01*
X-45504Y15579D01*
X-45441Y15514D01*
X-46701D01*
X-46638Y15579D01*
X-46582Y15647D01*
X-46533Y15717D01*
X-46490Y15788D01*
X-46453Y15862D01*
X-46424Y15937D01*
X-46401Y16015D01*
X-46384Y16094D01*
X-46374Y16176D01*
X-46371Y16259D01*
X-45771D01*
X-45768Y16176D01*
D02*
G37*
G36*
X-49705D02*
X-49695Y16094D01*
X-49678Y16015D01*
X-49655Y15937D01*
X-49625Y15862D01*
X-49589Y15788D01*
X-49546Y15717D01*
X-49497Y15647D01*
X-49441Y15579D01*
X-49378Y15514D01*
X-50638D01*
X-50575Y15579D01*
X-50519Y15647D01*
X-50470Y15717D01*
X-50427Y15788D01*
X-50390Y15862D01*
X-50361Y15937D01*
X-50338Y16015D01*
X-50321Y16094D01*
X-50311Y16176D01*
X-50308Y16259D01*
X-49708D01*
X-49705Y16176D01*
D02*
G37*
G36*
X54802Y16300D02*
X54810Y16213D01*
X54825Y16128D01*
X54845Y16048D01*
X54871Y15970D01*
X54904Y15895D01*
X54942Y15824D01*
X54987Y15756D01*
X55037Y15692D01*
X55094Y15630D01*
X54670Y15206D01*
X54608Y15263D01*
X54544Y15313D01*
X54476Y15358D01*
X54405Y15396D01*
X54330Y15429D01*
X54252Y15455D01*
X54172Y15475D01*
X54087Y15490D01*
X54000Y15498D01*
X53909Y15500D01*
X54800Y16391D01*
X54802Y16300D01*
D02*
G37*
G36*
X27794Y15270D02*
X27737Y15208D01*
X27687Y15144D01*
X27642Y15076D01*
X27604Y15005D01*
X27571Y14930D01*
X27545Y14852D01*
X27525Y14772D01*
X27510Y14687D01*
X27502Y14600D01*
X27500Y14509D01*
X26609Y15400D01*
X26700Y15402D01*
X26787Y15410D01*
X26871Y15425D01*
X26952Y15445D01*
X27030Y15471D01*
X27105Y15504D01*
X27176Y15542D01*
X27244Y15587D01*
X27308Y15637D01*
X27370Y15694D01*
X27794Y15270D01*
D02*
G37*
G36*
X30194Y14470D02*
X30137Y14408D01*
X30087Y14344D01*
X30042Y14276D01*
X30004Y14205D01*
X29971Y14130D01*
X29945Y14052D01*
X29924Y13972D01*
X29910Y13887D01*
X29902Y13800D01*
X29900Y13709D01*
X29009Y14600D01*
X29100Y14602D01*
X29187Y14610D01*
X29272Y14625D01*
X29353Y14645D01*
X29430Y14671D01*
X29505Y14704D01*
X29576Y14742D01*
X29644Y14787D01*
X29708Y14837D01*
X29770Y14894D01*
X30194Y14470D01*
D02*
G37*
G36*
X-29441Y22899D02*
X-29159Y22459D01*
X-29179Y22359D01*
Y17241D01*
X-29118Y16931D01*
X-28942Y16669D01*
X-28912Y16648D01*
X-28910Y16615D01*
X-28909Y16570D01*
X-28894Y16533D01*
Y14776D01*
X-28824Y14425D01*
X-28625Y14128D01*
X-26715Y12218D01*
X-26923Y11718D01*
X-49920D01*
X-53027Y14825D01*
Y16531D01*
X-53012Y16566D01*
X-53011Y16647D01*
X-52979Y16669D01*
X-52803Y16931D01*
X-52742Y17241D01*
Y22359D01*
X-52762Y22459D01*
X-52481Y22899D01*
X-52396Y22959D01*
X-51556D01*
X-51472Y22899D01*
X-51191Y22459D01*
X-51211Y22359D01*
Y17241D01*
X-51149Y16931D01*
X-50974Y16669D01*
X-50865Y16596D01*
X-50857Y16575D01*
X-50740Y16276D01*
X-50743Y16211D01*
X-50749Y16165D01*
X-50758Y16121D01*
X-50770Y16079D01*
X-50787Y16037D01*
X-50807Y15996D01*
X-50832Y15954D01*
X-50863Y15911D01*
X-50899Y15867D01*
X-50951Y15813D01*
X-50980Y15737D01*
X-51110Y15607D01*
X-51308Y15130D01*
Y14612D01*
X-51110Y14134D01*
X-50744Y13769D01*
X-50266Y13571D01*
X-49749D01*
X-49272Y13769D01*
X-48906Y14134D01*
X-48708Y14612D01*
Y15130D01*
X-48906Y15607D01*
X-49035Y15737D01*
X-49065Y15813D01*
X-49117Y15867D01*
X-49153Y15911D01*
X-49183Y15954D01*
X-49209Y15995D01*
X-49229Y16037D01*
X-49245Y16079D01*
X-49258Y16121D01*
X-49267Y16165D01*
X-49273Y16211D01*
X-49275Y16276D01*
X-49159Y16575D01*
X-49150Y16596D01*
X-49042Y16669D01*
X-48867Y16931D01*
X-48805Y17241D01*
Y22359D01*
X-48825Y22459D01*
X-48544Y22899D01*
X-48459Y22959D01*
X-47619D01*
X-47535Y22899D01*
X-47254Y22459D01*
X-47274Y22359D01*
Y17241D01*
X-47212Y16931D01*
X-47037Y16669D01*
X-46928Y16596D01*
X-46920Y16575D01*
X-46804Y16276D01*
X-46806Y16211D01*
X-46812Y16165D01*
X-46821Y16121D01*
X-46833Y16079D01*
X-46850Y16037D01*
X-46870Y15996D01*
X-46895Y15954D01*
X-46926Y15911D01*
X-46962Y15867D01*
X-47014Y15813D01*
X-47043Y15737D01*
X-47173Y15607D01*
X-47371Y15130D01*
Y14612D01*
X-47173Y14134D01*
X-46807Y13769D01*
X-46330Y13571D01*
X-45812D01*
X-45335Y13769D01*
X-44969Y14134D01*
X-44771Y14612D01*
Y15130D01*
X-44969Y15607D01*
X-45098Y15737D01*
X-45128Y15813D01*
X-45180Y15867D01*
X-45216Y15911D01*
X-45246Y15954D01*
X-45272Y15995D01*
X-45292Y16037D01*
X-45308Y16079D01*
X-45321Y16121D01*
X-45330Y16165D01*
X-45336Y16211D01*
X-45338Y16276D01*
X-45222Y16575D01*
X-45213Y16596D01*
X-45105Y16669D01*
X-44930Y16931D01*
X-44868Y17241D01*
Y22359D01*
X-44888Y22459D01*
X-44607Y22899D01*
X-44522Y22959D01*
X-29525D01*
X-29441Y22899D01*
D02*
G37*
G36*
X28991Y12800D02*
X28900Y12798D01*
X28813Y12790D01*
X28729Y12776D01*
X28648Y12755D01*
X28570Y12729D01*
X28495Y12696D01*
X28424Y12658D01*
X28356Y12613D01*
X28292Y12563D01*
X28230Y12506D01*
X27806Y12930D01*
X27863Y12992D01*
X27913Y13056D01*
X27958Y13124D01*
X27996Y13195D01*
X28029Y13270D01*
X28055Y13348D01*
X28076Y13429D01*
X28090Y13513D01*
X28098Y13600D01*
X28100Y13691D01*
X28991Y12800D01*
D02*
G37*
G36*
X53144Y11861D02*
X53096Y11807D01*
X53054Y11747D01*
X53017Y11679D01*
X52985Y11605D01*
X52958Y11523D01*
X52936Y11434D01*
X52919Y11338D01*
X52908Y11236D01*
X52901Y11126D01*
X52900Y11009D01*
X52009Y11900D01*
X52126Y11901D01*
X52338Y11919D01*
X52434Y11936D01*
X52523Y11958D01*
X52605Y11985D01*
X52679Y12017D01*
X52747Y12054D01*
X52807Y12096D01*
X52861Y12144D01*
X53144Y11861D01*
D02*
G37*
G36*
X59055Y93823D02*
X60461Y93684D01*
X61814Y93274D01*
X63060Y92608D01*
X64152Y91711D01*
X65049Y90619D01*
X65715Y89373D01*
X66125Y88020D01*
X66264Y86614D01*
X66266D01*
Y10922D01*
X65934Y10789D01*
X65766Y10772D01*
X65436Y11102D01*
X64959Y11300D01*
X64441D01*
X64156Y11182D01*
X64154Y11183D01*
X64048Y11273D01*
X64026Y11294D01*
X64009Y11312D01*
X63960Y11366D01*
X63875Y11469D01*
X63851Y11502D01*
X63835Y11529D01*
X63827Y11544D01*
X63823Y11560D01*
X63818Y11566D01*
X63817Y11570D01*
X63810Y11577D01*
X63800Y11590D01*
Y11759D01*
X63756Y11864D01*
X63757Y11866D01*
X63746Y11893D01*
X63755Y11908D01*
X63776Y11938D01*
X63866Y12044D01*
X63925Y12106D01*
X63939Y12141D01*
X65449Y13651D01*
X65648Y13949D01*
X65718Y14300D01*
Y67380D01*
X65648Y67731D01*
X65449Y68029D01*
X60629Y72849D01*
X60331Y73048D01*
X59980Y73118D01*
X52160D01*
X46218Y79060D01*
Y85500D01*
X46148Y85851D01*
X45949Y86149D01*
X43849Y88249D01*
X43551Y88448D01*
X43200Y88518D01*
X19600D01*
X19249Y88448D01*
X18951Y88249D01*
X14741Y84038D01*
X14706Y84026D01*
X14606Y83931D01*
X14589Y83918D01*
X14085D01*
X14083Y83918D01*
X14081Y83918D01*
X14000D01*
X13649Y83848D01*
X13351Y83649D01*
X13152Y83351D01*
X13082Y83000D01*
Y82000D01*
X13152Y81649D01*
X13351Y81351D01*
X13649Y81152D01*
X14000Y81082D01*
X15000D01*
X15351Y81152D01*
X15649Y81351D01*
X15745Y81495D01*
X15747Y81496D01*
X15907Y81503D01*
X16234Y81503D01*
X16255Y81495D01*
X16351Y81351D01*
X16649Y81152D01*
X17000Y81082D01*
X18000D01*
X18351Y81152D01*
X18649Y81351D01*
X18848Y81649D01*
X18918Y82000D01*
Y82323D01*
X19969D01*
X19970Y82320D01*
X19998Y82282D01*
X20002Y82263D01*
X20059Y82178D01*
X20084Y82118D01*
X20105Y82109D01*
X20221Y81936D01*
X20549Y81717D01*
X20935Y81640D01*
X23254D01*
X23640Y81717D01*
X23968Y81936D01*
X24084Y82109D01*
X24105Y82118D01*
X24130Y82178D01*
X24187Y82263D01*
X24191Y82282D01*
X24219Y82320D01*
X24220Y82323D01*
X25480D01*
X27282Y80520D01*
Y78380D01*
X26251Y77349D01*
X26215Y77334D01*
X26148Y77269D01*
X26094Y77219D01*
X25991Y77135D01*
X25958Y77111D01*
X25931Y77094D01*
X25915Y77087D01*
X25900Y77083D01*
X25894Y77078D01*
X25890Y77076D01*
X25883Y77070D01*
X25870Y77060D01*
X25701D01*
X25223Y76862D01*
X25104Y76743D01*
X25088Y76740D01*
X25078Y76740D01*
X25074Y76739D01*
X25067Y76737D01*
X25053Y76729D01*
X25037Y76724D01*
X25006Y76717D01*
X24970Y76711D01*
X24752Y76694D01*
X24666Y76693D01*
X24625Y76692D01*
X24187Y76737D01*
X24130Y76822D01*
X24105Y76882D01*
X24084Y76891D01*
X23968Y77065D01*
X23640Y77284D01*
X23254Y77360D01*
X20935D01*
X20549Y77284D01*
X20221Y77065D01*
X20002Y76737D01*
X19925Y76350D01*
Y75169D01*
X20002Y74783D01*
X20221Y74455D01*
X20549Y74236D01*
X20935Y74159D01*
X23254D01*
X23640Y74236D01*
X23968Y74455D01*
X24084Y74629D01*
X24105Y74637D01*
X24592Y74791D01*
X25026Y74555D01*
X25026Y74552D01*
X25027Y74466D01*
X25042Y74430D01*
Y73540D01*
X25112Y73189D01*
X25311Y72891D01*
X28551Y69651D01*
X28849Y69452D01*
X29200Y69382D01*
X41800D01*
X41922Y69407D01*
X42223Y68957D01*
X42152Y68851D01*
X42082Y68500D01*
Y67500D01*
X42152Y67149D01*
X42351Y66851D01*
X42649Y66652D01*
X43000Y66582D01*
X43266D01*
X43398Y66264D01*
X43764Y65898D01*
X44241Y65700D01*
X44759D01*
X45236Y65898D01*
X45602Y66264D01*
X45754Y66631D01*
X46000Y66582D01*
X47000D01*
X47351Y66652D01*
X47649Y66851D01*
X47848Y67149D01*
X47918Y67500D01*
Y68500D01*
X47848Y68851D01*
X47649Y69149D01*
X47351Y69348D01*
X47000Y69418D01*
X46000D01*
X45649Y69348D01*
X45351Y69149D01*
X45253Y69001D01*
X44844Y68997D01*
X44743Y69007D01*
X44649Y69149D01*
X44351Y69348D01*
X44000Y69418D01*
X43000D01*
X42903Y69398D01*
X42657Y69859D01*
X43259Y70462D01*
X43294Y70474D01*
X43394Y70569D01*
X43411Y70582D01*
X43914D01*
X43917Y70582D01*
X43919Y70582D01*
X44000D01*
X44351Y70652D01*
X44649Y70851D01*
X44848Y71149D01*
X44918Y71500D01*
Y72500D01*
X44848Y72851D01*
X44649Y73149D01*
X44351Y73348D01*
X44000Y73418D01*
X43000D01*
X42649Y73348D01*
X42351Y73149D01*
X42152Y72851D01*
X42082Y72500D01*
Y72419D01*
X42081Y72417D01*
X42082Y72414D01*
Y71911D01*
X42069Y71894D01*
X41974Y71794D01*
X41962Y71759D01*
X41420Y71218D01*
X29580D01*
X26877Y73920D01*
Y74430D01*
X26893Y74466D01*
X26894Y74559D01*
X26897Y74633D01*
X26910Y74766D01*
X26917Y74806D01*
X26924Y74837D01*
X26929Y74853D01*
X26937Y74867D01*
X26939Y74874D01*
X26940Y74878D01*
X26941Y74888D01*
X26943Y74904D01*
X27062Y75024D01*
X27260Y75501D01*
Y75670D01*
X27270Y75683D01*
X27276Y75690D01*
X27278Y75694D01*
X27283Y75700D01*
X27287Y75715D01*
X27294Y75731D01*
X27311Y75758D01*
X27332Y75787D01*
X27474Y75954D01*
X27534Y76015D01*
X27549Y76051D01*
X28849Y77351D01*
X29048Y77649D01*
X29118Y78000D01*
Y80900D01*
X29048Y81251D01*
X28849Y81549D01*
X26509Y83889D01*
X26211Y84088D01*
X25860Y84158D01*
X24220D01*
X24219Y84160D01*
X24191Y84199D01*
X24187Y84217D01*
X24130Y84303D01*
X24105Y84363D01*
X24084Y84371D01*
X23968Y84545D01*
X23640Y84764D01*
X23254Y84841D01*
X20935D01*
X20549Y84764D01*
X20221Y84545D01*
X20105Y84371D01*
X20084Y84363D01*
X20059Y84303D01*
X20002Y84217D01*
X19998Y84199D01*
X19970Y84160D01*
X19969Y84158D01*
X18758D01*
X18720Y84173D01*
X18542Y84170D01*
X18534Y84167D01*
X18525Y84170D01*
X18375Y84161D01*
X18368Y84158D01*
X18354D01*
X18350Y84159D01*
X18338Y84158D01*
X18240D01*
X18143Y84139D01*
X17897Y84599D01*
X19980Y86682D01*
X39178D01*
X39385Y86182D01*
X37741Y84538D01*
X37706Y84526D01*
X37606Y84431D01*
X37589Y84418D01*
X37086D01*
X37083Y84418D01*
X37081Y84418D01*
X37000D01*
X36649Y84348D01*
X36427Y84200D01*
X36365Y84179D01*
X36308Y84174D01*
X36265Y84173D01*
X36230Y84158D01*
X35620D01*
X35619Y84160D01*
X35591Y84199D01*
X35587Y84217D01*
X35530Y84303D01*
X35505Y84363D01*
X35484Y84371D01*
X35368Y84545D01*
X35040Y84764D01*
X34654Y84841D01*
X32335D01*
X31949Y84764D01*
X31621Y84545D01*
X31402Y84217D01*
X31325Y83831D01*
Y82650D01*
X31402Y82263D01*
X31621Y81936D01*
X31949Y81717D01*
X32335Y81640D01*
X34654D01*
X35040Y81717D01*
X35368Y81936D01*
X35484Y82109D01*
X35505Y82118D01*
X35530Y82178D01*
X35587Y82263D01*
X35591Y82282D01*
X35619Y82320D01*
X35620Y82323D01*
X36090D01*
X36090Y82322D01*
X36103Y82280D01*
X36118Y82213D01*
X36148Y82171D01*
X36152Y82149D01*
X36192Y82089D01*
X36213Y82025D01*
X36245Y82010D01*
X36345Y81860D01*
X36200Y81509D01*
Y80991D01*
X36345Y80640D01*
X36152Y80351D01*
X36082Y80000D01*
Y79000D01*
X36152Y78649D01*
X36351Y78351D01*
X36649Y78152D01*
X37000Y78082D01*
X38000D01*
X38351Y78152D01*
X38649Y78351D01*
X38848Y78649D01*
X38918Y79000D01*
Y80000D01*
X38848Y80351D01*
X38655Y80640D01*
X38800Y80991D01*
Y81509D01*
X38655Y81860D01*
X38848Y82149D01*
X38918Y82500D01*
Y82581D01*
X38919Y82583D01*
X38918Y82586D01*
Y83089D01*
X38931Y83106D01*
X39026Y83206D01*
X39038Y83241D01*
X40580Y84782D01*
X42420D01*
X42982Y84220D01*
Y78100D01*
X43052Y77749D01*
X43251Y77451D01*
X50551Y70151D01*
X50849Y69952D01*
X51200Y69882D01*
X59020D01*
X61882Y67020D01*
Y32980D01*
X59791Y30889D01*
X59755Y30875D01*
X59688Y30810D01*
X59634Y30760D01*
X59531Y30675D01*
X59498Y30651D01*
X59471Y30635D01*
X59456Y30627D01*
X59440Y30623D01*
X59434Y30618D01*
X59430Y30617D01*
X59423Y30610D01*
X59410Y30600D01*
X59241D01*
X58764Y30402D01*
X58398Y30036D01*
X58220Y29606D01*
X57997Y29502D01*
X57700Y29419D01*
X46703Y40416D01*
X46862Y40796D01*
X46939Y40886D01*
X47853D01*
X47894Y40867D01*
X47960Y40865D01*
X48006Y40859D01*
X48050Y40850D01*
X48092Y40837D01*
X48134Y40821D01*
X48175Y40801D01*
X48217Y40776D01*
X48260Y40745D01*
X48304Y40709D01*
X48358Y40657D01*
X48434Y40628D01*
X48564Y40498D01*
X49041Y40300D01*
X49559D01*
X50036Y40498D01*
X50402Y40864D01*
X50600Y41341D01*
Y41859D01*
X50402Y42336D01*
X50036Y42702D01*
X49559Y42900D01*
X49041D01*
X48564Y42702D01*
X48434Y42573D01*
X48358Y42543D01*
X48304Y42491D01*
X48260Y42455D01*
X48217Y42424D01*
X48175Y42399D01*
X48134Y42379D01*
X48092Y42362D01*
X48050Y42350D01*
X48006Y42341D01*
X47960Y42335D01*
X47894Y42333D01*
X47853Y42314D01*
X47196D01*
X44971Y44538D01*
X45067Y44798D01*
X45217Y45000D01*
X45659D01*
X46136Y45198D01*
X46502Y45564D01*
X46700Y46041D01*
Y46559D01*
X46502Y47036D01*
X46136Y47402D01*
X45659Y47600D01*
X45475D01*
X45401Y47633D01*
X45325Y47635D01*
X45269Y47640D01*
X45217Y47649D01*
X45170Y47660D01*
X45126Y47675D01*
X45085Y47693D01*
X45046Y47714D01*
X45009Y47739D01*
X44973Y47767D01*
X44924Y47812D01*
X44882Y47828D01*
X43252Y49457D01*
X43020Y49612D01*
X42747Y49666D01*
X41048D01*
X41038Y49691D01*
X41014Y49701D01*
Y50670D01*
X41028D01*
X40919Y51216D01*
X40609Y51679D01*
X40146Y51989D01*
X39656Y52086D01*
X39705Y52586D01*
X42704D01*
X54395Y40895D01*
X54627Y40741D01*
X54900Y40686D01*
X57953D01*
X57994Y40667D01*
X58060Y40665D01*
X58106Y40659D01*
X58150Y40650D01*
X58192Y40637D01*
X58234Y40621D01*
X58275Y40601D01*
X58317Y40576D01*
X58360Y40545D01*
X58404Y40509D01*
X58458Y40457D01*
X58534Y40428D01*
X58664Y40298D01*
X59141Y40100D01*
X59659D01*
X60136Y40298D01*
X60502Y40664D01*
X60700Y41141D01*
Y41659D01*
X60502Y42136D01*
X60136Y42502D01*
X59659Y42700D01*
X59141D01*
X58664Y42502D01*
X58534Y42373D01*
X58458Y42343D01*
X58404Y42291D01*
X58360Y42255D01*
X58317Y42224D01*
X58275Y42199D01*
X58234Y42179D01*
X58192Y42162D01*
X58150Y42150D01*
X58106Y42141D01*
X58060Y42135D01*
X57994Y42133D01*
X57953Y42114D01*
X55196D01*
X52512Y44798D01*
X52542Y44966D01*
X52730Y45286D01*
X52953D01*
X52994Y45267D01*
X53060Y45265D01*
X53106Y45259D01*
X53150Y45250D01*
X53192Y45237D01*
X53234Y45221D01*
X53275Y45201D01*
X53317Y45176D01*
X53360Y45145D01*
X53404Y45109D01*
X53458Y45057D01*
X53534Y45028D01*
X53664Y44898D01*
X54141Y44700D01*
X54659D01*
X55136Y44898D01*
X55502Y45264D01*
X55700Y45741D01*
Y46259D01*
X55502Y46736D01*
X55136Y47102D01*
X54659Y47300D01*
X54141D01*
X53664Y47102D01*
X53534Y46973D01*
X53458Y46943D01*
X53404Y46891D01*
X53360Y46855D01*
X53317Y46824D01*
X53275Y46799D01*
X53234Y46779D01*
X53192Y46762D01*
X53150Y46750D01*
X53106Y46741D01*
X53060Y46735D01*
X52994Y46733D01*
X52953Y46714D01*
X52896D01*
X49520Y50090D01*
X49840Y50457D01*
X49840Y50457D01*
X50149Y50920D01*
X50258Y51467D01*
X50149Y52013D01*
X49840Y52476D01*
X49840Y52476D01*
X49377Y52785D01*
X48831Y52894D01*
X48672Y52862D01*
X48246Y53288D01*
X48278Y53446D01*
X48169Y53993D01*
X47860Y54456D01*
X47860Y54456D01*
X47397Y54765D01*
X46851Y54874D01*
X46304Y54765D01*
X45841Y54456D01*
X45363Y54422D01*
X45164Y54446D01*
X44505Y55105D01*
X44273Y55259D01*
X44000Y55314D01*
X35900D01*
X35627Y55259D01*
X35395Y55105D01*
X33894Y53603D01*
X25848D01*
X25838Y53628D01*
X25747Y53666D01*
X25674Y53731D01*
X25638Y53729D01*
X25604Y53752D01*
X25350Y53802D01*
X20850D01*
X20848Y53802D01*
X20379Y54120D01*
X20348Y54173D01*
Y59055D01*
X20375D01*
X20217Y60253D01*
X19755Y61368D01*
X19019Y62327D01*
X18061Y63062D01*
X16946Y63524D01*
X15748Y63682D01*
Y63655D01*
X-35433D01*
X-35433Y63657D01*
X-36839Y63796D01*
X-38192Y64206D01*
X-39438Y64872D01*
X-40530Y65769D01*
X-41427Y66861D01*
X-42093Y68107D01*
X-42503Y69460D01*
X-42642Y70866D01*
X-42642Y70866D01*
X-42642D01*
X-42644Y70869D01*
Y86114D01*
X-42642Y86614D01*
X-42642Y86614D01*
X-42642Y86614D01*
X-42503Y88020D01*
X-42093Y89373D01*
X-41427Y90619D01*
X-40530Y91711D01*
X-39438Y92608D01*
X-38192Y93274D01*
X-36839Y93684D01*
X-35433Y93823D01*
X-35433Y93826D01*
X-35433Y93826D01*
X59055D01*
Y93823D01*
D02*
G37*
G36*
X63613Y12406D02*
X63544Y12335D01*
X63433Y12203D01*
X63391Y12143D01*
X63358Y12087D01*
X63333Y12034D01*
X63317Y11985D01*
X63311Y11940D01*
X63313Y11899D01*
X63324Y11862D01*
X62150Y11850D01*
X62138Y10676D01*
X62101Y10687D01*
X62060Y10689D01*
X62015Y10683D01*
X61966Y10667D01*
X61913Y10643D01*
X61857Y10609D01*
X61797Y10567D01*
X61665Y10456D01*
X61594Y10387D01*
X61313Y11520D01*
X61669Y11845D01*
X62150Y11850D01*
X62155Y12331D01*
X62480Y12687D01*
X63613Y12406D01*
D02*
G37*
G36*
X58726Y11648D02*
X58890Y11511D01*
X58969Y11455D01*
X59047Y11407D01*
X59124Y11369D01*
X59199Y11339D01*
X59273Y11317D01*
X59346Y11304D01*
X59417Y11300D01*
Y10900D01*
X59346Y10896D01*
X59273Y10883D01*
X59199Y10861D01*
X59124Y10831D01*
X59047Y10792D01*
X58969Y10745D01*
X58890Y10689D01*
X58809Y10625D01*
X58726Y10552D01*
X58643Y10470D01*
Y11730D01*
X58726Y11648D01*
D02*
G37*
G36*
X-24356Y11873D02*
X-24205Y11752D01*
X-24049Y11647D01*
X-23888Y11555D01*
X-23720Y11477D01*
X-23546Y11413D01*
X-23367Y11364D01*
X-23181Y11328D01*
X-22990Y11307D01*
X-22793Y11300D01*
X-24000Y10300D01*
X-26207Y11300D01*
X-26024Y11307D01*
X-25875Y11328D01*
X-25761Y11364D01*
X-25680Y11413D01*
X-25634Y11477D01*
X-25622Y11555D01*
X-25644Y11647D01*
X-25700Y11752D01*
X-25790Y11873D01*
X-25914Y12007D01*
X-24500D01*
X-24356Y11873D01*
D02*
G37*
G36*
X4994Y10670D02*
X4937Y10608D01*
X4887Y10544D01*
X4842Y10476D01*
X4804Y10405D01*
X4771Y10330D01*
X4745Y10253D01*
X4724Y10171D01*
X4710Y10087D01*
X4702Y10000D01*
X4700Y9909D01*
X3809Y10800D01*
X3900Y10802D01*
X3987Y10810D01*
X4072Y10825D01*
X4152Y10845D01*
X4230Y10871D01*
X4305Y10904D01*
X4376Y10942D01*
X4444Y10987D01*
X4508Y11037D01*
X4570Y11094D01*
X4994Y10670D01*
D02*
G37*
G36*
X35310Y12110D02*
X35340Y11940D01*
X35390Y11790D01*
X35460Y11660D01*
X35550Y11550D01*
X35660Y11460D01*
X35790Y11390D01*
X35940Y11340D01*
X36110Y11310D01*
X36300Y11300D01*
X36007Y10300D01*
X35810Y10293D01*
X35619Y10272D01*
X35434Y10236D01*
X35254Y10187D01*
X35080Y10123D01*
X34912Y10045D01*
X34751Y9954D01*
X34595Y9848D01*
X34444Y9727D01*
X34300Y9593D01*
X33593Y10300D01*
X33727Y10444D01*
X33847Y10595D01*
X33953Y10751D01*
X34045Y10913D01*
X34123Y11080D01*
X34187Y11254D01*
X34236Y11434D01*
X34272Y11619D01*
X34293Y11810D01*
X34300Y12007D01*
X35300Y12300D01*
X35310Y12110D01*
D02*
G37*
G36*
X22614Y11507D02*
X22487Y11366D01*
X22388Y11224D01*
X22317Y11083D01*
X22275Y10941D01*
X22261Y10800D01*
X22275Y10659D01*
X22317Y10517D01*
X22388Y10376D01*
X22487Y10234D01*
X22614Y10093D01*
X21700Y9593D01*
X21556Y9727D01*
X21405Y9848D01*
X21249Y9954D01*
X21088Y10045D01*
X20920Y10123D01*
X20746Y10187D01*
X20567Y10236D01*
X20381Y10272D01*
X20190Y10293D01*
X19993Y10300D01*
Y11300D01*
X20190Y11307D01*
X20381Y11328D01*
X20567Y11364D01*
X20746Y11413D01*
X20920Y11477D01*
X21088Y11555D01*
X21249Y11647D01*
X21405Y11752D01*
X21556Y11873D01*
X21700Y12007D01*
X22614Y11507D01*
D02*
G37*
G36*
X-4186D02*
X-4313Y11366D01*
X-4412Y11224D01*
X-4483Y11083D01*
X-4525Y10941D01*
X-4539Y10800D01*
X-4525Y10659D01*
X-4483Y10517D01*
X-4412Y10376D01*
X-4313Y10234D01*
X-4186Y10093D01*
X-5100Y9593D01*
X-5244Y9727D01*
X-5395Y9848D01*
X-5551Y9954D01*
X-5713Y10045D01*
X-5880Y10123D01*
X-6054Y10187D01*
X-6233Y10236D01*
X-6419Y10272D01*
X-6610Y10293D01*
X-6807Y10300D01*
Y11300D01*
X-6610Y11307D01*
X-6419Y11328D01*
X-6233Y11364D01*
X-6054Y11413D01*
X-5880Y11477D01*
X-5713Y11555D01*
X-5551Y11647D01*
X-5395Y11752D01*
X-5244Y11873D01*
X-5100Y12007D01*
X-4186Y11507D01*
D02*
G37*
G36*
X63403Y11453D02*
X63414Y11411D01*
X63432Y11365D01*
X63457Y11316D01*
X63490Y11263D01*
X63530Y11206D01*
X63633Y11082D01*
X63695Y11014D01*
X63721Y10988D01*
X63757Y10952D01*
X63887Y10841D01*
X63945Y10800D01*
X63999Y10768D01*
X64048Y10745D01*
X64092Y10731D01*
X64132Y10727D01*
X64167Y10732D01*
X64197Y10747D01*
X63912Y9564D01*
X63083Y10210D01*
X63231Y10408D01*
X63057Y10236D01*
X62986Y10305D01*
X62794Y10470D01*
X62737Y10510D01*
X62684Y10543D01*
X62635Y10568D01*
X62589Y10586D01*
X62547Y10597D01*
X62509Y10600D01*
X63400Y11491D01*
X63403Y11453D01*
D02*
G37*
%LPC*%
G36*
X15460Y82695D02*
X15449Y82680D01*
X15399Y82581D01*
X15368Y82487D01*
X15355Y82397D01*
X15360Y82312D01*
X15383Y82231D01*
X15425Y82155D01*
X15460Y82114D01*
Y82695D01*
D02*
G37*
G36*
X38000Y77418D02*
X37000D01*
X36649Y77348D01*
X36351Y77149D01*
X36245Y76990D01*
X36213Y76974D01*
X36192Y76911D01*
X36152Y76851D01*
X36148Y76829D01*
X36118Y76787D01*
X36103Y76720D01*
X36090Y76678D01*
X36090Y76678D01*
X35620D01*
X35619Y76679D01*
X35591Y76718D01*
X35587Y76737D01*
X35530Y76822D01*
X35505Y76882D01*
X35484Y76891D01*
X35368Y77065D01*
X35040Y77284D01*
X34654Y77360D01*
X32335D01*
X31949Y77284D01*
X31621Y77065D01*
X31402Y76737D01*
X31325Y76350D01*
Y75169D01*
X31402Y74783D01*
X31621Y74455D01*
X31949Y74236D01*
X32335Y74159D01*
X34654D01*
X35040Y74236D01*
X35368Y74455D01*
X35484Y74629D01*
X35505Y74637D01*
X35530Y74697D01*
X35587Y74783D01*
X35591Y74801D01*
X35619Y74840D01*
X35620Y74842D01*
X36224D01*
X36256Y74827D01*
X36351Y74823D01*
X36364Y74822D01*
X36364Y74821D01*
X36427Y74800D01*
X36649Y74652D01*
X37000Y74582D01*
X38000D01*
X38351Y74652D01*
X38649Y74851D01*
X38848Y75149D01*
X38918Y75500D01*
Y76500D01*
X38848Y76851D01*
X38649Y77149D01*
X38351Y77348D01*
X38000Y77418D01*
D02*
G37*
G36*
X-9141Y74500D02*
X-9659D01*
X-10136Y74302D01*
X-10502Y73936D01*
X-10700Y73459D01*
Y72941D01*
X-10502Y72464D01*
X-10136Y72098D01*
X-9659Y71900D01*
X-9490D01*
X-9477Y71890D01*
X-9470Y71883D01*
X-9466Y71882D01*
X-9460Y71877D01*
X-9444Y71873D01*
X-9429Y71865D01*
X-9402Y71849D01*
X-9373Y71828D01*
X-9206Y71685D01*
X-9145Y71625D01*
X-9109Y71611D01*
X-8849Y71351D01*
X-8551Y71152D01*
X-8319Y71106D01*
X-8149Y70851D01*
X-7851Y70652D01*
X-7500Y70582D01*
X-6500D01*
X-6149Y70652D01*
X-5851Y70851D01*
X-5652Y71149D01*
X-5582Y71500D01*
Y72500D01*
X-5652Y72851D01*
X-5851Y73149D01*
X-6149Y73348D01*
X-6500Y73418D01*
X-7500D01*
X-7600Y73398D01*
X-7940Y73439D01*
X-8205Y73713D01*
X-8298Y73936D01*
X-8664Y74302D01*
X-9141Y74500D01*
D02*
G37*
G36*
X-8088Y84453D02*
X-8605D01*
X-9083Y84256D01*
X-9449Y83890D01*
X-9646Y83412D01*
Y82895D01*
X-9449Y82417D01*
X-9083Y82051D01*
X-8605Y81853D01*
X-8088D01*
X-7610Y82051D01*
X-7491Y82171D01*
X-7475Y82173D01*
X-7465Y82173D01*
X-7461Y82175D01*
X-7453Y82176D01*
X-7440Y82184D01*
X-7423Y82189D01*
X-7392Y82197D01*
X-7357Y82203D01*
X-7138Y82219D01*
X-7052Y82221D01*
X-7017Y82236D01*
X-5834D01*
X-3918Y80320D01*
Y73345D01*
X-3933Y73312D01*
X-3933Y73293D01*
X-3937Y73291D01*
X-3997Y73266D01*
X-4005Y73245D01*
X-4149Y73149D01*
X-4348Y72851D01*
X-4418Y72500D01*
Y71500D01*
X-4348Y71149D01*
X-4149Y70851D01*
X-3851Y70652D01*
X-3500Y70582D01*
X-2500D01*
X-2149Y70652D01*
X-1851Y70851D01*
X-1755Y70995D01*
X-1734Y71003D01*
X-1709Y71063D01*
X-1707Y71067D01*
X-1688Y71067D01*
X-1655Y71082D01*
X-845D01*
X-812Y71067D01*
X-793Y71067D01*
X-791Y71063D01*
X-766Y71003D01*
X-745Y70995D01*
X-649Y70851D01*
X-505Y70755D01*
X-497Y70734D01*
X-437Y70709D01*
X-433Y70707D01*
X-433Y70688D01*
X-418Y70655D01*
Y69845D01*
X-433Y69812D01*
X-433Y69793D01*
X-437Y69791D01*
X-497Y69766D01*
X-505Y69745D01*
X-649Y69649D01*
X-848Y69351D01*
X-918Y69000D01*
Y68000D01*
X-848Y67649D01*
X-649Y67351D01*
X-351Y67152D01*
X0Y67082D01*
X1000D01*
X1351Y67152D01*
X1649Y67351D01*
X1848Y67649D01*
X1918Y68000D01*
Y69000D01*
X1848Y69351D01*
X1649Y69649D01*
X1505Y69745D01*
X1497Y69766D01*
X1437Y69791D01*
X1433Y69793D01*
X1433Y69812D01*
X1418Y69845D01*
Y70655D01*
X1433Y70688D01*
X1433Y70707D01*
X1437Y70709D01*
X1497Y70734D01*
X1505Y70755D01*
X1649Y70851D01*
X1848Y71149D01*
X1918Y71500D01*
Y72500D01*
X1848Y72851D01*
X1649Y73149D01*
X1351Y73348D01*
X1000Y73418D01*
X0D01*
X-351Y73348D01*
X-649Y73149D01*
X-745Y73005D01*
X-766Y72997D01*
X-791Y72937D01*
X-793Y72933D01*
X-812Y72933D01*
X-845Y72918D01*
X-1655D01*
X-1688Y72933D01*
X-1707Y72933D01*
X-1709Y72937D01*
X-1734Y72997D01*
X-1755Y73005D01*
X-1851Y73149D01*
X-1995Y73245D01*
X-2003Y73266D01*
X-2063Y73291D01*
X-2067Y73293D01*
X-2067Y73312D01*
X-2082Y73345D01*
Y80700D01*
X-2152Y81051D01*
X-2351Y81349D01*
X-4805Y83802D01*
X-5102Y84001D01*
X-5454Y84071D01*
X-7017D01*
X-7052Y84087D01*
X-7146Y84088D01*
X-7220Y84091D01*
X-7353Y84104D01*
X-7392Y84110D01*
X-7423Y84118D01*
X-7440Y84123D01*
X-7453Y84131D01*
X-7461Y84132D01*
X-7465Y84134D01*
X-7475Y84134D01*
X-7491Y84136D01*
X-7610Y84256D01*
X-8088Y84453D01*
D02*
G37*
G36*
X28559Y62000D02*
X28041D01*
X27564Y61802D01*
X27198Y61436D01*
X27000Y60959D01*
Y60441D01*
X27198Y59964D01*
X27329Y59832D01*
X27360Y59755D01*
X27435Y59678D01*
X27494Y59612D01*
X27543Y59551D01*
X27582Y59494D01*
X27613Y59443D01*
X27636Y59398D01*
X27651Y59362D01*
Y57069D01*
X27487Y56906D01*
X27451Y56890D01*
X27403Y56874D01*
X27345Y56860D01*
X27283Y56849D01*
X27105Y56834D01*
X27004Y56833D01*
X26927Y56800D01*
X26741D01*
X26264Y56602D01*
X25898Y56236D01*
X25700Y55759D01*
Y55241D01*
X25898Y54764D01*
X26264Y54398D01*
X26741Y54200D01*
X27259D01*
X27736Y54398D01*
X28102Y54764D01*
X28300Y55241D01*
Y55427D01*
X28333Y55504D01*
X28334Y55611D01*
X28339Y55699D01*
X28348Y55777D01*
X28360Y55845D01*
X28374Y55903D01*
X28390Y55951D01*
X28405Y55987D01*
X28759Y56341D01*
X28949Y56800D01*
Y59362D01*
X28964Y59398D01*
X28987Y59443D01*
X29017Y59494D01*
X29054Y59546D01*
X29169Y59682D01*
X29240Y59755D01*
X29271Y59832D01*
X29402Y59964D01*
X29600Y60441D01*
Y60959D01*
X29402Y61436D01*
X29036Y61802D01*
X28559Y62000D01*
D02*
G37*
%LPD*%
G36*
X36648Y75148D02*
X36631Y75169D01*
X36609Y75188D01*
X36583Y75205D01*
X36552Y75220D01*
X36517Y75232D01*
X36478Y75242D01*
X36433Y75250D01*
X36384Y75255D01*
X36274Y75260D01*
X36202Y76260D01*
X36251Y76264D01*
X36297Y76277D01*
X36339Y76299D01*
X36378Y76329D01*
X36413Y76367D01*
X36445Y76415D01*
X36474Y76471D01*
X36499Y76535D01*
X36522Y76609D01*
X36540Y76690D01*
X36648Y75148D01*
D02*
G37*
G36*
X35214Y76516D02*
X35233Y76462D01*
X35256Y76415D01*
X35284Y76374D01*
X35317Y76339D01*
X35353Y76310D01*
X35394Y76288D01*
X35440Y76272D01*
X35490Y76263D01*
X35544Y76260D01*
Y75260D01*
X35490Y75257D01*
X35440Y75247D01*
X35394Y75231D01*
X35353Y75209D01*
X35317Y75181D01*
X35284Y75146D01*
X35256Y75105D01*
X35233Y75057D01*
X35214Y75004D01*
X35199Y74944D01*
Y76576D01*
X35214Y76516D01*
D02*
G37*
G36*
X-8497Y73153D02*
X-8486Y73111D01*
X-8468Y73065D01*
X-8443Y73016D01*
X-8410Y72963D01*
X-8370Y72906D01*
X-8267Y72782D01*
X-8205Y72714D01*
X-8135Y72643D01*
X-8843Y71935D01*
X-8914Y72005D01*
X-9106Y72170D01*
X-9163Y72210D01*
X-9216Y72243D01*
X-9265Y72268D01*
X-9311Y72286D01*
X-9353Y72297D01*
X-9391Y72300D01*
X-8500Y73191D01*
X-8497Y73153D01*
D02*
G37*
G36*
X-7951Y71328D02*
X-7954Y71360D01*
X-7961Y71390D01*
X-7973Y71416D01*
X-7991Y71438D01*
X-8013Y71457D01*
X-8041Y71472D01*
X-8073Y71485D01*
X-8110Y71493D01*
X-8153Y71498D01*
X-8200Y71500D01*
Y72500D01*
X-8153Y72502D01*
X-8110Y72507D01*
X-8073Y72515D01*
X-8041Y72528D01*
X-8013Y72543D01*
X-7991Y72562D01*
X-7973Y72584D01*
X-7961Y72610D01*
X-7954Y72640D01*
X-7951Y72672D01*
Y71328D01*
D02*
G37*
G36*
X-7674Y83759D02*
X-7637Y83737D01*
X-7592Y83717D01*
X-7539Y83700D01*
X-7479Y83686D01*
X-7410Y83674D01*
X-7250Y83659D01*
X-7158Y83655D01*
X-7058Y83653D01*
Y82653D01*
X-7158Y82652D01*
X-7410Y82633D01*
X-7479Y82621D01*
X-7539Y82607D01*
X-7592Y82590D01*
X-7637Y82570D01*
X-7674Y82548D01*
X-7704Y82524D01*
Y83784D01*
X-7674Y83759D01*
D02*
G37*
G36*
X-2498Y73240D02*
X-2492Y73188D01*
X-2483Y73141D01*
X-2469Y73099D01*
X-2452Y73063D01*
X-2431Y73032D01*
X-2407Y73006D01*
X-2378Y72985D01*
X-2346Y72970D01*
X-2310Y72960D01*
X-3690D01*
X-3654Y72970D01*
X-3622Y72985D01*
X-3593Y73006D01*
X-3568Y73032D01*
X-3548Y73063D01*
X-3531Y73099D01*
X-3517Y73141D01*
X-3508Y73188D01*
X-3502Y73240D01*
X-3500Y73298D01*
X-2500D01*
X-2498Y73240D01*
D02*
G37*
G36*
X-460Y71310D02*
X-470Y71346D01*
X-485Y71378D01*
X-506Y71407D01*
X-532Y71431D01*
X-563Y71452D01*
X-599Y71469D01*
X-641Y71483D01*
X-688Y71492D01*
X-740Y71498D01*
X-798Y71500D01*
Y72500D01*
X-740Y72502D01*
X-688Y72508D01*
X-641Y72517D01*
X-599Y72531D01*
X-563Y72548D01*
X-532Y72569D01*
X-506Y72593D01*
X-485Y72622D01*
X-470Y72654D01*
X-460Y72690D01*
Y71310D01*
D02*
G37*
G36*
X-2030Y72654D02*
X-2015Y72622D01*
X-1994Y72593D01*
X-1968Y72569D01*
X-1937Y72548D01*
X-1901Y72531D01*
X-1859Y72517D01*
X-1812Y72508D01*
X-1760Y72502D01*
X-1702Y72500D01*
Y71500D01*
X-1760Y71498D01*
X-1812Y71492D01*
X-1859Y71483D01*
X-1901Y71469D01*
X-1937Y71452D01*
X-1968Y71431D01*
X-1994Y71407D01*
X-2015Y71378D01*
X-2030Y71346D01*
X-2040Y71310D01*
Y72690D01*
X-2030Y72654D01*
D02*
G37*
G36*
X1154Y71030D02*
X1122Y71015D01*
X1093Y70994D01*
X1068Y70968D01*
X1048Y70937D01*
X1030Y70900D01*
X1017Y70859D01*
X1008Y70812D01*
X1002Y70760D01*
X1000Y70702D01*
X0D01*
X-2Y70760D01*
X-8Y70812D01*
X-17Y70859D01*
X-30Y70900D01*
X-48Y70937D01*
X-69Y70968D01*
X-93Y70994D01*
X-122Y71015D01*
X-154Y71030D01*
X-190Y71040D01*
X1190D01*
X1154Y71030D01*
D02*
G37*
G36*
X1002Y69740D02*
X1008Y69688D01*
X1017Y69641D01*
X1030Y69599D01*
X1048Y69563D01*
X1068Y69532D01*
X1093Y69506D01*
X1122Y69485D01*
X1154Y69470D01*
X1190Y69460D01*
X-190D01*
X-154Y69470D01*
X-122Y69485D01*
X-93Y69506D01*
X-69Y69532D01*
X-48Y69563D01*
X-30Y69599D01*
X-17Y69641D01*
X-8Y69688D01*
X-2Y69740D01*
X0Y69798D01*
X1000D01*
X1002Y69740D01*
D02*
G37*
G36*
X28848Y59974D02*
X28711Y59811D01*
X28655Y59731D01*
X28607Y59653D01*
X28569Y59576D01*
X28539Y59501D01*
X28517Y59426D01*
X28504Y59354D01*
X28500Y59282D01*
X28100D01*
X28096Y59354D01*
X28083Y59426D01*
X28061Y59501D01*
X28031Y59576D01*
X27992Y59653D01*
X27945Y59731D01*
X27889Y59811D01*
X27825Y59891D01*
X27752Y59974D01*
X27670Y60057D01*
X28930D01*
X28848Y59974D01*
D02*
G37*
G36*
X28144Y56361D02*
X28096Y56307D01*
X28054Y56247D01*
X28017Y56179D01*
X27985Y56105D01*
X27958Y56023D01*
X27936Y55934D01*
X27919Y55839D01*
X27908Y55736D01*
X27901Y55626D01*
X27900Y55509D01*
X27009Y56400D01*
X27126Y56401D01*
X27338Y56419D01*
X27434Y56436D01*
X27523Y56458D01*
X27605Y56485D01*
X27679Y56517D01*
X27747Y56554D01*
X27807Y56596D01*
X27861Y56644D01*
X28144Y56361D01*
D02*
G37*
D12*
X44500Y67000D02*
X45500Y68000D01*
X46500D01*
X43500D02*
X45500D01*
X41800Y70300D02*
X43500Y72000D01*
X43900Y78100D02*
X51200Y70800D01*
X45300Y78680D02*
Y85500D01*
X43900Y78100D02*
Y84600D01*
X51200Y70800D02*
X59400D01*
X51780Y72200D02*
X59980D01*
X45300Y78680D02*
X51780Y72200D01*
X59980D02*
X64800Y67380D01*
X43200Y87600D02*
X45300Y85500D01*
X64800Y14300D02*
Y67380D01*
X59100Y8600D02*
X64800Y14300D01*
X29200Y70300D02*
X41800D01*
X25960Y73540D02*
X29200Y70300D01*
X25960Y73540D02*
Y75760D01*
X34800Y10800D02*
Y14800D01*
X44500Y24500D01*
X46500D01*
X49929Y21071D01*
Y19800D02*
Y21071D01*
X34800Y10800D02*
X46500D01*
X23900Y8100D02*
X32100D01*
X34800Y10800D01*
X33200Y35300D02*
Y38500D01*
X24900Y21600D02*
Y27000D01*
X33200Y35300D01*
X62500Y11500D02*
X64000Y10000D01*
X64700D01*
X48700Y8600D02*
X59100D01*
X46500Y10800D02*
X48700Y8600D01*
X19600Y87600D02*
X43200D01*
X14500Y82500D02*
X19600Y87600D01*
X-2200Y7400D02*
X5100D01*
X-5600Y10800D02*
X-2200Y7400D01*
X5100D02*
X8500Y10800D01*
X21200D02*
X23900Y8100D01*
X30621Y41079D02*
X33200Y38500D01*
X23100Y41079D02*
X30621D01*
X22095Y75760D02*
X25960D01*
X28200Y78000D01*
Y80900D01*
X25860Y83240D02*
X28200Y80900D01*
X22095Y83240D02*
X25860D01*
X18240D02*
X22095D01*
X17500Y82500D02*
X18240Y83240D01*
X14500Y82500D02*
X17500D01*
X23961Y13561D02*
Y19800D01*
X8500Y10800D02*
X21200D01*
X-53945Y14445D02*
Y19800D01*
Y14445D02*
X-50300Y10800D01*
X-24000D01*
X-5600D01*
X-2008Y14392D01*
Y19800D01*
X21200Y10800D02*
X23961Y13561D01*
X-27976Y14776D02*
X-24000Y10800D01*
X-27976Y14776D02*
Y19800D01*
X59400Y70800D02*
X62800Y67400D01*
Y32600D02*
Y67400D01*
X59500Y29300D02*
X62800Y32600D01*
X42800Y85700D02*
X43900Y84600D01*
X37500Y83000D02*
X40200Y85700D01*
X42800D01*
X37500Y81250D02*
Y83000D01*
Y79500D02*
Y81250D01*
X-3000Y72000D02*
Y80700D01*
X-5454Y83153D02*
X-3000Y80700D01*
X-8347Y83153D02*
X-5454D01*
X-9400Y73200D02*
X-8200Y72000D01*
X-7000D01*
X500Y68500D02*
Y72000D01*
X-3000D02*
X500D01*
X33494Y75760D02*
X37260D01*
X37260Y83240D02*
X37500Y83000D01*
X33494Y83240D02*
X37260D01*
D13*
X35500Y64563D02*
D03*
Y27437D02*
D03*
D14*
X62366Y5300D02*
D03*
X41429D02*
D03*
X36398D02*
D03*
X15461D02*
D03*
X10429D02*
D03*
X-10508D02*
D03*
X-15539D02*
D03*
X-36476D02*
D03*
X-41508D02*
D03*
X-62445D02*
D03*
D15*
X43500Y72000D02*
D03*
Y68000D02*
D03*
X46500D02*
D03*
Y72000D02*
D03*
X17500Y78500D02*
D03*
Y82500D02*
D03*
X14500Y78500D02*
D03*
Y82500D02*
D03*
D16*
X22095Y75760D02*
D03*
Y79500D02*
D03*
Y83240D02*
D03*
X33494D02*
D03*
Y75760D02*
D03*
D17*
X-7000Y72000D02*
D03*
X-3000D02*
D03*
X4500D02*
D03*
X500D02*
D03*
X4500Y68500D02*
D03*
X500D02*
D03*
X41500Y83000D02*
D03*
X37500D02*
D03*
X41500Y79500D02*
D03*
X37500D02*
D03*
X41500Y76000D02*
D03*
X37500D02*
D03*
D18*
X23100Y52890D02*
D03*
Y50921D02*
D03*
Y48953D02*
D03*
Y46984D02*
D03*
Y45016D02*
D03*
Y43047D02*
D03*
Y41079D02*
D03*
Y39110D02*
D03*
D19*
X57803Y19800D02*
D03*
X53866D02*
D03*
X49929D02*
D03*
X45992D02*
D03*
X31835D02*
D03*
X27898D02*
D03*
X23961D02*
D03*
X20024D02*
D03*
X5866D02*
D03*
X1929D02*
D03*
X-2008D02*
D03*
X-5945D02*
D03*
X-46071D02*
D03*
X-50008D02*
D03*
X-53945D02*
D03*
X-57882D02*
D03*
X-20102D02*
D03*
X-24039D02*
D03*
X-27976D02*
D03*
X-31913D02*
D03*
D28*
X44587Y40313D02*
G03*
X43738Y40313I-424J-424D01*
G01*
X42501Y39924D02*
G03*
X43350Y39924I424J424D01*
G01*
X42501Y40773D02*
G03*
X42501Y39924I424J-424D01*
G01*
X42890Y41162D02*
G03*
X42890Y42010I-424J424D01*
G01*
X13353Y19876D02*
G03*
X13777Y19700I424J424D01*
G01*
X11975Y21253D02*
G03*
X11127Y21253I-424J-424D01*
G01*
X11127Y21253D02*
G03*
X11127Y20404I424J-424D01*
G01*
X11942Y18742D02*
G03*
X11942Y19590I-424J424D01*
G01*
X28300Y56800D02*
Y60700D01*
X27000Y55500D02*
X28300Y56800D01*
X44587Y40313D02*
X45200Y39700D01*
X44587Y40313D02*
X44587Y40313D01*
X43350Y39924D02*
X43738Y40313D01*
X43350Y39924D02*
X43350D01*
X42501Y39924D02*
X42501Y39924D01*
X42501Y39924D02*
X42501Y39924D01*
X42501D02*
X42501Y39924D01*
Y40773D02*
X42890Y41162D01*
X42890Y42010D02*
X42890Y42010D01*
X41900Y43000D02*
X42890Y42010D01*
X45200Y39700D02*
X58100Y26800D01*
X39300Y43000D02*
X41900D01*
X52000Y11000D02*
X53800Y12800D01*
X60200D01*
X62900Y15500D01*
Y25200D01*
X59900Y11100D02*
X63700Y14900D01*
X58600Y27600D02*
X61631D01*
X58000Y11100D02*
X59900D01*
X63700Y14900D02*
Y25531D01*
X61631Y27600D02*
X63700Y25531D01*
X61300Y26800D02*
X62900Y25200D01*
X58100Y26800D02*
X61300D01*
X41200Y45000D02*
X58600Y27600D01*
X34900Y45000D02*
X41200D01*
X13777Y19700D02*
X15700D01*
X11975Y21253D02*
X13353Y19876D01*
X11127Y21253D02*
X11127Y21253D01*
X11127Y20404D02*
X11942Y19590D01*
X11942Y19590D02*
X11942Y19590D01*
X11800Y18600D02*
X11942Y18742D01*
X15700Y19700D02*
X16100D01*
X10700Y17500D02*
X11800Y18600D01*
X28600Y32500D02*
Y37600D01*
X26500Y37000D02*
X27600Y35900D01*
X26200Y37000D02*
X26500D01*
X27600Y32800D02*
Y35900D01*
X16100Y19700D02*
X17300Y18500D01*
Y17231D02*
Y18500D01*
X19131Y15400D02*
X20869D01*
X17300Y17231D02*
X19131Y15400D01*
X21700Y16231D02*
Y26900D01*
X20869Y15400D02*
X21700Y16231D01*
Y26900D02*
X27600Y32800D01*
X22500Y26400D02*
X28600Y32500D01*
X21200Y14600D02*
X22500Y15900D01*
X18800Y14600D02*
X21200D01*
X15900Y17500D02*
X18800Y14600D01*
X14700Y17500D02*
X15900D01*
X22500Y15900D02*
Y26400D01*
D29*
X48972Y50618D02*
G03*
X48972Y49628I495J-495D01*
G01*
X49325Y50972D02*
G03*
X49325Y51961I-495J495D01*
G01*
X49325Y51961D02*
G03*
X48336Y51961I-495J-495D01*
G01*
X46699Y51315D02*
G03*
X47689Y51315I495J495D01*
G01*
X46699Y52305D02*
G03*
X46699Y51315I495J-495D01*
G01*
X47346Y52951D02*
G03*
X47346Y53941I-495J495D01*
G01*
D02*
G03*
X46356Y53941I-495J-495D01*
G01*
X45012Y53588D02*
G03*
X46002Y53588I495J495D01*
G01*
X40300Y49653D02*
G03*
X41000Y48953I700J0D01*
G01*
X40300Y50670D02*
G03*
X38900Y50670I-700J0D01*
G01*
X38200Y48953D02*
G03*
X38900Y49653I0J700D01*
G01*
X59096Y13700D02*
X61900Y16504D01*
X56600Y13700D02*
X59096D01*
X61900Y16504D02*
Y20203D01*
X57775Y24327D02*
X61900Y20203D01*
X58173Y25327D02*
X59973D01*
X61300Y24000D01*
X38300Y38600D02*
X44900D01*
X58173Y25327D01*
X37714Y37586D02*
X44500D01*
X57759Y24327D01*
X57775D01*
X23100Y43047D02*
X32253D01*
X37714Y37586D01*
X27000Y44200D02*
X32700D01*
X38300Y38600D01*
X36800Y53300D02*
X43000D01*
X54900Y41400D02*
X59400D01*
X43000Y53300D02*
X54900Y41400D01*
X48972Y49628D02*
X50750Y47850D01*
X48972Y50618D02*
X49325Y50972D01*
X49325Y51961D02*
X49325Y51961D01*
X48336D02*
Y51961D01*
X47689Y51315D02*
X48336Y51961D01*
X46699Y51315D02*
X46699Y51315D01*
X46699Y51315D02*
X46699Y51315D01*
X46699D02*
X46699Y51315D01*
Y52305D02*
Y52305D01*
X47346Y52951D01*
X46356Y53941D02*
Y53941D01*
X46002Y53588D02*
X46356Y53941D01*
X44800Y53800D02*
X45012Y53588D01*
X50750Y47850D02*
X52600Y46000D01*
X44000Y54600D02*
X44800Y53800D01*
X52600Y46000D02*
X54400D01*
X35900Y54600D02*
X44000D01*
X34421Y50921D02*
X36800Y53300D01*
X34190Y52890D02*
X35900Y54600D01*
X23100Y52890D02*
X34190D01*
X23100Y50921D02*
X34421D01*
X23100Y48953D02*
X37900D01*
X41000D02*
X42276D01*
X40300Y49653D02*
Y50670D01*
X38900Y49653D02*
Y50670D01*
X37900Y48953D02*
X38200D01*
X42276D02*
X42747D01*
X45400Y46300D01*
X23100Y46984D02*
X41516D01*
X46900Y41600D02*
X49300D01*
X41516Y46984D02*
X46900Y41600D01*
X53300Y26700D02*
X57803Y22197D01*
X45003Y26700D02*
X53300D01*
X26184Y45016D02*
X27000Y44200D01*
X23100Y45016D02*
X26184D01*
X31835Y19800D02*
X38103D01*
X45003Y26700D01*
X24842Y10658D02*
X25958D01*
X29000Y13700D01*
X53866Y16434D02*
X53900Y16400D01*
X56600Y13700D01*
X57803Y16503D02*
Y19800D01*
Y22197D01*
X1200Y12100D02*
X1929Y12829D01*
Y19800D01*
X5866Y11966D02*
Y19800D01*
X3800Y9900D02*
X5866Y11966D01*
X-46071Y14871D02*
Y19800D01*
X-50008Y14871D02*
Y19800D01*
X57800Y16500D02*
X57803Y16503D01*
X53866Y16434D02*
Y19800D01*
X29000Y13700D02*
X31835Y16535D01*
Y19800D01*
X26600Y14500D02*
X27898Y15798D01*
Y19800D01*
D30*
X24900Y19300D02*
Y21600D01*
Y17000D02*
Y19300D01*
D31*
X55118Y82677D02*
D03*
X-31496D02*
D03*
D32*
X36500Y58000D02*
D03*
X28300Y60700D02*
D03*
X27000Y55500D02*
D03*
X25960Y75760D02*
D03*
X64700Y10000D02*
D03*
X62500Y11500D02*
D03*
X24900Y17000D02*
D03*
Y19300D02*
D03*
Y21600D02*
D03*
X30500Y56000D02*
D03*
X33500D02*
D03*
X-43500Y5000D02*
D03*
X-35500D02*
D03*
X-39500D02*
D03*
X-11500D02*
D03*
X-15500D02*
D03*
X-19500D02*
D03*
X16500D02*
D03*
X12500D02*
D03*
X8500D02*
D03*
X44500Y67000D02*
D03*
X52000Y58000D02*
D03*
X31000Y36500D02*
D03*
X58500Y37000D02*
D03*
X56000Y34000D02*
D03*
X53500Y37000D02*
D03*
X56500Y52000D02*
D03*
X52000Y53500D02*
D03*
X49000Y56500D02*
D03*
X44500Y58031D02*
D03*
X39500Y58000D02*
D03*
X39300Y43000D02*
D03*
X34900Y45000D02*
D03*
X58000Y11100D02*
D03*
X52000Y11000D02*
D03*
X28600Y37600D02*
D03*
X26200Y37000D02*
D03*
X54400Y46000D02*
D03*
X59400Y41400D02*
D03*
X45400Y46300D02*
D03*
X49300Y41600D02*
D03*
X10700Y17500D02*
D03*
X47300Y13200D02*
D03*
X60200Y19100D02*
D03*
X29400Y4900D02*
D03*
X26100D02*
D03*
X61300Y24000D02*
D03*
X49500Y24600D02*
D03*
X52400Y24500D02*
D03*
X49200Y14700D02*
D03*
X59500Y29300D02*
D03*
X40900Y32800D02*
D03*
X36900D02*
D03*
X-10000Y21500D02*
D03*
X-13500Y14500D02*
D03*
X-17000D02*
D03*
X-35000D02*
D03*
X-38000D02*
D03*
X-41000D02*
D03*
X49000Y30000D02*
D03*
X46000Y5500D02*
D03*
X41500Y5000D02*
D03*
X500D02*
D03*
X4500D02*
D03*
X-7500D02*
D03*
X-3500D02*
D03*
X-31500D02*
D03*
X-27500D02*
D03*
X-23500D02*
D03*
X-47500D02*
D03*
X-51500D02*
D03*
X-55500D02*
D03*
X-59500D02*
D03*
X20024Y19800D02*
D03*
X20000Y17500D02*
D03*
X22000Y30500D02*
D03*
Y33000D02*
D03*
X24900Y34500D02*
D03*
X46500Y30500D02*
D03*
X39500Y73500D02*
D03*
X37000Y73000D02*
D03*
X34000Y79500D02*
D03*
X31000D02*
D03*
X24000D02*
D03*
X-8000Y68000D02*
D03*
X-11500D02*
D03*
X8500Y82000D02*
D03*
X17000Y76500D02*
D03*
X13000D02*
D03*
X20500Y66500D02*
D03*
X17500D02*
D03*
X14500D02*
D03*
X11500D02*
D03*
X8500D02*
D03*
X37500Y81250D02*
D03*
X-8347Y83153D02*
D03*
X-9400Y73200D02*
D03*
X14700Y17500D02*
D03*
X1200Y12100D02*
D03*
X3800Y9900D02*
D03*
X24842Y10658D02*
D03*
X-46071Y14871D02*
D03*
X-50008D02*
D03*
X57800Y16500D02*
D03*
X53900Y16400D02*
D03*
X29000Y13700D02*
D03*
X26600Y14500D02*
D03*
X-20100Y17300D02*
D03*
X-24100Y17200D02*
D03*
M02*
