G04*
G04 #@! TF.GenerationSoftware,Altium Limited,Altium Designer,22.0.2 (36)*
G04*
G04 Layer_Color=255*
%FSLAX25Y25*%
%MOIN*%
G70*
G04*
G04 #@! TF.SameCoordinates,5C43ECB9-E52E-4D68-B8B3-2A23C74EF960*
G04*
G04*
G04 #@! TF.FilePolarity,Positive*
G04*
G01*
G75*
G04:AMPARAMS|DCode=13|XSize=86mil|YSize=72mil|CornerRadius=18mil|HoleSize=0mil|Usage=FLASHONLY|Rotation=0.000|XOffset=0mil|YOffset=0mil|HoleType=Round|Shape=RoundedRectangle|*
%AMROUNDEDRECTD13*
21,1,0.08600,0.03600,0,0,0.0*
21,1,0.05000,0.07200,0,0,0.0*
1,1,0.03600,0.02500,-0.01800*
1,1,0.03600,-0.02500,-0.01800*
1,1,0.03600,-0.02500,0.01800*
1,1,0.03600,0.02500,0.01800*
%
%ADD13ROUNDEDRECTD13*%
G04:AMPARAMS|DCode=14|XSize=39.37mil|YSize=59.06mil|CornerRadius=9.84mil|HoleSize=0mil|Usage=FLASHONLY|Rotation=180.000|XOffset=0mil|YOffset=0mil|HoleType=Round|Shape=RoundedRectangle|*
%AMROUNDEDRECTD14*
21,1,0.03937,0.03937,0,0,180.0*
21,1,0.01968,0.05906,0,0,180.0*
1,1,0.01968,-0.00984,0.01968*
1,1,0.01968,0.00984,0.01968*
1,1,0.01968,0.00984,-0.01968*
1,1,0.01968,-0.00984,-0.01968*
%
%ADD14ROUNDEDRECTD14*%
G04:AMPARAMS|DCode=15|XSize=20mil|YSize=20mil|CornerRadius=5mil|HoleSize=0mil|Usage=FLASHONLY|Rotation=0.000|XOffset=0mil|YOffset=0mil|HoleType=Round|Shape=RoundedRectangle|*
%AMROUNDEDRECTD15*
21,1,0.02000,0.01000,0,0,0.0*
21,1,0.01000,0.02000,0,0,0.0*
1,1,0.01000,0.00500,-0.00500*
1,1,0.01000,-0.00500,-0.00500*
1,1,0.01000,-0.00500,0.00500*
1,1,0.01000,0.00500,0.00500*
%
%ADD15ROUNDEDRECTD15*%
G04:AMPARAMS|DCode=16|XSize=23.62mil|YSize=35mil|CornerRadius=5.91mil|HoleSize=0mil|Usage=FLASHONLY|Rotation=90.000|XOffset=0mil|YOffset=0mil|HoleType=Round|Shape=RoundedRectangle|*
%AMROUNDEDRECTD16*
21,1,0.02362,0.02319,0,0,90.0*
21,1,0.01181,0.03500,0,0,90.0*
1,1,0.01181,0.01159,0.00591*
1,1,0.01181,0.01159,-0.00591*
1,1,0.01181,-0.01159,-0.00591*
1,1,0.01181,-0.01159,0.00591*
%
%ADD16ROUNDEDRECTD16*%
G04:AMPARAMS|DCode=17|XSize=20mil|YSize=20mil|CornerRadius=5mil|HoleSize=0mil|Usage=FLASHONLY|Rotation=270.000|XOffset=0mil|YOffset=0mil|HoleType=Round|Shape=RoundedRectangle|*
%AMROUNDEDRECTD17*
21,1,0.02000,0.01000,0,0,270.0*
21,1,0.01000,0.02000,0,0,270.0*
1,1,0.01000,-0.00500,-0.00500*
1,1,0.01000,-0.00500,0.00500*
1,1,0.01000,0.00500,0.00500*
1,1,0.01000,0.00500,-0.00500*
%
%ADD17ROUNDEDRECTD17*%
G04:AMPARAMS|DCode=18|XSize=50mil|YSize=10mil|CornerRadius=2.5mil|HoleSize=0mil|Usage=FLASHONLY|Rotation=180.000|XOffset=0mil|YOffset=0mil|HoleType=Round|Shape=RoundedRectangle|*
%AMROUNDEDRECTD18*
21,1,0.05000,0.00500,0,0,180.0*
21,1,0.04500,0.01000,0,0,180.0*
1,1,0.00500,-0.02250,0.00250*
1,1,0.00500,0.02250,0.00250*
1,1,0.00500,0.02250,-0.00250*
1,1,0.00500,-0.02250,-0.00250*
%
%ADD18ROUNDEDRECTD18*%
G04:AMPARAMS|DCode=19|XSize=15.75mil|YSize=59.06mil|CornerRadius=3.94mil|HoleSize=0mil|Usage=FLASHONLY|Rotation=0.000|XOffset=0mil|YOffset=0mil|HoleType=Round|Shape=RoundedRectangle|*
%AMROUNDEDRECTD19*
21,1,0.01575,0.05118,0,0,0.0*
21,1,0.00787,0.05906,0,0,0.0*
1,1,0.00787,0.00394,-0.02559*
1,1,0.00787,-0.00394,-0.02559*
1,1,0.00787,-0.00394,0.02559*
1,1,0.00787,0.00394,0.02559*
%
%ADD19ROUNDEDRECTD19*%
%ADD31C,0.15748*%
D13*
X35500Y64563D02*
D03*
Y27437D02*
D03*
D14*
X62366Y5300D02*
D03*
X41429D02*
D03*
X36398D02*
D03*
X15461D02*
D03*
X10429D02*
D03*
X-10508D02*
D03*
X-15539D02*
D03*
X-36476D02*
D03*
X-41508D02*
D03*
X-62445D02*
D03*
D15*
X43500Y72000D02*
D03*
Y68000D02*
D03*
X46500D02*
D03*
Y72000D02*
D03*
X17500Y78500D02*
D03*
Y82500D02*
D03*
X14500Y78500D02*
D03*
Y82500D02*
D03*
D16*
X22095Y75760D02*
D03*
Y79500D02*
D03*
Y83240D02*
D03*
X33494D02*
D03*
Y75760D02*
D03*
D17*
X-7000Y72000D02*
D03*
X-3000D02*
D03*
X4500D02*
D03*
X500D02*
D03*
X4500Y68500D02*
D03*
X500D02*
D03*
X41500Y83000D02*
D03*
X37500D02*
D03*
X41500Y79500D02*
D03*
X37500D02*
D03*
X41500Y76000D02*
D03*
X37500D02*
D03*
D18*
X23100Y52890D02*
D03*
Y50921D02*
D03*
Y48953D02*
D03*
Y46984D02*
D03*
Y45016D02*
D03*
Y43047D02*
D03*
Y41079D02*
D03*
Y39110D02*
D03*
D19*
X57803Y19800D02*
D03*
X53866D02*
D03*
X49929D02*
D03*
X45992D02*
D03*
X31835D02*
D03*
X27898D02*
D03*
X23961D02*
D03*
X20024D02*
D03*
X5866D02*
D03*
X1929D02*
D03*
X-2008D02*
D03*
X-5945D02*
D03*
X-46071D02*
D03*
X-50008D02*
D03*
X-53945D02*
D03*
X-57882D02*
D03*
X-20102D02*
D03*
X-24039D02*
D03*
X-27976D02*
D03*
X-31913D02*
D03*
D31*
X55118Y82677D02*
D03*
X-31496D02*
D03*
M02*
