G04*
G04 #@! TF.GenerationSoftware,Altium Limited,Altium Designer,22.0.2 (36)*
G04*
G04 Layer_Color=8388736*
%FSLAX25Y25*%
%MOIN*%
G70*
G04*
G04 #@! TF.SameCoordinates,5C43ECB9-E52E-4D68-B8B3-2A23C74EF960*
G04*
G04*
G04 #@! TF.FilePolarity,Negative*
G04*
G01*
G75*
G04:AMPARAMS|DCode=20|XSize=92mil|YSize=78mil|CornerRadius=21mil|HoleSize=0mil|Usage=FLASHONLY|Rotation=0.000|XOffset=0mil|YOffset=0mil|HoleType=Round|Shape=RoundedRectangle|*
%AMROUNDEDRECTD20*
21,1,0.09200,0.03600,0,0,0.0*
21,1,0.05000,0.07800,0,0,0.0*
1,1,0.04200,0.02500,-0.01800*
1,1,0.04200,-0.02500,-0.01800*
1,1,0.04200,-0.02500,0.01800*
1,1,0.04200,0.02500,0.01800*
%
%ADD20ROUNDEDRECTD20*%
G04:AMPARAMS|DCode=21|XSize=45.37mil|YSize=65.06mil|CornerRadius=12.84mil|HoleSize=0mil|Usage=FLASHONLY|Rotation=180.000|XOffset=0mil|YOffset=0mil|HoleType=Round|Shape=RoundedRectangle|*
%AMROUNDEDRECTD21*
21,1,0.04537,0.03937,0,0,180.0*
21,1,0.01968,0.06506,0,0,180.0*
1,1,0.02568,-0.00984,0.01968*
1,1,0.02568,0.00984,0.01968*
1,1,0.02568,0.00984,-0.01968*
1,1,0.02568,-0.00984,-0.01968*
%
%ADD21ROUNDEDRECTD21*%
G04:AMPARAMS|DCode=22|XSize=26mil|YSize=26mil|CornerRadius=8mil|HoleSize=0mil|Usage=FLASHONLY|Rotation=0.000|XOffset=0mil|YOffset=0mil|HoleType=Round|Shape=RoundedRectangle|*
%AMROUNDEDRECTD22*
21,1,0.02600,0.01000,0,0,0.0*
21,1,0.01000,0.02600,0,0,0.0*
1,1,0.01600,0.00500,-0.00500*
1,1,0.01600,-0.00500,-0.00500*
1,1,0.01600,-0.00500,0.00500*
1,1,0.01600,0.00500,0.00500*
%
%ADD22ROUNDEDRECTD22*%
G04:AMPARAMS|DCode=23|XSize=29.62mil|YSize=41mil|CornerRadius=8.91mil|HoleSize=0mil|Usage=FLASHONLY|Rotation=90.000|XOffset=0mil|YOffset=0mil|HoleType=Round|Shape=RoundedRectangle|*
%AMROUNDEDRECTD23*
21,1,0.02962,0.02319,0,0,90.0*
21,1,0.01181,0.04100,0,0,90.0*
1,1,0.01781,0.01159,0.00591*
1,1,0.01781,0.01159,-0.00591*
1,1,0.01781,-0.01159,-0.00591*
1,1,0.01781,-0.01159,0.00591*
%
%ADD23ROUNDEDRECTD23*%
G04:AMPARAMS|DCode=24|XSize=26mil|YSize=26mil|CornerRadius=8mil|HoleSize=0mil|Usage=FLASHONLY|Rotation=270.000|XOffset=0mil|YOffset=0mil|HoleType=Round|Shape=RoundedRectangle|*
%AMROUNDEDRECTD24*
21,1,0.02600,0.01000,0,0,270.0*
21,1,0.01000,0.02600,0,0,270.0*
1,1,0.01600,-0.00500,-0.00500*
1,1,0.01600,-0.00500,0.00500*
1,1,0.01600,0.00500,0.00500*
1,1,0.01600,0.00500,-0.00500*
%
%ADD24ROUNDEDRECTD24*%
G04:AMPARAMS|DCode=25|XSize=56mil|YSize=16mil|CornerRadius=5.5mil|HoleSize=0mil|Usage=FLASHONLY|Rotation=180.000|XOffset=0mil|YOffset=0mil|HoleType=Round|Shape=RoundedRectangle|*
%AMROUNDEDRECTD25*
21,1,0.05600,0.00500,0,0,180.0*
21,1,0.04500,0.01600,0,0,180.0*
1,1,0.01100,-0.02250,0.00250*
1,1,0.01100,0.02250,0.00250*
1,1,0.01100,0.02250,-0.00250*
1,1,0.01100,-0.02250,-0.00250*
%
%ADD25ROUNDEDRECTD25*%
G04:AMPARAMS|DCode=26|XSize=21.75mil|YSize=65.06mil|CornerRadius=6.94mil|HoleSize=0mil|Usage=FLASHONLY|Rotation=0.000|XOffset=0mil|YOffset=0mil|HoleType=Round|Shape=RoundedRectangle|*
%AMROUNDEDRECTD26*
21,1,0.02175,0.05118,0,0,0.0*
21,1,0.00787,0.06506,0,0,0.0*
1,1,0.01387,0.00394,-0.02559*
1,1,0.01387,-0.00394,-0.02559*
1,1,0.01387,-0.00394,0.02559*
1,1,0.01387,0.00394,0.02559*
%
%ADD26ROUNDEDRECTD26*%
%ADD27C,0.16348*%
D20*
X35500Y64563D02*
D03*
Y27437D02*
D03*
D21*
X62366Y5300D02*
D03*
X41429D02*
D03*
X36398D02*
D03*
X15461D02*
D03*
X10429D02*
D03*
X-10508D02*
D03*
X-15539D02*
D03*
X-36476D02*
D03*
X-41508D02*
D03*
X-62445D02*
D03*
D22*
X43500Y72000D02*
D03*
Y68000D02*
D03*
X46500D02*
D03*
Y72000D02*
D03*
X17500Y78500D02*
D03*
Y82500D02*
D03*
X14500Y78500D02*
D03*
Y82500D02*
D03*
D23*
X22095Y75760D02*
D03*
Y79500D02*
D03*
Y83240D02*
D03*
X33494D02*
D03*
Y75760D02*
D03*
D24*
X-7000Y72000D02*
D03*
X-3000D02*
D03*
X4500D02*
D03*
X500D02*
D03*
X4500Y68500D02*
D03*
X500D02*
D03*
X41500Y83000D02*
D03*
X37500D02*
D03*
X41500Y79500D02*
D03*
X37500D02*
D03*
X41500Y76000D02*
D03*
X37500D02*
D03*
D25*
X23100Y52890D02*
D03*
Y50921D02*
D03*
Y48953D02*
D03*
Y46984D02*
D03*
Y45016D02*
D03*
Y43047D02*
D03*
Y41079D02*
D03*
Y39110D02*
D03*
D26*
X57803Y19800D02*
D03*
X53866D02*
D03*
X49929D02*
D03*
X45992D02*
D03*
X31835D02*
D03*
X27898D02*
D03*
X23961D02*
D03*
X20024D02*
D03*
X5866D02*
D03*
X1929D02*
D03*
X-2008D02*
D03*
X-5945D02*
D03*
X-46071D02*
D03*
X-50008D02*
D03*
X-53945D02*
D03*
X-57882D02*
D03*
X-20102D02*
D03*
X-24039D02*
D03*
X-27976D02*
D03*
X-31913D02*
D03*
D27*
X55118Y82677D02*
D03*
X-31496D02*
D03*
M02*
