G04*
G04 #@! TF.GenerationSoftware,Altium Limited,Altium Designer,22.0.2 (36)*
G04*
G04 Layer_Color=16711935*
%FSLAX25Y25*%
%MOIN*%
G70*
G04*
G04 #@! TF.SameCoordinates,5C43ECB9-E52E-4D68-B8B3-2A23C74EF960*
G04*
G04*
G04 #@! TF.FilePolarity,Positive*
G04*
G01*
G75*
%ADD54C,0.00200*%
%ADD55C,0.00394*%
D54*
X36900Y70500D02*
X38100D01*
X37500Y69900D02*
Y71100D01*
X35531Y69516D02*
X39469D01*
X35531Y71484D02*
X39469D01*
X35531Y69516D02*
Y71484D01*
X39469Y69516D02*
Y71484D01*
X26400Y70500D02*
X27600D01*
X27000Y69900D02*
Y71100D01*
X25032Y69516D02*
X28969D01*
X25032Y71484D02*
X28969D01*
X25032Y69516D02*
Y71484D01*
X28969Y69516D02*
Y71484D01*
X43500Y69400D02*
Y70600D01*
X42900Y70000D02*
X44100D01*
X42516Y68032D02*
Y71969D01*
X44484Y68032D02*
Y71969D01*
X42516Y68032D02*
X44484D01*
X42516Y71969D02*
X44484D01*
X45516D02*
X47484D01*
X45516Y68032D02*
X47484D01*
X47484D02*
Y71969D01*
X45516Y68032D02*
Y71969D01*
X45900Y70000D02*
X47100D01*
X46500Y69400D02*
Y70600D01*
X46968Y69516D02*
Y71484D01*
X43031Y69516D02*
Y71484D01*
Y71484D02*
X46968D01*
X43031Y69516D02*
X46968D01*
X45000Y69900D02*
Y71100D01*
X44400Y70500D02*
X45600D01*
X-3032Y71016D02*
Y72984D01*
X-6968Y71016D02*
Y72984D01*
Y71016D02*
X-3032D01*
X-6968Y72984D02*
X-3032D01*
X-5000Y71400D02*
Y72600D01*
X-5600Y72000D02*
X-4400D01*
X532Y71016D02*
Y72984D01*
X4468Y71016D02*
Y72984D01*
X532Y72984D02*
X4468D01*
X532Y71016D02*
X4468D01*
X2500Y71400D02*
Y72600D01*
X1900Y72000D02*
X3100D01*
X532Y67516D02*
Y69484D01*
X4468Y67516D02*
Y69484D01*
X532Y69484D02*
X4468D01*
X532Y67516D02*
X4468D01*
X2500Y67900D02*
Y69100D01*
X1900Y68500D02*
X3100D01*
X51000Y24400D02*
Y25600D01*
X50400Y25000D02*
X51600D01*
X50016Y23031D02*
Y26969D01*
X51984Y23031D02*
Y26969D01*
X50016D02*
X51984D01*
X50016Y23031D02*
X51984D01*
X25400Y31000D02*
X26600D01*
X26000Y30400D02*
Y31600D01*
X24032Y30016D02*
X27968D01*
X24032Y31984D02*
X27968D01*
X24032Y30016D02*
Y31984D01*
X27968Y30016D02*
Y31984D01*
X25400Y34500D02*
X26600D01*
X26000Y33900D02*
Y35100D01*
X24032Y33516D02*
X27968D01*
X24032Y35484D02*
X27968D01*
X24032Y33516D02*
Y35484D01*
X27968Y33516D02*
Y35484D01*
X40000Y7400D02*
Y8600D01*
X39400Y8000D02*
X40600D01*
X39016Y6032D02*
Y9968D01*
X40984Y6032D02*
Y9968D01*
X39016D02*
X40984D01*
X39016Y6032D02*
X40984D01*
X33000Y7400D02*
Y8600D01*
X32400Y8000D02*
X33600D01*
X33984Y6032D02*
Y9968D01*
X32016Y6032D02*
Y9968D01*
X32016Y6032D02*
X33984D01*
X32016Y9968D02*
X33984D01*
X36500Y7400D02*
Y8600D01*
X35900Y8000D02*
X37100D01*
X37484Y6032D02*
Y9968D01*
X35516Y6032D02*
Y9968D01*
X35516Y6032D02*
X37484D01*
X35516Y9968D02*
X37484D01*
X38900Y83000D02*
X40100D01*
X39500Y82400D02*
Y83600D01*
X37532Y83984D02*
X41469D01*
X37532Y82016D02*
X41469D01*
X37532Y82016D02*
Y83984D01*
X41469Y82016D02*
Y83984D01*
X38900Y79500D02*
X40100D01*
X39500Y78900D02*
Y80100D01*
X37532Y80484D02*
X41469D01*
X37532Y78516D02*
X41469D01*
X37532Y78516D02*
Y80484D01*
X41469Y78516D02*
Y80484D01*
X17500Y79900D02*
Y81100D01*
X16900Y80500D02*
X18100D01*
X18484Y78531D02*
Y82468D01*
X16516Y78531D02*
Y82468D01*
X16516D02*
X18484D01*
X16516Y78531D02*
X18484D01*
X14500Y79900D02*
Y81100D01*
X13900Y80500D02*
X15100D01*
X15484Y78531D02*
Y82468D01*
X13516Y78531D02*
Y82468D01*
X13516D02*
X15484D01*
X13516Y78531D02*
X15484D01*
X38900Y76000D02*
X40100D01*
X39500Y75400D02*
Y76600D01*
X37532Y76984D02*
X41469D01*
X37532Y75016D02*
X41469D01*
X37532Y75016D02*
Y76984D01*
X41469Y75016D02*
Y76984D01*
D55*
X24457Y73398D02*
X31543D01*
X24457Y85602D02*
X31543D01*
Y73398D02*
Y85602D01*
X24457Y73398D02*
Y85602D01*
M02*
