M48
;Layer_Color=9474304
;FILE_FORMAT=2:5
INCH,TZ
;TYPE=PLATED
T1F00S00C0.01000
%
T01
X-17500Y-15000
Y-12000
X-15457Y-8957
X-16898Y-6398
X-6000Y-5900
X-5900Y-1100
X-4100Y1700
X-10300Y1300
X-12500Y3900
X-12900Y13000
X-10500
X-7900Y14100
X-5900Y12300
X-5000Y7400
X1600Y8400
X4100Y7300
Y4200
X-100Y11200
X2500Y17000
X-4500
X10500
X14500
X18500
X16900Y22700
X21000
Y31000
X17000
X13000
X9000
X5000
X-9000
X-13000
X-17000
X-21000
X2700Y-5700
X5600Y-5500
X12300Y-9000
X11000Y-15000
X8200
X4800Y-15500
X9000Y-18500
Y-21500
X12500
Y-18500
X16000
Y-21500
X-1500Y-10800
M30
