G04*
G04 #@! TF.GenerationSoftware,Altium Limited,Altium Designer,22.0.2 (36)*
G04*
G04 Layer_Color=2752767*
%FSLAX25Y25*%
%MOIN*%
G70*
G04*
G04 #@! TF.SameCoordinates,8B7FD933-5714-494C-BD6B-9A299CFF0B11*
G04*
G04*
G04 #@! TF.FilePolarity,Positive*
G04*
G01*
G75*
%ADD38C,0.00200*%
D38*
X20200Y30200D02*
Y31800D01*
X21800D01*
Y30200D01*
X20200D01*
X16200D02*
Y31800D01*
X17800D01*
Y30200D01*
X16200D01*
X12200D02*
Y31800D01*
X13800D01*
Y30200D01*
X12200D01*
X8200D02*
Y31800D01*
X9800D01*
Y30200D01*
X8200D01*
X4200D02*
Y31800D01*
X5800D01*
Y30200D01*
X4200D01*
X-9800D02*
Y31800D01*
X-8200D01*
Y30200D01*
X-9800D01*
X-13800D02*
Y31800D01*
X-12200D01*
Y30200D01*
X-13800D01*
X-17800D02*
Y31800D01*
X-16200D01*
Y30200D01*
X-17800D01*
X-21800D02*
Y31800D01*
X-20200D01*
Y30200D01*
X-21800D01*
X17700Y16200D02*
Y17800D01*
X19300D01*
Y16200D01*
X17700D01*
X13700D02*
Y17800D01*
X15300D01*
Y16200D01*
X13700D01*
X9700D02*
Y17800D01*
X11300D01*
Y16200D01*
X9700D01*
X1700D02*
Y17800D01*
X3300D01*
Y16200D01*
X1700D01*
X-5300D02*
Y17800D01*
X-3700D01*
Y16200D01*
X-5300D01*
X-18300Y-15800D02*
Y-14200D01*
X-16700D01*
Y-15800D01*
X-18300D01*
Y-12800D02*
Y-11200D01*
X-16700D01*
Y-12800D01*
X-18300D01*
X15200Y-22300D02*
Y-20700D01*
X16800D01*
Y-22300D01*
X15200D01*
Y-19300D02*
Y-17700D01*
X16800D01*
Y-19300D01*
X15200D01*
X11700Y-22300D02*
Y-20700D01*
X13300D01*
Y-22300D01*
X11700D01*
Y-19300D02*
Y-17700D01*
X13300D01*
Y-19300D01*
X11700D01*
X8200Y-22300D02*
Y-20700D01*
X9800D01*
Y-22300D01*
X8200D01*
Y-19300D02*
Y-17700D01*
X9800D01*
Y-19300D01*
X8200D01*
X20200Y21900D02*
Y23500D01*
X21800D01*
Y21900D01*
X20200D01*
X16100D02*
Y23500D01*
X17700D01*
Y21900D01*
X16100D01*
X-16257Y-9757D02*
Y-8157D01*
X-14657D01*
Y-9757D01*
X-16257D01*
X-17698Y-7198D02*
Y-5598D01*
X-16098D01*
Y-7198D01*
X-17698D01*
X-11100Y500D02*
Y2100D01*
X-9500D01*
Y500D01*
X-11100D01*
X-13300Y3100D02*
Y4700D01*
X-11700D01*
Y3100D01*
X-13300D01*
X1900Y-6500D02*
Y-4900D01*
X3500D01*
Y-6500D01*
X1900D01*
X4000Y-16300D02*
Y-14700D01*
X5600D01*
Y-16300D01*
X4000D01*
X-11300Y12200D02*
Y13800D01*
X-9700D01*
Y12200D01*
X-11300D01*
X-13700D02*
Y13800D01*
X-12100D01*
Y12200D01*
X-13700D01*
X-900Y10400D02*
Y12000D01*
X700D01*
Y10400D01*
X-900D01*
X800Y7600D02*
Y9200D01*
X2400D01*
Y7600D01*
X800D01*
X3300Y6500D02*
Y8100D01*
X4900D01*
Y6500D01*
X3300D01*
X-6700Y-1900D02*
Y-300D01*
X-5100D01*
Y-1900D01*
X-6700D01*
X-4900Y900D02*
Y2500D01*
X-3300D01*
Y900D01*
X-4900D01*
X-5800Y6600D02*
Y8200D01*
X-4200D01*
Y6600D01*
X-5800D01*
X3300Y3400D02*
Y5000D01*
X4900D01*
Y3400D01*
X3300D01*
X-6800Y-6700D02*
Y-5100D01*
X-5200D01*
Y-6700D01*
X-6800D01*
X7400Y-15800D02*
Y-14200D01*
X9000D01*
Y-15800D01*
X7400D01*
X10200D02*
Y-14200D01*
X11800D01*
Y-15800D01*
X10200D01*
X4800Y-6300D02*
Y-4700D01*
X6400D01*
Y-6300D01*
X4800D01*
X11500Y-9800D02*
Y-8200D01*
X13100D01*
Y-9800D01*
X11500D01*
X-2300Y-11600D02*
Y-10000D01*
X-700D01*
Y-11600D01*
X-2300D01*
X-8700Y13300D02*
Y14900D01*
X-7100D01*
Y13300D01*
X-8700D01*
X-6700Y11500D02*
Y13100D01*
X-5100D01*
Y11500D01*
X-6700D01*
M02*
