G04*
G04 #@! TF.GenerationSoftware,Altium Limited,Altium Designer,22.0.2 (36)*
G04*
G04 Layer_Color=32896*
%FSLAX25Y25*%
%MOIN*%
G70*
G04*
G04 #@! TF.SameCoordinates,8B7FD933-5714-494C-BD6B-9A299CFF0B11*
G04*
G04*
G04 #@! TF.FilePolarity,Positive*
G04*
G01*
G75*
%ADD10C,0.00984*%
%ADD11C,0.00787*%
%ADD36C,0.00100*%
G36*
X-10600Y9800D02*
X-12400D01*
Y10150D01*
X-10600D01*
Y9800D01*
D02*
G37*
G36*
Y8850D02*
X-12400D01*
Y9200D01*
X-10600D01*
Y8850D01*
D02*
G37*
G36*
X-10550Y1850D02*
X-10900D01*
Y3150D01*
X-10550D01*
Y1850D01*
D02*
G37*
G36*
X-12100Y3150D02*
Y1850D01*
X-12450Y1850D01*
Y3150D01*
X-12100Y3150D01*
D02*
G37*
G36*
X-12050Y-5650D02*
X-12400Y-5650D01*
Y-4350D01*
X-12050Y-4350D01*
Y-5650D01*
D02*
G37*
G36*
X-13600D02*
X-13950D01*
Y-4350D01*
X-13600D01*
Y-5650D01*
D02*
G37*
G36*
X10650Y10600D02*
X10300D01*
Y12400D01*
X10650D01*
Y10600D01*
D02*
G37*
G36*
X9700D02*
X9350D01*
Y12400D01*
X9700D01*
Y10600D01*
D02*
G37*
G36*
X10650Y7600D02*
X10300D01*
Y9400D01*
X10650D01*
Y7600D01*
D02*
G37*
G36*
X9700D02*
X9350D01*
Y9400D01*
X9700D01*
Y7600D01*
D02*
G37*
G36*
X10650Y4600D02*
X10300D01*
Y6400D01*
X10650D01*
Y4600D01*
D02*
G37*
G36*
X9700D02*
X9350D01*
Y6400D01*
X9700D01*
Y4600D01*
D02*
G37*
D10*
X1209Y-776D02*
G03*
X1209Y-776I-492J0D01*
G01*
D11*
X1102Y-5787D02*
Y-1457D01*
X-2244D02*
X1102D01*
X-11102Y-5787D02*
Y-1457D01*
X-7756D01*
X-2287Y1898D02*
X2043D01*
Y5244D01*
X-2287Y14102D02*
X2043D01*
Y10756D02*
Y14102D01*
D36*
X-10600Y8850D02*
Y9200D01*
X-12400Y8850D02*
Y9200D01*
X-10600D01*
X-12400Y8850D02*
X-10600D01*
X-12400Y10150D02*
X-10600D01*
X-12400Y9800D02*
X-10600D01*
Y10150D01*
X-12400Y9800D02*
Y10150D01*
X-10550Y1850D02*
Y3150D01*
X-10900D02*
X-10550D01*
X-10900Y1850D02*
Y3150D01*
Y1850D02*
X-10550D01*
X-12450Y3150D02*
X-12100Y3150D01*
Y1850D02*
Y3150D01*
X-12450Y1850D02*
X-12100Y1850D01*
X-12450Y1850D02*
Y3150D01*
X-13950Y-5650D02*
Y-4350D01*
Y-5650D02*
X-13600D01*
Y-4350D01*
X-13950D02*
X-13600D01*
X-12400Y-5650D02*
X-12050Y-5650D01*
X-12400Y-5650D02*
Y-4350D01*
X-12050Y-4350D01*
Y-5650D02*
Y-4350D01*
X9350Y4600D02*
X9700D01*
X9350Y6400D02*
X9700D01*
Y4600D02*
Y6400D01*
X9350Y4600D02*
Y6400D01*
X10650Y4600D02*
Y6400D01*
X10300Y4600D02*
Y6400D01*
Y4600D02*
X10650D01*
X10300Y6400D02*
X10650D01*
X9350Y7600D02*
X9700D01*
X9350Y9400D02*
X9700D01*
Y7600D02*
Y9400D01*
X9350Y7600D02*
Y9400D01*
X10650Y7600D02*
Y9400D01*
X10300Y7600D02*
Y9400D01*
Y7600D02*
X10650D01*
X10300Y9400D02*
X10650D01*
X10300Y12400D02*
X10650D01*
X10300Y10600D02*
X10650D01*
X10300D02*
Y12400D01*
X10650Y10600D02*
Y12400D01*
X9350Y10600D02*
Y12400D01*
X9700Y10600D02*
Y12400D01*
X9350D02*
X9700D01*
X9350Y10600D02*
X9700D01*
M02*
