G04*
G04 #@! TF.GenerationSoftware,Altium Limited,Altium Designer,22.0.2 (36)*
G04*
G04 Layer_Physical_Order=1*
G04 Layer_Color=255*
%FSLAX25Y25*%
%MOIN*%
G70*
G04*
G04 #@! TF.SameCoordinates,638AD50F-1192-470F-B5B9-D779ECB08856*
G04*
G04*
G04 #@! TF.FilePolarity,Positive*
G04*
G01*
G75*
%ADD12O,0.05906X0.01378*%
G04:AMPARAMS|DCode=13|XSize=23.62mil|YSize=31.5mil|CornerRadius=5.91mil|HoleSize=0mil|Usage=FLASHONLY|Rotation=90.000|XOffset=0mil|YOffset=0mil|HoleType=Round|Shape=RoundedRectangle|*
%AMROUNDEDRECTD13*
21,1,0.02362,0.01968,0,0,90.0*
21,1,0.01181,0.03150,0,0,90.0*
1,1,0.01181,0.00984,0.00591*
1,1,0.01181,0.00984,-0.00591*
1,1,0.01181,-0.00984,-0.00591*
1,1,0.01181,-0.00984,0.00591*
%
%ADD13ROUNDEDRECTD13*%
G04:AMPARAMS|DCode=14|XSize=19.68mil|YSize=31.5mil|CornerRadius=4.92mil|HoleSize=0mil|Usage=FLASHONLY|Rotation=0.000|XOffset=0mil|YOffset=0mil|HoleType=Round|Shape=RoundedRectangle|*
%AMROUNDEDRECTD14*
21,1,0.01968,0.02165,0,0,0.0*
21,1,0.00984,0.03150,0,0,0.0*
1,1,0.00984,0.00492,-0.01083*
1,1,0.00984,-0.00492,-0.01083*
1,1,0.00984,-0.00492,0.01083*
1,1,0.00984,0.00492,0.01083*
%
%ADD14ROUNDEDRECTD14*%
G04:AMPARAMS|DCode=15|XSize=16mil|YSize=16mil|CornerRadius=8mil|HoleSize=0mil|Usage=FLASHONLY|Rotation=90.000|XOffset=0mil|YOffset=0mil|HoleType=Round|Shape=RoundedRectangle|*
%AMROUNDEDRECTD15*
21,1,0.01600,0.00000,0,0,90.0*
21,1,0.00000,0.01600,0,0,90.0*
1,1,0.01600,0.00000,0.00000*
1,1,0.01600,0.00000,0.00000*
1,1,0.01600,0.00000,0.00000*
1,1,0.01600,0.00000,0.00000*
%
%ADD15ROUNDEDRECTD15*%
%ADD20C,0.00500*%
%ADD21C,0.01500*%
%ADD22C,0.00400*%
%ADD23C,0.01000*%
%ADD24C,0.01800*%
G36*
X12765Y14967D02*
X12724Y14991D01*
X12683Y15010D01*
X12643Y15021D01*
X12603Y15026D01*
X12564Y15024D01*
X12525Y15016D01*
X12486Y15001D01*
X12448Y14980D01*
X12417Y14958D01*
X12371Y14896D01*
X12330Y14828D01*
X12295Y14755D01*
X12265Y14677D01*
X12241Y14594D01*
X12222Y14505D01*
X12209Y14412D01*
X12202Y14313D01*
X12200Y14209D01*
X11309Y15100D01*
X11413Y15102D01*
X11512Y15109D01*
X11605Y15122D01*
X11694Y15141D01*
X11777Y15165D01*
X11855Y15195D01*
X11928Y15230D01*
X11996Y15271D01*
X12052Y15313D01*
X12060Y15324D01*
X12071Y15343D01*
X12078Y15361D01*
X12082Y15379D01*
X12083Y15395D01*
X12082Y15411D01*
X12077Y15427D01*
X12069Y15441D01*
X12765Y14967D01*
D02*
G37*
G36*
X9161Y15001D02*
X9143Y14994D01*
X9127Y14985D01*
X9113Y14974D01*
X9101Y14961D01*
X9091Y14945D01*
X9084Y14928D01*
X9078Y14909D01*
X9075Y14888D01*
X9074Y14865D01*
X8674D01*
X8673Y14888D01*
X8670Y14909D01*
X8664Y14928D01*
X8657Y14945D01*
X8647Y14961D01*
X8635Y14974D01*
X8621Y14985D01*
X8605Y14994D01*
X8587Y15001D01*
X8567Y15007D01*
X9182D01*
X9161Y15001D01*
D02*
G37*
G36*
X5224D02*
X5206Y14994D01*
X5190Y14985D01*
X5176Y14974D01*
X5164Y14961D01*
X5154Y14945D01*
X5147Y14928D01*
X5141Y14909D01*
X5138Y14888D01*
X5137Y14865D01*
X4737D01*
X4736Y14888D01*
X4733Y14909D01*
X4727Y14928D01*
X4720Y14945D01*
X4710Y14961D01*
X4698Y14974D01*
X4684Y14985D01*
X4668Y14994D01*
X4650Y15001D01*
X4629Y15007D01*
X5244D01*
X5224Y15001D01*
D02*
G37*
G36*
X969Y15081D02*
X975Y14988D01*
X981Y14947D01*
X990Y14909D01*
X1001Y14873D01*
X1014Y14841D01*
X1029Y14812D01*
X1047Y14787D01*
X1067Y14764D01*
X1036Y14229D01*
X1022Y14243D01*
X997Y14265D01*
X986Y14273D01*
X976Y14278D01*
X967Y14283D01*
X960Y14284D01*
X954Y14284D01*
X948Y14282D01*
X944Y14278D01*
X970Y15132D01*
X969Y15081D01*
D02*
G37*
G36*
X-3000Y14266D02*
X-3004Y14253D01*
X-3006Y14239D01*
X-3005Y14225D01*
X-3002Y14211D01*
X-2997Y14196D01*
X-2988Y14180D01*
X-2978Y14165D01*
X-2964Y14148D01*
X-2949Y14132D01*
X-3288Y13905D01*
X-3305Y13921D01*
X-3322Y13935D01*
X-3338Y13947D01*
X-3354Y13957D01*
X-3370Y13965D01*
X-3385Y13971D01*
X-3401Y13975D01*
X-3416Y13978D01*
X-3430Y13978D01*
X-3445Y13976D01*
X-2993Y14278D01*
X-3000Y14266D01*
D02*
G37*
G36*
X-6880Y14286D02*
X-6854Y14274D01*
X-6823Y14255D01*
X-6787Y14230D01*
X-6746Y14196D01*
X-6649Y14108D01*
X-6593Y14053D01*
X-7788Y13127D01*
X-7960Y13301D01*
X-8571Y13987D01*
X-8573Y14010D01*
X-8553Y14013D01*
X-6930Y14278D01*
X-6918Y14288D01*
X-6902Y14291D01*
X-6880Y14286D01*
D02*
G37*
G36*
X10553Y12272D02*
X10577Y12256D01*
X10605Y12241D01*
X10637Y12229D01*
X10672Y12218D01*
X10710Y12210D01*
X10752Y12203D01*
X10798Y12198D01*
X10899Y12194D01*
X9768D01*
X9823Y12195D01*
X9909Y12203D01*
X9941Y12210D01*
X9965Y12218D01*
X9980Y12229D01*
X9989Y12241D01*
X9989Y12256D01*
X9981Y12272D01*
X9966Y12291D01*
X10531D01*
X10553Y12272D01*
D02*
G37*
G36*
X8070Y8957D02*
X8075Y8988D01*
X8078Y9017D01*
X8078Y9046D01*
X8076Y9072D01*
X8072Y9097D01*
X8066Y9121D01*
X8057Y9143D01*
X8046Y9164D01*
X8032Y9183D01*
X8016Y9201D01*
X8227Y9556D01*
X8256Y9530D01*
X8285Y9510D01*
X8312Y9496D01*
X8340Y9488D01*
X8366Y9487D01*
X8392Y9492D01*
X8417Y9503D01*
X8441Y9521D01*
X8465Y9544D01*
X8488Y9575D01*
X8070Y8957D01*
D02*
G37*
G36*
X8695Y7139D02*
X8729Y7113D01*
X8764Y7091D01*
X8800Y7075D01*
X8836Y7063D01*
X8873Y7056D01*
X8910Y7054D01*
X8948Y7056D01*
X8987Y7064D01*
X9026Y7076D01*
X8212Y6774D01*
X8249Y6790D01*
X8279Y6808D01*
X8301Y6827D01*
X8316Y6849D01*
X8324Y6872D01*
X8324Y6897D01*
X8317Y6923D01*
X8302Y6952D01*
X8281Y6982D01*
X8252Y7014D01*
X8661Y7170D01*
X8695Y7139D01*
D02*
G37*
G36*
X8122Y3574D02*
X8128Y3535D01*
X8126Y3506D01*
X8118Y3487D01*
X8103Y3478D01*
X8081Y3481D01*
X8053Y3493D01*
X8017Y3516D01*
X7975Y3549D01*
X7926Y3593D01*
X7870Y3647D01*
X8014Y4069D01*
X8030Y4054D01*
X8045Y4043D01*
X8059Y4036D01*
X8072Y4034D01*
X8083Y4035D01*
X8094Y4041D01*
X8102Y4050D01*
X8110Y4064D01*
X8117Y4081D01*
X8122Y4103D01*
Y3574D01*
D02*
G37*
G36*
X-9462Y17232D02*
X-9235Y16837D01*
X-9276Y16631D01*
Y14465D01*
X-9206Y14117D01*
X-9200Y14108D01*
Y13841D01*
X-9002Y13364D01*
X-8636Y12998D01*
X-8159Y12800D01*
X-8058D01*
X-7130Y11871D01*
X-7002Y11564D01*
X-6636Y11198D01*
X-6329Y11070D01*
X-1873Y6614D01*
Y-6100D01*
X-1783Y-6549D01*
X-1529Y-6929D01*
X6970Y-15429D01*
X7098Y-15736D01*
X7464Y-16102D01*
X7941Y-16300D01*
X8459D01*
X8766Y-16172D01*
X10434D01*
X10741Y-16300D01*
X11259D01*
X11736Y-16102D01*
X12102Y-15736D01*
X12300Y-15259D01*
Y-14741D01*
X12102Y-14264D01*
X11736Y-13898D01*
X11259Y-13700D01*
X10741D01*
X10434Y-13827D01*
X8766D01*
X8629Y-13770D01*
X472Y-5614D01*
Y7100D01*
X383Y7549D01*
X129Y7929D01*
X-4670Y12729D01*
X-4798Y13036D01*
X-4939Y13178D01*
X-4655Y13601D01*
X-4429Y13556D01*
X-3574D01*
X-2559Y12541D01*
X-2100Y12351D01*
X1031D01*
X6251Y7131D01*
Y4900D01*
X6441Y4441D01*
X7841Y3041D01*
X7874Y3027D01*
X7802Y2516D01*
X7479Y2479D01*
X5330Y4629D01*
X5202Y4936D01*
X4836Y5302D01*
X4359Y5500D01*
X3841D01*
X3364Y5302D01*
X2998Y4936D01*
X2800Y4459D01*
Y3941D01*
X2998Y3464D01*
X3364Y3098D01*
X3671Y2970D01*
X6191Y450D01*
X6572Y196D01*
X7021Y107D01*
X11024D01*
X11337Y169D01*
X13287D01*
X13712Y254D01*
X13837Y337D01*
X14337Y70D01*
Y-2629D01*
X13837Y-2896D01*
X13712Y-2813D01*
X13287Y-2728D01*
X8760D01*
X8335Y-2813D01*
X7975Y-3053D01*
X7734Y-3414D01*
X7649Y-3839D01*
X7734Y-4264D01*
X7975Y-4624D01*
X8039Y-4667D01*
X8088Y-5285D01*
X7885Y-5480D01*
X6900D01*
Y-5241D01*
X6702Y-4764D01*
X6336Y-4398D01*
X5859Y-4200D01*
X5341D01*
X4864Y-4398D01*
X4498Y-4764D01*
X4300Y-5241D01*
Y-5759D01*
X4498Y-6236D01*
X4864Y-6602D01*
X5341Y-6800D01*
X5602D01*
X5849Y-7046D01*
X6146Y-7245D01*
X6498Y-7315D01*
X8173D01*
X8332Y-7422D01*
X8335Y-7435D01*
Y-7919D01*
X8332Y-7933D01*
X7975Y-8172D01*
X7734Y-8532D01*
X7649Y-8957D01*
X7734Y-9382D01*
X7975Y-9742D01*
X8332Y-9981D01*
X8335Y-9995D01*
Y-10478D01*
X8332Y-10492D01*
X7975Y-10731D01*
X7734Y-11091D01*
X7649Y-11516D01*
X7734Y-11941D01*
X7975Y-12301D01*
X8335Y-12541D01*
X8760Y-12626D01*
X13287D01*
X13712Y-12541D01*
X13837Y-12458D01*
X14337Y-12725D01*
Y-14000D01*
X14324D01*
X14228Y-14731D01*
X13946Y-15412D01*
X13497Y-15997D01*
X12912Y-16446D01*
X12231Y-16728D01*
X11500Y-16824D01*
Y-16837D01*
X-2722D01*
X-2829Y-16730D01*
X-3055Y-16337D01*
X-3006Y-16091D01*
Y-14909D01*
X-3083Y-14523D01*
X-3302Y-14195D01*
X-3629Y-13976D01*
X-3975Y-13908D01*
X-3988Y-13902D01*
X-4008Y-13901D01*
X-4016Y-13900D01*
X-4056D01*
X-4066Y-13899D01*
X-4082Y-13897D01*
Y-12046D01*
X-3999Y-11991D01*
X-3876Y-11924D01*
X-3747Y-11866D01*
X-3612Y-11819D01*
X-3469Y-11782D01*
X-3319Y-11755D01*
X-3160Y-11739D01*
X-2978Y-11733D01*
X-2945Y-11718D01*
X-2830D01*
X-2794Y-11733D01*
X-2701Y-11734D01*
X-2627Y-11737D01*
X-2494Y-11750D01*
X-2454Y-11757D01*
X-2423Y-11764D01*
X-2407Y-11769D01*
X-2393Y-11778D01*
X-2386Y-11779D01*
X-2381Y-11780D01*
X-2372Y-11781D01*
X-2355Y-11783D01*
X-2236Y-11902D01*
X-1759Y-12100D01*
X-1241D01*
X-764Y-11902D01*
X-398Y-11536D01*
X-200Y-11059D01*
Y-10541D01*
X-398Y-10064D01*
X-764Y-9698D01*
X-1241Y-9500D01*
X-1759D01*
X-2236Y-9698D01*
X-2355Y-9817D01*
X-2372Y-9819D01*
X-2381Y-9820D01*
X-2386Y-9821D01*
X-2393Y-9822D01*
X-2407Y-9831D01*
X-2423Y-9836D01*
X-2454Y-9843D01*
X-2489Y-9849D01*
X-2708Y-9866D01*
X-2794Y-9867D01*
X-2830Y-9882D01*
X-2944D01*
X-2977Y-9867D01*
X-3158Y-9861D01*
X-3317Y-9843D01*
X-3468Y-9814D01*
X-3614Y-9774D01*
X-3754Y-9723D01*
X-3889Y-9660D01*
X-4021Y-9586D01*
X-4148Y-9499D01*
X-4273Y-9399D01*
X-4405Y-9276D01*
X-4439Y-9263D01*
X-5082Y-8620D01*
Y-7230D01*
X-5067Y-7194D01*
X-5066Y-7101D01*
X-5063Y-7027D01*
X-5050Y-6894D01*
X-5043Y-6854D01*
X-5036Y-6823D01*
X-5031Y-6807D01*
X-5022Y-6793D01*
X-5021Y-6786D01*
X-5020Y-6781D01*
X-5019Y-6772D01*
X-5017Y-6756D01*
X-4898Y-6636D01*
X-4700Y-6159D01*
Y-5641D01*
X-4898Y-5164D01*
X-5264Y-4798D01*
X-5741Y-4600D01*
X-6259D01*
X-6736Y-4798D01*
X-7102Y-5164D01*
X-7300Y-5641D01*
Y-5787D01*
X-7800Y-5874D01*
X-7975Y-5613D01*
X-8332Y-5374D01*
X-8335Y-5360D01*
Y-4876D01*
X-8332Y-4863D01*
X-7975Y-4624D01*
X-7734Y-4264D01*
X-7649Y-3839D01*
X-7734Y-3414D01*
X-7975Y-3053D01*
X-8332Y-2815D01*
X-8335Y-2801D01*
Y-2317D01*
X-8332Y-2303D01*
X-7975Y-2065D01*
X-7734Y-1704D01*
X-7649Y-1280D01*
X-7734Y-855D01*
X-7975Y-494D01*
X-8332Y-255D01*
X-8335Y-242D01*
Y242D01*
X-8332Y255D01*
X-7975Y494D01*
X-7734Y855D01*
X-7649Y1280D01*
X-7734Y1704D01*
X-7975Y2065D01*
X-8332Y2303D01*
X-8335Y2317D01*
Y2801D01*
X-8332Y2815D01*
X-7975Y3053D01*
X-7734Y3414D01*
X-7649Y3839D01*
X-7734Y4264D01*
X-7975Y4624D01*
X-8332Y4863D01*
X-8335Y4876D01*
Y5360D01*
X-8332Y5374D01*
X-7975Y5613D01*
X-7734Y5973D01*
X-7649Y6398D01*
X-7734Y6822D01*
X-7975Y7183D01*
X-8332Y7422D01*
X-8335Y7435D01*
Y7919D01*
X-8332Y7933D01*
X-7975Y8172D01*
X-7734Y8532D01*
X-7649Y8957D01*
X-7734Y9382D01*
X-7975Y9742D01*
X-8335Y9983D01*
X-8760Y10067D01*
X-13287D01*
X-13712Y9983D01*
X-13837Y9899D01*
X-14337Y10166D01*
Y14500D01*
X-14324D01*
X-14228Y15231D01*
X-13946Y15912D01*
X-13497Y16497D01*
X-12912Y16946D01*
X-12231Y17228D01*
X-11500Y17324D01*
Y17337D01*
X-9568D01*
X-9462Y17232D01*
D02*
G37*
G36*
X-5395Y-6572D02*
X-5417Y-6609D01*
X-5436Y-6654D01*
X-5453Y-6707D01*
X-5468Y-6768D01*
X-5479Y-6836D01*
X-5495Y-6997D01*
X-5499Y-7089D01*
X-5500Y-7188D01*
X-6500D01*
X-6501Y-7089D01*
X-6521Y-6836D01*
X-6532Y-6768D01*
X-6547Y-6707D01*
X-6564Y-6654D01*
X-6583Y-6609D01*
X-6605Y-6572D01*
X-6630Y-6543D01*
X-5370D01*
X-5395Y-6572D01*
D02*
G37*
G36*
X-2143Y-11430D02*
X-2172Y-11405D01*
X-2209Y-11383D01*
X-2254Y-11364D01*
X-2307Y-11347D01*
X-2368Y-11332D01*
X-2436Y-11321D01*
X-2597Y-11305D01*
X-2689Y-11301D01*
X-2788Y-11300D01*
Y-10300D01*
X-2689Y-10299D01*
X-2436Y-10279D01*
X-2368Y-10267D01*
X-2307Y-10253D01*
X-2254Y-10236D01*
X-2209Y-10217D01*
X-2172Y-10195D01*
X-2143Y-10170D01*
Y-11430D01*
D02*
G37*
G36*
X-4556Y-9727D02*
X-4405Y-9848D01*
X-4249Y-9954D01*
X-4087Y-10045D01*
X-3920Y-10123D01*
X-3746Y-10187D01*
X-3567Y-10236D01*
X-3381Y-10272D01*
X-3190Y-10293D01*
X-2993Y-10300D01*
Y-11300D01*
X-3189Y-11306D01*
X-3379Y-11326D01*
X-3562Y-11359D01*
X-3737Y-11405D01*
X-3906Y-11463D01*
X-4068Y-11535D01*
X-4223Y-11620D01*
X-4371Y-11718D01*
X-4512Y-11829D01*
X-4646Y-11953D01*
X-5353Y-11247D01*
X-5276Y-11155D01*
X-5221Y-11057D01*
X-5190Y-10955D01*
X-5181Y-10848D01*
X-5195Y-10735D01*
X-5233Y-10617D01*
X-5294Y-10494D01*
X-5378Y-10365D01*
X-5484Y-10232D01*
X-5614Y-10093D01*
X-4700Y-9593D01*
X-4556Y-9727D01*
D02*
G37*
G36*
X-10119Y-12197D02*
X-10204Y-12207D01*
X-10279Y-12222D01*
X-10344Y-12244D01*
X-10399Y-12272D01*
X-10444Y-12306D01*
X-10479Y-12347D01*
X-10504Y-12394D01*
X-10519Y-12447D01*
X-10524Y-12506D01*
X-11524D01*
X-11529Y-12447D01*
X-11544Y-12394D01*
X-11569Y-12347D01*
X-11604Y-12306D01*
X-11649Y-12272D01*
X-11704Y-12244D01*
X-11769Y-12222D01*
X-11844Y-12207D01*
X-11929Y-12197D01*
X-12024Y-12194D01*
X-10024D01*
X-10119Y-12197D01*
D02*
G37*
G36*
X-4495Y-14079D02*
X-4480Y-14133D01*
X-4455Y-14180D01*
X-4420Y-14221D01*
X-4376Y-14256D01*
X-4321Y-14284D01*
X-4256Y-14306D01*
X-4182Y-14322D01*
X-4097Y-14331D01*
X-4002Y-14334D01*
X-5998D01*
X-5903Y-14331D01*
X-5818Y-14322D01*
X-5744Y-14306D01*
X-5679Y-14284D01*
X-5624Y-14256D01*
X-5580Y-14221D01*
X-5545Y-14180D01*
X-5520Y-14133D01*
X-5505Y-14079D01*
X-5500Y-14020D01*
X-4500D01*
X-4495Y-14079D01*
D02*
G37*
G36*
X-10519Y-14080D02*
X-10504Y-14134D01*
X-10479Y-14182D01*
X-10444Y-14222D01*
X-10399Y-14257D01*
X-10344Y-14285D01*
X-10279Y-14306D01*
X-10204Y-14321D01*
X-10119Y-14330D01*
X-10024Y-14332D01*
X-12021Y-14358D01*
X-11927Y-14353D01*
X-11842Y-14342D01*
X-11767Y-14325D01*
X-11703Y-14301D01*
X-11648Y-14270D01*
X-11603Y-14233D01*
X-11568Y-14189D01*
X-11543Y-14139D01*
X-11529Y-14083D01*
X-11524Y-14020D01*
X-10524D01*
X-10519Y-14080D01*
D02*
G37*
D12*
X-11024Y11516D02*
D03*
Y8957D02*
D03*
Y6398D02*
D03*
Y3839D02*
D03*
Y1280D02*
D03*
Y-1280D02*
D03*
Y-3839D02*
D03*
Y-6398D02*
D03*
Y-8957D02*
D03*
Y-11516D02*
D03*
X11024Y11516D02*
D03*
Y8957D02*
D03*
Y6398D02*
D03*
Y3839D02*
D03*
Y1280D02*
D03*
Y-1280D02*
D03*
Y-3839D02*
D03*
Y-6398D02*
D03*
Y-8957D02*
D03*
Y-11516D02*
D03*
D13*
X905Y-15500D02*
D03*
X-5000D02*
D03*
X-10905D02*
D03*
D14*
X-11811Y15548D02*
D03*
X-7874D02*
D03*
X-3937D02*
D03*
X0D02*
D03*
D15*
X12811Y15749D02*
D03*
X4937D02*
D03*
X8874D02*
D03*
D20*
X11300Y14200D02*
X12811Y15711D01*
Y15749D01*
D21*
X-700Y-6100D02*
X8200Y-15000D01*
X-700Y-6100D02*
Y7100D01*
X-5900Y12300D02*
X-700Y7100D01*
X4100Y4200D02*
X7021Y1280D01*
X11024D01*
X-7874Y14274D02*
X-5900Y12300D01*
X8200Y-15000D02*
X11000D01*
X-7874Y14274D02*
Y15548D01*
D22*
X6900Y4900D02*
Y7400D01*
Y4900D02*
X8300Y3500D01*
X1300Y13000D02*
X6900Y7400D01*
X8300Y3500D02*
X10685D01*
X11024Y3839D01*
X-2100Y13000D02*
X1300D01*
X-3937Y14837D02*
X-2100Y13000D01*
X-3937Y14837D02*
X-3937Y15548D01*
X9150Y6398D02*
X11024D01*
X0Y15548D02*
X9150Y6398D01*
X4937Y12563D02*
X8543Y8957D01*
X11024D01*
X4937Y12563D02*
Y15749D01*
X8874Y13665D02*
X11024Y11516D01*
X8874Y13665D02*
Y15749D01*
D23*
X-6000Y-9000D02*
X-4200Y-10800D01*
X-6000Y-9000D02*
Y-5900D01*
X5600Y-5500D02*
X6498Y-6398D01*
X11024D01*
X-5000Y-11600D02*
X-4200Y-10800D01*
X-1500D01*
X-5000Y-15500D02*
Y-11600D01*
X-11024Y-15382D02*
Y-11516D01*
D24*
X-10300Y1300D02*
D03*
X-12500Y3900D02*
D03*
X2700Y-5700D02*
D03*
X4800Y-15500D02*
D03*
X11300Y14200D02*
D03*
X-10500Y13000D02*
D03*
X-12900D02*
D03*
X-100Y11200D02*
D03*
X1600Y8400D02*
D03*
X4100Y7300D02*
D03*
X-5900Y-1100D02*
D03*
X-4100Y1700D02*
D03*
X-5000Y7400D02*
D03*
X4100Y4200D02*
D03*
X-6000Y-5900D02*
D03*
X8200Y-15000D02*
D03*
X11000D02*
D03*
X5600Y-5500D02*
D03*
X12300Y-9000D02*
D03*
X-1500Y-10800D02*
D03*
X-7900Y14100D02*
D03*
X-5900Y12300D02*
D03*
M02*
