G04*
G04 #@! TF.GenerationSoftware,Altium Limited,Altium Designer,22.0.2 (36)*
G04*
G04 Layer_Color=32896*
%FSLAX25Y25*%
%MOIN*%
G70*
G04*
G04 #@! TF.SameCoordinates,638AD50F-1192-470F-B5B9-D779ECB08856*
G04*
G04*
G04 #@! TF.FilePolarity,Positive*
G04*
G01*
G75*
%ADD10C,0.00984*%
%ADD11C,0.00787*%
%ADD37C,0.00100*%
G36*
X-10600Y9800D02*
X-12400D01*
Y10150D01*
X-10600D01*
Y9800D01*
D02*
G37*
G36*
Y8850D02*
X-12400D01*
Y9200D01*
X-10600D01*
Y8850D01*
D02*
G37*
G36*
X-10550Y1850D02*
X-10900D01*
Y3150D01*
X-10550D01*
Y1850D01*
D02*
G37*
G36*
X-12100Y3150D02*
Y1850D01*
X-12450Y1850D01*
Y3150D01*
X-12100Y3150D01*
D02*
G37*
G36*
X-12050Y-5650D02*
X-12400Y-5650D01*
Y-4350D01*
X-12050Y-4350D01*
Y-5650D01*
D02*
G37*
G36*
X-13600D02*
X-13950D01*
Y-4350D01*
X-13600D01*
Y-5650D01*
D02*
G37*
G36*
X10650Y10600D02*
X10300D01*
Y12400D01*
X10650D01*
Y10600D01*
D02*
G37*
G36*
X9700D02*
X9350D01*
Y12400D01*
X9700D01*
Y10600D01*
D02*
G37*
G36*
X10650Y7600D02*
X10300D01*
Y9400D01*
X10650D01*
Y7600D01*
D02*
G37*
G36*
X9700D02*
X9350D01*
Y9400D01*
X9700D01*
Y7600D01*
D02*
G37*
G36*
X10650Y4600D02*
X10300D01*
Y6400D01*
X10650D01*
Y4600D01*
D02*
G37*
G36*
X9700D02*
X9350D01*
Y6400D01*
X9700D01*
Y4600D01*
D02*
G37*
G36*
X-7526Y14840D02*
X-8003D01*
X-8728Y17156D01*
X-8285D01*
X-7770Y15266D01*
X-7263Y17156D01*
X-6801D01*
X-7526Y14840D01*
D02*
G37*
G36*
X-3848Y17193D02*
X-3748Y17178D01*
X-3660Y17156D01*
X-3582Y17130D01*
X-3549Y17116D01*
X-3515Y17101D01*
X-3489Y17090D01*
X-3467Y17079D01*
X-3449Y17071D01*
X-3438Y17064D01*
X-3430Y17056D01*
X-3426D01*
X-3341Y16997D01*
X-3267Y16934D01*
X-3204Y16864D01*
X-3153Y16797D01*
X-3108Y16738D01*
X-3093Y16712D01*
X-3079Y16690D01*
X-3067Y16671D01*
X-3060Y16657D01*
X-3053Y16649D01*
Y16646D01*
X-3008Y16542D01*
X-2975Y16431D01*
X-2949Y16324D01*
X-2934Y16224D01*
X-2927Y16176D01*
X-2923Y16135D01*
X-2919Y16098D01*
Y16065D01*
X-2916Y16039D01*
Y16020D01*
Y16005D01*
Y16002D01*
X-2923Y15865D01*
X-2938Y15739D01*
X-2945Y15680D01*
X-2957Y15628D01*
X-2971Y15576D01*
X-2983Y15532D01*
X-2994Y15491D01*
X-3008Y15454D01*
X-3019Y15421D01*
X-3027Y15395D01*
X-3038Y15377D01*
X-3042Y15358D01*
X-3049Y15351D01*
Y15347D01*
X-3105Y15251D01*
X-3164Y15169D01*
X-3223Y15099D01*
X-3286Y15040D01*
X-3338Y14995D01*
X-3378Y14962D01*
X-3397Y14951D01*
X-3408Y14944D01*
X-3415Y14936D01*
X-3419D01*
X-3511Y14892D01*
X-3604Y14859D01*
X-3693Y14833D01*
X-3778Y14818D01*
X-3815Y14810D01*
X-3848Y14807D01*
X-3878Y14803D01*
X-3904D01*
X-3926Y14799D01*
X-3956D01*
X-4037Y14803D01*
X-4115Y14810D01*
X-4189Y14825D01*
X-4259Y14844D01*
X-4326Y14866D01*
X-4385Y14892D01*
X-4444Y14918D01*
X-4492Y14947D01*
X-4540Y14973D01*
X-4581Y14999D01*
X-4614Y15025D01*
X-4644Y15047D01*
X-4666Y15066D01*
X-4681Y15080D01*
X-4692Y15088D01*
X-4696Y15092D01*
X-4485Y15362D01*
X-4436Y15328D01*
X-4389Y15295D01*
X-4348Y15273D01*
X-4311Y15251D01*
X-4278Y15236D01*
X-4255Y15221D01*
X-4240Y15217D01*
X-4237Y15214D01*
X-4192Y15199D01*
X-4148Y15188D01*
X-4104Y15177D01*
X-4063Y15173D01*
X-4026Y15169D01*
X-3996Y15166D01*
X-3970D01*
X-3922Y15169D01*
X-3874Y15173D01*
X-3793Y15195D01*
X-3719Y15229D01*
X-3656Y15266D01*
X-3608Y15303D01*
X-3571Y15336D01*
X-3549Y15358D01*
X-3545Y15362D01*
X-3541Y15365D01*
X-3511Y15406D01*
X-3489Y15451D01*
X-3449Y15551D01*
X-3419Y15654D01*
X-3401Y15758D01*
X-3393Y15810D01*
X-3386Y15854D01*
X-3382Y15895D01*
Y15932D01*
X-3378Y15961D01*
Y15983D01*
Y15998D01*
Y16002D01*
X-3382Y16083D01*
X-3386Y16157D01*
X-3393Y16224D01*
X-3404Y16287D01*
X-3415Y16346D01*
X-3430Y16398D01*
X-3445Y16446D01*
X-3460Y16487D01*
X-3475Y16524D01*
X-3489Y16557D01*
X-3504Y16583D01*
X-3515Y16605D01*
X-3526Y16620D01*
X-3534Y16631D01*
X-3541Y16638D01*
Y16642D01*
X-3574Y16679D01*
X-3608Y16709D01*
X-3641Y16735D01*
X-3678Y16757D01*
X-3748Y16794D01*
X-3815Y16816D01*
X-3878Y16831D01*
X-3900Y16834D01*
X-3922Y16838D01*
X-3941Y16842D01*
X-4011D01*
X-4059Y16834D01*
X-4144Y16816D01*
X-4226Y16790D01*
X-4296Y16760D01*
X-4355Y16727D01*
X-4377Y16712D01*
X-4400Y16701D01*
X-4414Y16690D01*
X-4425Y16683D01*
X-4433Y16679D01*
X-4436Y16675D01*
X-4662Y16945D01*
X-4603Y16994D01*
X-4544Y17034D01*
X-4492Y17071D01*
X-4440Y17097D01*
X-4400Y17116D01*
X-4370Y17130D01*
X-4348Y17138D01*
X-4344Y17142D01*
X-4340D01*
X-4278Y17160D01*
X-4211Y17175D01*
X-4144Y17186D01*
X-4085Y17193D01*
X-4033Y17197D01*
X-3989Y17201D01*
X-3952D01*
X-3848Y17193D01*
D02*
G37*
G36*
X-11789D02*
X-11692Y17178D01*
X-11607Y17156D01*
X-11529Y17130D01*
X-11496Y17116D01*
X-11467Y17104D01*
X-11441Y17093D01*
X-11418Y17082D01*
X-11400Y17075D01*
X-11389Y17067D01*
X-11381Y17060D01*
X-11378D01*
X-11296Y17005D01*
X-11222Y16938D01*
X-11159Y16871D01*
X-11104Y16805D01*
X-11063Y16746D01*
X-11048Y16720D01*
X-11034Y16698D01*
X-11022Y16679D01*
X-11015Y16664D01*
X-11008Y16657D01*
Y16653D01*
X-10963Y16549D01*
X-10930Y16439D01*
X-10908Y16327D01*
X-10893Y16228D01*
X-10886Y16179D01*
X-10882Y16135D01*
X-10878Y16098D01*
Y16065D01*
X-10875Y16039D01*
Y16020D01*
Y16005D01*
Y16002D01*
X-10878Y15895D01*
X-10886Y15795D01*
X-10897Y15702D01*
X-10915Y15613D01*
X-10934Y15532D01*
X-10952Y15462D01*
X-10975Y15395D01*
X-11000Y15332D01*
X-11022Y15280D01*
X-11045Y15236D01*
X-11063Y15195D01*
X-11085Y15162D01*
X-11100Y15140D01*
X-11111Y15121D01*
X-11119Y15110D01*
X-11123Y15107D01*
X-11171Y15051D01*
X-11226Y15007D01*
X-11282Y14966D01*
X-11337Y14929D01*
X-11396Y14899D01*
X-11456Y14873D01*
X-11515Y14855D01*
X-11570Y14836D01*
X-11622Y14825D01*
X-11670Y14814D01*
X-11714Y14810D01*
X-11751Y14803D01*
X-11781D01*
X-11807Y14799D01*
X-11825D01*
X-11911Y14803D01*
X-11988Y14807D01*
X-12059Y14814D01*
X-12118Y14825D01*
X-12169Y14836D01*
X-12207Y14844D01*
X-12221Y14848D01*
X-12233D01*
X-12236Y14851D01*
X-12240D01*
X-12310Y14873D01*
X-12377Y14899D01*
X-12440Y14929D01*
X-12499Y14955D01*
X-12547Y14977D01*
X-12584Y14995D01*
X-12599Y15003D01*
X-12610Y15010D01*
X-12614Y15014D01*
X-12617D01*
Y16157D01*
X-11759D01*
X-11803Y15806D01*
X-12181D01*
Y15232D01*
X-12125Y15206D01*
X-12070Y15184D01*
X-12014Y15169D01*
X-11962Y15162D01*
X-11914Y15155D01*
X-11877Y15151D01*
X-11844D01*
X-11800Y15155D01*
X-11755Y15158D01*
X-11677Y15180D01*
X-11611Y15214D01*
X-11559Y15251D01*
X-11515Y15284D01*
X-11485Y15317D01*
X-11470Y15339D01*
X-11463Y15343D01*
Y15347D01*
X-11441Y15388D01*
X-11422Y15432D01*
X-11404Y15480D01*
X-11389Y15532D01*
X-11367Y15639D01*
X-11352Y15746D01*
X-11348Y15798D01*
X-11344Y15846D01*
X-11341Y15891D01*
Y15928D01*
X-11337Y15958D01*
Y15983D01*
Y15998D01*
Y16002D01*
X-11341Y16083D01*
X-11344Y16157D01*
X-11352Y16224D01*
X-11363Y16287D01*
X-11374Y16346D01*
X-11389Y16398D01*
X-11404Y16446D01*
X-11418Y16487D01*
X-11433Y16524D01*
X-11444Y16557D01*
X-11459Y16583D01*
X-11470Y16605D01*
X-11481Y16620D01*
X-11489Y16631D01*
X-11496Y16638D01*
Y16642D01*
X-11526Y16679D01*
X-11559Y16709D01*
X-11592Y16735D01*
X-11626Y16757D01*
X-11696Y16794D01*
X-11759Y16816D01*
X-11818Y16831D01*
X-11840Y16834D01*
X-11862Y16838D01*
X-11881Y16842D01*
X-11947D01*
X-11988Y16834D01*
X-12029Y16827D01*
X-12059Y16820D01*
X-12088Y16812D01*
X-12107Y16805D01*
X-12122Y16801D01*
X-12125Y16797D01*
X-12166Y16779D01*
X-12203Y16757D01*
X-12244Y16735D01*
X-12277Y16712D01*
X-12306Y16690D01*
X-12329Y16671D01*
X-12347Y16660D01*
X-12351Y16657D01*
X-12595Y16908D01*
X-12536Y16964D01*
X-12480Y17012D01*
X-12425Y17049D01*
X-12377Y17082D01*
X-12336Y17104D01*
X-12306Y17123D01*
X-12284Y17130D01*
X-12280Y17134D01*
X-12277D01*
X-12214Y17156D01*
X-12151Y17171D01*
X-12084Y17186D01*
X-12025Y17193D01*
X-11973Y17197D01*
X-11929Y17201D01*
X-11892D01*
X-11789Y17193D01*
D02*
G37*
G36*
X1025Y14840D02*
X440D01*
X355Y14844D01*
X274Y14851D01*
X196Y14862D01*
X122Y14881D01*
X55Y14899D01*
X-11Y14921D01*
X-67Y14944D01*
X-122Y14970D01*
X-170Y14992D01*
X-211Y15014D01*
X-248Y15036D01*
X-278Y15055D01*
X-304Y15073D01*
X-318Y15084D01*
X-330Y15092D01*
X-333Y15095D01*
X-389Y15147D01*
X-437Y15210D01*
X-478Y15277D01*
X-515Y15347D01*
X-544Y15425D01*
X-570Y15499D01*
X-589Y15576D01*
X-607Y15650D01*
X-618Y15724D01*
X-629Y15791D01*
X-633Y15854D01*
X-640Y15906D01*
Y15950D01*
X-644Y15983D01*
Y16005D01*
Y16013D01*
X-640Y16131D01*
X-629Y16239D01*
X-614Y16339D01*
X-596Y16427D01*
X-574Y16509D01*
X-544Y16583D01*
X-518Y16649D01*
X-489Y16705D01*
X-459Y16753D01*
X-433Y16797D01*
X-407Y16831D01*
X-381Y16860D01*
X-363Y16883D01*
X-348Y16897D01*
X-337Y16905D01*
X-333Y16908D01*
X-274Y16953D01*
X-211Y16990D01*
X-145Y17023D01*
X-78Y17053D01*
X-11Y17075D01*
X55Y17097D01*
X185Y17127D01*
X244Y17134D01*
X299Y17142D01*
X347Y17149D01*
X392Y17153D01*
X425Y17156D01*
X1025D01*
Y14840D01*
D02*
G37*
%LPC*%
G36*
X577Y16801D02*
X355D01*
X311Y16794D01*
X225Y16775D01*
X155Y16749D01*
X92Y16720D01*
X44Y16690D01*
X11Y16664D01*
X-11Y16646D01*
X-19Y16642D01*
Y16638D01*
X-48Y16605D01*
X-71Y16564D01*
X-93Y16520D01*
X-111Y16472D01*
X-141Y16372D01*
X-159Y16264D01*
X-163Y16217D01*
X-170Y16168D01*
X-174Y16128D01*
Y16087D01*
X-178Y16057D01*
Y16035D01*
Y16017D01*
Y16013D01*
Y15939D01*
X-170Y15869D01*
X-163Y15802D01*
X-152Y15739D01*
X-141Y15684D01*
X-126Y15632D01*
X-108Y15580D01*
X-89Y15536D01*
X-45Y15454D01*
X3Y15388D01*
X55Y15336D01*
X111Y15292D01*
X166Y15258D01*
X218Y15232D01*
X266Y15214D01*
X311Y15203D01*
X347Y15195D01*
X374Y15188D01*
X577D01*
Y16801D01*
D02*
G37*
%LPD*%
D10*
X1209Y-776D02*
G03*
X1209Y-776I-492J0D01*
G01*
D11*
X1102Y-5787D02*
Y-1457D01*
X-2244D02*
X1102D01*
X-11102Y-5787D02*
Y-1457D01*
X-7756D01*
X-2287Y1898D02*
X2043D01*
Y5244D01*
X-2287Y14102D02*
X2043D01*
Y10756D02*
Y14102D01*
D37*
X-10600Y8850D02*
Y9200D01*
X-12400Y8850D02*
Y9200D01*
X-10600D01*
X-12400Y8850D02*
X-10600D01*
X-12400Y10150D02*
X-10600D01*
X-12400Y9800D02*
X-10600D01*
Y10150D01*
X-12400Y9800D02*
Y10150D01*
X-10550Y1850D02*
Y3150D01*
X-10900D02*
X-10550D01*
X-10900Y1850D02*
Y3150D01*
Y1850D02*
X-10550D01*
X-12450Y3150D02*
X-12100Y3150D01*
Y1850D02*
Y3150D01*
X-12450Y1850D02*
X-12100Y1850D01*
X-12450Y1850D02*
Y3150D01*
X-13950Y-5650D02*
Y-4350D01*
Y-5650D02*
X-13600D01*
Y-4350D01*
X-13950D02*
X-13600D01*
X-12400Y-5650D02*
X-12050Y-5650D01*
X-12400Y-5650D02*
Y-4350D01*
X-12050Y-4350D01*
Y-5650D02*
Y-4350D01*
X9350Y4600D02*
X9700D01*
X9350Y6400D02*
X9700D01*
Y4600D02*
Y6400D01*
X9350Y4600D02*
Y6400D01*
X10650Y4600D02*
Y6400D01*
X10300Y4600D02*
Y6400D01*
Y4600D02*
X10650D01*
X10300Y6400D02*
X10650D01*
X9350Y7600D02*
X9700D01*
X9350Y9400D02*
X9700D01*
Y7600D02*
Y9400D01*
X9350Y7600D02*
Y9400D01*
X10650Y7600D02*
Y9400D01*
X10300Y7600D02*
Y9400D01*
Y7600D02*
X10650D01*
X10300Y9400D02*
X10650D01*
X10300Y12400D02*
X10650D01*
X10300Y10600D02*
X10650D01*
X10300D02*
Y12400D01*
X10650Y10600D02*
Y12400D01*
X9350Y10600D02*
Y12400D01*
X9700Y10600D02*
Y12400D01*
X9350D02*
X9700D01*
X9350Y10600D02*
X9700D01*
M02*
