G04*
G04 #@! TF.GenerationSoftware,Altium Limited,Altium Designer,22.0.2 (36)*
G04*
G04 Layer_Color=65535*
%FSLAX25Y25*%
%MOIN*%
G70*
G04*
G04 #@! TF.SameCoordinates,638AD50F-1192-470F-B5B9-D779ECB08856*
G04*
G04*
G04 #@! TF.FilePolarity,Positive*
G04*
G01*
G75*
%ADD10C,0.00984*%
%ADD11C,0.00787*%
G36*
X12677Y-14203D02*
X12729Y-14207D01*
X12788Y-14214D01*
X12855Y-14229D01*
X12918Y-14244D01*
X12981Y-14266D01*
X12984D01*
X12988Y-14270D01*
X13010Y-14277D01*
X13040Y-14296D01*
X13081Y-14318D01*
X13129Y-14351D01*
X13184Y-14388D01*
X13240Y-14436D01*
X13299Y-14492D01*
X13055Y-14743D01*
X13051Y-14739D01*
X13032Y-14728D01*
X13010Y-14710D01*
X12981Y-14688D01*
X12947Y-14665D01*
X12907Y-14643D01*
X12870Y-14621D01*
X12829Y-14603D01*
X12825Y-14599D01*
X12810Y-14595D01*
X12792Y-14588D01*
X12762Y-14580D01*
X12733Y-14573D01*
X12692Y-14566D01*
X12651Y-14558D01*
X12585D01*
X12566Y-14562D01*
X12544Y-14566D01*
X12522Y-14569D01*
X12463Y-14584D01*
X12400Y-14606D01*
X12329Y-14643D01*
X12296Y-14665D01*
X12263Y-14692D01*
X12229Y-14721D01*
X12200Y-14758D01*
Y-14762D01*
X12192Y-14769D01*
X12185Y-14780D01*
X12174Y-14795D01*
X12163Y-14817D01*
X12148Y-14843D01*
X12137Y-14876D01*
X12122Y-14913D01*
X12107Y-14954D01*
X12093Y-15002D01*
X12078Y-15054D01*
X12067Y-15113D01*
X12056Y-15176D01*
X12048Y-15243D01*
X12044Y-15317D01*
X12041Y-15398D01*
Y-15402D01*
Y-15417D01*
Y-15442D01*
X12044Y-15472D01*
Y-15509D01*
X12048Y-15554D01*
X12052Y-15602D01*
X12056Y-15653D01*
X12070Y-15761D01*
X12093Y-15868D01*
X12107Y-15920D01*
X12126Y-15968D01*
X12144Y-16012D01*
X12167Y-16053D01*
Y-16057D01*
X12174Y-16060D01*
X12189Y-16083D01*
X12218Y-16116D01*
X12263Y-16149D01*
X12315Y-16186D01*
X12381Y-16220D01*
X12459Y-16242D01*
X12503Y-16245D01*
X12548Y-16249D01*
X12581D01*
X12618Y-16245D01*
X12666Y-16238D01*
X12718Y-16231D01*
X12773Y-16216D01*
X12829Y-16194D01*
X12884Y-16168D01*
Y-15594D01*
X12507D01*
X12463Y-15243D01*
X13321D01*
Y-16386D01*
X13317D01*
X13314Y-16390D01*
X13303Y-16397D01*
X13288Y-16405D01*
X13251Y-16423D01*
X13203Y-16445D01*
X13143Y-16471D01*
X13081Y-16501D01*
X13014Y-16527D01*
X12944Y-16549D01*
X12940D01*
X12936Y-16553D01*
X12925D01*
X12910Y-16556D01*
X12873Y-16564D01*
X12822Y-16575D01*
X12762Y-16586D01*
X12692Y-16593D01*
X12614Y-16597D01*
X12529Y-16601D01*
X12511D01*
X12485Y-16597D01*
X12455D01*
X12418Y-16590D01*
X12374Y-16586D01*
X12326Y-16575D01*
X12274Y-16564D01*
X12218Y-16545D01*
X12159Y-16527D01*
X12100Y-16501D01*
X12041Y-16471D01*
X11985Y-16434D01*
X11930Y-16394D01*
X11874Y-16349D01*
X11826Y-16294D01*
X11823Y-16290D01*
X11815Y-16279D01*
X11804Y-16260D01*
X11789Y-16238D01*
X11767Y-16205D01*
X11749Y-16164D01*
X11726Y-16120D01*
X11704Y-16068D01*
X11678Y-16005D01*
X11656Y-15938D01*
X11637Y-15868D01*
X11619Y-15787D01*
X11601Y-15698D01*
X11589Y-15605D01*
X11582Y-15505D01*
X11578Y-15398D01*
Y-15394D01*
Y-15380D01*
Y-15361D01*
X11582Y-15335D01*
Y-15302D01*
X11586Y-15265D01*
X11589Y-15221D01*
X11597Y-15172D01*
X11612Y-15073D01*
X11634Y-14962D01*
X11667Y-14851D01*
X11711Y-14747D01*
Y-14743D01*
X11719Y-14736D01*
X11726Y-14721D01*
X11737Y-14703D01*
X11752Y-14680D01*
X11767Y-14654D01*
X11808Y-14595D01*
X11863Y-14529D01*
X11926Y-14462D01*
X12000Y-14395D01*
X12082Y-14340D01*
X12085D01*
X12093Y-14333D01*
X12104Y-14325D01*
X12122Y-14318D01*
X12144Y-14307D01*
X12170Y-14296D01*
X12200Y-14285D01*
X12233Y-14270D01*
X12311Y-14244D01*
X12396Y-14221D01*
X12492Y-14207D01*
X12596Y-14199D01*
X12633D01*
X12677Y-14203D01*
D02*
G37*
G36*
X8707Y-16560D02*
X8230D01*
X7505Y-14244D01*
X7967D01*
X8474Y-16135D01*
X8988Y-14244D01*
X9432D01*
X8707Y-16560D01*
D02*
G37*
G36*
X5451D02*
X4992D01*
X4833Y-16020D01*
X4082D01*
X3923Y-16560D01*
X3479D01*
X4204Y-14244D01*
X4726D01*
X5451Y-16560D01*
D02*
G37*
%LPC*%
G36*
X4459Y-14603D02*
X4167Y-15661D01*
X4748D01*
X4459Y-14603D01*
D02*
G37*
%LPD*%
D10*
X-3508Y11000D02*
G03*
X-3508Y11000I-492J0D01*
G01*
D11*
X-6496Y-12992D02*
Y12992D01*
X6496Y-12992D02*
Y12992D01*
X-6496D02*
X6496D01*
X-6496Y-12992D02*
X6496D01*
M02*
