G04*
G04 #@! TF.GenerationSoftware,Altium Limited,Altium Designer,22.0.2 (36)*
G04*
G04 Layer_Color=16711935*
%FSLAX25Y25*%
%MOIN*%
G70*
G04*
G04 #@! TF.SameCoordinates,638AD50F-1192-470F-B5B9-D779ECB08856*
G04*
G04*
G04 #@! TF.FilePolarity,Negative*
G04*
G01*
G75*
G04:AMPARAMS|DCode=31|XSize=29.62mil|YSize=45.37mil|CornerRadius=8.91mil|HoleSize=0mil|Usage=FLASHONLY|Rotation=0.000|XOffset=0mil|YOffset=0mil|HoleType=Round|Shape=RoundedRectangle|*
%AMROUNDEDRECTD31*
21,1,0.02962,0.02756,0,0,0.0*
21,1,0.01181,0.04537,0,0,0.0*
1,1,0.01781,0.00591,-0.01378*
1,1,0.01781,-0.00591,-0.01378*
1,1,0.01781,-0.00591,0.01378*
1,1,0.01781,0.00591,0.01378*
%
%ADD31ROUNDEDRECTD31*%
G04:AMPARAMS|DCode=32|XSize=37.5mil|YSize=61mil|CornerRadius=10.87mil|HoleSize=0mil|Usage=FLASHONLY|Rotation=90.000|XOffset=0mil|YOffset=0mil|HoleType=Round|Shape=RoundedRectangle|*
%AMROUNDEDRECTD32*
21,1,0.03750,0.03925,0,0,90.0*
21,1,0.01575,0.06100,0,0,90.0*
1,1,0.02175,0.01963,0.00787*
1,1,0.02175,0.01963,-0.00787*
1,1,0.02175,-0.01963,-0.00787*
1,1,0.02175,-0.01963,0.00787*
%
%ADD32ROUNDEDRECTD32*%
G04:AMPARAMS|DCode=33|XSize=26mil|YSize=26mil|CornerRadius=8mil|HoleSize=0mil|Usage=FLASHONLY|Rotation=180.000|XOffset=0mil|YOffset=0mil|HoleType=Round|Shape=RoundedRectangle|*
%AMROUNDEDRECTD33*
21,1,0.02600,0.01000,0,0,180.0*
21,1,0.01000,0.02600,0,0,180.0*
1,1,0.01600,-0.00500,0.00500*
1,1,0.01600,0.00500,0.00500*
1,1,0.01600,0.00500,-0.00500*
1,1,0.01600,-0.00500,-0.00500*
%
%ADD33ROUNDEDRECTD33*%
G04:AMPARAMS|DCode=34|XSize=26mil|YSize=26mil|CornerRadius=8mil|HoleSize=0mil|Usage=FLASHONLY|Rotation=90.000|XOffset=0mil|YOffset=0mil|HoleType=Round|Shape=RoundedRectangle|*
%AMROUNDEDRECTD34*
21,1,0.02600,0.01000,0,0,90.0*
21,1,0.01000,0.02600,0,0,90.0*
1,1,0.01600,0.00500,0.00500*
1,1,0.01600,0.00500,-0.00500*
1,1,0.01600,-0.00500,-0.00500*
1,1,0.01600,-0.00500,0.00500*
%
%ADD34ROUNDEDRECTD34*%
G04:AMPARAMS|DCode=35|XSize=29.62mil|YSize=41mil|CornerRadius=8.91mil|HoleSize=0mil|Usage=FLASHONLY|Rotation=270.000|XOffset=0mil|YOffset=0mil|HoleType=Round|Shape=RoundedRectangle|*
%AMROUNDEDRECTD35*
21,1,0.02962,0.02319,0,0,270.0*
21,1,0.01181,0.04100,0,0,270.0*
1,1,0.01781,-0.01159,-0.00591*
1,1,0.01781,-0.01159,0.00591*
1,1,0.01781,0.01159,0.00591*
1,1,0.01781,0.01159,-0.00591*
%
%ADD35ROUNDEDRECTD35*%
G04:AMPARAMS|DCode=36|XSize=33.56mil|YSize=57.18mil|CornerRadius=9.89mil|HoleSize=0mil|Usage=FLASHONLY|Rotation=180.000|XOffset=0mil|YOffset=0mil|HoleType=Round|Shape=RoundedRectangle|*
%AMROUNDEDRECTD36*
21,1,0.03356,0.03740,0,0,180.0*
21,1,0.01378,0.05718,0,0,180.0*
1,1,0.01978,-0.00689,0.01870*
1,1,0.01978,0.00689,0.01870*
1,1,0.01978,0.00689,-0.01870*
1,1,0.01978,-0.00689,-0.01870*
%
%ADD36ROUNDEDRECTD36*%
D31*
X-1260Y-9905D02*
D03*
X-8740D02*
D03*
X-5000Y-94D02*
D03*
D32*
X-10000Y-15000D02*
D03*
X0D02*
D03*
D33*
X-11500Y11500D02*
D03*
Y7500D02*
D03*
Y500D02*
D03*
Y4500D02*
D03*
X-13000Y-3000D02*
D03*
Y-7000D02*
D03*
D34*
X12000Y5500D02*
D03*
X8000D02*
D03*
X12000Y8500D02*
D03*
X8000D02*
D03*
Y11500D02*
D03*
X12000D02*
D03*
D35*
X3994Y11740D02*
D03*
Y4260D02*
D03*
X-7406D02*
D03*
Y8000D02*
D03*
Y11740D02*
D03*
D36*
X4260Y-10224D02*
D03*
X8000D02*
D03*
X11740D02*
D03*
Y-776D02*
D03*
X8000D02*
D03*
X4260D02*
D03*
M02*
