G04*
G04 #@! TF.GenerationSoftware,Altium Limited,Altium Designer,22.0.2 (36)*
G04*
G04 Layer_Color=8388736*
%FSLAX25Y25*%
%MOIN*%
G70*
G04*
G04 #@! TF.SameCoordinates,638AD50F-1192-470F-B5B9-D779ECB08856*
G04*
G04*
G04 #@! TF.FilePolarity,Negative*
G04*
G01*
G75*
%ADD16O,0.06506X0.01978*%
G04:AMPARAMS|DCode=17|XSize=29.62mil|YSize=37.5mil|CornerRadius=8.91mil|HoleSize=0mil|Usage=FLASHONLY|Rotation=90.000|XOffset=0mil|YOffset=0mil|HoleType=Round|Shape=RoundedRectangle|*
%AMROUNDEDRECTD17*
21,1,0.02962,0.01968,0,0,90.0*
21,1,0.01181,0.03750,0,0,90.0*
1,1,0.01781,0.00984,0.00591*
1,1,0.01781,0.00984,-0.00591*
1,1,0.01781,-0.00984,-0.00591*
1,1,0.01781,-0.00984,0.00591*
%
%ADD17ROUNDEDRECTD17*%
G04:AMPARAMS|DCode=18|XSize=25.68mil|YSize=37.5mil|CornerRadius=7.92mil|HoleSize=0mil|Usage=FLASHONLY|Rotation=0.000|XOffset=0mil|YOffset=0mil|HoleType=Round|Shape=RoundedRectangle|*
%AMROUNDEDRECTD18*
21,1,0.02568,0.02165,0,0,0.0*
21,1,0.00984,0.03750,0,0,0.0*
1,1,0.01584,0.00492,-0.01083*
1,1,0.01584,-0.00492,-0.01083*
1,1,0.01584,-0.00492,0.01083*
1,1,0.01584,0.00492,0.01083*
%
%ADD18ROUNDEDRECTD18*%
G04:AMPARAMS|DCode=19|XSize=22mil|YSize=22mil|CornerRadius=11mil|HoleSize=0mil|Usage=FLASHONLY|Rotation=90.000|XOffset=0mil|YOffset=0mil|HoleType=Round|Shape=RoundedRectangle|*
%AMROUNDEDRECTD19*
21,1,0.02200,0.00000,0,0,90.0*
21,1,0.00000,0.02200,0,0,90.0*
1,1,0.02200,0.00000,0.00000*
1,1,0.02200,0.00000,0.00000*
1,1,0.02200,0.00000,0.00000*
1,1,0.02200,0.00000,0.00000*
%
%ADD19ROUNDEDRECTD19*%
D16*
X-11024Y11516D02*
D03*
Y8957D02*
D03*
Y6398D02*
D03*
Y3839D02*
D03*
Y1280D02*
D03*
Y-1280D02*
D03*
Y-3839D02*
D03*
Y-6398D02*
D03*
Y-8957D02*
D03*
Y-11516D02*
D03*
X11024Y11516D02*
D03*
Y8957D02*
D03*
Y6398D02*
D03*
Y3839D02*
D03*
Y1280D02*
D03*
Y-1280D02*
D03*
Y-3839D02*
D03*
Y-6398D02*
D03*
Y-8957D02*
D03*
Y-11516D02*
D03*
D17*
X905Y-15500D02*
D03*
X-5000D02*
D03*
X-10905D02*
D03*
D18*
X-11811Y15548D02*
D03*
X-7874D02*
D03*
X-3937D02*
D03*
X0D02*
D03*
D19*
X12811Y15749D02*
D03*
X4937D02*
D03*
X8874D02*
D03*
M02*
