M48
;Layer_Color=9474304
;FILE_FORMAT=2:5
INCH,TZ
;TYPE=PLATED
T1F00S00C0.01000
%
T01
X-1500Y-10800
X2700Y-5700
X5600Y-5500
X12300Y-9000
X11000Y-15000
X8200
X4800Y-15500
X4100Y4200
Y7300
X1600Y8400
X-100Y11200
X-5900Y12300
X-7900Y14100
X-10500Y13000
X-12900
X-12500Y3900
X-10300Y1300
X-4100Y1700
X-5900Y-1100
X-6000Y-5900
X-5000Y7400
X11300Y14200
M30
