G04*
G04 #@! TF.GenerationSoftware,Altium Limited,Altium Designer,22.0.2 (36)*
G04*
G04 Layer_Physical_Order=1*
G04 Layer_Color=255*
%FSLAX25Y25*%
%MOIN*%
G70*
G04*
G04 #@! TF.SameCoordinates,9873FD8C-C369-40C8-B75A-0789E1F0109A*
G04*
G04*
G04 #@! TF.FilePolarity,Positive*
G04*
G01*
G75*
%ADD11C,0.01000*%
G04:AMPARAMS|DCode=18|XSize=20mil|YSize=20mil|CornerRadius=5mil|HoleSize=0mil|Usage=FLASHONLY|Rotation=180.000|XOffset=0mil|YOffset=0mil|HoleType=Round|Shape=RoundedRectangle|*
%AMROUNDEDRECTD18*
21,1,0.02000,0.01000,0,0,180.0*
21,1,0.01000,0.02000,0,0,180.0*
1,1,0.01000,-0.00500,0.00500*
1,1,0.01000,0.00500,0.00500*
1,1,0.01000,0.00500,-0.00500*
1,1,0.01000,-0.00500,-0.00500*
%
%ADD18ROUNDEDRECTD18*%
G04:AMPARAMS|DCode=19|XSize=20mil|YSize=20mil|CornerRadius=5mil|HoleSize=0mil|Usage=FLASHONLY|Rotation=90.000|XOffset=0mil|YOffset=0mil|HoleType=Round|Shape=RoundedRectangle|*
%AMROUNDEDRECTD19*
21,1,0.02000,0.01000,0,0,90.0*
21,1,0.01000,0.02000,0,0,90.0*
1,1,0.01000,0.00500,0.00500*
1,1,0.01000,0.00500,-0.00500*
1,1,0.01000,-0.00500,-0.00500*
1,1,0.01000,-0.00500,0.00500*
%
%ADD19ROUNDEDRECTD19*%
G04:AMPARAMS|DCode=20|XSize=39.37mil|YSize=59.06mil|CornerRadius=9.84mil|HoleSize=0mil|Usage=FLASHONLY|Rotation=180.000|XOffset=0mil|YOffset=0mil|HoleType=Round|Shape=RoundedRectangle|*
%AMROUNDEDRECTD20*
21,1,0.03937,0.03937,0,0,180.0*
21,1,0.01968,0.05906,0,0,180.0*
1,1,0.01968,-0.00984,0.01968*
1,1,0.01968,0.00984,0.01968*
1,1,0.01968,0.00984,-0.01968*
1,1,0.01968,-0.00984,-0.01968*
%
%ADD20ROUNDEDRECTD20*%
G04:AMPARAMS|DCode=21|XSize=15.75mil|YSize=59.06mil|CornerRadius=3.94mil|HoleSize=0mil|Usage=FLASHONLY|Rotation=0.000|XOffset=0mil|YOffset=0mil|HoleType=Round|Shape=RoundedRectangle|*
%AMROUNDEDRECTD21*
21,1,0.01575,0.05118,0,0,0.0*
21,1,0.00787,0.05906,0,0,0.0*
1,1,0.00787,0.00394,-0.02559*
1,1,0.00787,-0.00394,-0.02559*
1,1,0.00787,-0.00394,0.02559*
1,1,0.00787,0.00394,0.02559*
%
%ADD21ROUNDEDRECTD21*%
G04:AMPARAMS|DCode=22|XSize=15.75mil|YSize=59.06mil|CornerRadius=3.94mil|HoleSize=0mil|Usage=FLASHONLY|Rotation=270.000|XOffset=0mil|YOffset=0mil|HoleType=Round|Shape=RoundedRectangle|*
%AMROUNDEDRECTD22*
21,1,0.01575,0.05118,0,0,270.0*
21,1,0.00787,0.05906,0,0,270.0*
1,1,0.00787,-0.02559,-0.00394*
1,1,0.00787,-0.02559,0.00394*
1,1,0.00787,0.02559,0.00394*
1,1,0.00787,0.02559,-0.00394*
%
%ADD22ROUNDEDRECTD22*%
G04:AMPARAMS|DCode=23|XSize=39.37mil|YSize=59.06mil|CornerRadius=9.84mil|HoleSize=0mil|Usage=FLASHONLY|Rotation=270.000|XOffset=0mil|YOffset=0mil|HoleType=Round|Shape=RoundedRectangle|*
%AMROUNDEDRECTD23*
21,1,0.03937,0.03937,0,0,270.0*
21,1,0.01968,0.05906,0,0,270.0*
1,1,0.01968,-0.01968,-0.00984*
1,1,0.01968,-0.01968,0.00984*
1,1,0.01968,0.01968,0.00984*
1,1,0.01968,0.01968,-0.00984*
%
%ADD23ROUNDEDRECTD23*%
G04:AMPARAMS|DCode=24|XSize=31.5mil|YSize=59.06mil|CornerRadius=7.87mil|HoleSize=0mil|Usage=FLASHONLY|Rotation=270.000|XOffset=0mil|YOffset=0mil|HoleType=Round|Shape=RoundedRectangle|*
%AMROUNDEDRECTD24*
21,1,0.03150,0.04331,0,0,270.0*
21,1,0.01575,0.05906,0,0,270.0*
1,1,0.01575,-0.02165,-0.00787*
1,1,0.01575,-0.02165,0.00787*
1,1,0.01575,0.02165,0.00787*
1,1,0.01575,0.02165,-0.00787*
%
%ADD24ROUNDEDRECTD24*%
G04:AMPARAMS|DCode=25|XSize=31.5mil|YSize=55.12mil|CornerRadius=7.87mil|HoleSize=0mil|Usage=FLASHONLY|Rotation=270.000|XOffset=0mil|YOffset=0mil|HoleType=Round|Shape=RoundedRectangle|*
%AMROUNDEDRECTD25*
21,1,0.03150,0.03937,0,0,270.0*
21,1,0.01575,0.05512,0,0,270.0*
1,1,0.01575,-0.01968,-0.00787*
1,1,0.01575,-0.01968,0.00787*
1,1,0.01575,0.01968,0.00787*
1,1,0.01575,0.01968,-0.00787*
%
%ADD25ROUNDEDRECTD25*%
G04:AMPARAMS|DCode=26|XSize=40mil|YSize=59.06mil|CornerRadius=10mil|HoleSize=0mil|Usage=FLASHONLY|Rotation=270.000|XOffset=0mil|YOffset=0mil|HoleType=Round|Shape=RoundedRectangle|*
%AMROUNDEDRECTD26*
21,1,0.04000,0.03906,0,0,270.0*
21,1,0.02000,0.05906,0,0,270.0*
1,1,0.02000,-0.01953,-0.01000*
1,1,0.02000,-0.01953,0.01000*
1,1,0.02000,0.01953,0.01000*
1,1,0.02000,0.01953,-0.01000*
%
%ADD26ROUNDEDRECTD26*%
G04:AMPARAMS|DCode=27|XSize=59.06mil|YSize=59.06mil|CornerRadius=14.76mil|HoleSize=0mil|Usage=FLASHONLY|Rotation=270.000|XOffset=0mil|YOffset=0mil|HoleType=Round|Shape=RoundedRectangle|*
%AMROUNDEDRECTD27*
21,1,0.05906,0.02953,0,0,270.0*
21,1,0.02953,0.05906,0,0,270.0*
1,1,0.02953,-0.01476,-0.01476*
1,1,0.02953,-0.01476,0.01476*
1,1,0.02953,0.01476,0.01476*
1,1,0.02953,0.01476,-0.01476*
%
%ADD27ROUNDEDRECTD27*%
G04:AMPARAMS|DCode=28|XSize=57.09mil|YSize=39.37mil|CornerRadius=9.84mil|HoleSize=0mil|Usage=FLASHONLY|Rotation=270.000|XOffset=0mil|YOffset=0mil|HoleType=Round|Shape=RoundedRectangle|*
%AMROUNDEDRECTD28*
21,1,0.05709,0.01968,0,0,270.0*
21,1,0.03740,0.03937,0,0,270.0*
1,1,0.01968,-0.00984,-0.01870*
1,1,0.01968,-0.00984,0.01870*
1,1,0.01968,0.00984,0.01870*
1,1,0.01968,0.00984,-0.01870*
%
%ADD28ROUNDEDRECTD28*%
G04:AMPARAMS|DCode=29|XSize=39.37mil|YSize=61.02mil|CornerRadius=9.84mil|HoleSize=0mil|Usage=FLASHONLY|Rotation=270.000|XOffset=0mil|YOffset=0mil|HoleType=Round|Shape=RoundedRectangle|*
%AMROUNDEDRECTD29*
21,1,0.03937,0.04134,0,0,270.0*
21,1,0.01968,0.06102,0,0,270.0*
1,1,0.01968,-0.02067,-0.00984*
1,1,0.01968,-0.02067,0.00984*
1,1,0.01968,0.02067,0.00984*
1,1,0.01968,0.02067,-0.00984*
%
%ADD29ROUNDEDRECTD29*%
G04:AMPARAMS|DCode=30|XSize=27.56mil|YSize=68.9mil|CornerRadius=6.89mil|HoleSize=0mil|Usage=FLASHONLY|Rotation=270.000|XOffset=0mil|YOffset=0mil|HoleType=Round|Shape=RoundedRectangle|*
%AMROUNDEDRECTD30*
21,1,0.02756,0.05512,0,0,270.0*
21,1,0.01378,0.06890,0,0,270.0*
1,1,0.01378,-0.02756,-0.00689*
1,1,0.01378,-0.02756,0.00689*
1,1,0.01378,0.02756,0.00689*
1,1,0.01378,0.02756,-0.00689*
%
%ADD30ROUNDEDRECTD30*%
%ADD31O,0.01181X0.07087*%
%ADD32O,0.07087X0.01181*%
G04:AMPARAMS|DCode=33|XSize=23.62mil|YSize=35mil|CornerRadius=5.91mil|HoleSize=0mil|Usage=FLASHONLY|Rotation=90.000|XOffset=0mil|YOffset=0mil|HoleType=Round|Shape=RoundedRectangle|*
%AMROUNDEDRECTD33*
21,1,0.02362,0.02319,0,0,90.0*
21,1,0.01181,0.03500,0,0,90.0*
1,1,0.01181,0.01159,0.00591*
1,1,0.01181,0.01159,-0.00591*
1,1,0.01181,-0.01159,-0.00591*
1,1,0.01181,-0.01159,0.00591*
%
%ADD33ROUNDEDRECTD33*%
G04:AMPARAMS|DCode=34|XSize=86mil|YSize=72mil|CornerRadius=18mil|HoleSize=0mil|Usage=FLASHONLY|Rotation=270.000|XOffset=0mil|YOffset=0mil|HoleType=Round|Shape=RoundedRectangle|*
%AMROUNDEDRECTD34*
21,1,0.08600,0.03600,0,0,270.0*
21,1,0.05000,0.07200,0,0,270.0*
1,1,0.03600,-0.01800,-0.02500*
1,1,0.03600,-0.01800,0.02500*
1,1,0.03600,0.01800,0.02500*
1,1,0.03600,0.01800,-0.02500*
%
%ADD34ROUNDEDRECTD34*%
G04:AMPARAMS|DCode=35|XSize=50mil|YSize=10mil|CornerRadius=2.5mil|HoleSize=0mil|Usage=FLASHONLY|Rotation=90.000|XOffset=0mil|YOffset=0mil|HoleType=Round|Shape=RoundedRectangle|*
%AMROUNDEDRECTD35*
21,1,0.05000,0.00500,0,0,90.0*
21,1,0.04500,0.01000,0,0,90.0*
1,1,0.00500,0.00250,0.02250*
1,1,0.00500,0.00250,-0.02250*
1,1,0.00500,-0.00250,-0.02250*
1,1,0.00500,-0.00250,0.02250*
%
%ADD35ROUNDEDRECTD35*%
G04:AMPARAMS|DCode=36|XSize=21.65mil|YSize=57.09mil|CornerRadius=5.41mil|HoleSize=0mil|Usage=FLASHONLY|Rotation=270.000|XOffset=0mil|YOffset=0mil|HoleType=Round|Shape=RoundedRectangle|*
%AMROUNDEDRECTD36*
21,1,0.02165,0.04626,0,0,270.0*
21,1,0.01083,0.05709,0,0,270.0*
1,1,0.01083,-0.02313,-0.00541*
1,1,0.01083,-0.02313,0.00541*
1,1,0.01083,0.02313,0.00541*
1,1,0.01083,0.02313,-0.00541*
%
%ADD36ROUNDEDRECTD36*%
G04:AMPARAMS|DCode=37|XSize=21.65mil|YSize=57.09mil|CornerRadius=5.41mil|HoleSize=0mil|Usage=FLASHONLY|Rotation=270.000|XOffset=0mil|YOffset=0mil|HoleType=Round|Shape=RoundedRectangle|*
%AMROUNDEDRECTD37*
21,1,0.02165,0.04626,0,0,270.0*
21,1,0.01083,0.05709,0,0,270.0*
1,1,0.01083,-0.02313,-0.00541*
1,1,0.01083,-0.02313,0.00541*
1,1,0.01083,0.02313,0.00541*
1,1,0.01083,0.02313,-0.00541*
%
%ADD37ROUNDEDRECTD37*%
G04:AMPARAMS|DCode=38|XSize=23.62mil|YSize=39.37mil|CornerRadius=5.91mil|HoleSize=0mil|Usage=FLASHONLY|Rotation=180.000|XOffset=0mil|YOffset=0mil|HoleType=Round|Shape=RoundedRectangle|*
%AMROUNDEDRECTD38*
21,1,0.02362,0.02756,0,0,180.0*
21,1,0.01181,0.03937,0,0,180.0*
1,1,0.01181,-0.00591,0.01378*
1,1,0.01181,0.00591,0.01378*
1,1,0.01181,0.00591,-0.01378*
1,1,0.01181,-0.00591,-0.01378*
%
%ADD38ROUNDEDRECTD38*%
G04:AMPARAMS|DCode=39|XSize=12mil|YSize=38mil|CornerRadius=3mil|HoleSize=0mil|Usage=FLASHONLY|Rotation=90.000|XOffset=0mil|YOffset=0mil|HoleType=Round|Shape=RoundedRectangle|*
%AMROUNDEDRECTD39*
21,1,0.01200,0.03200,0,0,90.0*
21,1,0.00600,0.03800,0,0,90.0*
1,1,0.00600,0.01600,0.00300*
1,1,0.00600,0.01600,-0.00300*
1,1,0.00600,-0.01600,-0.00300*
1,1,0.00600,-0.01600,0.00300*
%
%ADD39ROUNDEDRECTD39*%
G04:AMPARAMS|DCode=40|XSize=12mil|YSize=38mil|CornerRadius=3mil|HoleSize=0mil|Usage=FLASHONLY|Rotation=0.000|XOffset=0mil|YOffset=0mil|HoleType=Round|Shape=RoundedRectangle|*
%AMROUNDEDRECTD40*
21,1,0.01200,0.03200,0,0,0.0*
21,1,0.00600,0.03800,0,0,0.0*
1,1,0.00600,0.00300,-0.01600*
1,1,0.00600,-0.00300,-0.01600*
1,1,0.00600,-0.00300,0.01600*
1,1,0.00600,0.00300,0.01600*
%
%ADD40ROUNDEDRECTD40*%
%ADD41R,0.10630X0.11024*%
%ADD42R,0.00942X0.03188*%
G04:AMPARAMS|DCode=43|XSize=31.88mil|YSize=9.42mil|CornerRadius=4.71mil|HoleSize=0mil|Usage=FLASHONLY|Rotation=90.000|XOffset=0mil|YOffset=0mil|HoleType=Round|Shape=RoundedRectangle|*
%AMROUNDEDRECTD43*
21,1,0.03188,0.00000,0,0,90.0*
21,1,0.02245,0.00942,0,0,90.0*
1,1,0.00942,0.00000,0.01123*
1,1,0.00942,0.00000,-0.01123*
1,1,0.00942,0.00000,-0.01123*
1,1,0.00942,0.00000,0.01123*
%
%ADD43ROUNDEDRECTD43*%
G04:AMPARAMS|DCode=44|XSize=9.42mil|YSize=31.88mil|CornerRadius=4.71mil|HoleSize=0mil|Usage=FLASHONLY|Rotation=90.000|XOffset=0mil|YOffset=0mil|HoleType=Round|Shape=RoundedRectangle|*
%AMROUNDEDRECTD44*
21,1,0.00942,0.02245,0,0,90.0*
21,1,0.00000,0.03188,0,0,90.0*
1,1,0.00942,0.01123,0.00000*
1,1,0.00942,0.01123,0.00000*
1,1,0.00942,-0.01123,0.00000*
1,1,0.00942,-0.01123,0.00000*
%
%ADD44ROUNDEDRECTD44*%
G04:AMPARAMS|DCode=69|XSize=133.86mil|YSize=133.86mil|CornerRadius=13.39mil|HoleSize=0mil|Usage=FLASHONLY|Rotation=90.000|XOffset=0mil|YOffset=0mil|HoleType=Round|Shape=RoundedRectangle|*
%AMROUNDEDRECTD69*
21,1,0.13386,0.10709,0,0,90.0*
21,1,0.10709,0.13386,0,0,90.0*
1,1,0.02677,0.05354,0.05354*
1,1,0.02677,0.05354,-0.05354*
1,1,0.02677,-0.05354,-0.05354*
1,1,0.02677,-0.05354,0.05354*
%
%ADD69ROUNDEDRECTD69*%
%ADD70C,0.00400*%
%ADD71C,0.01500*%
%ADD72C,0.01800*%
G36*
X22055Y78953D02*
Y78946D01*
X22834Y78844D01*
X23561Y78543D01*
X24185Y78064D01*
X24373Y77819D01*
X24664Y77439D01*
D01*
X24915Y77018D01*
X28293Y71163D01*
X31791Y65101D01*
X31803Y65042D01*
X32002Y64744D01*
X32250Y64578D01*
X32232Y64542D01*
X35025Y63144D01*
X39512Y60482D01*
X43797Y57506D01*
X47859Y54233D01*
X51678Y50678D01*
X55233Y46859D01*
X58506Y42797D01*
X61482Y38512D01*
X64144Y34025D01*
X66479Y29360D01*
X68476Y24540D01*
X70123Y19590D01*
X71413Y14535D01*
X72340Y9401D01*
X72897Y4214D01*
X73084Y-1000D01*
X72897Y-6214D01*
X72340Y-11401D01*
X71413Y-16535D01*
X70918Y-16473D01*
Y-11000D01*
X70848Y-10649D01*
X70649Y-10351D01*
X67149Y-6851D01*
X66851Y-6652D01*
X66500Y-6582D01*
X60500D01*
X60149Y-6652D01*
X59851Y-6851D01*
X58851Y-7851D01*
X58652Y-8149D01*
X58582Y-8500D01*
Y-10155D01*
X58567Y-10188D01*
X58567Y-10207D01*
X58563Y-10209D01*
X58503Y-10234D01*
X58495Y-10255D01*
X58351Y-10351D01*
X58255Y-10495D01*
X58234Y-10503D01*
X58209Y-10563D01*
X58207Y-10567D01*
X58188Y-10567D01*
X58155Y-10582D01*
X54794D01*
X54404Y-10193D01*
X54394Y-10163D01*
X54371Y-10136D01*
X54362Y-10123D01*
X54349Y-10097D01*
X54334Y-10056D01*
X54318Y-10000D01*
X54304Y-9931D01*
X54292Y-9853D01*
X54277Y-9641D01*
X54275Y-9519D01*
X54274Y-9517D01*
Y-7398D01*
X54197Y-7011D01*
X53978Y-6684D01*
X53650Y-6465D01*
X53264Y-6388D01*
X52877Y-6465D01*
X52550Y-6684D01*
X52009D01*
X51682Y-6465D01*
X51295Y-6388D01*
X50909Y-6465D01*
X50581Y-6684D01*
X50041D01*
X49713Y-6465D01*
X49327Y-6388D01*
X48940Y-6465D01*
X48613Y-6684D01*
X48072D01*
X47745Y-6465D01*
X47358Y-6388D01*
X46972Y-6465D01*
X46644Y-6684D01*
X46425Y-7011D01*
X46348Y-7398D01*
Y-13303D01*
X46425Y-13690D01*
X46612Y-13969D01*
X43556Y-17025D01*
X43366Y-17484D01*
Y-17531D01*
X42866Y-17739D01*
X42749Y-17622D01*
Y-16069D01*
X43881Y-14938D01*
X44071Y-14479D01*
Y-14061D01*
X44118Y-14029D01*
X44121Y-14028D01*
X44121Y-14027D01*
X44135Y-14017D01*
X44354Y-13690D01*
X44431Y-13303D01*
Y-7398D01*
X44354Y-7011D01*
X44135Y-6684D01*
X43808Y-6465D01*
X43421Y-6388D01*
X43035Y-6465D01*
X42707Y-6684D01*
X42167D01*
X41839Y-6465D01*
X41453Y-6388D01*
X41066Y-6465D01*
X40739Y-6684D01*
X40198D01*
X39871Y-6465D01*
X39484Y-6388D01*
X39098Y-6465D01*
X38770Y-6684D01*
X38230D01*
X37902Y-6465D01*
X37516Y-6388D01*
X37129Y-6465D01*
X36802Y-6684D01*
X36679D01*
X36197Y-6218D01*
Y17253D01*
X36007Y17712D01*
X33005Y20713D01*
X32990Y20749D01*
X32974Y20797D01*
X32960Y20855D01*
X32949Y20917D01*
X32934Y21095D01*
X32933Y21196D01*
X32900Y21273D01*
Y21459D01*
X32702Y21936D01*
X32336Y22302D01*
X31859Y22500D01*
X31341D01*
X30864Y22302D01*
X30791Y22230D01*
X30291Y22437D01*
Y29640D01*
X30338Y29672D01*
X30341Y29673D01*
X30342Y29674D01*
X30356Y29684D01*
X30575Y30011D01*
X30652Y30398D01*
Y36303D01*
X30575Y36690D01*
X30356Y37017D01*
X30342Y37027D01*
X30341Y37028D01*
X30338Y37029D01*
X30291Y37060D01*
Y38658D01*
X30101Y39118D01*
X30064Y39154D01*
X30100Y39241D01*
Y39759D01*
X29902Y40236D01*
X29536Y40602D01*
X29059Y40800D01*
X28541D01*
X28064Y40602D01*
X27730Y40268D01*
X27450Y40251D01*
X27170Y40268D01*
X26836Y40602D01*
X26359Y40800D01*
X25841D01*
X25364Y40602D01*
X24998Y40236D01*
X24800Y39759D01*
Y39241D01*
X24998Y38764D01*
X25364Y38398D01*
X25841Y38200D01*
X26027D01*
X26104Y38167D01*
X26211Y38166D01*
X26299Y38161D01*
X26377Y38152D01*
X26445Y38140D01*
X26503Y38126D01*
X26551Y38110D01*
X26587Y38094D01*
X27024Y37658D01*
Y37060D01*
X26977Y37029D01*
X26974Y37028D01*
X26973Y37027D01*
X26959Y37017D01*
X26740Y36690D01*
X26663Y36303D01*
Y30398D01*
X26740Y30011D01*
X26959Y29684D01*
X26973Y29674D01*
X26974Y29673D01*
X26977Y29672D01*
X27024Y29640D01*
Y2274D01*
X21032Y-3718D01*
X20571Y-3472D01*
X20612Y-3264D01*
X20535Y-2877D01*
X20316Y-2550D01*
Y-2009D01*
X20535Y-1682D01*
X20612Y-1295D01*
X20535Y-909D01*
X20316Y-581D01*
Y-41D01*
X20535Y287D01*
X20612Y673D01*
X20535Y1060D01*
X20316Y1387D01*
Y1928D01*
X20535Y2255D01*
X20612Y2642D01*
X20535Y3028D01*
X20316Y3356D01*
Y3896D01*
X20535Y4224D01*
X20612Y4610D01*
X20589Y4727D01*
X21070Y4873D01*
X21198Y4564D01*
X21564Y4198D01*
X22041Y4000D01*
X22559D01*
X23036Y4198D01*
X23402Y4564D01*
X23600Y5041D01*
Y5559D01*
X23402Y6036D01*
X23036Y6402D01*
X22559Y6600D01*
X22373D01*
X22296Y6633D01*
X22189Y6634D01*
X22101Y6639D01*
X22023Y6648D01*
X21955Y6660D01*
X21948Y6662D01*
X21827Y6848D01*
X21903Y7058D01*
X21927Y7091D01*
X22184Y7300D01*
X22559D01*
X23036Y7498D01*
X23402Y7864D01*
X23600Y8341D01*
Y8859D01*
X23402Y9336D01*
X23036Y9702D01*
X22559Y9900D01*
X22041D01*
X21564Y9702D01*
X21383Y9521D01*
X21302Y9483D01*
X21232Y9407D01*
X21173Y9349D01*
X21117Y9300D01*
X21066Y9261D01*
X21020Y9231D01*
X20980Y9210D01*
X20949Y9197D01*
X20360D01*
X20328Y9244D01*
X20327Y9247D01*
X20316Y9279D01*
Y9802D01*
X20535Y10129D01*
X20612Y10516D01*
X20535Y10902D01*
X20316Y11230D01*
Y11384D01*
X20800Y11793D01*
X20822Y11792D01*
X20851Y11773D01*
X20899Y11735D01*
X20951Y11687D01*
X21007Y11628D01*
X21072Y11552D01*
X21149Y11512D01*
X21364Y11298D01*
X21841Y11100D01*
X22359D01*
X22836Y11298D01*
X23202Y11664D01*
X23400Y12141D01*
Y12659D01*
X23202Y13136D01*
X22836Y13502D01*
X22359Y13700D01*
X21841D01*
X21364Y13502D01*
X21301Y13440D01*
X21246Y13423D01*
X21162Y13355D01*
X21006Y13243D01*
X20944Y13205D01*
X20885Y13173D01*
X20833Y13150D01*
X20789Y13134D01*
X20360D01*
X20328Y13181D01*
X20327Y13184D01*
X20316Y13216D01*
Y13739D01*
X20535Y14066D01*
X20612Y14453D01*
X20535Y14839D01*
X20316Y15167D01*
Y15707D01*
X20535Y16035D01*
X20612Y16421D01*
X20535Y16808D01*
X20316Y17135D01*
Y17676D01*
X20535Y18003D01*
X20612Y18390D01*
X20535Y18776D01*
X20316Y19104D01*
Y19644D01*
X20535Y19972D01*
X20612Y20358D01*
X20535Y20745D01*
X20316Y21072D01*
Y21613D01*
X20535Y21940D01*
X20612Y22327D01*
X20535Y22713D01*
X20316Y23041D01*
Y23581D01*
X20535Y23909D01*
X20612Y24295D01*
X20535Y24682D01*
X20426Y24846D01*
X20642Y25341D01*
X20647Y25346D01*
X21764D01*
X22115Y25416D01*
X22413Y25615D01*
X24385Y27587D01*
X24584Y27885D01*
X24654Y28236D01*
Y29988D01*
X24669Y30011D01*
X24746Y30398D01*
Y36303D01*
X24669Y36690D01*
X24450Y37017D01*
X24123Y37236D01*
X23736Y37313D01*
X23350Y37236D01*
X23022Y37017D01*
X22803Y36690D01*
X22726Y36303D01*
Y35500D01*
X22641D01*
X22164Y35302D01*
X21798Y34936D01*
X21600Y34459D01*
Y33941D01*
X21798Y33464D01*
X22164Y33098D01*
X22641Y32900D01*
X22726D01*
Y30398D01*
X22803Y30011D01*
X22819Y29988D01*
Y28616D01*
X21384Y27181D01*
X20012D01*
X19989Y27197D01*
X19602Y27274D01*
X17665D01*
X17664Y27274D01*
X17585Y27277D01*
X17567Y27279D01*
Y28693D01*
X17583Y28729D01*
X17583Y28781D01*
X17584Y28808D01*
X17649Y28851D01*
X17848Y29149D01*
X17918Y29500D01*
Y30500D01*
X17848Y30851D01*
X17649Y31149D01*
X17351Y31348D01*
X17000Y31418D01*
X16000D01*
X15921Y31402D01*
X15896Y31424D01*
X15864Y31455D01*
X15827Y31470D01*
X13649Y33649D01*
X13351Y33848D01*
X13000Y33918D01*
X8980D01*
X6380Y36518D01*
X6587Y37018D01*
X7091D01*
X7477Y37095D01*
X7805Y37313D01*
X8024Y37641D01*
X8100Y38028D01*
Y40023D01*
X8101Y40025D01*
X8482Y40351D01*
X10112D01*
X10152Y40149D01*
X10351Y39851D01*
X10649Y39652D01*
X11000Y39582D01*
X12000D01*
X12351Y39652D01*
X12649Y39851D01*
X12848Y40149D01*
X12918Y40500D01*
Y41500D01*
X12848Y41851D01*
X12649Y42149D01*
X12351Y42348D01*
X12000Y42418D01*
X11000D01*
X10649Y42348D01*
X10351Y42149D01*
X10152Y41851D01*
X10112Y41649D01*
X8095D01*
X7950Y41590D01*
X7925Y41600D01*
X7765Y41845D01*
X7765Y41853D01*
X7894Y42256D01*
X8236Y42398D01*
X8355Y42517D01*
X8372Y42519D01*
X8381Y42520D01*
X8386Y42521D01*
X8393Y42522D01*
X8407Y42531D01*
X8423Y42536D01*
X8454Y42543D01*
X8489Y42549D01*
X8708Y42566D01*
X8794Y42567D01*
X8830Y42582D01*
X9773D01*
X10124Y42652D01*
X10422Y42851D01*
X10621Y43149D01*
X10666Y43376D01*
X10848Y43649D01*
X10918Y44000D01*
Y45000D01*
X10848Y45351D01*
X10781Y45451D01*
X11029Y45951D01*
X26631D01*
X32929Y39652D01*
Y37060D01*
X32882Y37029D01*
X32879Y37028D01*
X32879Y37027D01*
X32865Y37017D01*
X32646Y36690D01*
X32569Y36303D01*
Y30398D01*
X32646Y30011D01*
X32865Y29684D01*
X33192Y29465D01*
X33579Y29388D01*
X33965Y29465D01*
X34293Y29684D01*
X34833D01*
X35161Y29465D01*
X35547Y29388D01*
X35934Y29465D01*
X36115Y29585D01*
X36547Y29452D01*
X36647Y29003D01*
X36647Y29002D01*
X36576Y28930D01*
X36545Y28852D01*
X36414Y28721D01*
X36216Y28243D01*
Y27726D01*
X36414Y27248D01*
X36779Y26882D01*
X37257Y26684D01*
X37774D01*
X38252Y26882D01*
X38618Y27248D01*
X38816Y27726D01*
Y28243D01*
X38618Y28721D01*
X38486Y28852D01*
X38455Y28930D01*
X38384Y29003D01*
X38388Y29050D01*
X38451Y29406D01*
X38466Y29447D01*
X38917Y29585D01*
X39098Y29465D01*
X39484Y29388D01*
X39871Y29465D01*
X40198Y29684D01*
X40739D01*
X41066Y29465D01*
X41453Y29388D01*
X41839Y29465D01*
X42167Y29684D01*
X42290D01*
X42772Y29218D01*
Y27190D01*
X40331Y24749D01*
X34038D01*
X34002Y24764D01*
X33957Y24787D01*
X33906Y24817D01*
X33854Y24854D01*
X33718Y24969D01*
X33645Y25040D01*
X33568Y25071D01*
X33436Y25202D01*
X32959Y25400D01*
X32441D01*
X31964Y25202D01*
X31598Y24836D01*
X31400Y24359D01*
Y23841D01*
X31598Y23364D01*
X31964Y22998D01*
X32441Y22800D01*
X32959D01*
X33436Y22998D01*
X33568Y23129D01*
X33645Y23160D01*
X33722Y23235D01*
X33788Y23293D01*
X33849Y23343D01*
X33906Y23382D01*
X33957Y23413D01*
X34002Y23436D01*
X34038Y23451D01*
X40600D01*
X41059Y23641D01*
X43881Y26462D01*
X44071Y26921D01*
Y29640D01*
X44118Y29672D01*
X44121Y29673D01*
X44153Y29684D01*
X44676D01*
X45003Y29465D01*
X45390Y29388D01*
X45776Y29465D01*
X46104Y29684D01*
X46644D01*
X46972Y29465D01*
X47358Y29388D01*
X47745Y29465D01*
X48072Y29684D01*
X48613D01*
X48940Y29465D01*
X49327Y29388D01*
X49713Y29465D01*
X50041Y29684D01*
X50581D01*
X50909Y29465D01*
X51295Y29388D01*
X51682Y29465D01*
X52009Y29684D01*
X52550D01*
X52877Y29465D01*
X53264Y29388D01*
X53613Y29457D01*
X53643Y29435D01*
X53777Y28914D01*
X53741Y28878D01*
X53551Y28418D01*
Y19800D01*
X53741Y19341D01*
X55151Y17931D01*
X55610Y17740D01*
X56169D01*
X56382Y17240D01*
X56218Y17071D01*
X54860D01*
X54823Y17085D01*
X54778Y17108D01*
X54727Y17139D01*
X54675Y17175D01*
X54539Y17290D01*
X54467Y17361D01*
X54389Y17392D01*
X54258Y17523D01*
X53780Y17721D01*
X53263D01*
X52785Y17523D01*
X52419Y17158D01*
X52221Y16680D01*
Y16232D01*
X52124Y16073D01*
X51830Y15800D01*
X51441D01*
X50964Y15602D01*
X50598Y15236D01*
X50400Y14759D01*
Y14241D01*
X50598Y13764D01*
X50964Y13398D01*
X51441Y13200D01*
X51959D01*
X52436Y13398D01*
X52525Y13486D01*
X52589Y13507D01*
X52754Y13646D01*
X52817Y13693D01*
X52878Y13733D01*
X52934Y13765D01*
X52983Y13788D01*
X53024Y13803D01*
X56640D01*
X56672Y13756D01*
X56673Y13753D01*
X56683Y13721D01*
Y13198D01*
X56465Y12871D01*
X56388Y12484D01*
X56465Y12098D01*
X56683Y11770D01*
Y11627D01*
X56217Y11149D01*
X46038D01*
X46002Y11164D01*
X45957Y11187D01*
X45906Y11218D01*
X45854Y11254D01*
X45718Y11369D01*
X45645Y11440D01*
X45568Y11471D01*
X45436Y11602D01*
X44959Y11800D01*
X44441D01*
X43964Y11602D01*
X43598Y11236D01*
X43400Y10759D01*
Y10241D01*
X43598Y9764D01*
X43964Y9398D01*
X44441Y9200D01*
X44959D01*
X45436Y9398D01*
X45568Y9529D01*
X45645Y9560D01*
X45677Y9591D01*
X45880Y9597D01*
X45981Y9512D01*
X46014Y9471D01*
X46151Y9194D01*
X46170Y9088D01*
X46053Y8806D01*
Y8289D01*
X46251Y7811D01*
X46616Y7445D01*
X47094Y7247D01*
X47611D01*
X48089Y7445D01*
X48221Y7576D01*
X48298Y7608D01*
X48374Y7682D01*
X48440Y7741D01*
X48502Y7790D01*
X48559Y7830D01*
X48610Y7861D01*
X48655Y7883D01*
X48691Y7898D01*
X56640D01*
X56672Y7851D01*
X56673Y7848D01*
X56683Y7815D01*
Y7293D01*
X56465Y6965D01*
X56388Y6579D01*
X56465Y6192D01*
X56683Y5865D01*
Y5324D01*
X56465Y4997D01*
X56388Y4610D01*
X56465Y4224D01*
X56683Y3896D01*
Y3356D01*
X56465Y3028D01*
X56388Y2642D01*
X56465Y2255D01*
X56683Y1928D01*
Y1387D01*
X56465Y1060D01*
X56388Y673D01*
X56446Y381D01*
X56241Y129D01*
X56059Y0D01*
X55541D01*
X55064Y-198D01*
X54698Y-564D01*
X54500Y-1041D01*
Y-1559D01*
X54698Y-2036D01*
X55064Y-2402D01*
X55541Y-2600D01*
X56059D01*
X56213Y-2706D01*
X56444Y-2982D01*
X56388Y-3264D01*
X56465Y-3650D01*
X56683Y-3978D01*
X57011Y-4197D01*
X57100Y-4214D01*
Y-4459D01*
X57298Y-4936D01*
X57664Y-5302D01*
X58141Y-5500D01*
X58659D01*
X59136Y-5302D01*
X59502Y-4936D01*
X59564Y-4787D01*
X59873Y-4659D01*
X60254Y-4279D01*
X60295Y-4275D01*
X60334Y-4275D01*
X60336Y-4274D01*
X63303D01*
X63690Y-4197D01*
X64017Y-3978D01*
X64236Y-3650D01*
X64313Y-3264D01*
X64236Y-2877D01*
X64017Y-2550D01*
Y-2009D01*
X64236Y-1682D01*
X64313Y-1295D01*
X64236Y-909D01*
X64017Y-581D01*
Y-41D01*
X64236Y287D01*
X64313Y673D01*
X64236Y1060D01*
X64017Y1387D01*
Y1928D01*
X64236Y2255D01*
X64313Y2642D01*
X64236Y3028D01*
X64017Y3356D01*
Y3896D01*
X64236Y4224D01*
X64313Y4610D01*
X64236Y4997D01*
X64017Y5324D01*
Y5865D01*
X64236Y6192D01*
X64313Y6579D01*
X64236Y6965D01*
X64017Y7293D01*
Y7833D01*
X64236Y8161D01*
X64313Y8547D01*
X64236Y8934D01*
X64017Y9261D01*
Y9802D01*
X64236Y10129D01*
X64313Y10516D01*
X64236Y10902D01*
X64017Y11230D01*
Y11770D01*
X64236Y12098D01*
X64313Y12484D01*
X64236Y12871D01*
X64017Y13198D01*
Y13739D01*
X64236Y14066D01*
X64313Y14453D01*
X64236Y14839D01*
X64017Y15167D01*
Y15707D01*
X64236Y16035D01*
X64313Y16421D01*
X64236Y16808D01*
X64017Y17135D01*
Y17676D01*
X64236Y18003D01*
X64313Y18390D01*
X64236Y18776D01*
X64017Y19104D01*
Y19644D01*
X64236Y19972D01*
X64313Y20358D01*
X64236Y20745D01*
X64017Y21072D01*
Y21613D01*
X64236Y21940D01*
X64313Y22327D01*
X64236Y22713D01*
X64017Y23041D01*
Y23164D01*
X64483Y23646D01*
X64495D01*
X64955Y23836D01*
X66059Y24941D01*
X66249Y25400D01*
Y26900D01*
X66059Y27359D01*
X63927Y29491D01*
X63930Y29500D01*
X63918Y29531D01*
Y30500D01*
X63848Y30851D01*
X63649Y31149D01*
X63351Y31348D01*
X63000Y31418D01*
X62000D01*
X61649Y31348D01*
X61351Y31149D01*
X61281Y31043D01*
X60719D01*
X60649Y31149D01*
X60351Y31348D01*
X60000Y31418D01*
X59000D01*
X58649Y31348D01*
X58351Y31149D01*
X58152Y30851D01*
X58082Y30500D01*
Y29500D01*
X58152Y29149D01*
X58351Y28851D01*
X58549Y28719D01*
X58590Y28626D01*
X58644Y28320D01*
X58641Y28144D01*
X58631Y28132D01*
X58560Y28060D01*
X58529Y27982D01*
X58398Y27851D01*
X58200Y27373D01*
Y27274D01*
X57398D01*
X57011Y27197D01*
X56683Y26978D01*
X56465Y26650D01*
X56388Y26264D01*
X56465Y25877D01*
X56683Y25550D01*
Y25009D01*
X56465Y24682D01*
X56419Y24452D01*
X56036Y24228D01*
X55898Y24202D01*
X55749Y24304D01*
Y27482D01*
X56859Y28591D01*
X57049Y29051D01*
Y38900D01*
X56859Y39359D01*
X52959Y43259D01*
X52500Y43449D01*
X39369D01*
X31659Y51159D01*
X31200Y51349D01*
X4900D01*
X4441Y51159D01*
X3531Y50249D01*
X-10931D01*
X-11651Y50969D01*
Y53200D01*
X-11841Y53659D01*
X-13641Y55459D01*
X-14100Y55649D01*
X-16500D01*
X-16959Y55459D01*
X-19396Y53022D01*
X-19586Y52563D01*
Y37817D01*
X-19640Y37807D01*
X-19903Y37631D01*
X-20078Y37369D01*
X-20140Y37059D01*
Y31941D01*
X-20078Y31631D01*
X-19903Y31369D01*
X-19640Y31193D01*
X-19331Y31132D01*
X-18543D01*
X-18234Y31193D01*
X-17971Y31369D01*
X-17796Y31631D01*
X-17734Y31941D01*
Y37059D01*
X-17796Y37369D01*
X-17971Y37631D01*
X-18234Y37807D01*
X-18288Y37817D01*
Y38819D01*
X-17826Y39011D01*
X-16148Y37333D01*
X-16203Y37059D01*
Y31941D01*
X-16141Y31631D01*
X-15966Y31369D01*
X-15703Y31193D01*
X-15394Y31132D01*
X-14606D01*
X-14297Y31193D01*
X-14034Y31369D01*
X-13859Y31631D01*
X-13797Y31941D01*
Y37059D01*
X-13835Y37251D01*
X-13630Y37621D01*
X-13512Y37751D01*
X-8669D01*
X-2161Y31242D01*
X-2149Y30649D01*
X-2348Y30351D01*
X-2418Y30000D01*
Y29000D01*
X-2348Y28649D01*
X-2149Y28351D01*
X-1851Y28152D01*
X-1500Y28082D01*
X-500D01*
X-149Y28152D01*
X149Y28351D01*
X348Y28649D01*
X388Y28851D01*
X1159D01*
Y28216D01*
X1236Y27830D01*
X1455Y27502D01*
X1783Y27283D01*
X2169Y27207D01*
X3350D01*
X3737Y27283D01*
X4064Y27502D01*
X4284Y27830D01*
X4360Y28216D01*
Y30972D01*
X4284Y31359D01*
X4064Y31687D01*
X3737Y31905D01*
X3350Y31982D01*
X2169D01*
X1783Y31905D01*
X1455Y31687D01*
X1236Y31359D01*
X1159Y30972D01*
Y30149D01*
X388D01*
X348Y30351D01*
X149Y30649D01*
X-149Y30848D01*
X-351Y30888D01*
Y31000D01*
X-541Y31459D01*
X-4382Y35300D01*
X-4174Y35800D01*
X-3941D01*
X-3464Y35998D01*
X-3142Y36320D01*
X-3124Y36327D01*
X-3117Y36344D01*
X-3098Y36364D01*
X-3092Y36377D01*
X-3072Y36390D01*
X-3051Y36421D01*
X-3044Y36430D01*
X-3037Y36436D01*
X-3030Y36441D01*
X-3022Y36446D01*
X-3012Y36451D01*
X-2900D01*
X-2441Y36641D01*
X2082Y41164D01*
X2582Y40957D01*
Y38100D01*
X2652Y37749D01*
X2851Y37451D01*
X7951Y32351D01*
X8249Y32152D01*
X8600Y32082D01*
X12620D01*
X14921Y29781D01*
X14922Y29775D01*
X14941Y29761D01*
X14961Y29741D01*
X14974Y29707D01*
X15003Y29676D01*
X15019Y29656D01*
X15032Y29637D01*
X15042Y29620D01*
X15050Y29602D01*
X15057Y29585D01*
X15062Y29567D01*
X15066Y29547D01*
X15068Y29525D01*
X15070Y29484D01*
X15098Y29423D01*
X15152Y29149D01*
X15351Y28851D01*
X15495Y28755D01*
X15503Y28734D01*
X15563Y28709D01*
X15649Y28652D01*
X15668Y28648D01*
X15708Y28619D01*
X15732Y28614D01*
Y27279D01*
X15714Y27277D01*
X15635Y27274D01*
X15634Y27274D01*
X13697D01*
X13310Y27197D01*
X12983Y26978D01*
X12764Y26650D01*
X12687Y26264D01*
X12764Y25877D01*
X12983Y25550D01*
Y25009D01*
X12764Y24682D01*
X12687Y24295D01*
X12764Y23909D01*
X12983Y23581D01*
Y23041D01*
X12764Y22713D01*
X12687Y22327D01*
X12764Y21940D01*
X12983Y21613D01*
Y21072D01*
X12764Y20745D01*
X12687Y20358D01*
X12692Y20334D01*
X12231Y20087D01*
X9275Y23043D01*
X9273Y23073D01*
X9274Y23108D01*
X9273Y23110D01*
Y23281D01*
X9200Y23649D01*
X8992Y23960D01*
X8680Y24168D01*
X8313Y24241D01*
X3687D01*
X3320Y24168D01*
X3008Y23960D01*
X2800Y23649D01*
X2727Y23281D01*
Y22199D01*
X2800Y21832D01*
X3008Y21520D01*
X3320Y21312D01*
X3687Y21239D01*
X8313D01*
X8680Y21312D01*
X8974Y21508D01*
X12551Y17931D01*
X12624Y17900D01*
X12757Y17319D01*
X12517Y17071D01*
X11321D01*
X10862Y16881D01*
X9891Y15909D01*
X9251D01*
X9200Y16169D01*
X8992Y16480D01*
X8680Y16688D01*
X8313Y16761D01*
X3687D01*
X3320Y16688D01*
X3008Y16480D01*
X2800Y16169D01*
X2727Y15801D01*
Y14718D01*
X2800Y14351D01*
X3008Y14040D01*
X3320Y13832D01*
X3687Y13759D01*
X8313D01*
X8680Y13832D01*
X8992Y14040D01*
X9200Y14351D01*
X9251Y14610D01*
X10160D01*
X10619Y14801D01*
X11590Y15772D01*
X12480D01*
X12704Y15272D01*
X12553Y15102D01*
X12094Y14912D01*
X8099Y10918D01*
X7500D01*
X7149Y10848D01*
X6851Y10649D01*
X6652Y10351D01*
X6582Y10000D01*
Y9000D01*
X6652Y8649D01*
X6851Y8351D01*
X6957Y8281D01*
Y7719D01*
X6851Y7649D01*
X6652Y7351D01*
X6582Y7000D01*
Y6000D01*
X6652Y5649D01*
X6851Y5351D01*
X6957Y5281D01*
Y4719D01*
X6851Y4649D01*
X6652Y4351D01*
X6598Y4077D01*
X6570Y4016D01*
X6568Y3975D01*
X6566Y3953D01*
X6562Y3933D01*
X6557Y3915D01*
X6550Y3898D01*
X6542Y3880D01*
X6532Y3863D01*
X6519Y3844D01*
X6503Y3824D01*
X6474Y3793D01*
X6461Y3759D01*
X6441Y3739D01*
X6422Y3725D01*
X6421Y3719D01*
X4674Y1972D01*
X4639Y1958D01*
X4580Y1902D01*
X4500Y1918D01*
X3500D01*
X3149Y1848D01*
X2851Y1649D01*
X2652Y1351D01*
X2582Y1000D01*
Y0D01*
X2652Y-351D01*
X2851Y-649D01*
X2995Y-745D01*
X2996Y-747D01*
X3003Y-907D01*
Y-1093D01*
X2996Y-1253D01*
X2995Y-1255D01*
X2851Y-1351D01*
X2652Y-1649D01*
X2582Y-2000D01*
Y-3000D01*
X2652Y-3351D01*
X2851Y-3649D01*
X2957Y-3719D01*
Y-4281D01*
X2851Y-4351D01*
X2652Y-4649D01*
X2582Y-5000D01*
Y-6000D01*
X2652Y-6351D01*
X2700Y-6423D01*
Y-6659D01*
X2898Y-7136D01*
X3264Y-7502D01*
X3741Y-7700D01*
X4259D01*
X4736Y-7502D01*
X5102Y-7136D01*
X5300Y-6659D01*
Y-6423D01*
X5348Y-6351D01*
X5418Y-6000D01*
Y-5000D01*
X5348Y-4649D01*
X5149Y-4351D01*
X5043Y-4281D01*
Y-3719D01*
X5149Y-3649D01*
X5348Y-3351D01*
X5418Y-3000D01*
Y-2000D01*
X5348Y-1649D01*
X5149Y-1351D01*
X5005Y-1255D01*
X5004Y-1253D01*
X4997Y-1093D01*
Y-907D01*
X5004Y-747D01*
X5005Y-745D01*
X5149Y-649D01*
X5348Y-351D01*
X5402Y-77D01*
X5430Y-16D01*
X5432Y25D01*
X5434Y47D01*
X5438Y67D01*
X5443Y85D01*
X5450Y102D01*
X5458Y120D01*
X5468Y137D01*
X5481Y156D01*
X5497Y176D01*
X5526Y207D01*
X5539Y241D01*
X5559Y261D01*
X5578Y275D01*
X5579Y281D01*
X6082Y785D01*
X6582Y577D01*
Y0D01*
X6652Y-351D01*
X6851Y-649D01*
X6995Y-745D01*
X6996Y-747D01*
X7003Y-907D01*
Y-1093D01*
X6996Y-1253D01*
X6995Y-1255D01*
X6851Y-1351D01*
X6652Y-1649D01*
X6582Y-2000D01*
Y-3000D01*
X6652Y-3351D01*
X6851Y-3649D01*
X6995Y-3745D01*
X6996Y-3747D01*
X7003Y-3907D01*
Y-4093D01*
X6996Y-4253D01*
X6995Y-4255D01*
X6851Y-4351D01*
X6652Y-4649D01*
X6582Y-5000D01*
Y-6000D01*
X6652Y-6351D01*
X6851Y-6649D01*
X7149Y-6848D01*
X7500Y-6918D01*
X8500D01*
X8851Y-6848D01*
X9149Y-6649D01*
X9348Y-6351D01*
X9418Y-6000D01*
Y-5000D01*
X9348Y-4649D01*
X9149Y-4351D01*
X9005Y-4255D01*
X9004Y-4253D01*
X8997Y-4093D01*
Y-3907D01*
X9004Y-3747D01*
X9005Y-3745D01*
X9149Y-3649D01*
X9348Y-3351D01*
X9418Y-3000D01*
Y-2000D01*
X9348Y-1649D01*
X9149Y-1351D01*
X9005Y-1255D01*
X9004Y-1253D01*
X8997Y-1093D01*
Y-907D01*
X9004Y-747D01*
X9005Y-745D01*
X9149Y-649D01*
X9245Y-505D01*
X9266Y-497D01*
X9291Y-437D01*
X9293Y-433D01*
X9312Y-433D01*
X9345Y-418D01*
X9500D01*
X9851Y-348D01*
X10149Y-149D01*
X12022Y1724D01*
X12652D01*
X12658Y1719D01*
X12874Y1224D01*
X12764Y1060D01*
X12687Y673D01*
X12764Y287D01*
X12983Y-41D01*
Y-581D01*
X12764Y-909D01*
X12687Y-1295D01*
X12764Y-1682D01*
X12983Y-2009D01*
Y-2550D01*
X12764Y-2877D01*
X12687Y-3264D01*
X12764Y-3650D01*
X12983Y-3978D01*
X13310Y-4197D01*
X13697Y-4274D01*
X19602D01*
X19811Y-4232D01*
X20057Y-4693D01*
X19400Y-5351D01*
X12900D01*
X12441Y-5541D01*
X841Y-17141D01*
X651Y-17600D01*
Y-19031D01*
X-1006Y-20687D01*
X-1234D01*
X-1488Y-20738D01*
X-1686Y-20870D01*
X-1706Y-20881D01*
X-2231D01*
X-2251Y-20870D01*
X-2449Y-20738D01*
X-2703Y-20687D01*
X-3203D01*
X-3456Y-20738D01*
X-3655Y-20870D01*
X-3675Y-20881D01*
X-4199D01*
X-4219Y-20870D01*
X-4418Y-20738D01*
X-4671Y-20687D01*
X-5171D01*
X-5425Y-20738D01*
X-5640Y-20881D01*
X-5784Y-21096D01*
X-5834Y-21350D01*
Y-23575D01*
X-5839Y-23600D01*
Y-29025D01*
X-5854Y-29056D01*
X-5862Y-29219D01*
X-5882Y-29332D01*
X-5910Y-29416D01*
X-5943Y-29477D01*
X-5979Y-29521D01*
X-6023Y-29557D01*
X-6084Y-29590D01*
X-6168Y-29618D01*
X-6280Y-29638D01*
X-6444Y-29646D01*
X-6475Y-29661D01*
X-9741D01*
X-12751Y-26651D01*
X-13049Y-26452D01*
X-13400Y-26382D01*
X-22002D01*
X-22033Y-26368D01*
X-22196Y-26359D01*
X-22309Y-26339D01*
X-22393Y-26311D01*
X-22454Y-26278D01*
X-22498Y-26242D01*
X-22534Y-26198D01*
X-22567Y-26138D01*
X-22595Y-26053D01*
X-22614Y-25941D01*
X-22623Y-25777D01*
X-22638Y-25746D01*
Y-22045D01*
X-22708Y-21693D01*
X-22907Y-21396D01*
X-36282Y-8020D01*
Y30200D01*
X-36352Y30551D01*
X-36551Y30849D01*
X-40782Y35080D01*
Y47920D01*
X-23183Y65519D01*
X19231D01*
X19266Y65504D01*
X19347Y65503D01*
X19369Y65471D01*
X19631Y65296D01*
X19941Y65234D01*
X25059D01*
X25369Y65296D01*
X25631Y65471D01*
X25807Y65734D01*
X25868Y66043D01*
Y66831D01*
X25807Y67140D01*
X25631Y67403D01*
X25369Y67578D01*
X25059Y67640D01*
X19941D01*
X19631Y67578D01*
X19369Y67403D01*
X19348Y67372D01*
X19315Y67370D01*
X19270Y67370D01*
X19233Y67355D01*
X-23563D01*
X-23914Y67285D01*
X-24212Y67086D01*
X-42349Y48949D01*
X-42548Y48651D01*
X-42618Y48300D01*
Y34700D01*
X-42548Y34349D01*
X-42349Y34051D01*
X-38118Y29820D01*
Y-8400D01*
X-38048Y-8751D01*
X-37849Y-9049D01*
X-24473Y-22425D01*
Y-26044D01*
X-24488Y-26077D01*
X-24495Y-26258D01*
X-24512Y-26417D01*
X-24541Y-26568D01*
X-24581Y-26714D01*
X-24633Y-26854D01*
X-24695Y-26989D01*
X-24770Y-27121D01*
X-24857Y-27248D01*
X-24956Y-27373D01*
X-25080Y-27505D01*
X-25092Y-27539D01*
X-26529Y-28976D01*
X-26588Y-28991D01*
X-27145Y-28885D01*
X-27201Y-28801D01*
X-28301Y-27701D01*
X-28599Y-27502D01*
X-28950Y-27432D01*
X-30075D01*
X-30078Y-27414D01*
X-30080Y-27336D01*
X-30081Y-27334D01*
Y-26750D01*
X-30135Y-26477D01*
X-30156Y-26445D01*
X-30162Y-26226D01*
X-30177Y-26192D01*
Y-24998D01*
X-30106Y-24931D01*
X-30089Y-24918D01*
X-29585D01*
X-29583Y-24918D01*
X-29581Y-24918D01*
X-29500D01*
X-29149Y-24848D01*
X-28851Y-24649D01*
X-28652Y-24351D01*
X-28582Y-24000D01*
Y-23000D01*
X-28652Y-22649D01*
X-28851Y-22351D01*
X-29149Y-22152D01*
X-29500Y-22082D01*
X-30500D01*
X-30851Y-22152D01*
X-31149Y-22351D01*
X-31348Y-22649D01*
X-31418Y-23000D01*
Y-23081D01*
X-31418Y-23083D01*
X-31418Y-23086D01*
Y-23589D01*
X-31431Y-23606D01*
X-31525Y-23706D01*
X-31538Y-23741D01*
X-31743Y-23946D01*
X-31811Y-24047D01*
X-31886Y-24080D01*
X-32363Y-24098D01*
X-32394Y-24088D01*
X-32582Y-23856D01*
Y-23000D01*
X-32652Y-22649D01*
X-32851Y-22351D01*
X-33149Y-22152D01*
X-33500Y-22082D01*
X-34500D01*
X-34851Y-22152D01*
X-35149Y-22351D01*
X-35348Y-22649D01*
X-35418Y-23000D01*
Y-24000D01*
X-35348Y-24351D01*
X-35149Y-24649D01*
X-34851Y-24848D01*
X-34500Y-24918D01*
X-33712D01*
Y-26115D01*
X-33797Y-26198D01*
X-33868Y-26245D01*
X-34227D01*
X-34458Y-26091D01*
X-34732Y-26036D01*
X-35331D01*
X-35605Y-26091D01*
X-35836Y-26245D01*
X-36195D01*
X-36427Y-26091D01*
X-36700Y-26036D01*
X-37300D01*
X-37573Y-26091D01*
X-37805Y-26245D01*
X-38164D01*
X-38395Y-26091D01*
X-38669Y-26036D01*
X-39268D01*
X-39542Y-26091D01*
X-39773Y-26245D01*
X-40132D01*
X-40364Y-26091D01*
X-40637Y-26036D01*
X-41237D01*
X-41510Y-26091D01*
X-41742Y-26245D01*
X-42101D01*
X-42332Y-26091D01*
X-42606Y-26036D01*
X-43205D01*
X-43479Y-26091D01*
X-43710Y-26245D01*
X-43865Y-26477D01*
X-43919Y-26750D01*
Y-29950D01*
X-43865Y-30223D01*
X-43710Y-30455D01*
X-43479Y-30609D01*
X-43205Y-30664D01*
X-42606D01*
X-42332Y-30609D01*
X-42101Y-30455D01*
X-41742D01*
X-41510Y-30609D01*
X-41237Y-30664D01*
X-40637D01*
X-40364Y-30609D01*
X-40132Y-30455D01*
X-39773D01*
X-39542Y-30609D01*
X-39268Y-30664D01*
X-38669D01*
X-38395Y-30609D01*
X-38164Y-30455D01*
X-37805D01*
X-37573Y-30609D01*
X-37300Y-30664D01*
X-36700D01*
X-36427Y-30609D01*
X-36195Y-30455D01*
X-35836D01*
X-35605Y-30609D01*
X-35331Y-30664D01*
X-34732D01*
X-34458Y-30609D01*
X-34227Y-30455D01*
X-33868D01*
X-33636Y-30609D01*
X-33363Y-30664D01*
X-32763D01*
X-32490Y-30609D01*
X-32258Y-30455D01*
X-31899D01*
X-31668Y-30609D01*
X-31394Y-30664D01*
X-30795D01*
X-30521Y-30609D01*
X-30290Y-30455D01*
X-30135Y-30223D01*
X-30081Y-29950D01*
Y-29366D01*
X-30080Y-29364D01*
X-30078Y-29286D01*
X-30075Y-29268D01*
X-29330D01*
X-28768Y-29830D01*
Y-30575D01*
X-28786Y-30578D01*
X-28864Y-30580D01*
X-28866Y-30581D01*
X-29450D01*
X-29723Y-30635D01*
X-29955Y-30790D01*
X-30109Y-31021D01*
X-30164Y-31295D01*
Y-31894D01*
X-30109Y-32168D01*
X-29955Y-32399D01*
Y-32758D01*
X-30109Y-32990D01*
X-30164Y-33263D01*
Y-33863D01*
X-30109Y-34136D01*
X-29955Y-34368D01*
Y-34727D01*
X-30109Y-34958D01*
X-30164Y-35232D01*
Y-35831D01*
X-30109Y-36105D01*
X-29955Y-36336D01*
Y-36695D01*
X-30109Y-36927D01*
X-30164Y-37200D01*
Y-37800D01*
X-30109Y-38073D01*
X-29955Y-38305D01*
X-29723Y-38459D01*
X-29450Y-38514D01*
X-26250D01*
X-25977Y-38459D01*
X-25745Y-38305D01*
X-25642Y-38149D01*
X-25600D01*
X-25141Y-37959D01*
X-23241Y-36059D01*
X-23051Y-35600D01*
Y-31769D01*
X-22231Y-30949D01*
X-15069D01*
X-10059Y-35959D01*
X-9600Y-36149D01*
X-5638D01*
X-5602Y-36164D01*
X-5557Y-36187D01*
X-5506Y-36217D01*
X-5454Y-36254D01*
X-5318Y-36369D01*
X-5245Y-36440D01*
X-5168Y-36471D01*
X-5036Y-36602D01*
X-4559Y-36800D01*
X-4041D01*
X-3564Y-36602D01*
X-3198Y-36236D01*
X-3000Y-35759D01*
Y-35241D01*
X-3198Y-34764D01*
X-3564Y-34398D01*
X-4041Y-34200D01*
X-4559D01*
X-5036Y-34398D01*
X-5168Y-34529D01*
X-5245Y-34560D01*
X-5322Y-34635D01*
X-5388Y-34694D01*
X-5449Y-34743D01*
X-5506Y-34782D01*
X-5557Y-34813D01*
X-5602Y-34836D01*
X-5608Y-34838D01*
X-5929Y-34787D01*
X-6019Y-34462D01*
X-6030Y-34269D01*
X-5698Y-33936D01*
X-5500Y-33459D01*
Y-32941D01*
X-5698Y-32464D01*
X-6064Y-32098D01*
X-6309Y-31996D01*
X-6303Y-31968D01*
X-6144Y-31511D01*
X-5963Y-31518D01*
X-5805Y-31535D01*
X-5653Y-31564D01*
X-5508Y-31604D01*
X-5367Y-31656D01*
X-5232Y-31719D01*
X-5101Y-31793D01*
X-4973Y-31880D01*
X-4849Y-31979D01*
X-4716Y-32103D01*
X-4682Y-32115D01*
X2782Y-39580D01*
Y-47700D01*
X2852Y-48051D01*
X3051Y-48349D01*
X12851Y-58149D01*
X13149Y-58348D01*
X13500Y-58418D01*
X18655D01*
X18688Y-58433D01*
X18707Y-58433D01*
X18709Y-58437D01*
X18734Y-58497D01*
X18755Y-58505D01*
X18851Y-58649D01*
X19149Y-58848D01*
X19500Y-58918D01*
X20500D01*
X20851Y-58848D01*
X21149Y-58649D01*
X21245Y-58505D01*
X21266Y-58497D01*
X21291Y-58437D01*
X21293Y-58433D01*
X21312Y-58433D01*
X21345Y-58418D01*
X22155D01*
X22188Y-58433D01*
X22207Y-58433D01*
X22209Y-58437D01*
X22234Y-58497D01*
X22255Y-58505D01*
X22351Y-58649D01*
X22649Y-58848D01*
X23000Y-58918D01*
X24000D01*
X24351Y-58848D01*
X24649Y-58649D01*
X24745Y-58505D01*
X24766Y-58497D01*
X24791Y-58437D01*
X24793Y-58433D01*
X24812Y-58433D01*
X24845Y-58418D01*
X25942D01*
X25957Y-58492D01*
X25958Y-58514D01*
X25964Y-58527D01*
X26002Y-58717D01*
X26221Y-59045D01*
X26549Y-59264D01*
X26935Y-59341D01*
X29254D01*
X29640Y-59264D01*
X29968Y-59045D01*
X30084Y-58871D01*
X30105Y-58863D01*
X30130Y-58803D01*
X30187Y-58717D01*
X30191Y-58699D01*
X30219Y-58660D01*
X30220Y-58658D01*
X32260D01*
X32611Y-58588D01*
X32909Y-58389D01*
X34649Y-56649D01*
X34848Y-56351D01*
X34918Y-56000D01*
Y-52100D01*
X34848Y-51749D01*
X34649Y-51451D01*
X33907Y-50710D01*
X33896Y-50677D01*
X33786Y-50556D01*
X33721Y-50462D01*
X33681Y-50383D01*
X33661Y-50317D01*
X33656Y-50260D01*
X33661Y-50203D01*
X33681Y-50137D01*
X33721Y-50058D01*
X33786Y-49964D01*
X33896Y-49842D01*
X33907Y-49810D01*
X34149Y-49569D01*
X34348Y-49271D01*
X34418Y-48920D01*
Y-47345D01*
X34433Y-47312D01*
X34433Y-47293D01*
X34437Y-47291D01*
X34497Y-47266D01*
X34505Y-47245D01*
X34649Y-47149D01*
X34848Y-46851D01*
X34918Y-46500D01*
Y-45500D01*
X34848Y-45149D01*
X34649Y-44851D01*
X34543Y-44781D01*
Y-44219D01*
X34649Y-44149D01*
X34848Y-43851D01*
X34918Y-43500D01*
Y-42500D01*
X34848Y-42149D01*
X34649Y-41851D01*
X34351Y-41652D01*
X34149Y-41612D01*
Y-38402D01*
X35768Y-36783D01*
X35810Y-36779D01*
X35849Y-36779D01*
X35851Y-36778D01*
X36866D01*
X37206Y-36710D01*
X37494Y-36518D01*
X37686Y-36230D01*
X37754Y-35890D01*
X37686Y-35550D01*
X37494Y-35262D01*
X37376Y-35183D01*
X37371Y-35170D01*
Y-34641D01*
X37376Y-34628D01*
X37494Y-34549D01*
X37686Y-34261D01*
X37754Y-33921D01*
X37686Y-33581D01*
X37494Y-33293D01*
X37376Y-33215D01*
X37371Y-33201D01*
Y-32673D01*
X37376Y-32659D01*
X37494Y-32581D01*
X37686Y-32293D01*
X37754Y-31953D01*
X37686Y-31613D01*
X37494Y-31325D01*
X37376Y-31246D01*
X37371Y-31233D01*
Y-30704D01*
X37376Y-30691D01*
X37494Y-30612D01*
X37686Y-30324D01*
X37754Y-29984D01*
X37686Y-29644D01*
X37494Y-29356D01*
X37376Y-29278D01*
X37371Y-29264D01*
Y-28736D01*
X37376Y-28722D01*
X37494Y-28644D01*
X37686Y-28356D01*
X37754Y-28016D01*
X37686Y-27676D01*
X37494Y-27388D01*
X37376Y-27309D01*
X37371Y-27296D01*
Y-26767D01*
X37376Y-26754D01*
X37494Y-26675D01*
X37686Y-26387D01*
X37754Y-26047D01*
X37686Y-25707D01*
X37494Y-25419D01*
X37376Y-25341D01*
X37371Y-25327D01*
Y-24799D01*
X37376Y-24785D01*
X37494Y-24707D01*
X37686Y-24419D01*
X37754Y-24079D01*
X37686Y-23739D01*
X37494Y-23451D01*
X37376Y-23372D01*
X37371Y-23359D01*
Y-22830D01*
X37376Y-22817D01*
X37494Y-22738D01*
X37686Y-22450D01*
X37754Y-22110D01*
X38110Y-21754D01*
X38450Y-21686D01*
X38738Y-21494D01*
X38817Y-21376D01*
X38830Y-21371D01*
X39359D01*
X39372Y-21376D01*
X39451Y-21494D01*
X39739Y-21686D01*
X40079Y-21754D01*
X40419Y-21686D01*
X40707Y-21494D01*
X40785Y-21376D01*
X40799Y-21371D01*
X41327D01*
X41341Y-21376D01*
X41419Y-21494D01*
X41707Y-21686D01*
X42047Y-21754D01*
X42387Y-21686D01*
X42675Y-21494D01*
X42754Y-21376D01*
X42767Y-21371D01*
X43296D01*
X43309Y-21376D01*
X43388Y-21494D01*
X43676Y-21686D01*
X44016Y-21754D01*
X44356Y-21686D01*
X44644Y-21494D01*
X44722Y-21376D01*
X44736Y-21371D01*
X45264D01*
X45278Y-21376D01*
X45356Y-21494D01*
X45644Y-21686D01*
X45984Y-21754D01*
X46324Y-21686D01*
X46612Y-21494D01*
X46691Y-21376D01*
X46704Y-21371D01*
X47233D01*
X47246Y-21376D01*
X47325Y-21494D01*
X47613Y-21686D01*
X47953Y-21754D01*
X48293Y-21686D01*
X48581Y-21494D01*
X48659Y-21376D01*
X48673Y-21371D01*
X49201D01*
X49215Y-21376D01*
X49293Y-21494D01*
X49581Y-21686D01*
X49921Y-21754D01*
X50261Y-21686D01*
X50549Y-21494D01*
X50628Y-21376D01*
X50641Y-21371D01*
X51170D01*
X51183Y-21376D01*
X51262Y-21494D01*
X51550Y-21686D01*
X51890Y-21754D01*
X52246Y-22110D01*
X52314Y-22450D01*
X52506Y-22738D01*
X52624Y-22817D01*
X52629Y-22830D01*
Y-23359D01*
X52624Y-23372D01*
X52506Y-23451D01*
X52314Y-23739D01*
X52246Y-24079D01*
X52314Y-24419D01*
X52506Y-24707D01*
X52624Y-24785D01*
X52629Y-24799D01*
Y-25327D01*
X52624Y-25341D01*
X52506Y-25419D01*
X52314Y-25707D01*
X52246Y-26047D01*
X52314Y-26387D01*
X52506Y-26675D01*
X52624Y-26754D01*
X52629Y-26767D01*
Y-27296D01*
X52624Y-27309D01*
X52506Y-27388D01*
X52314Y-27676D01*
X52246Y-28016D01*
X52314Y-28356D01*
X52506Y-28644D01*
X52624Y-28722D01*
X52629Y-28736D01*
Y-29264D01*
X52624Y-29278D01*
X52506Y-29356D01*
X52314Y-29644D01*
X52246Y-29984D01*
X52314Y-30324D01*
X52506Y-30612D01*
X52624Y-30691D01*
X52629Y-30704D01*
Y-31233D01*
X52624Y-31246D01*
X52506Y-31325D01*
X52314Y-31613D01*
X52246Y-31953D01*
X52314Y-32293D01*
X52506Y-32581D01*
X52624Y-32659D01*
X52629Y-32673D01*
Y-33201D01*
X52624Y-33215D01*
X52506Y-33293D01*
X52314Y-33581D01*
X52246Y-33921D01*
X52314Y-34261D01*
X52506Y-34549D01*
X52624Y-34628D01*
X52629Y-34641D01*
Y-35170D01*
X52624Y-35183D01*
X52506Y-35262D01*
X52314Y-35550D01*
X52246Y-35890D01*
X51890Y-36246D01*
X51550Y-36314D01*
X51262Y-36506D01*
X51183Y-36624D01*
X51170Y-36629D01*
X50641D01*
X50628Y-36624D01*
X50549Y-36506D01*
X50261Y-36314D01*
X49921Y-36246D01*
X49581Y-36314D01*
X49293Y-36506D01*
X49215Y-36624D01*
X49201Y-36629D01*
X48673D01*
X48659Y-36624D01*
X48581Y-36506D01*
X48293Y-36314D01*
X47953Y-36246D01*
X47613Y-36314D01*
X47325Y-36506D01*
X47246Y-36624D01*
X47233Y-36629D01*
X46704D01*
X46691Y-36624D01*
X46612Y-36506D01*
X46324Y-36314D01*
X45984Y-36246D01*
X45644Y-36314D01*
X45356Y-36506D01*
X45278Y-36624D01*
X45264Y-36629D01*
X44736D01*
X44722Y-36624D01*
X44644Y-36506D01*
X44356Y-36314D01*
X44016Y-36246D01*
X43676Y-36314D01*
X43388Y-36506D01*
X43309Y-36624D01*
X43296Y-36629D01*
X42767D01*
X42754Y-36624D01*
X42675Y-36506D01*
X42387Y-36314D01*
X42047Y-36246D01*
X41707Y-36314D01*
X41419Y-36506D01*
X41227Y-36794D01*
X41159Y-37134D01*
Y-39380D01*
X41227Y-39720D01*
X41026Y-40301D01*
X40951Y-40351D01*
X39451Y-41851D01*
X39252Y-42149D01*
X39182Y-42500D01*
Y-44420D01*
X38742Y-44860D01*
X38649Y-44851D01*
X38351Y-44652D01*
X38000Y-44582D01*
X37000D01*
X36649Y-44652D01*
X36351Y-44851D01*
X36152Y-45149D01*
X36082Y-45500D01*
Y-46500D01*
X36152Y-46851D01*
X36351Y-47149D01*
X36649Y-47348D01*
X37000Y-47418D01*
X38000D01*
X38351Y-47348D01*
X38649Y-47149D01*
X38745Y-47005D01*
X38766Y-46997D01*
X38791Y-46937D01*
X38793Y-46933D01*
X38812Y-46933D01*
X38845Y-46918D01*
X38900D01*
X39251Y-46848D01*
X39549Y-46649D01*
X40749Y-45449D01*
X40948Y-45151D01*
X41018Y-44800D01*
Y-42880D01*
X41616Y-42282D01*
X42032Y-42476D01*
X42082Y-42522D01*
Y-43500D01*
X42152Y-43851D01*
X42281Y-44045D01*
X42200Y-44241D01*
Y-44759D01*
X42281Y-44955D01*
X42152Y-45149D01*
X42082Y-45500D01*
Y-46500D01*
X42152Y-46851D01*
X42289Y-47056D01*
X42289Y-47062D01*
X42292Y-47073D01*
X42292Y-47078D01*
X42296Y-47086D01*
X42300Y-47100D01*
X42298Y-47129D01*
X41987Y-47530D01*
X41864Y-47587D01*
X41240D01*
X40791Y-47677D01*
X40411Y-47931D01*
X39909Y-48432D01*
X39888Y-48440D01*
X39796Y-48524D01*
X39718Y-48580D01*
X39638Y-48625D01*
X39559Y-48659D01*
X38335D01*
X37949Y-48736D01*
X37621Y-48955D01*
X37402Y-49283D01*
X37325Y-49669D01*
Y-50850D01*
X37402Y-51237D01*
X37621Y-51565D01*
X37949Y-51784D01*
X38335Y-51860D01*
X40654D01*
X41040Y-51784D01*
X41368Y-51565D01*
X41587Y-51237D01*
X41664Y-50850D01*
Y-50236D01*
X41770Y-50168D01*
X42033Y-50054D01*
X42503Y-50266D01*
X42541Y-50282D01*
X42551Y-50289D01*
X42567Y-51068D01*
X42582Y-51103D01*
Y-51500D01*
X42652Y-51851D01*
X42851Y-52149D01*
X43511Y-52809D01*
X43525Y-52845D01*
X43591Y-52912D01*
X43640Y-52966D01*
X43725Y-53069D01*
X43749Y-53102D01*
X43765Y-53129D01*
X43773Y-53144D01*
X43777Y-53160D01*
X43782Y-53166D01*
X43783Y-53170D01*
X43790Y-53177D01*
X43800Y-53190D01*
Y-53359D01*
X43998Y-53836D01*
X44364Y-54202D01*
X44841Y-54400D01*
X45359D01*
X45836Y-54202D01*
X45956Y-54083D01*
X45972Y-54081D01*
X45981Y-54080D01*
X45986Y-54079D01*
X45993Y-54078D01*
X46007Y-54070D01*
X46023Y-54064D01*
X46054Y-54057D01*
X46090Y-54051D01*
X46308Y-54034D01*
X46325Y-54034D01*
X46349Y-54034D01*
X46423Y-54037D01*
X46556Y-54050D01*
X46596Y-54057D01*
X46627Y-54064D01*
X46643Y-54070D01*
X46657Y-54078D01*
X46664Y-54079D01*
X46669Y-54080D01*
X46678Y-54081D01*
X46694Y-54083D01*
X46814Y-54202D01*
X47291Y-54400D01*
X47809D01*
X48286Y-54202D01*
X48471Y-54018D01*
X48700D01*
X49051Y-53948D01*
X49349Y-53749D01*
X56054Y-47044D01*
X56426Y-47379D01*
X55233Y-48860D01*
X51678Y-52678D01*
X47859Y-56233D01*
X43797Y-59506D01*
X39512Y-62482D01*
X35025Y-65144D01*
X30360Y-67479D01*
X25540Y-69476D01*
X20590Y-71123D01*
X15535Y-72413D01*
X10401Y-73340D01*
X5214Y-73897D01*
X0Y-74084D01*
X-5214Y-73897D01*
X-10401Y-73340D01*
X-15535Y-72413D01*
X-20590Y-71123D01*
X-25540Y-69476D01*
X-30360Y-67479D01*
X-35025Y-65144D01*
X-39512Y-62482D01*
X-43797Y-59506D01*
X-47859Y-56233D01*
X-51678Y-52678D01*
X-55233Y-48860D01*
X-58506Y-44797D01*
X-61482Y-40512D01*
X-64144Y-36025D01*
X-66479Y-31360D01*
X-68476Y-26540D01*
X-70123Y-21590D01*
X-71413Y-16535D01*
X-72340Y-11401D01*
X-72897Y-6214D01*
X-73084Y-1000D01*
X-72897Y4214D01*
X-72340Y9401D01*
X-71413Y14535D01*
X-70123Y19590D01*
X-68476Y24540D01*
X-66479Y29360D01*
X-64144Y34025D01*
X-61482Y38512D01*
X-58506Y42797D01*
X-55233Y46859D01*
X-51678Y50678D01*
X-47859Y54233D01*
X-43797Y57506D01*
X-39512Y60482D01*
X-35025Y63144D01*
X-32302Y64507D01*
X-32320Y64544D01*
X-32072Y64709D01*
X-31873Y65007D01*
X-31835Y65198D01*
X-28417Y71158D01*
X-24807Y77453D01*
X-24801Y77449D01*
X-24797Y77457D01*
X-24318Y78081D01*
X-23695Y78560D01*
X-22968Y78861D01*
X-22661Y78901D01*
X-22187Y78963D01*
D01*
X-21697Y78970D01*
X22055Y78953D01*
D02*
G37*
G36*
X19581Y65894D02*
X19577Y65903D01*
X19566Y65910D01*
X19550Y65916D01*
X19528Y65922D01*
X19500Y65926D01*
X19466Y65930D01*
X19381Y65935D01*
X19273Y65937D01*
Y66937D01*
X19330Y66937D01*
X19500Y66948D01*
X19528Y66952D01*
X19550Y66958D01*
X19566Y66964D01*
X19577Y66971D01*
X19581Y66980D01*
Y65894D01*
D02*
G37*
G36*
X-14952Y52174D02*
X-15089Y52011D01*
X-15145Y51931D01*
X-15192Y51853D01*
X-15231Y51776D01*
X-15261Y51701D01*
X-15283Y51626D01*
X-15296Y51554D01*
X-15300Y51482D01*
X-15700D01*
X-15704Y51554D01*
X-15717Y51626D01*
X-15739Y51701D01*
X-15769Y51776D01*
X-15808Y51853D01*
X-15855Y51931D01*
X-15911Y52011D01*
X-15975Y52091D01*
X-16048Y52174D01*
X-16130Y52257D01*
X-14870D01*
X-14952Y52174D01*
D02*
G37*
G36*
X-9856Y44761D02*
X-9904Y44707D01*
X-9946Y44647D01*
X-9983Y44579D01*
X-10015Y44505D01*
X-10042Y44423D01*
X-10064Y44334D01*
X-10081Y44238D01*
X-10092Y44136D01*
X-10099Y44026D01*
X-10100Y43909D01*
X-10991Y44800D01*
X-10874Y44801D01*
X-10661Y44819D01*
X-10566Y44836D01*
X-10477Y44858D01*
X-10395Y44885D01*
X-10321Y44917D01*
X-10253Y44954D01*
X-10193Y44996D01*
X-10139Y45044D01*
X-9856Y44761D01*
D02*
G37*
G36*
X8765Y44057D02*
X8709Y44001D01*
X8788Y44000D01*
Y43000D01*
X8689Y42999D01*
X8436Y42979D01*
X8368Y42968D01*
X8307Y42953D01*
X8254Y42936D01*
X8209Y42917D01*
X8172Y42895D01*
X8143Y42870D01*
Y43806D01*
X7550Y44399D01*
X7579Y44401D01*
X7613Y44411D01*
X7652Y44428D01*
X7696Y44454D01*
X7744Y44486D01*
X7797Y44527D01*
X7918Y44630D01*
X8057Y44765D01*
X8765Y44057D01*
D02*
G37*
G36*
X6857Y42870D02*
X6828Y42895D01*
X6791Y42917D01*
X6746Y42936D01*
X6693Y42953D01*
X6632Y42968D01*
X6564Y42979D01*
X6403Y42995D01*
X6311Y42999D01*
X6212Y43000D01*
Y44000D01*
X6311Y44001D01*
X6564Y44021D01*
X6632Y44032D01*
X6693Y44047D01*
X6746Y44064D01*
X6791Y44083D01*
X6828Y44105D01*
X6857Y44130D01*
Y42870D01*
D02*
G37*
G36*
X-156Y43361D02*
X-204Y43307D01*
X-246Y43247D01*
X-283Y43179D01*
X-315Y43105D01*
X-342Y43023D01*
X-364Y42934D01*
X-381Y42838D01*
X-392Y42736D01*
X-399Y42626D01*
X-400Y42509D01*
X-1291Y43400D01*
X-1174Y43401D01*
X-961Y43419D01*
X-866Y43436D01*
X-777Y43458D01*
X-695Y43485D01*
X-621Y43517D01*
X-553Y43554D01*
X-493Y43596D01*
X-439Y43644D01*
X-156Y43361D01*
D02*
G37*
G36*
X10514Y40600D02*
X10513Y40638D01*
X10509Y40672D01*
X10503Y40702D01*
X10493Y40728D01*
X10481Y40750D01*
X10467Y40768D01*
X10450Y40782D01*
X10430Y40792D01*
X10407Y40798D01*
X10382Y40800D01*
Y41200D01*
X10407Y41202D01*
X10430Y41208D01*
X10450Y41218D01*
X10467Y41232D01*
X10481Y41250D01*
X10493Y41272D01*
X10503Y41298D01*
X10509Y41328D01*
X10513Y41362D01*
X10514Y41400D01*
Y40600D01*
D02*
G37*
G36*
X7642Y40981D02*
X7650Y40957D01*
X7659Y40938D01*
X7669Y40924D01*
X7680Y40914D01*
X7692Y40910D01*
X7705Y40910D01*
X7719Y40915D01*
X7735Y40925D01*
X7751Y40940D01*
X7765Y40388D01*
X7745Y40365D01*
X7728Y40339D01*
X7712Y40310D01*
X7699Y40278D01*
X7688Y40243D01*
X7680Y40205D01*
X7673Y40163D01*
X7670Y40119D01*
X7668Y40071D01*
X7668Y40020D01*
X7636Y41009D01*
X7642Y40981D01*
D02*
G37*
G36*
X-11499Y40974D02*
X-11481Y40762D01*
X-11464Y40666D01*
X-11442Y40577D01*
X-11415Y40495D01*
X-11383Y40421D01*
X-11346Y40353D01*
X-11304Y40293D01*
X-11256Y40239D01*
X-11539Y39956D01*
X-11593Y40004D01*
X-11653Y40046D01*
X-11721Y40083D01*
X-11795Y40115D01*
X-11877Y40142D01*
X-11966Y40164D01*
X-12061Y40181D01*
X-12164Y40192D01*
X-12274Y40199D01*
X-12391Y40200D01*
X-11500Y41091D01*
X-11499Y40974D01*
D02*
G37*
G36*
X-8630Y47189D02*
X-10513Y45305D01*
X-10549Y45290D01*
X-10597Y45274D01*
X-10655Y45260D01*
X-10717Y45249D01*
X-10895Y45234D01*
X-10996Y45233D01*
X-11073Y45200D01*
X-11259D01*
X-11736Y45002D01*
X-12102Y44636D01*
X-12300Y44159D01*
Y43641D01*
X-12102Y43164D01*
X-11736Y42798D01*
X-11259Y42600D01*
X-10741D01*
X-10264Y42798D01*
X-9898Y43164D01*
X-9700Y43641D01*
Y43827D01*
X-9667Y43904D01*
X-9666Y44011D01*
X-9661Y44099D01*
X-9652Y44177D01*
X-9640Y44245D01*
X-9626Y44303D01*
X-9610Y44351D01*
X-9595Y44387D01*
X-7131Y46851D01*
X3016D01*
X3207Y46389D01*
X1068Y44249D01*
X-200D01*
X-659Y44059D01*
X-813Y43905D01*
X-849Y43890D01*
X-897Y43874D01*
X-955Y43860D01*
X-1017Y43849D01*
X-1195Y43834D01*
X-1296Y43833D01*
X-1373Y43800D01*
X-1559D01*
X-2036Y43602D01*
X-2402Y43236D01*
X-2600Y42759D01*
Y42241D01*
X-2402Y41764D01*
X-2036Y41398D01*
X-1559Y41200D01*
X-1557D01*
X-1350Y40700D01*
X-2200Y39849D01*
X-10231D01*
X-10994Y40613D01*
X-11010Y40649D01*
X-11026Y40697D01*
X-11040Y40755D01*
X-11051Y40817D01*
X-11066Y40995D01*
X-11067Y41096D01*
X-11100Y41173D01*
Y41359D01*
X-11298Y41836D01*
X-11664Y42202D01*
X-12141Y42400D01*
X-12659D01*
X-13136Y42202D01*
X-13502Y41836D01*
X-13700Y41359D01*
Y40841D01*
X-13502Y40364D01*
X-13136Y39998D01*
X-12659Y39800D01*
X-12473D01*
X-12396Y39767D01*
X-12289Y39766D01*
X-12201Y39761D01*
X-12141Y39754D01*
X-12111Y39735D01*
X-11975Y39549D01*
X-12053Y39263D01*
X-12270Y39049D01*
X-14231D01*
X-16251Y41069D01*
Y44185D01*
X-12785Y47651D01*
X-8821D01*
X-8630Y47189D01*
D02*
G37*
G36*
X29620Y39122D02*
X29617Y39092D01*
X29618Y39061D01*
X29626Y39028D01*
X29638Y38993D01*
X29657Y38958D01*
X29680Y38920D01*
X29709Y38882D01*
X29743Y38841D01*
X29783Y38800D01*
X29500Y38517D01*
X29459Y38557D01*
X29418Y38591D01*
X29380Y38620D01*
X29342Y38643D01*
X29307Y38662D01*
X29272Y38674D01*
X29239Y38682D01*
X29208Y38683D01*
X29178Y38680D01*
X29150Y38671D01*
X29629Y39150D01*
X29620Y39122D01*
D02*
G37*
G36*
X27001Y39374D02*
X27019Y39162D01*
X27036Y39066D01*
X27058Y38977D01*
X27085Y38895D01*
X27117Y38821D01*
X27154Y38753D01*
X27196Y38693D01*
X27244Y38639D01*
X26961Y38356D01*
X26907Y38404D01*
X26847Y38446D01*
X26779Y38483D01*
X26705Y38515D01*
X26623Y38542D01*
X26534Y38564D01*
X26439Y38581D01*
X26336Y38592D01*
X26226Y38599D01*
X26109Y38600D01*
X27000Y39491D01*
X27001Y39374D01*
D02*
G37*
G36*
X47907Y38932D02*
X47769Y38769D01*
X47713Y38689D01*
X47666Y38611D01*
X47627Y38534D01*
X47597Y38459D01*
X47576Y38385D01*
X47563Y38312D01*
X47558Y38241D01*
X47158D01*
X47154Y38312D01*
X47141Y38385D01*
X47120Y38459D01*
X47089Y38534D01*
X47051Y38611D01*
X47003Y38689D01*
X46948Y38769D01*
X46883Y38850D01*
X46810Y38932D01*
X46728Y39015D01*
X47988D01*
X47907Y38932D01*
D02*
G37*
G36*
X53101Y38574D02*
X53119Y38361D01*
X53136Y38266D01*
X53158Y38177D01*
X53185Y38095D01*
X53217Y38021D01*
X53254Y37953D01*
X53296Y37893D01*
X53344Y37839D01*
X53061Y37556D01*
X53007Y37604D01*
X52947Y37646D01*
X52879Y37683D01*
X52805Y37715D01*
X52723Y37742D01*
X52634Y37764D01*
X52539Y37781D01*
X52436Y37792D01*
X52326Y37799D01*
X52209Y37800D01*
X53100Y38691D01*
X53101Y38574D01*
D02*
G37*
G36*
X-18735Y37543D02*
X-18729Y37520D01*
X-18719Y37500D01*
X-18705Y37483D01*
X-18688Y37468D01*
X-18666Y37457D01*
X-18640Y37447D01*
X-18610Y37440D01*
X-18577Y37437D01*
X-18539Y37435D01*
X-19335D01*
X-19297Y37437D01*
X-19263Y37440D01*
X-19234Y37447D01*
X-19208Y37457D01*
X-19186Y37468D01*
X-19169Y37483D01*
X-19155Y37500D01*
X-19145Y37520D01*
X-19139Y37543D01*
X-19137Y37568D01*
X-18737D01*
X-18735Y37543D01*
D02*
G37*
G36*
X-15121Y37510D02*
X-15092Y37489D01*
X-15062Y37472D01*
X-15028Y37458D01*
X-14993Y37446D01*
X-14955Y37438D01*
X-14914Y37433D01*
X-14872Y37431D01*
X-14827Y37432D01*
X-14779Y37436D01*
X-15669Y37334D01*
X-15652Y37347D01*
X-15639Y37360D01*
X-15629Y37374D01*
X-15623Y37388D01*
X-15620Y37402D01*
X-15621Y37417D01*
X-15626Y37432D01*
X-15634Y37448D01*
X-15646Y37464D01*
X-15661Y37481D01*
X-15147Y37533D01*
X-15121Y37510D01*
D02*
G37*
G36*
X53466Y36926D02*
X53471Y36883D01*
X53481Y36845D01*
X53495Y36812D01*
X53512Y36785D01*
X53533Y36762D01*
X53558Y36744D01*
X53588Y36732D01*
X53620Y36724D01*
X53657Y36722D01*
X52871D01*
X52907Y36724D01*
X52940Y36732D01*
X52969Y36744D01*
X52994Y36762D01*
X53015Y36785D01*
X53033Y36812D01*
X53046Y36845D01*
X53056Y36883D01*
X53062Y36926D01*
X53064Y36973D01*
X53464D01*
X53466Y36926D01*
D02*
G37*
G36*
X47560D02*
X47566Y36883D01*
X47576Y36845D01*
X47589Y36812D01*
X47607Y36785D01*
X47628Y36762D01*
X47653Y36744D01*
X47682Y36732D01*
X47715Y36724D01*
X47752Y36722D01*
X46965D01*
X47002Y36724D01*
X47034Y36732D01*
X47063Y36744D01*
X47089Y36762D01*
X47110Y36785D01*
X47127Y36812D01*
X47141Y36845D01*
X47150Y36883D01*
X47156Y36926D01*
X47158Y36973D01*
X47558D01*
X47560Y36926D01*
D02*
G37*
G36*
X41655D02*
X41660Y36883D01*
X41670Y36845D01*
X41684Y36812D01*
X41701Y36785D01*
X41722Y36762D01*
X41747Y36744D01*
X41776Y36732D01*
X41809Y36724D01*
X41846Y36722D01*
X41059D01*
X41096Y36724D01*
X41129Y36732D01*
X41158Y36744D01*
X41183Y36762D01*
X41204Y36785D01*
X41222Y36812D01*
X41235Y36845D01*
X41245Y36883D01*
X41251Y36926D01*
X41253Y36973D01*
X41653D01*
X41655Y36926D01*
D02*
G37*
G36*
X39686D02*
X39692Y36883D01*
X39702Y36845D01*
X39715Y36812D01*
X39733Y36785D01*
X39754Y36762D01*
X39779Y36744D01*
X39808Y36732D01*
X39841Y36724D01*
X39878Y36722D01*
X39091D01*
X39128Y36724D01*
X39160Y36732D01*
X39189Y36744D01*
X39215Y36762D01*
X39236Y36785D01*
X39253Y36812D01*
X39267Y36845D01*
X39276Y36883D01*
X39282Y36926D01*
X39284Y36973D01*
X39684D01*
X39686Y36926D01*
D02*
G37*
G36*
X35749D02*
X35755Y36883D01*
X35765Y36845D01*
X35778Y36812D01*
X35796Y36785D01*
X35817Y36762D01*
X35842Y36744D01*
X35871Y36732D01*
X35904Y36724D01*
X35941Y36722D01*
X35154D01*
X35191Y36724D01*
X35223Y36732D01*
X35252Y36744D01*
X35278Y36762D01*
X35299Y36785D01*
X35316Y36812D01*
X35330Y36845D01*
X35339Y36883D01*
X35345Y36926D01*
X35347Y36973D01*
X35747D01*
X35749Y36926D01*
D02*
G37*
G36*
X33781D02*
X33786Y36883D01*
X33796Y36845D01*
X33810Y36812D01*
X33827Y36785D01*
X33848Y36762D01*
X33874Y36744D01*
X33902Y36732D01*
X33935Y36724D01*
X33972Y36722D01*
X33185D01*
X33222Y36724D01*
X33255Y36732D01*
X33284Y36744D01*
X33309Y36762D01*
X33330Y36785D01*
X33348Y36812D01*
X33361Y36845D01*
X33371Y36883D01*
X33377Y36926D01*
X33379Y36973D01*
X33779D01*
X33781Y36926D01*
D02*
G37*
G36*
X29844D02*
X29849Y36883D01*
X29859Y36845D01*
X29873Y36812D01*
X29890Y36785D01*
X29911Y36762D01*
X29937Y36744D01*
X29965Y36732D01*
X29998Y36724D01*
X30035Y36722D01*
X29248D01*
X29285Y36724D01*
X29318Y36732D01*
X29347Y36744D01*
X29372Y36762D01*
X29393Y36785D01*
X29411Y36812D01*
X29424Y36845D01*
X29434Y36883D01*
X29440Y36926D01*
X29442Y36973D01*
X29842D01*
X29844Y36926D01*
D02*
G37*
G36*
X27875D02*
X27881Y36883D01*
X27891Y36845D01*
X27904Y36812D01*
X27922Y36785D01*
X27943Y36762D01*
X27968Y36744D01*
X27997Y36732D01*
X28030Y36724D01*
X28067Y36722D01*
X27280D01*
X27317Y36724D01*
X27349Y36732D01*
X27378Y36744D01*
X27404Y36762D01*
X27425Y36785D01*
X27442Y36812D01*
X27456Y36845D01*
X27466Y36883D01*
X27471Y36926D01*
X27473Y36973D01*
X27873D01*
X27875Y36926D01*
D02*
G37*
G36*
X-3396Y37516D02*
X-3357Y37471D01*
X-3315Y37431D01*
X-3268Y37396D01*
X-3217Y37367D01*
X-3162Y37343D01*
X-3103Y37324D01*
X-3039Y37311D01*
X-2972Y37303D01*
X-2900Y37300D01*
Y36900D01*
X-2972Y36897D01*
X-3039Y36889D01*
X-3103Y36876D01*
X-3162Y36857D01*
X-3217Y36833D01*
X-3268Y36804D01*
X-3315Y36769D01*
X-3357Y36729D01*
X-3396Y36684D01*
X-3430Y36633D01*
Y37567D01*
X-3396Y37516D01*
D02*
G37*
G36*
X49875Y37084D02*
X49738Y36921D01*
X49682Y36841D01*
X49634Y36763D01*
X49624Y36743D01*
X49650Y36732D01*
X49683Y36724D01*
X49720Y36722D01*
X49613D01*
X49596Y36686D01*
X49566Y36611D01*
X49544Y36537D01*
X49531Y36464D01*
X49527Y36393D01*
X49127D01*
X49123Y36464D01*
X49110Y36537D01*
X49088Y36611D01*
X49058Y36686D01*
X49040Y36722D01*
X48933D01*
X48970Y36724D01*
X49003Y36732D01*
X49029Y36743D01*
X49019Y36763D01*
X48972Y36841D01*
X48916Y36921D01*
X48852Y37002D01*
X48779Y37084D01*
X48697Y37168D01*
X49957D01*
X49875Y37084D01*
D02*
G37*
G36*
X45938D02*
X45801Y36921D01*
X45745Y36841D01*
X45697Y36763D01*
X45687Y36743D01*
X45713Y36732D01*
X45746Y36724D01*
X45783Y36722D01*
X45676D01*
X45659Y36686D01*
X45628Y36611D01*
X45607Y36537D01*
X45594Y36464D01*
X45590Y36393D01*
X45190D01*
X45186Y36464D01*
X45173Y36537D01*
X45151Y36611D01*
X45121Y36686D01*
X45103Y36722D01*
X44996D01*
X45033Y36724D01*
X45066Y36732D01*
X45092Y36743D01*
X45082Y36763D01*
X45035Y36841D01*
X44979Y36921D01*
X44915Y37002D01*
X44842Y37084D01*
X44760Y37168D01*
X46020D01*
X45938Y37084D01*
D02*
G37*
G36*
X-798Y30593D02*
X-792Y30570D01*
X-782Y30550D01*
X-768Y30533D01*
X-750Y30519D01*
X-728Y30507D01*
X-702Y30497D01*
X-672Y30491D01*
X-638Y30487D01*
X-600Y30486D01*
X-1400D01*
X-1362Y30487D01*
X-1328Y30491D01*
X-1298Y30497D01*
X-1272Y30507D01*
X-1250Y30519D01*
X-1232Y30533D01*
X-1218Y30550D01*
X-1208Y30570D01*
X-1202Y30593D01*
X-1200Y30618D01*
X-800D01*
X-798Y30593D01*
D02*
G37*
G36*
X43778Y29977D02*
X43745Y29969D01*
X43716Y29956D01*
X43691Y29939D01*
X43670Y29916D01*
X43652Y29888D01*
X43639Y29856D01*
X43629Y29818D01*
X43623Y29775D01*
X43621Y29728D01*
X43221D01*
X43219Y29775D01*
X43213Y29818D01*
X43204Y29856D01*
X43190Y29888D01*
X43173Y29916D01*
X43152Y29939D01*
X43126Y29956D01*
X43097Y29969D01*
X43065Y29977D01*
X43028Y29979D01*
X43815D01*
X43778Y29977D01*
D02*
G37*
G36*
X37872D02*
X37839Y29969D01*
X37811Y29956D01*
X37785Y29939D01*
X37764Y29916D01*
X37747Y29888D01*
X37733Y29856D01*
X37723Y29818D01*
X37718Y29775D01*
X37716Y29728D01*
X37316D01*
X37314Y29775D01*
X37308Y29818D01*
X37298Y29856D01*
X37285Y29888D01*
X37267Y29916D01*
X37246Y29939D01*
X37221Y29956D01*
X37192Y29969D01*
X37159Y29977D01*
X37122Y29979D01*
X37909D01*
X37872Y29977D01*
D02*
G37*
G36*
X29998D02*
X29965Y29969D01*
X29937Y29956D01*
X29911Y29939D01*
X29890Y29916D01*
X29873Y29888D01*
X29859Y29856D01*
X29849Y29818D01*
X29844Y29775D01*
X29842Y29728D01*
X29442D01*
X29440Y29775D01*
X29434Y29818D01*
X29424Y29856D01*
X29411Y29888D01*
X29393Y29916D01*
X29372Y29939D01*
X29347Y29956D01*
X29318Y29969D01*
X29285Y29977D01*
X29248Y29979D01*
X30035D01*
X29998Y29977D01*
D02*
G37*
G36*
X28030D02*
X27997Y29969D01*
X27968Y29956D01*
X27943Y29939D01*
X27922Y29916D01*
X27904Y29888D01*
X27891Y29856D01*
X27881Y29818D01*
X27875Y29775D01*
X27873Y29728D01*
X27473D01*
X27471Y29775D01*
X27466Y29818D01*
X27456Y29856D01*
X27442Y29888D01*
X27425Y29916D01*
X27404Y29939D01*
X27378Y29956D01*
X27349Y29969D01*
X27317Y29977D01*
X27280Y29979D01*
X28067D01*
X28030Y29977D01*
D02*
G37*
G36*
X15601Y31107D02*
X15729Y30994D01*
X15752Y30978D01*
X15771Y30966D01*
X15788Y30959D01*
X15800Y30957D01*
X15810Y30960D01*
X15502Y29500D01*
X15500Y29557D01*
X15494Y29613D01*
X15483Y29667D01*
X15469Y29720D01*
X15449Y29771D01*
X15426Y29820D01*
X15398Y29868D01*
X15367Y29915D01*
X15331Y29959D01*
X15290Y30003D01*
X15560Y31147D01*
X15601Y31107D01*
D02*
G37*
G36*
X1591Y29100D02*
X1590Y29138D01*
X1586Y29172D01*
X1579Y29202D01*
X1570Y29228D01*
X1558Y29250D01*
X1544Y29268D01*
X1527Y29282D01*
X1507Y29292D01*
X1484Y29298D01*
X1459Y29300D01*
Y29700D01*
X1484Y29702D01*
X1507Y29708D01*
X1527Y29718D01*
X1544Y29732D01*
X1558Y29750D01*
X1570Y29772D01*
X1579Y29798D01*
X1586Y29828D01*
X1590Y29862D01*
X1591Y29900D01*
Y29100D01*
D02*
G37*
G36*
X-13Y29862D02*
X-9Y29828D01*
X-3Y29798D01*
X7Y29772D01*
X19Y29750D01*
X33Y29732D01*
X50Y29718D01*
X70Y29708D01*
X93Y29702D01*
X118Y29700D01*
Y29300D01*
X93Y29298D01*
X70Y29292D01*
X50Y29282D01*
X33Y29268D01*
X19Y29250D01*
X7Y29228D01*
X-3Y29202D01*
X-9Y29172D01*
X-13Y29138D01*
X-14Y29100D01*
Y29900D01*
X-13Y29862D01*
D02*
G37*
G36*
X63492Y29465D02*
X63488Y29432D01*
X63487Y29401D01*
X63488Y29372D01*
X63492Y29344D01*
X63498Y29319D01*
X63507Y29295D01*
X63518Y29274D01*
X63531Y29254D01*
X63547Y29236D01*
X63264Y28953D01*
X63246Y28969D01*
X63226Y28982D01*
X63205Y28993D01*
X63181Y29002D01*
X63156Y29008D01*
X63128Y29012D01*
X63099Y29013D01*
X63068Y29012D01*
X63035Y29008D01*
X63000Y29002D01*
X63498Y29500D01*
X63492Y29465D01*
D02*
G37*
G36*
X59862Y29013D02*
X59828Y29009D01*
X59798Y29003D01*
X59772Y28993D01*
X59750Y28981D01*
X59732Y28967D01*
X59718Y28950D01*
X59708Y28930D01*
X59702Y28907D01*
X59700Y28882D01*
X59300D01*
X59298Y28907D01*
X59292Y28930D01*
X59282Y28950D01*
X59268Y28967D01*
X59250Y28981D01*
X59228Y28993D01*
X59202Y29003D01*
X59172Y29009D01*
X59138Y29013D01*
X59100Y29014D01*
X59900D01*
X59862Y29013D01*
D02*
G37*
G36*
X17183Y29036D02*
X17176Y29025D01*
X17170Y29009D01*
X17164Y28987D01*
X17160Y28959D01*
X17153Y28886D01*
X17150Y28789D01*
X17150Y28732D01*
X16150Y28702D01*
X16146Y28754D01*
X16136Y28802D01*
X16119Y28846D01*
X16095Y28886D01*
X16065Y28922D01*
X16027Y28954D01*
X15983Y28982D01*
X15932Y29005D01*
X15874Y29025D01*
X15810Y29040D01*
X17190D01*
X17183Y29036D01*
D02*
G37*
G36*
X37720Y29330D02*
X37733Y29258D01*
X37754Y29184D01*
X37785Y29108D01*
X37823Y29031D01*
X37870Y28953D01*
X37926Y28874D01*
X37991Y28793D01*
X38064Y28711D01*
X38146Y28627D01*
X36886D01*
X36968Y28711D01*
X37105Y28874D01*
X37161Y28953D01*
X37208Y29031D01*
X37247Y29108D01*
X37277Y29184D01*
X37299Y29258D01*
X37312Y29330D01*
X37316Y29402D01*
X37716D01*
X37720Y29330D01*
D02*
G37*
G36*
X59704Y28460D02*
X59717Y28388D01*
X59739Y28314D01*
X59769Y28238D01*
X59807Y28161D01*
X59855Y28083D01*
X59911Y28004D01*
X59975Y27923D01*
X60048Y27841D01*
X60130Y27757D01*
X58870D01*
X58952Y27841D01*
X59089Y28004D01*
X59145Y28083D01*
X59193Y28161D01*
X59231Y28238D01*
X59261Y28314D01*
X59283Y28388D01*
X59296Y28460D01*
X59300Y28532D01*
X59700D01*
X59704Y28460D01*
D02*
G37*
G36*
X59980Y26920D02*
X60004Y26904D01*
X60032Y26889D01*
X60064Y26877D01*
X60099Y26866D01*
X60137Y26857D01*
X60179Y26850D01*
X60225Y26845D01*
X60326Y26842D01*
X59195D01*
X59250Y26843D01*
X59337Y26850D01*
X59368Y26857D01*
X59392Y26866D01*
X59408Y26877D01*
X59416Y26889D01*
X59416Y26904D01*
X59408Y26920D01*
X59393Y26939D01*
X59958D01*
X59980Y26920D01*
D02*
G37*
G36*
X17155Y27094D02*
X17170Y27041D01*
X17195Y26994D01*
X17230Y26954D01*
X17275Y26920D01*
X17330Y26892D01*
X17395Y26870D01*
X17470Y26854D01*
X17555Y26845D01*
X17650Y26842D01*
X15650D01*
X15745Y26845D01*
X15830Y26854D01*
X15905Y26870D01*
X15970Y26892D01*
X16025Y26920D01*
X16070Y26954D01*
X16105Y26994D01*
X16130Y27041D01*
X16145Y27094D01*
X16150Y27154D01*
X17150D01*
X17155Y27094D01*
D02*
G37*
G36*
X60325Y26747D02*
X60321Y26714D01*
X60323Y26680D01*
X60330Y26645D01*
X60343Y26608D01*
X60362Y26570D01*
X60386Y26531D01*
X60416Y26490D01*
X60451Y26448D01*
X60492Y26405D01*
X60209Y26122D01*
X60166Y26163D01*
X60124Y26199D01*
X60084Y26228D01*
X60044Y26252D01*
X60006Y26271D01*
X59970Y26284D01*
X59934Y26291D01*
X59900Y26293D01*
X59867Y26289D01*
X59836Y26279D01*
X60335Y26779D01*
X60325Y26747D01*
D02*
G37*
G36*
X63724Y24652D02*
X63732Y24619D01*
X63744Y24590D01*
X63762Y24565D01*
X63785Y24544D01*
X63812Y24526D01*
X63845Y24513D01*
X63883Y24503D01*
X63925Y24497D01*
X63973Y24495D01*
Y24095D01*
X63925Y24093D01*
X63883Y24088D01*
X63845Y24078D01*
X63812Y24064D01*
X63785Y24047D01*
X63762Y24026D01*
X63744Y24001D01*
X63732Y23971D01*
X63724Y23939D01*
X63722Y23902D01*
Y24689D01*
X63724Y24652D01*
D02*
G37*
G36*
X33426Y24648D02*
X33590Y24511D01*
X33669Y24455D01*
X33747Y24408D01*
X33824Y24369D01*
X33899Y24339D01*
X33974Y24317D01*
X34046Y24304D01*
X34117Y24300D01*
Y23900D01*
X34046Y23896D01*
X33974Y23883D01*
X33899Y23861D01*
X33824Y23831D01*
X33747Y23792D01*
X33669Y23745D01*
X33590Y23689D01*
X33509Y23625D01*
X33426Y23552D01*
X33343Y23470D01*
Y24730D01*
X33426Y24648D01*
D02*
G37*
G36*
X8840Y23062D02*
X8846Y22970D01*
X8852Y22928D01*
X8861Y22890D01*
X8871Y22855D01*
X8884Y22823D01*
X8900Y22794D01*
X8918Y22768D01*
X8937Y22745D01*
Y22180D01*
X8914Y22200D01*
X8893Y22213D01*
X8874Y22217D01*
X8857Y22213D01*
X8843Y22201D01*
X8830Y22181D01*
X8821Y22153D01*
X8813Y22117D01*
X8808Y22073D01*
X8805Y22020D01*
X8841Y23113D01*
X8840Y23062D01*
D02*
G37*
G36*
X56979Y21933D02*
X56977Y21970D01*
X56969Y22003D01*
X56956Y22032D01*
X56939Y22057D01*
X56916Y22079D01*
X56889Y22096D01*
X56856Y22109D01*
X56818Y22119D01*
X56775Y22125D01*
X56727Y22127D01*
Y22527D01*
X56775Y22529D01*
X56818Y22535D01*
X56856Y22544D01*
X56889Y22558D01*
X56916Y22575D01*
X56939Y22596D01*
X56956Y22622D01*
X56969Y22650D01*
X56977Y22683D01*
X56979Y22720D01*
Y21933D01*
D02*
G37*
G36*
X32501Y21074D02*
X32519Y20861D01*
X32536Y20766D01*
X32558Y20677D01*
X32585Y20595D01*
X32617Y20521D01*
X32654Y20453D01*
X32696Y20393D01*
X32744Y20339D01*
X32461Y20056D01*
X32407Y20104D01*
X32347Y20146D01*
X32279Y20183D01*
X32205Y20215D01*
X32123Y20242D01*
X32034Y20264D01*
X31938Y20281D01*
X31836Y20292D01*
X31726Y20299D01*
X31609Y20300D01*
X32500Y21191D01*
X32501Y21074D01*
D02*
G37*
G36*
X13152Y18164D02*
X13150Y18169D01*
X13145Y18173D01*
X13138Y18177D01*
X13129Y18180D01*
X13118Y18183D01*
X13104Y18186D01*
X13088Y18188D01*
X13050Y18190D01*
X13027Y18190D01*
Y18590D01*
X13050Y18590D01*
X13104Y18594D01*
X13118Y18596D01*
X13129Y18599D01*
X13138Y18602D01*
X13145Y18606D01*
X13150Y18611D01*
X13152Y18616D01*
Y18164D01*
D02*
G37*
G36*
X56979Y17996D02*
X56977Y18033D01*
X56969Y18066D01*
X56956Y18095D01*
X56939Y18120D01*
X56916Y18141D01*
X56889Y18159D01*
X56856Y18172D01*
X56818Y18182D01*
X56775Y18188D01*
X56727Y18190D01*
Y18590D01*
X56775Y18592D01*
X56818Y18598D01*
X56856Y18607D01*
X56889Y18621D01*
X56916Y18638D01*
X56939Y18659D01*
X56956Y18685D01*
X56969Y18713D01*
X56977Y18746D01*
X56979Y18783D01*
Y17996D01*
D02*
G37*
G36*
Y16028D02*
X56977Y16065D01*
X56969Y16097D01*
X56956Y16127D01*
X56939Y16152D01*
X56916Y16173D01*
X56889Y16190D01*
X56856Y16204D01*
X56818Y16214D01*
X56775Y16219D01*
X56727Y16221D01*
Y16621D01*
X56775Y16623D01*
X56818Y16629D01*
X56856Y16639D01*
X56889Y16652D01*
X56916Y16670D01*
X56939Y16691D01*
X56956Y16716D01*
X56969Y16745D01*
X56977Y16778D01*
X56979Y16815D01*
Y16028D01*
D02*
G37*
G36*
X13278D02*
X13276Y16065D01*
X13268Y16097D01*
X13256Y16127D01*
X13238Y16152D01*
X13215Y16173D01*
X13188Y16190D01*
X13155Y16204D01*
X13117Y16214D01*
X13074Y16219D01*
X13027Y16221D01*
Y16621D01*
X13074Y16623D01*
X13117Y16629D01*
X13155Y16639D01*
X13188Y16652D01*
X13215Y16670D01*
X13238Y16691D01*
X13256Y16716D01*
X13268Y16745D01*
X13276Y16778D01*
X13278Y16815D01*
Y16028D01*
D02*
G37*
G36*
X54248Y16970D02*
X54411Y16832D01*
X54490Y16776D01*
X54568Y16729D01*
X54645Y16690D01*
X54721Y16660D01*
X54795Y16638D01*
X54867Y16626D01*
X54939Y16621D01*
Y16221D01*
X54867Y16217D01*
X54795Y16204D01*
X54721Y16183D01*
X54645Y16152D01*
X54568Y16114D01*
X54490Y16067D01*
X54411Y16011D01*
X54330Y15946D01*
X54248Y15873D01*
X54164Y15791D01*
Y17051D01*
X54248Y16970D01*
D02*
G37*
G36*
X8842Y15622D02*
X8846Y15588D01*
X8853Y15558D01*
X8862Y15532D01*
X8874Y15510D01*
X8888Y15492D01*
X8905Y15478D01*
X8925Y15468D01*
X8948Y15462D01*
X8973Y15460D01*
Y15060D01*
X8948Y15058D01*
X8925Y15052D01*
X8905Y15042D01*
X8888Y15028D01*
X8874Y15010D01*
X8862Y14988D01*
X8853Y14962D01*
X8846Y14932D01*
X8842Y14898D01*
X8841Y14860D01*
Y15660D01*
X8842Y15622D01*
D02*
G37*
G36*
X56979Y14059D02*
X56977Y14096D01*
X56969Y14129D01*
X56956Y14158D01*
X56939Y14183D01*
X56916Y14204D01*
X56889Y14222D01*
X56856Y14235D01*
X56818Y14245D01*
X56775Y14251D01*
X56727Y14253D01*
Y14653D01*
X56775Y14655D01*
X56818Y14660D01*
X56856Y14670D01*
X56889Y14684D01*
X56916Y14701D01*
X56939Y14722D01*
X56956Y14748D01*
X56969Y14776D01*
X56977Y14809D01*
X56979Y14846D01*
Y14059D01*
D02*
G37*
G36*
X13278D02*
X13276Y14096D01*
X13268Y14129D01*
X13256Y14158D01*
X13238Y14183D01*
X13215Y14204D01*
X13188Y14222D01*
X13155Y14235D01*
X13117Y14245D01*
X13074Y14251D01*
X13027Y14253D01*
Y14653D01*
X13074Y14655D01*
X13117Y14660D01*
X13155Y14670D01*
X13188Y14684D01*
X13215Y14701D01*
X13238Y14722D01*
X13256Y14748D01*
X13268Y14776D01*
X13276Y14809D01*
X13278Y14846D01*
Y14059D01*
D02*
G37*
G36*
X52453Y15011D02*
X52607Y14870D01*
X52683Y14812D01*
X52758Y14763D01*
X52833Y14724D01*
X52907Y14693D01*
X52981Y14671D01*
X53054Y14657D01*
X53127Y14653D01*
X53105Y14253D01*
X53035Y14249D01*
X52963Y14236D01*
X52889Y14215D01*
X52813Y14186D01*
X52734Y14149D01*
X52653Y14103D01*
X52570Y14049D01*
X52486Y13987D01*
X52309Y13837D01*
X52375Y15095D01*
X52453Y15011D01*
D02*
G37*
G36*
X20023Y12841D02*
X20031Y12808D01*
X20044Y12779D01*
X20061Y12754D01*
X20084Y12733D01*
X20111Y12715D01*
X20144Y12702D01*
X20182Y12692D01*
X20225Y12686D01*
X20272Y12684D01*
Y12284D01*
X20225Y12282D01*
X20182Y12276D01*
X20144Y12267D01*
X20111Y12253D01*
X20084Y12236D01*
X20061Y12215D01*
X20044Y12190D01*
X20031Y12161D01*
X20023Y12128D01*
X20021Y12091D01*
Y12878D01*
X20023Y12841D01*
D02*
G37*
G36*
X21401Y11833D02*
X21328Y11919D01*
X21255Y11995D01*
X21181Y12063D01*
X21108Y12122D01*
X21035Y12171D01*
X20961Y12212D01*
X20888Y12244D01*
X20814Y12266D01*
X20741Y12280D01*
X20667Y12284D01*
X20706Y12684D01*
X20775Y12688D01*
X20846Y12700D01*
X20920Y12720D01*
X20997Y12749D01*
X21077Y12785D01*
X21160Y12829D01*
X21246Y12882D01*
X21425Y13011D01*
X21519Y13087D01*
X21401Y11833D01*
D02*
G37*
G36*
X8867Y10484D02*
X8851Y10467D01*
X8839Y10451D01*
X8829Y10436D01*
X8823Y10422D01*
X8820Y10408D01*
X8821Y10395D01*
X8824Y10383D01*
X8830Y10372D01*
X8839Y10362D01*
X8852Y10352D01*
X8032Y10486D01*
X8078Y10480D01*
X8121Y10477D01*
X8163Y10478D01*
X8202Y10483D01*
X8240Y10491D01*
X8276Y10502D01*
X8310Y10517D01*
X8342Y10535D01*
X8372Y10557D01*
X8400Y10582D01*
X8867Y10484D01*
D02*
G37*
G36*
X56990Y10107D02*
X56986Y10143D01*
X56978Y10176D01*
X56964Y10205D01*
X56946Y10230D01*
X56922Y10252D01*
X56894Y10269D01*
X56861Y10283D01*
X56822Y10292D01*
X56779Y10298D01*
X56731Y10300D01*
X56724Y10700D01*
X56772Y10702D01*
X56814Y10708D01*
X56851Y10717D01*
X56883Y10731D01*
X56910Y10748D01*
X56932Y10770D01*
X56949Y10795D01*
X56960Y10824D01*
X56967Y10857D01*
X56969Y10893D01*
X56990Y10107D01*
D02*
G37*
G36*
X45426Y11048D02*
X45590Y10911D01*
X45669Y10855D01*
X45747Y10808D01*
X45824Y10769D01*
X45899Y10739D01*
X45974Y10717D01*
X46046Y10704D01*
X46117Y10700D01*
Y10300D01*
X46046Y10296D01*
X45974Y10283D01*
X45899Y10261D01*
X45824Y10231D01*
X45747Y10193D01*
X45669Y10145D01*
X45590Y10089D01*
X45509Y10025D01*
X45426Y9952D01*
X45343Y9870D01*
Y11130D01*
X45426Y11048D01*
D02*
G37*
G36*
X8362Y8513D02*
X8328Y8509D01*
X8298Y8503D01*
X8272Y8493D01*
X8250Y8481D01*
X8232Y8467D01*
X8218Y8450D01*
X8208Y8430D01*
X8202Y8407D01*
X8200Y8382D01*
X7800D01*
X7798Y8407D01*
X7792Y8430D01*
X7782Y8450D01*
X7768Y8467D01*
X7750Y8481D01*
X7728Y8493D01*
X7702Y8503D01*
X7672Y8509D01*
X7638Y8513D01*
X7600Y8514D01*
X8400D01*
X8362Y8513D01*
D02*
G37*
G36*
X56979Y8154D02*
X56977Y8191D01*
X56969Y8224D01*
X56956Y8252D01*
X56939Y8278D01*
X56916Y8299D01*
X56889Y8316D01*
X56856Y8330D01*
X56818Y8339D01*
X56775Y8345D01*
X56727Y8347D01*
Y8747D01*
X56775Y8749D01*
X56818Y8755D01*
X56856Y8765D01*
X56889Y8778D01*
X56916Y8796D01*
X56939Y8817D01*
X56956Y8842D01*
X56969Y8871D01*
X56977Y8904D01*
X56979Y8941D01*
Y8154D01*
D02*
G37*
G36*
X20023Y8904D02*
X20031Y8871D01*
X20044Y8842D01*
X20061Y8817D01*
X20084Y8796D01*
X20111Y8778D01*
X20144Y8765D01*
X20182Y8755D01*
X20225Y8749D01*
X20272Y8747D01*
Y8347D01*
X20225Y8345D01*
X20182Y8339D01*
X20144Y8330D01*
X20111Y8316D01*
X20084Y8299D01*
X20061Y8278D01*
X20044Y8252D01*
X20031Y8224D01*
X20023Y8191D01*
X20021Y8154D01*
Y8941D01*
X20023Y8904D01*
D02*
G37*
G36*
X21695Y7933D02*
X21605Y8012D01*
X21432Y8145D01*
X21349Y8198D01*
X21267Y8244D01*
X21189Y8281D01*
X21112Y8310D01*
X21038Y8331D01*
X20966Y8343D01*
X20896Y8347D01*
X20872Y8747D01*
X20945Y8752D01*
X21018Y8765D01*
X21092Y8787D01*
X21166Y8818D01*
X21241Y8858D01*
X21316Y8907D01*
X21392Y8965D01*
X21468Y9031D01*
X21544Y9107D01*
X21621Y9191D01*
X21695Y7933D01*
D02*
G37*
G36*
X48079Y9096D02*
X48242Y8958D01*
X48322Y8902D01*
X48400Y8855D01*
X48477Y8816D01*
X48552Y8786D01*
X48626Y8764D01*
X48699Y8752D01*
X48770Y8747D01*
Y8347D01*
X48699Y8343D01*
X48626Y8330D01*
X48552Y8309D01*
X48477Y8278D01*
X48400Y8240D01*
X48322Y8192D01*
X48242Y8136D01*
X48161Y8072D01*
X48079Y7999D01*
X47995Y7917D01*
Y9177D01*
X48079Y9096D01*
D02*
G37*
G36*
X8202Y7593D02*
X8208Y7570D01*
X8218Y7550D01*
X8232Y7533D01*
X8250Y7519D01*
X8272Y7507D01*
X8298Y7497D01*
X8328Y7491D01*
X8362Y7487D01*
X8400Y7486D01*
X7600D01*
X7638Y7487D01*
X7672Y7491D01*
X7702Y7497D01*
X7728Y7507D01*
X7750Y7519D01*
X7768Y7533D01*
X7782Y7550D01*
X7792Y7570D01*
X7798Y7593D01*
X7800Y7618D01*
X8200D01*
X8202Y7593D01*
D02*
G37*
G36*
X20023Y6935D02*
X20031Y6903D01*
X20044Y6874D01*
X20061Y6848D01*
X20084Y6827D01*
X20111Y6810D01*
X20144Y6796D01*
X20182Y6786D01*
X20225Y6781D01*
X20272Y6779D01*
Y6379D01*
X20225Y6377D01*
X20182Y6371D01*
X20144Y6361D01*
X20111Y6348D01*
X20084Y6330D01*
X20061Y6309D01*
X20044Y6284D01*
X20031Y6255D01*
X20023Y6222D01*
X20021Y6185D01*
Y6972D01*
X20023Y6935D01*
D02*
G37*
G36*
X21493Y6396D02*
X21553Y6354D01*
X21621Y6317D01*
X21695Y6285D01*
X21777Y6258D01*
X21866Y6236D01*
X21961Y6219D01*
X22064Y6208D01*
X22174Y6201D01*
X22291Y6200D01*
X21400Y5309D01*
X21399Y5426D01*
X21381Y5639D01*
X21364Y5734D01*
X21342Y5823D01*
X21315Y5905D01*
X21283Y5979D01*
X21246Y6047D01*
X21204Y6107D01*
X21156Y6161D01*
X21439Y6444D01*
X21493Y6396D01*
D02*
G37*
G36*
X8970Y4154D02*
X8985Y4122D01*
X9006Y4093D01*
X9032Y4069D01*
X9063Y4048D01*
X9099Y4030D01*
X9141Y4017D01*
X9188Y4008D01*
X9240Y4002D01*
X9298Y4000D01*
Y3000D01*
X9240Y2998D01*
X9188Y2992D01*
X9141Y2983D01*
X9099Y2970D01*
X9063Y2952D01*
X9032Y2931D01*
X9006Y2907D01*
X8985Y2878D01*
X8970Y2846D01*
X8960Y2810D01*
Y4190D01*
X8970Y4154D01*
D02*
G37*
G36*
X7310Y2540D02*
X7300Y2543D01*
X7288Y2541D01*
X7271Y2534D01*
X7252Y2522D01*
X7229Y2506D01*
X7202Y2485D01*
X7138Y2428D01*
X7060Y2353D01*
X6790Y3497D01*
X6831Y3541D01*
X6867Y3585D01*
X6899Y3632D01*
X6926Y3680D01*
X6949Y3729D01*
X6968Y3780D01*
X6983Y3833D01*
X6994Y3887D01*
X7000Y3943D01*
X7002Y4000D01*
X7310Y2540D01*
D02*
G37*
G36*
X5210Y503D02*
X5169Y459D01*
X5133Y415D01*
X5102Y368D01*
X5074Y320D01*
X5051Y271D01*
X5032Y220D01*
X5017Y167D01*
X5006Y113D01*
X5000Y57D01*
X4998Y0D01*
X4690Y1460D01*
X4700Y1457D01*
X4712Y1459D01*
X4729Y1466D01*
X4748Y1478D01*
X4771Y1494D01*
X4798Y1515D01*
X4862Y1572D01*
X4940Y1647D01*
X5210Y503D01*
D02*
G37*
G36*
X8970Y1154D02*
X8985Y1122D01*
X9006Y1093D01*
X9032Y1068D01*
X9063Y1048D01*
X9099Y1030D01*
X9141Y1017D01*
X9188Y1008D01*
X9240Y1002D01*
X9298Y1000D01*
Y0D01*
X9240Y-2D01*
X9188Y-8D01*
X9141Y-17D01*
X9099Y-30D01*
X9063Y-48D01*
X9032Y-69D01*
X9006Y-93D01*
X8985Y-122D01*
X8970Y-154D01*
X8960Y-190D01*
Y1190D01*
X8970Y1154D01*
D02*
G37*
G36*
X8654Y-470D02*
X8622Y-485D01*
X8593Y-506D01*
X8569Y-532D01*
X8548Y-563D01*
X8530Y-599D01*
X8517Y-641D01*
X8508Y-688D01*
X8502Y-740D01*
X8500Y-798D01*
X7500D01*
X7498Y-740D01*
X7492Y-688D01*
X7483Y-641D01*
X7469Y-599D01*
X7452Y-563D01*
X7431Y-532D01*
X7407Y-506D01*
X7378Y-485D01*
X7346Y-470D01*
X7310Y-460D01*
X8690D01*
X8654Y-470D01*
D02*
G37*
G36*
X4654D02*
X4622Y-485D01*
X4593Y-506D01*
X4569Y-532D01*
X4548Y-563D01*
X4530Y-599D01*
X4517Y-641D01*
X4508Y-688D01*
X4502Y-740D01*
X4500Y-798D01*
X3500D01*
X3498Y-740D01*
X3492Y-688D01*
X3483Y-641D01*
X3469Y-599D01*
X3452Y-563D01*
X3432Y-532D01*
X3407Y-506D01*
X3378Y-485D01*
X3346Y-470D01*
X3310Y-460D01*
X4690D01*
X4654Y-470D01*
D02*
G37*
G36*
X8502Y-1260D02*
X8508Y-1312D01*
X8517Y-1359D01*
X8530Y-1400D01*
X8548Y-1437D01*
X8569Y-1468D01*
X8593Y-1494D01*
X8622Y-1515D01*
X8654Y-1530D01*
X8690Y-1540D01*
X7310D01*
X7346Y-1530D01*
X7378Y-1515D01*
X7407Y-1494D01*
X7431Y-1468D01*
X7452Y-1437D01*
X7469Y-1400D01*
X7483Y-1359D01*
X7492Y-1312D01*
X7498Y-1260D01*
X7500Y-1202D01*
X8500D01*
X8502Y-1260D01*
D02*
G37*
G36*
X4502D02*
X4508Y-1312D01*
X4517Y-1359D01*
X4530Y-1400D01*
X4548Y-1437D01*
X4569Y-1468D01*
X4593Y-1494D01*
X4622Y-1515D01*
X4654Y-1530D01*
X4690Y-1540D01*
X3310D01*
X3346Y-1530D01*
X3378Y-1515D01*
X3407Y-1494D01*
X3432Y-1468D01*
X3452Y-1437D01*
X3469Y-1400D01*
X3483Y-1359D01*
X3492Y-1312D01*
X3498Y-1260D01*
X3500Y-1202D01*
X4500D01*
X4502Y-1260D01*
D02*
G37*
G36*
X56524Y-748D02*
X56688Y-885D01*
X56767Y-941D01*
X56846Y-988D01*
X56923Y-1027D01*
X56933Y-1031D01*
X56939Y-1026D01*
X56956Y-1001D01*
X56969Y-972D01*
X56977Y-939D01*
X56979Y-902D01*
Y-1049D01*
X56998Y-1057D01*
X57073Y-1078D01*
X57145Y-1091D01*
X57216Y-1095D01*
X57219Y-1495D01*
X57147Y-1500D01*
X57074Y-1512D01*
X57000Y-1534D01*
X56979Y-1543D01*
Y-1689D01*
X56977Y-1652D01*
X56969Y-1619D01*
X56956Y-1590D01*
X56939Y-1565D01*
X56934Y-1561D01*
X56925Y-1564D01*
X56848Y-1603D01*
X56770Y-1651D01*
X56691Y-1707D01*
X56611Y-1771D01*
X56529Y-1845D01*
X56446Y-1927D01*
X56439Y-667D01*
X56524Y-748D01*
D02*
G37*
G36*
X8654Y-3470D02*
X8622Y-3485D01*
X8593Y-3506D01*
X8569Y-3532D01*
X8548Y-3563D01*
X8530Y-3599D01*
X8517Y-3641D01*
X8508Y-3688D01*
X8502Y-3740D01*
X8500Y-3798D01*
X7500D01*
X7498Y-3740D01*
X7492Y-3688D01*
X7483Y-3641D01*
X7469Y-3599D01*
X7452Y-3563D01*
X7431Y-3532D01*
X7407Y-3506D01*
X7378Y-3485D01*
X7346Y-3470D01*
X7310Y-3460D01*
X8690D01*
X8654Y-3470D01*
D02*
G37*
G36*
X60274Y-3843D02*
X60179Y-3850D01*
X60137Y-3857D01*
X60099Y-3866D01*
X60064Y-3876D01*
X60032Y-3889D01*
X60004Y-3904D01*
X59980Y-3920D01*
X59958Y-3938D01*
X59393D01*
X59408Y-3920D01*
X59416Y-3904D01*
X59416Y-3889D01*
X59408Y-3876D01*
X59392Y-3866D01*
X59368Y-3857D01*
X59337Y-3850D01*
X59297Y-3845D01*
X59250Y-3843D01*
X59195Y-3842D01*
X60326D01*
X60274Y-3843D01*
D02*
G37*
G36*
X8502Y-4260D02*
X8508Y-4312D01*
X8517Y-4359D01*
X8530Y-4400D01*
X8548Y-4437D01*
X8569Y-4468D01*
X8593Y-4494D01*
X8622Y-4515D01*
X8654Y-4530D01*
X8690Y-4540D01*
X7310D01*
X7346Y-4530D01*
X7378Y-4515D01*
X7407Y-4494D01*
X7431Y-4468D01*
X7452Y-4437D01*
X7469Y-4400D01*
X7483Y-4359D01*
X7492Y-4312D01*
X7498Y-4260D01*
X7500Y-4202D01*
X8500D01*
X8502Y-4260D01*
D02*
G37*
G36*
X30864Y20098D02*
X31341Y19900D01*
X31527D01*
X31604Y19867D01*
X31711Y19866D01*
X31799Y19861D01*
X31877Y19852D01*
X31945Y19840D01*
X32003Y19826D01*
X32051Y19810D01*
X32087Y19794D01*
X34898Y16984D01*
Y-6640D01*
X34851Y-6672D01*
X34848Y-6673D01*
X34815Y-6684D01*
X34293D01*
X33965Y-6465D01*
X33579Y-6388D01*
X33192Y-6465D01*
X32865Y-6684D01*
X32324D01*
X31997Y-6465D01*
X31610Y-6388D01*
X31224Y-6465D01*
X30896Y-6684D01*
X30356D01*
X30028Y-6465D01*
X29642Y-6388D01*
X29255Y-6465D01*
X28928Y-6684D01*
X28387D01*
X28060Y-6465D01*
X27673Y-6388D01*
X27287Y-6465D01*
X26959Y-6684D01*
X26740Y-7011D01*
X26663Y-7398D01*
Y-13303D01*
X26740Y-13690D01*
X26959Y-14017D01*
X26973Y-14027D01*
X26974Y-14028D01*
X26977Y-14029D01*
X27024Y-14061D01*
Y-15673D01*
X27214Y-16132D01*
X28573Y-17492D01*
X28569Y-17500D01*
X28582Y-17531D01*
Y-17581D01*
X28582Y-17583D01*
X28582Y-17585D01*
Y-18089D01*
X28569Y-18106D01*
X28475Y-18206D01*
X28462Y-18241D01*
X27020Y-19682D01*
X23300D01*
X22949Y-19752D01*
X22651Y-19951D01*
X21391Y-21211D01*
X21355Y-21225D01*
X21288Y-21291D01*
X21234Y-21340D01*
X21222Y-21351D01*
X20738Y-21222D01*
X20711Y-21213D01*
X20589Y-21091D01*
X20575Y-21055D01*
X20509Y-20988D01*
X20460Y-20934D01*
X20375Y-20831D01*
X20351Y-20798D01*
X20335Y-20771D01*
X20327Y-20756D01*
X20323Y-20740D01*
X20318Y-20734D01*
X20317Y-20730D01*
X20310Y-20723D01*
X20300Y-20710D01*
Y-20541D01*
X20102Y-20064D01*
X19736Y-19698D01*
X19259Y-19500D01*
X18741D01*
X18264Y-19698D01*
X17898Y-20064D01*
X17700Y-20541D01*
Y-21059D01*
X17898Y-21536D01*
X18264Y-21902D01*
X18741Y-22100D01*
X18910D01*
X18923Y-22110D01*
X18930Y-22117D01*
X18934Y-22118D01*
X18940Y-22123D01*
X18956Y-22127D01*
X18971Y-22135D01*
X18998Y-22151D01*
X19027Y-22172D01*
X19194Y-22315D01*
X19255Y-22375D01*
X19291Y-22389D01*
X19496Y-22594D01*
X19510Y-22629D01*
X19634Y-22759D01*
X19722Y-22862D01*
X19749Y-22898D01*
X19769Y-22927D01*
X19779Y-22946D01*
X19781Y-22949D01*
X19786Y-22964D01*
X19790Y-22969D01*
X19791Y-22971D01*
X19796Y-22976D01*
X19800Y-22980D01*
Y-23059D01*
X19998Y-23536D01*
X20364Y-23902D01*
X20624Y-24010D01*
X20629Y-24016D01*
X20801Y-24535D01*
X20797Y-24582D01*
X20752Y-24649D01*
X20682Y-25000D01*
Y-26000D01*
X20752Y-26351D01*
X20951Y-26649D01*
X21249Y-26848D01*
X21600Y-26918D01*
X22600D01*
X22951Y-26848D01*
X23249Y-26649D01*
X23448Y-26351D01*
X23518Y-26000D01*
Y-25031D01*
X23530Y-25000D01*
X23527Y-24992D01*
X24300Y-24218D01*
X24419Y-24206D01*
X24903Y-24322D01*
X25008Y-24480D01*
X25320Y-24688D01*
X25687Y-24761D01*
X30313D01*
X30588Y-24706D01*
X32388Y-26507D01*
X32847Y-26697D01*
X33616D01*
X33819Y-27197D01*
X33644Y-27366D01*
X32784D01*
X32325Y-27556D01*
X30588Y-29294D01*
X30313Y-29239D01*
X25687D01*
X25320Y-29312D01*
X25008Y-29520D01*
X24800Y-29831D01*
X24749Y-30091D01*
X23992D01*
X23530Y-30000D01*
X23518Y-29969D01*
Y-29000D01*
X23448Y-28649D01*
X23249Y-28351D01*
X22951Y-28152D01*
X22600Y-28082D01*
X21600D01*
X21249Y-28152D01*
X20951Y-28351D01*
X20752Y-28649D01*
X20682Y-29000D01*
Y-30000D01*
X20752Y-30351D01*
X20951Y-30649D01*
X21249Y-30848D01*
X21600Y-30918D01*
X22569D01*
X22600Y-30931D01*
X22609Y-30927D01*
X22881Y-31199D01*
X23340Y-31390D01*
X24749D01*
X24800Y-31649D01*
X25008Y-31960D01*
X25320Y-32168D01*
X25687Y-32241D01*
X30313D01*
X30680Y-32168D01*
X30992Y-31960D01*
X31200Y-31649D01*
X31273Y-31282D01*
Y-30446D01*
X31900Y-29818D01*
X32400Y-30026D01*
Y-30259D01*
X32598Y-30736D01*
X32964Y-31102D01*
X33415Y-31289D01*
X33467Y-31322D01*
X33467Y-31323D01*
X33763Y-31800D01*
X33732Y-31953D01*
X33800Y-32293D01*
X33992Y-32581D01*
X33844Y-33077D01*
X33644Y-33272D01*
X32079D01*
X31620Y-33462D01*
X31526Y-33555D01*
X31490Y-33571D01*
X31443Y-33586D01*
X31385Y-33601D01*
X31322Y-33612D01*
X31144Y-33627D01*
X31043Y-33628D01*
X30966Y-33661D01*
X30781D01*
X30303Y-33858D01*
X29937Y-34224D01*
X29789Y-34582D01*
X29500D01*
X29149Y-34652D01*
X28851Y-34851D01*
X28652Y-35149D01*
X28582Y-35500D01*
Y-36500D01*
X28652Y-36851D01*
X28789Y-37056D01*
X28789Y-37062D01*
X28792Y-37073D01*
X28793Y-37078D01*
X28796Y-37086D01*
X28800Y-37100D01*
X28803Y-37122D01*
X28816Y-37302D01*
X28817Y-37375D01*
X28828Y-37399D01*
Y-37596D01*
X28817Y-37619D01*
X28813Y-37770D01*
X28804Y-37874D01*
X28800Y-37900D01*
X28796Y-37914D01*
X28793Y-37922D01*
X28792Y-37927D01*
X28789Y-37938D01*
X28789Y-37944D01*
X28652Y-38149D01*
X28582Y-38500D01*
Y-39500D01*
X28652Y-39851D01*
X28851Y-40149D01*
X29149Y-40348D01*
X29500Y-40418D01*
X30500D01*
X30851Y-40348D01*
X31149Y-40149D01*
X31348Y-39851D01*
X31418Y-39500D01*
Y-38500D01*
X31348Y-38149D01*
X31211Y-37944D01*
X31211Y-37938D01*
X31208Y-37927D01*
X31207Y-37922D01*
X31204Y-37914D01*
X31200Y-37900D01*
X31197Y-37878D01*
X31184Y-37698D01*
X31183Y-37625D01*
X31172Y-37601D01*
Y-37404D01*
X31183Y-37381D01*
X31187Y-37230D01*
X31196Y-37126D01*
X31200Y-37100D01*
X31204Y-37086D01*
X31207Y-37078D01*
X31208Y-37073D01*
X31211Y-37062D01*
X31211Y-37056D01*
X31348Y-36851D01*
X31418Y-36500D01*
Y-36211D01*
X31776Y-36063D01*
X32142Y-35697D01*
X32339Y-35219D01*
Y-35034D01*
X32372Y-34957D01*
X32373Y-34850D01*
X32379Y-34762D01*
X32388Y-34684D01*
X32399Y-34615D01*
X32410Y-34571D01*
X34013D01*
X34043Y-34583D01*
X34110Y-34628D01*
X34115Y-34641D01*
Y-35170D01*
X34110Y-35183D01*
X33992Y-35262D01*
X33800Y-35550D01*
X33732Y-35890D01*
X33800Y-36230D01*
X33992Y-36518D01*
X34011Y-36704D01*
X33041Y-37674D01*
X32851Y-38133D01*
Y-41612D01*
X32649Y-41652D01*
X32351Y-41851D01*
X32152Y-42149D01*
X32082Y-42500D01*
Y-43500D01*
X32152Y-43851D01*
X32351Y-44149D01*
X32457Y-44219D01*
Y-44781D01*
X32351Y-44851D01*
X32152Y-45149D01*
X32082Y-45500D01*
Y-46500D01*
X32152Y-46851D01*
X32351Y-47149D01*
X32495Y-47245D01*
X32503Y-47266D01*
X32563Y-47291D01*
X32567Y-47293D01*
X32567Y-47312D01*
X32582Y-47345D01*
Y-48540D01*
X32399Y-48723D01*
X32365Y-48736D01*
X32232Y-48859D01*
X32108Y-48959D01*
X31980Y-49045D01*
X31849Y-49120D01*
X31714Y-49183D01*
X31574Y-49234D01*
X31428Y-49274D01*
X31277Y-49303D01*
X31118Y-49321D01*
X30937Y-49327D01*
X30904Y-49342D01*
X30220D01*
X30219Y-49340D01*
X30191Y-49301D01*
X30187Y-49283D01*
X30130Y-49197D01*
X30105Y-49137D01*
X30084Y-49129D01*
X29968Y-48955D01*
X29640Y-48736D01*
X29254Y-48659D01*
X26935D01*
X26549Y-48736D01*
X26221Y-48955D01*
X26002Y-49283D01*
X25925Y-49669D01*
Y-50850D01*
X26002Y-51237D01*
X26221Y-51565D01*
X26549Y-51784D01*
X26935Y-51860D01*
X29254D01*
X29640Y-51784D01*
X29968Y-51565D01*
X30084Y-51391D01*
X30105Y-51382D01*
X30130Y-51322D01*
X30187Y-51237D01*
X30191Y-51218D01*
X30219Y-51179D01*
X30220Y-51178D01*
X30904D01*
X30937Y-51192D01*
X31118Y-51199D01*
X31277Y-51217D01*
X31428Y-51245D01*
X31574Y-51286D01*
X31714Y-51337D01*
X31849Y-51400D01*
X31980Y-51474D01*
X32108Y-51561D01*
X32232Y-51661D01*
X32365Y-51784D01*
X32399Y-51797D01*
X33082Y-52480D01*
Y-55620D01*
X31880Y-56823D01*
X30220D01*
X30219Y-56820D01*
X30191Y-56782D01*
X30187Y-56763D01*
X30130Y-56678D01*
X30105Y-56618D01*
X30084Y-56609D01*
X29968Y-56436D01*
X29640Y-56217D01*
X29254Y-56140D01*
X26935D01*
X26549Y-56217D01*
X26221Y-56436D01*
X26135Y-56565D01*
X26111Y-56567D01*
X26069Y-56567D01*
X26034Y-56582D01*
X24845D01*
X24812Y-56567D01*
X24793Y-56567D01*
X24791Y-56563D01*
X24766Y-56503D01*
X24745Y-56495D01*
X24649Y-56351D01*
X24351Y-56152D01*
X24000Y-56082D01*
X23000D01*
X22649Y-56152D01*
X22351Y-56351D01*
X22255Y-56495D01*
X22234Y-56503D01*
X22209Y-56563D01*
X22207Y-56567D01*
X22188Y-56567D01*
X22155Y-56582D01*
X21345D01*
X21312Y-56567D01*
X21293Y-56567D01*
X21291Y-56563D01*
X21266Y-56503D01*
X21245Y-56495D01*
X21149Y-56351D01*
X20851Y-56152D01*
X20500Y-56082D01*
X19500D01*
X19149Y-56152D01*
X18851Y-56351D01*
X18755Y-56495D01*
X18734Y-56503D01*
X18709Y-56563D01*
X18707Y-56567D01*
X18688Y-56567D01*
X18655Y-56582D01*
X13880D01*
X4618Y-47320D01*
Y-39200D01*
X4548Y-38849D01*
X4349Y-38551D01*
X-3385Y-30818D01*
X-3397Y-30784D01*
X-3521Y-30651D01*
X-3620Y-30527D01*
X-3707Y-30399D01*
X-3782Y-30268D01*
X-3844Y-30133D01*
X-3895Y-29992D01*
X-3936Y-29847D01*
X-3965Y-29695D01*
X-3982Y-29537D01*
X-3989Y-29356D01*
X-4004Y-29323D01*
Y-28042D01*
X-3887Y-27934D01*
X-3504Y-27757D01*
X-3159Y-27900D01*
X-2917D01*
X-2571Y-28371D01*
X-2600Y-28441D01*
Y-28959D01*
X-2402Y-29436D01*
X-2036Y-29802D01*
X-1559Y-30000D01*
X-1158D01*
X-889Y-30278D01*
X-800Y-30441D01*
X-800Y-30441D01*
Y-30959D01*
X-602Y-31436D01*
X-236Y-31802D01*
X241Y-32000D01*
X759D01*
X1236Y-31802D01*
X1602Y-31436D01*
X1800Y-30959D01*
Y-30441D01*
X1602Y-29964D01*
X1471Y-29832D01*
X1440Y-29755D01*
X1365Y-29678D01*
X1307Y-29612D01*
X1257Y-29551D01*
X1218Y-29494D01*
X1187Y-29443D01*
X1164Y-29398D01*
X1149Y-29362D01*
Y-28569D01*
X3139Y-26579D01*
X3431Y-26543D01*
X3517Y-26618D01*
X3740Y-27002D01*
X3600Y-27341D01*
Y-27859D01*
X3798Y-28336D01*
X4164Y-28702D01*
X4641Y-28900D01*
X5159D01*
X5636Y-28702D01*
X6002Y-28336D01*
X6200Y-27859D01*
Y-27341D01*
X6002Y-26864D01*
X6022Y-26820D01*
X6386Y-26462D01*
X6640Y-26513D01*
X7140D01*
X7393Y-26462D01*
X7608Y-26319D01*
X7752Y-26104D01*
X7802Y-25850D01*
Y-22316D01*
X7836Y-22302D01*
X8202Y-21936D01*
X8400Y-21459D01*
Y-20941D01*
X8202Y-20464D01*
X7836Y-20098D01*
X7359Y-19900D01*
X6841D01*
X6364Y-20098D01*
X5998Y-20464D01*
X5967Y-20539D01*
X5425Y-20738D01*
X5171Y-20687D01*
X4671D01*
X4418Y-20738D01*
X4238Y-20857D01*
X4216Y-20870D01*
X3937Y-20877D01*
X3658Y-20870D01*
X3635Y-20857D01*
X3456Y-20738D01*
X3203Y-20687D01*
X2703D01*
X2449Y-20738D01*
X2251Y-20870D01*
X2231Y-20881D01*
X1706D01*
X1686Y-20870D01*
X1488Y-20738D01*
X1319Y-20199D01*
X1759Y-19759D01*
X1850Y-19541D01*
X1956Y-19493D01*
X2411Y-19450D01*
X2664Y-19702D01*
X3141Y-19900D01*
X3659D01*
X4136Y-19702D01*
X4502Y-19336D01*
X4700Y-18859D01*
Y-18341D01*
X4502Y-17864D01*
X4371Y-17732D01*
X4340Y-17655D01*
X4265Y-17578D01*
X4206Y-17512D01*
X4157Y-17451D01*
X4118Y-17394D01*
X4087Y-17343D01*
X4064Y-17298D01*
X4049Y-17262D01*
Y-16900D01*
X13500Y-7449D01*
X20000D01*
X20459Y-7259D01*
X30101Y2382D01*
X30291Y2842D01*
Y19963D01*
X30791Y20170D01*
X30864Y20098D01*
D02*
G37*
G36*
X35749Y-6775D02*
X35755Y-6818D01*
X35765Y-6856D01*
X35778Y-6888D01*
X35796Y-6916D01*
X35817Y-6939D01*
X35842Y-6956D01*
X35871Y-6969D01*
X35904Y-6977D01*
X35941Y-6979D01*
X35154D01*
X35191Y-6977D01*
X35223Y-6969D01*
X35252Y-6956D01*
X35278Y-6939D01*
X35299Y-6916D01*
X35316Y-6888D01*
X35330Y-6856D01*
X35339Y-6818D01*
X35345Y-6775D01*
X35347Y-6728D01*
X35747D01*
X35749Y-6775D01*
D02*
G37*
G36*
X60002Y-10260D02*
X60008Y-10312D01*
X60017Y-10359D01*
X60031Y-10401D01*
X60048Y-10437D01*
X60069Y-10468D01*
X60093Y-10494D01*
X60122Y-10515D01*
X60154Y-10530D01*
X60190Y-10540D01*
X58810D01*
X58846Y-10530D01*
X58878Y-10515D01*
X58907Y-10494D01*
X58931Y-10468D01*
X58952Y-10437D01*
X58969Y-10401D01*
X58983Y-10359D01*
X58992Y-10312D01*
X58998Y-10260D01*
X59000Y-10202D01*
X60000D01*
X60002Y-10260D01*
D02*
G37*
G36*
X53844Y-9660D02*
X53862Y-9901D01*
X53878Y-10007D01*
X53898Y-10103D01*
X53922Y-10191D01*
X53952Y-10268D01*
X53985Y-10337D01*
X54023Y-10396D01*
X54066Y-10445D01*
X54060Y-11853D01*
X54018Y-11819D01*
X53981Y-11804D01*
X53949Y-11807D01*
X53920Y-11829D01*
X53896Y-11870D01*
X53877Y-11929D01*
X53861Y-12007D01*
X53850Y-12104D01*
X53844Y-12220D01*
X53842Y-12354D01*
Y-9526D01*
X53844Y-9660D01*
D02*
G37*
G36*
X58540Y-12190D02*
X58530Y-12154D01*
X58515Y-12122D01*
X58494Y-12093D01*
X58468Y-12069D01*
X58437Y-12048D01*
X58400Y-12031D01*
X58359Y-12017D01*
X58312Y-12008D01*
X58260Y-12002D01*
X58202Y-12000D01*
Y-11000D01*
X58260Y-10998D01*
X58312Y-10992D01*
X58359Y-10983D01*
X58400Y-10970D01*
X58437Y-10952D01*
X58468Y-10931D01*
X58494Y-10907D01*
X58515Y-10878D01*
X58530Y-10846D01*
X58540Y-10810D01*
Y-12190D01*
D02*
G37*
G36*
X60007Y-11548D02*
X60027Y-11605D01*
X60061Y-11671D01*
X60108Y-11746D01*
X60168Y-11831D01*
X60330Y-12027D01*
X60397Y-12100D01*
X60498Y-12000D01*
X60492Y-12035D01*
X60488Y-12068D01*
X60487Y-12099D01*
X60488Y-12128D01*
X60492Y-12156D01*
X60498Y-12181D01*
X60507Y-12205D01*
X60518Y-12226D01*
X60528Y-12242D01*
X60545Y-12260D01*
X60673Y-12390D01*
X60390Y-12673D01*
X60260Y-12545D01*
X60238Y-12525D01*
X60226Y-12518D01*
X60205Y-12507D01*
X60181Y-12498D01*
X60155Y-12492D01*
X60128Y-12488D01*
X60099Y-12487D01*
X60068Y-12488D01*
X60035Y-12492D01*
X60000Y-12498D01*
X60096Y-12401D01*
X59831Y-12168D01*
X59746Y-12108D01*
X59671Y-12061D01*
X59605Y-12027D01*
X59548Y-12007D01*
X59500Y-12000D01*
X60000Y-11500D01*
X60007Y-11548D01*
D02*
G37*
G36*
X49327Y-13893D02*
X49320Y-13893D01*
X49312Y-13894D01*
X49303Y-13897D01*
X49294Y-13903D01*
X49283Y-13910D01*
X49270Y-13918D01*
X49243Y-13941D01*
X49211Y-13972D01*
X48820Y-13798D01*
X48846Y-13768D01*
X48866Y-13740D01*
X48880Y-13712D01*
X48888Y-13685D01*
X48889Y-13658D01*
X48884Y-13632D01*
X48873Y-13607D01*
X48855Y-13583D01*
X48831Y-13559D01*
X48801Y-13536D01*
X49327Y-13893D01*
D02*
G37*
G36*
X51652Y-13724D02*
X51619Y-13732D01*
X51590Y-13744D01*
X51565Y-13762D01*
X51544Y-13785D01*
X51526Y-13812D01*
X51513Y-13845D01*
X51503Y-13883D01*
X51497Y-13926D01*
X51495Y-13973D01*
X51095D01*
X51093Y-13926D01*
X51087Y-13883D01*
X51078Y-13845D01*
X51064Y-13812D01*
X51047Y-13785D01*
X51026Y-13762D01*
X51000Y-13744D01*
X50972Y-13732D01*
X50939Y-13724D01*
X50902Y-13722D01*
X51689D01*
X51652Y-13724D01*
D02*
G37*
G36*
X47715D02*
X47682Y-13732D01*
X47653Y-13744D01*
X47628Y-13762D01*
X47607Y-13785D01*
X47589Y-13812D01*
X47576Y-13845D01*
X47566Y-13883D01*
X47560Y-13926D01*
X47558Y-13973D01*
X47158D01*
X47156Y-13926D01*
X47150Y-13883D01*
X47141Y-13845D01*
X47127Y-13812D01*
X47110Y-13785D01*
X47089Y-13762D01*
X47063Y-13744D01*
X47034Y-13732D01*
X47002Y-13724D01*
X46965Y-13722D01*
X47752D01*
X47715Y-13724D01*
D02*
G37*
G36*
X43778D02*
X43745Y-13732D01*
X43716Y-13744D01*
X43691Y-13762D01*
X43670Y-13785D01*
X43652Y-13812D01*
X43639Y-13845D01*
X43629Y-13883D01*
X43623Y-13926D01*
X43621Y-13973D01*
X43221D01*
X43219Y-13926D01*
X43213Y-13883D01*
X43204Y-13845D01*
X43190Y-13812D01*
X43173Y-13785D01*
X43152Y-13762D01*
X43126Y-13744D01*
X43097Y-13732D01*
X43065Y-13724D01*
X43028Y-13722D01*
X43815D01*
X43778Y-13724D01*
D02*
G37*
G36*
X41809D02*
X41776Y-13732D01*
X41747Y-13744D01*
X41722Y-13762D01*
X41701Y-13785D01*
X41684Y-13812D01*
X41670Y-13845D01*
X41660Y-13883D01*
X41655Y-13926D01*
X41653Y-13973D01*
X41253D01*
X41251Y-13926D01*
X41245Y-13883D01*
X41235Y-13845D01*
X41222Y-13812D01*
X41204Y-13785D01*
X41183Y-13762D01*
X41158Y-13744D01*
X41129Y-13732D01*
X41096Y-13724D01*
X41059Y-13722D01*
X41846D01*
X41809Y-13724D01*
D02*
G37*
G36*
X28030D02*
X27997Y-13732D01*
X27968Y-13744D01*
X27943Y-13762D01*
X27922Y-13785D01*
X27904Y-13812D01*
X27891Y-13845D01*
X27881Y-13883D01*
X27875Y-13926D01*
X27873Y-13973D01*
X27473D01*
X27471Y-13926D01*
X27466Y-13883D01*
X27456Y-13845D01*
X27442Y-13812D01*
X27425Y-13785D01*
X27404Y-13762D01*
X27378Y-13744D01*
X27349Y-13732D01*
X27317Y-13724D01*
X27280Y-13722D01*
X28067D01*
X28030Y-13724D01*
D02*
G37*
G36*
X31810Y-13585D02*
X31815Y-13656D01*
X31826Y-13722D01*
X32004D01*
X31967Y-13724D01*
X31934Y-13732D01*
X31905Y-13744D01*
X31880Y-13762D01*
X31859Y-13785D01*
X31848Y-13801D01*
X31849Y-13803D01*
X31879Y-13878D01*
X31917Y-13956D01*
X31964Y-14034D01*
X32019Y-14115D01*
X32083Y-14196D01*
X32237Y-14365D01*
X30977Y-14350D01*
X31060Y-14268D01*
X31198Y-14107D01*
X31254Y-14028D01*
X31302Y-13950D01*
X31341Y-13874D01*
X31371Y-13799D01*
X31362Y-13785D01*
X31341Y-13762D01*
X31315Y-13744D01*
X31286Y-13732D01*
X31254Y-13724D01*
X31217Y-13722D01*
X31394D01*
X31406Y-13652D01*
X31410Y-13580D01*
X31810Y-13585D01*
D02*
G37*
G36*
X58514Y-14900D02*
X58513Y-14862D01*
X58509Y-14828D01*
X58503Y-14798D01*
X58493Y-14772D01*
X58481Y-14750D01*
X58467Y-14732D01*
X58450Y-14718D01*
X58430Y-14708D01*
X58407Y-14702D01*
X58382Y-14700D01*
Y-14300D01*
X58407Y-14298D01*
X58430Y-14292D01*
X58450Y-14282D01*
X58467Y-14268D01*
X58481Y-14250D01*
X58493Y-14228D01*
X58503Y-14202D01*
X58509Y-14172D01*
X58513Y-14138D01*
X58514Y-14100D01*
Y-14900D01*
D02*
G37*
G36*
X60547Y-16736D02*
X60531Y-16754D01*
X60518Y-16774D01*
X60507Y-16795D01*
X60498Y-16819D01*
X60492Y-16845D01*
X60488Y-16872D01*
X60487Y-16901D01*
X60488Y-16932D01*
X60492Y-16965D01*
X60498Y-17000D01*
X60000Y-16502D01*
X60035Y-16508D01*
X60068Y-16512D01*
X60099Y-16513D01*
X60128Y-16512D01*
X60155Y-16508D01*
X60181Y-16502D01*
X60205Y-16493D01*
X60226Y-16482D01*
X60246Y-16469D01*
X60264Y-16453D01*
X60547Y-16736D01*
D02*
G37*
G36*
X30987Y-17638D02*
X30991Y-17672D01*
X30997Y-17702D01*
X31007Y-17728D01*
X31019Y-17750D01*
X31033Y-17768D01*
X31050Y-17782D01*
X31067Y-17790D01*
X31276Y-17798D01*
X31458Y-17800D01*
Y-18200D01*
X31276Y-18202D01*
X31054Y-18216D01*
X31050Y-18218D01*
X31033Y-18232D01*
X31019Y-18250D01*
X31007Y-18272D01*
X30997Y-18298D01*
X30991Y-18328D01*
X30987Y-18362D01*
X30986Y-18400D01*
Y-18220D01*
X30707Y-18238D01*
X30604Y-18255D01*
X30517Y-18275D01*
X30447Y-18298D01*
X30392Y-18325D01*
X30353Y-18354D01*
Y-17646D01*
X30392Y-17675D01*
X30447Y-17702D01*
X30517Y-17725D01*
X30604Y-17745D01*
X30707Y-17762D01*
X30959Y-17786D01*
X30986Y-17787D01*
Y-17600D01*
X30987Y-17638D01*
D02*
G37*
G36*
X58514Y-17900D02*
X58513Y-17862D01*
X58509Y-17828D01*
X58503Y-17798D01*
X58493Y-17772D01*
X58481Y-17750D01*
X58467Y-17732D01*
X58450Y-17718D01*
X58430Y-17708D01*
X58407Y-17702D01*
X58382Y-17700D01*
Y-17300D01*
X58407Y-17298D01*
X58430Y-17292D01*
X58450Y-17282D01*
X58467Y-17268D01*
X58481Y-17250D01*
X58493Y-17228D01*
X58503Y-17202D01*
X58509Y-17172D01*
X58513Y-17138D01*
X58514Y-17100D01*
Y-17900D01*
D02*
G37*
G36*
X50470Y-17248D02*
X50332Y-17411D01*
X50276Y-17490D01*
X50229Y-17568D01*
X50190Y-17645D01*
X50160Y-17721D01*
X50138Y-17795D01*
X50126Y-17867D01*
X50121Y-17939D01*
X49721D01*
X49717Y-17867D01*
X49704Y-17795D01*
X49683Y-17721D01*
X49652Y-17645D01*
X49614Y-17568D01*
X49567Y-17490D01*
X49511Y-17411D01*
X49446Y-17330D01*
X49373Y-17248D01*
X49291Y-17164D01*
X50551D01*
X50470Y-17248D01*
D02*
G37*
G36*
X3604Y-17254D02*
X3617Y-17327D01*
X3639Y-17401D01*
X3669Y-17476D01*
X3708Y-17553D01*
X3755Y-17631D01*
X3811Y-17710D01*
X3875Y-17791D01*
X3948Y-17874D01*
X4030Y-17957D01*
X2770D01*
X2852Y-17874D01*
X2989Y-17710D01*
X3045Y-17631D01*
X3093Y-17553D01*
X3131Y-17476D01*
X3161Y-17401D01*
X3183Y-17327D01*
X3196Y-17254D01*
X3200Y-17183D01*
X3600D01*
X3604Y-17254D01*
D02*
G37*
G36*
X29240Y-16955D02*
X29262Y-16975D01*
X29274Y-16982D01*
X29295Y-16993D01*
X29319Y-17002D01*
X29344Y-17008D01*
X29372Y-17012D01*
X29401Y-17013D01*
X29432Y-17012D01*
X29465Y-17008D01*
X29500Y-17002D01*
X29404Y-17099D01*
X29669Y-17332D01*
X29754Y-17392D01*
X29829Y-17439D01*
X29895Y-17473D01*
X29952Y-17493D01*
X30000Y-17500D01*
X29500Y-18000D01*
X29493Y-17952D01*
X29473Y-17895D01*
X29439Y-17829D01*
X29392Y-17753D01*
X29332Y-17669D01*
X29170Y-17473D01*
X29103Y-17400D01*
X29002Y-17500D01*
X29008Y-17465D01*
X29012Y-17432D01*
X29013Y-17401D01*
X29012Y-17372D01*
X29008Y-17345D01*
X29002Y-17319D01*
X28993Y-17295D01*
X28982Y-17274D01*
X28972Y-17258D01*
X28955Y-17240D01*
X28827Y-17110D01*
X29110Y-16827D01*
X29240Y-16955D01*
D02*
G37*
G36*
X50123Y-18106D02*
X50126Y-18129D01*
X50133Y-18151D01*
X50142Y-18173D01*
X50154Y-18194D01*
X50168Y-18214D01*
X50185Y-18234D01*
X50205Y-18253D01*
X50227Y-18272D01*
X50252Y-18289D01*
X49590D01*
X49615Y-18272D01*
X49637Y-18253D01*
X49657Y-18234D01*
X49674Y-18214D01*
X49689Y-18194D01*
X49700Y-18173D01*
X49709Y-18151D01*
X49716Y-18129D01*
X49720Y-18106D01*
X49721Y-18082D01*
X50121D01*
X50123Y-18106D01*
D02*
G37*
G36*
X46186D02*
X46189Y-18129D01*
X46196Y-18151D01*
X46205Y-18173D01*
X46217Y-18194D01*
X46231Y-18214D01*
X46248Y-18234D01*
X46268Y-18253D01*
X46290Y-18272D01*
X46315Y-18289D01*
X45653D01*
X45678Y-18272D01*
X45700Y-18253D01*
X45720Y-18234D01*
X45737Y-18214D01*
X45752Y-18194D01*
X45763Y-18173D01*
X45772Y-18151D01*
X45779Y-18129D01*
X45783Y-18106D01*
X45784Y-18082D01*
X46184D01*
X46186Y-18106D01*
D02*
G37*
G36*
X44217D02*
X44221Y-18129D01*
X44227Y-18151D01*
X44237Y-18173D01*
X44249Y-18194D01*
X44263Y-18214D01*
X44280Y-18234D01*
X44300Y-18253D01*
X44322Y-18272D01*
X44347Y-18289D01*
X43685D01*
X43710Y-18272D01*
X43732Y-18253D01*
X43752Y-18234D01*
X43769Y-18214D01*
X43783Y-18194D01*
X43795Y-18173D01*
X43804Y-18151D01*
X43810Y-18129D01*
X43814Y-18106D01*
X43816Y-18082D01*
X44216D01*
X44217Y-18106D01*
D02*
G37*
G36*
X42300Y-18117D02*
X42301Y-18140D01*
X42303Y-18162D01*
X42307Y-18183D01*
X42312Y-18202D01*
X42320Y-18220D01*
X42328Y-18237D01*
X42338Y-18252D01*
X42350Y-18266D01*
X42363Y-18278D01*
X42378Y-18289D01*
X41868Y-18188D01*
X41874Y-18186D01*
X41880Y-18181D01*
X41884Y-18174D01*
X41888Y-18165D01*
X41892Y-18153D01*
X41895Y-18139D01*
X41897Y-18123D01*
X41900Y-18085D01*
X41900Y-18062D01*
X42300Y-18117D01*
D02*
G37*
G36*
X40280Y-18106D02*
X40284Y-18129D01*
X40290Y-18151D01*
X40300Y-18173D01*
X40312Y-18194D01*
X40326Y-18214D01*
X40343Y-18234D01*
X40363Y-18253D01*
X40385Y-18272D01*
X40410Y-18289D01*
X39748D01*
X39773Y-18272D01*
X39795Y-18253D01*
X39815Y-18234D01*
X39832Y-18214D01*
X39846Y-18194D01*
X39858Y-18173D01*
X39867Y-18151D01*
X39873Y-18129D01*
X39877Y-18106D01*
X39879Y-18082D01*
X40279D01*
X40280Y-18106D01*
D02*
G37*
G36*
X30417Y-18986D02*
X30345Y-18925D01*
X30269Y-18883D01*
X30188Y-18860D01*
X30103Y-18855D01*
X30013Y-18868D01*
X29919Y-18899D01*
X29820Y-18949D01*
X29717Y-19018D01*
X29610Y-19105D01*
X29497Y-19210D01*
X28790Y-18503D01*
X28895Y-18391D01*
X28982Y-18283D01*
X29051Y-18180D01*
X29101Y-18081D01*
X29132Y-17987D01*
X29145Y-17897D01*
X29140Y-17812D01*
X29117Y-17731D01*
X29075Y-17655D01*
X29014Y-17583D01*
X30417Y-18986D01*
D02*
G37*
G36*
X56004Y-19221D02*
X56017Y-19294D01*
X56039Y-19368D01*
X56069Y-19443D01*
X56107Y-19520D01*
X56155Y-19598D01*
X56211Y-19678D01*
X56275Y-19759D01*
X56348Y-19841D01*
X56430Y-19924D01*
X55170D01*
X55252Y-19841D01*
X55389Y-19678D01*
X55445Y-19598D01*
X55493Y-19520D01*
X55531Y-19443D01*
X55561Y-19368D01*
X55583Y-19294D01*
X55596Y-19221D01*
X55600Y-19150D01*
X56000D01*
X56004Y-19221D01*
D02*
G37*
G36*
X-392Y-21275D02*
X-408Y-21290D01*
X-475Y-21350D01*
X-477Y-21350D01*
X-1058Y-21104D01*
X-1020Y-21118D01*
X-982Y-21126D01*
X-945Y-21129D01*
X-908Y-21127D01*
X-871Y-21120D01*
X-834Y-21108D01*
X-798Y-21091D01*
X-762Y-21068D01*
X-726Y-21040D01*
X-690Y-21008D01*
X-392Y-21275D01*
D02*
G37*
G36*
X59704Y-20654D02*
X59717Y-20727D01*
X59739Y-20801D01*
X59769Y-20876D01*
X59807Y-20953D01*
X59855Y-21031D01*
X59911Y-21111D01*
X59975Y-21191D01*
X60048Y-21274D01*
X60130Y-21357D01*
X58870D01*
X58952Y-21274D01*
X59089Y-21111D01*
X59145Y-21031D01*
X59193Y-20953D01*
X59231Y-20876D01*
X59261Y-20801D01*
X59283Y-20727D01*
X59296Y-20654D01*
X59300Y-20583D01*
X59700D01*
X59704Y-20654D01*
D02*
G37*
G36*
X59862Y-21487D02*
X59828Y-21491D01*
X59798Y-21497D01*
X59772Y-21507D01*
X59750Y-21519D01*
X59732Y-21533D01*
X59718Y-21550D01*
X59708Y-21570D01*
X59702Y-21592D01*
X59700Y-21618D01*
X59300D01*
X59298Y-21592D01*
X59292Y-21570D01*
X59282Y-21550D01*
X59268Y-21533D01*
X59250Y-21519D01*
X59228Y-21507D01*
X59202Y-21497D01*
X59172Y-21491D01*
X59138Y-21487D01*
X59100Y-21486D01*
X59900D01*
X59862Y-21487D01*
D02*
G37*
G36*
X55873Y-21810D02*
X55857Y-21827D01*
X55832Y-21857D01*
X55822Y-21870D01*
X55815Y-21883D01*
X55810Y-21894D01*
X55807Y-21905D01*
X55807Y-21915D01*
X55808Y-21923D01*
X55812Y-21931D01*
X55380Y-21642D01*
X55396Y-21644D01*
X55412Y-21644D01*
X55428Y-21643D01*
X55444Y-21639D01*
X55461Y-21633D01*
X55477Y-21625D01*
X55494Y-21615D01*
X55510Y-21603D01*
X55527Y-21589D01*
X55544Y-21573D01*
X55873Y-21810D01*
D02*
G37*
G36*
X35945Y-21547D02*
X35951Y-21570D01*
X35961Y-21589D01*
X35975Y-21607D01*
X35993Y-21621D01*
X36015Y-21633D01*
X36041Y-21642D01*
X36071Y-21649D01*
X36105Y-21653D01*
X36143Y-21654D01*
X35343D01*
X35381Y-21653D01*
X35415Y-21649D01*
X35445Y-21642D01*
X35471Y-21633D01*
X35493Y-21621D01*
X35511Y-21607D01*
X35525Y-21589D01*
X35535Y-21570D01*
X35541Y-21547D01*
X35543Y-21522D01*
X35943D01*
X35945Y-21547D01*
D02*
G37*
G36*
X19903Y-20847D02*
X19914Y-20889D01*
X19932Y-20935D01*
X19957Y-20984D01*
X19990Y-21037D01*
X20030Y-21094D01*
X20133Y-21218D01*
X20195Y-21286D01*
X20265Y-21357D01*
X19557Y-22064D01*
X19486Y-21995D01*
X19294Y-21830D01*
X19237Y-21790D01*
X19184Y-21757D01*
X19135Y-21732D01*
X19089Y-21714D01*
X19047Y-21703D01*
X19009Y-21700D01*
X19900Y-20809D01*
X19903Y-20847D01*
D02*
G37*
G36*
X59702Y-22408D02*
X59708Y-22430D01*
X59718Y-22450D01*
X59732Y-22467D01*
X59750Y-22481D01*
X59772Y-22493D01*
X59798Y-22503D01*
X59828Y-22509D01*
X59862Y-22513D01*
X59900Y-22514D01*
X59100D01*
X59138Y-22513D01*
X59172Y-22509D01*
X59202Y-22503D01*
X59228Y-22493D01*
X59250Y-22481D01*
X59268Y-22467D01*
X59282Y-22450D01*
X59292Y-22430D01*
X59298Y-22408D01*
X59300Y-22382D01*
X59700D01*
X59702Y-22408D01*
D02*
G37*
G36*
X22365Y-22243D02*
X22295Y-22314D01*
X22130Y-22506D01*
X22090Y-22563D01*
X22057Y-22616D01*
X22032Y-22665D01*
X22014Y-22711D01*
X22003Y-22753D01*
X22000Y-22791D01*
X21109Y-21900D01*
X21147Y-21897D01*
X21189Y-21886D01*
X21235Y-21868D01*
X21284Y-21843D01*
X21337Y-21810D01*
X21394Y-21770D01*
X21518Y-21667D01*
X21586Y-21605D01*
X21657Y-21535D01*
X22365Y-22243D01*
D02*
G37*
G36*
X20534Y-21624D02*
X20666Y-21740D01*
X20727Y-21786D01*
X20785Y-21825D01*
X20839Y-21856D01*
X20889Y-21879D01*
X20936Y-21895D01*
X20980Y-21903D01*
X21020Y-21903D01*
X20202Y-22862D01*
X20196Y-22827D01*
X20183Y-22788D01*
X20163Y-22745D01*
X20136Y-22698D01*
X20102Y-22647D01*
X20060Y-22592D01*
X19956Y-22469D01*
X19823Y-22330D01*
X20462Y-21555D01*
X20534Y-21624D01*
D02*
G37*
G36*
X60048Y-22726D02*
X59911Y-22889D01*
X59855Y-22969D01*
X59807Y-23047D01*
X59769Y-23124D01*
X59739Y-23199D01*
X59717Y-23273D01*
X59704Y-23346D01*
X59700Y-23417D01*
X59300D01*
X59296Y-23346D01*
X59283Y-23273D01*
X59261Y-23199D01*
X59231Y-23124D01*
X59193Y-23047D01*
X59145Y-22969D01*
X59089Y-22889D01*
X59025Y-22809D01*
X58952Y-22726D01*
X58870Y-22643D01*
X60130D01*
X60048Y-22726D01*
D02*
G37*
G36*
X25159Y-23660D02*
X25158Y-23622D01*
X25154Y-23588D01*
X25147Y-23558D01*
X25138Y-23532D01*
X25126Y-23510D01*
X25112Y-23492D01*
X25095Y-23478D01*
X25075Y-23468D01*
X25052Y-23462D01*
X25027Y-23460D01*
Y-23060D01*
X25052Y-23058D01*
X25075Y-23052D01*
X25095Y-23042D01*
X25112Y-23028D01*
X25126Y-23010D01*
X25138Y-22988D01*
X25147Y-22962D01*
X25154Y-22932D01*
X25158Y-22898D01*
X25159Y-22860D01*
Y-23660D01*
D02*
G37*
G36*
X30828Y-23526D02*
X30820Y-23564D01*
X30817Y-23601D01*
X30819Y-23639D01*
X30826Y-23676D01*
X30838Y-23712D01*
X30856Y-23748D01*
X30878Y-23784D01*
X30905Y-23820D01*
X30937Y-23855D01*
X30782Y-24264D01*
X30747Y-24232D01*
X30714Y-24208D01*
X30683Y-24191D01*
X30654Y-24181D01*
X30626Y-24179D01*
X30602Y-24185D01*
X30579Y-24198D01*
X30558Y-24219D01*
X30539Y-24248D01*
X30522Y-24284D01*
X30841Y-23487D01*
X30828Y-23526D01*
D02*
G37*
G36*
X58648Y-24352D02*
X58638Y-24338D01*
X58626Y-24326D01*
X58613Y-24315D01*
X58598Y-24305D01*
X58582Y-24297D01*
X58564Y-24290D01*
X58545Y-24285D01*
X58525Y-24282D01*
X58503Y-24280D01*
X58479Y-24279D01*
X58382Y-23879D01*
X58415Y-23877D01*
X58443Y-23871D01*
X58466Y-23861D01*
X58486Y-23847D01*
X58501Y-23829D01*
X58512Y-23807D01*
X58519Y-23781D01*
X58522Y-23751D01*
X58520Y-23717D01*
X58514Y-23679D01*
X58648Y-24352D01*
D02*
G37*
G36*
X55728Y-23773D02*
X55747Y-23795D01*
X55766Y-23815D01*
X55786Y-23832D01*
X55806Y-23846D01*
X55827Y-23858D01*
X55849Y-23867D01*
X55871Y-23874D01*
X55894Y-23877D01*
X55918Y-23879D01*
Y-24279D01*
X55894Y-24280D01*
X55871Y-24284D01*
X55849Y-24291D01*
X55827Y-24300D01*
X55806Y-24311D01*
X55786Y-24326D01*
X55766Y-24343D01*
X55747Y-24363D01*
X55728Y-24385D01*
X55711Y-24410D01*
Y-23748D01*
X55728Y-23773D01*
D02*
G37*
G36*
X-29583Y-24486D02*
X-29655Y-24425D01*
X-29731Y-24383D01*
X-29812Y-24360D01*
X-29897Y-24355D01*
X-29987Y-24368D01*
X-30081Y-24399D01*
X-30180Y-24449D01*
X-30283Y-24518D01*
X-30391Y-24605D01*
X-30503Y-24710D01*
X-31210Y-24003D01*
X-31105Y-23890D01*
X-31018Y-23783D01*
X-30949Y-23680D01*
X-30899Y-23581D01*
X-30868Y-23487D01*
X-30855Y-23397D01*
X-30860Y-23312D01*
X-30883Y-23231D01*
X-30925Y-23155D01*
X-30986Y-23083D01*
X-29583Y-24486D01*
D02*
G37*
G36*
X23147Y-24736D02*
X23131Y-24754D01*
X23118Y-24774D01*
X23107Y-24795D01*
X23098Y-24819D01*
X23092Y-24845D01*
X23088Y-24872D01*
X23087Y-24901D01*
X23088Y-24932D01*
X23092Y-24965D01*
X23098Y-25000D01*
X22600Y-24502D01*
X22635Y-24508D01*
X22668Y-24512D01*
X22699Y-24513D01*
X22728Y-24512D01*
X22756Y-24508D01*
X22781Y-24502D01*
X22805Y-24493D01*
X22826Y-24482D01*
X22846Y-24469D01*
X22864Y-24453D01*
X23147Y-24736D01*
D02*
G37*
G36*
X-33008Y-24035D02*
X-33012Y-24068D01*
X-33013Y-24099D01*
X-33012Y-24128D01*
X-33008Y-24156D01*
X-33002Y-24181D01*
X-32993Y-24205D01*
X-32982Y-24226D01*
X-32969Y-24246D01*
X-32953Y-24264D01*
X-33236Y-24547D01*
X-33254Y-24531D01*
X-33274Y-24518D01*
X-33295Y-24507D01*
X-33319Y-24498D01*
X-33345Y-24492D01*
X-33372Y-24488D01*
X-33401Y-24487D01*
X-33432Y-24488D01*
X-33465Y-24492D01*
X-33500Y-24498D01*
X-33002Y-24000D01*
X-33008Y-24035D01*
D02*
G37*
G36*
X69082Y-11380D02*
Y-19420D01*
X66151Y-22351D01*
X65952Y-22649D01*
X65882Y-23000D01*
Y-28820D01*
X56051Y-38651D01*
X55852Y-38949D01*
X55782Y-39300D01*
Y-44720D01*
X48395Y-52107D01*
X48286Y-51998D01*
X47809Y-51800D01*
X47291D01*
X46814Y-51998D01*
X46694Y-52117D01*
X46678Y-52119D01*
X46669Y-52119D01*
X46664Y-52121D01*
X46657Y-52122D01*
X46643Y-52131D01*
X46627Y-52136D01*
X46596Y-52143D01*
X46560Y-52149D01*
X46342Y-52166D01*
X46325Y-52166D01*
X46301Y-52166D01*
X46227Y-52163D01*
X46094Y-52150D01*
X46054Y-52143D01*
X46023Y-52136D01*
X46007Y-52131D01*
X45993Y-52122D01*
X45986Y-52121D01*
X45981Y-52119D01*
X45972Y-52119D01*
X45956Y-52117D01*
X45836Y-51998D01*
X45359Y-51800D01*
X45190D01*
X45177Y-51790D01*
X45170Y-51783D01*
X45166Y-51782D01*
X45160Y-51777D01*
X45144Y-51773D01*
X45129Y-51765D01*
X45102Y-51749D01*
X45073Y-51728D01*
X44906Y-51585D01*
X44845Y-51525D01*
X44809Y-51511D01*
X44418Y-51120D01*
Y-51099D01*
X44433Y-51063D01*
X44440Y-50289D01*
X44497Y-50266D01*
X44505Y-50245D01*
X44649Y-50149D01*
X44848Y-49851D01*
X44918Y-49500D01*
Y-48500D01*
X44848Y-48149D01*
X44711Y-47944D01*
X44711Y-47938D01*
X44708Y-47927D01*
X44708Y-47923D01*
X44704Y-47914D01*
X44700Y-47900D01*
X44697Y-47878D01*
X44684Y-47698D01*
X44683Y-47625D01*
X44673Y-47601D01*
Y-47404D01*
X44683Y-47381D01*
X44686Y-47230D01*
X44696Y-47126D01*
X44700Y-47100D01*
X44704Y-47086D01*
X44708Y-47078D01*
X44708Y-47073D01*
X44711Y-47062D01*
X44711Y-47056D01*
X44848Y-46851D01*
X44918Y-46500D01*
Y-45500D01*
X44848Y-45149D01*
X44719Y-44955D01*
X44800Y-44759D01*
Y-44241D01*
X44719Y-44045D01*
X44848Y-43851D01*
X44918Y-43500D01*
Y-42701D01*
X46069Y-41549D01*
X46900D01*
X47359Y-41359D01*
X48176Y-40542D01*
X48766Y-40659D01*
X48798Y-40736D01*
X49164Y-41102D01*
X49450Y-41221D01*
X49485Y-41762D01*
X49351Y-41851D01*
X49152Y-42149D01*
X49082Y-42500D01*
Y-43500D01*
X49152Y-43851D01*
X49351Y-44149D01*
X49649Y-44348D01*
X50000Y-44418D01*
X51000D01*
X51351Y-44348D01*
X51468Y-44270D01*
X51541Y-44300D01*
X52059D01*
X52536Y-44102D01*
X52902Y-43736D01*
X53100Y-43259D01*
Y-43073D01*
X53133Y-42996D01*
X53134Y-42889D01*
X53139Y-42801D01*
X53148Y-42723D01*
X53160Y-42655D01*
X53174Y-42597D01*
X53190Y-42549D01*
X53206Y-42513D01*
X54716Y-41002D01*
X54906Y-40543D01*
Y-36778D01*
X55380D01*
X55720Y-36710D01*
X56008Y-36518D01*
X56200Y-36230D01*
X56268Y-35890D01*
X56200Y-35550D01*
X56008Y-35262D01*
X55890Y-35183D01*
X55885Y-35170D01*
Y-34641D01*
X55890Y-34628D01*
X56008Y-34549D01*
X56200Y-34261D01*
X56268Y-33921D01*
X56200Y-33581D01*
X56008Y-33293D01*
X56156Y-32797D01*
X56356Y-32602D01*
X57678D01*
X57714Y-32617D01*
X57759Y-32639D01*
X57810Y-32670D01*
X57862Y-32707D01*
X57998Y-32822D01*
X58070Y-32892D01*
X58148Y-32923D01*
X58279Y-33055D01*
X58757Y-33253D01*
X59274D01*
X59752Y-33055D01*
X60118Y-32689D01*
X60316Y-32211D01*
Y-31694D01*
X60118Y-31216D01*
X59752Y-30851D01*
X59274Y-30653D01*
X58757D01*
X58279Y-30851D01*
X58148Y-30982D01*
X58070Y-31013D01*
X57994Y-31088D01*
X57813Y-31070D01*
X57685Y-30906D01*
X57565Y-30666D01*
X57547Y-30566D01*
X57700Y-30196D01*
Y-29678D01*
X57640Y-29535D01*
X57711Y-29234D01*
X57920Y-28965D01*
X58070Y-28955D01*
X58148Y-28986D01*
X58279Y-29118D01*
X58757Y-29316D01*
X59274D01*
X59752Y-29118D01*
X60118Y-28752D01*
X60316Y-28274D01*
Y-27757D01*
X60118Y-27279D01*
X59752Y-26914D01*
X59274Y-26716D01*
X58757D01*
X58279Y-26914D01*
X58148Y-27045D01*
X58070Y-27076D01*
X57994Y-27151D01*
X57813Y-27133D01*
X57685Y-26969D01*
X57565Y-26729D01*
X57547Y-26629D01*
X57700Y-26259D01*
Y-25741D01*
X57502Y-25264D01*
X57467Y-25228D01*
X57674Y-24728D01*
X58470D01*
X58649Y-24848D01*
X59000Y-24918D01*
X60000D01*
X60351Y-24848D01*
X60649Y-24649D01*
X60848Y-24351D01*
X60918Y-24000D01*
Y-23000D01*
X60848Y-22649D01*
X60719Y-22455D01*
X60800Y-22259D01*
Y-21741D01*
X60719Y-21545D01*
X60848Y-21351D01*
X60918Y-21000D01*
Y-20000D01*
X60848Y-19649D01*
X60649Y-19351D01*
X60543Y-19281D01*
Y-18719D01*
X60649Y-18649D01*
X60848Y-18351D01*
X60918Y-18000D01*
Y-17031D01*
X60931Y-17000D01*
X60927Y-16992D01*
X61959Y-15959D01*
X62149Y-15500D01*
Y-13500D01*
X61959Y-13041D01*
X60927Y-12009D01*
X60931Y-12000D01*
X60918Y-11969D01*
Y-11000D01*
X60848Y-10649D01*
X60649Y-10351D01*
X60505Y-10255D01*
X60497Y-10234D01*
X60437Y-10209D01*
X60433Y-10207D01*
X60433Y-10188D01*
X60418Y-10155D01*
Y-8880D01*
X60880Y-8418D01*
X66120D01*
X69082Y-11380D01*
D02*
G37*
G36*
X2518Y-26028D02*
X2520Y-26032D01*
X3203Y-26108D01*
X3159Y-26109D01*
X3079Y-26115D01*
X3043Y-26121D01*
X3011Y-26129D01*
X2981Y-26138D01*
X2954Y-26149D01*
X2930Y-26162D01*
X2909Y-26176D01*
X2890Y-26193D01*
X2425Y-26092D01*
X2441Y-26076D01*
X2481Y-26042D01*
X2492Y-26035D01*
X2500Y-26030D01*
X2508Y-26027D01*
X2513Y-26026D01*
X2518Y-26028D01*
D02*
G37*
G36*
X1343Y-26036D02*
X1309Y-26042D01*
X1280Y-26052D01*
X1254Y-26065D01*
X1233Y-26083D01*
X1216Y-26104D01*
X1202Y-26129D01*
X1192Y-26158D01*
X1186Y-26191D01*
X1184Y-26228D01*
X784D01*
X782Y-26191D01*
X776Y-26158D01*
X767Y-26129D01*
X753Y-26104D01*
X735Y-26083D01*
X714Y-26065D01*
X688Y-26052D01*
X659Y-26042D01*
X626Y-26036D01*
X589Y-26034D01*
X1380D01*
X1343Y-26036D01*
D02*
G37*
G36*
X34289Y-26378D02*
X34272Y-26353D01*
X34253Y-26331D01*
X34234Y-26311D01*
X34214Y-26294D01*
X34194Y-26280D01*
X34173Y-26268D01*
X34151Y-26259D01*
X34129Y-26252D01*
X34106Y-26249D01*
X34082Y-26247D01*
Y-25847D01*
X34106Y-25846D01*
X34129Y-25842D01*
X34151Y-25835D01*
X34173Y-25826D01*
X34194Y-25815D01*
X34214Y-25800D01*
X34234Y-25783D01*
X34253Y-25763D01*
X34272Y-25741D01*
X34289Y-25716D01*
Y-26378D01*
D02*
G37*
G36*
X-32861Y-26365D02*
X-32855Y-26391D01*
X-32845Y-26414D01*
X-32831Y-26433D01*
X-32814Y-26450D01*
X-32792Y-26464D01*
X-32766Y-26474D01*
X-32737Y-26482D01*
X-32703Y-26487D01*
X-32665Y-26488D01*
X-33461D01*
X-33423Y-26487D01*
X-33389Y-26482D01*
X-33360Y-26474D01*
X-33334Y-26464D01*
X-33312Y-26450D01*
X-33295Y-26433D01*
X-33281Y-26414D01*
X-33271Y-26391D01*
X-33265Y-26365D01*
X-33263Y-26336D01*
X-32863D01*
X-32861Y-26365D01*
D02*
G37*
G36*
X-30587Y-26542D02*
X-31602D01*
X-31601Y-26538D01*
X-31599Y-26528D01*
X-31598Y-26513D01*
X-31595Y-26294D01*
X-31594Y-26237D01*
X-30595D01*
X-30587Y-26542D01*
D02*
G37*
G36*
X55744Y-25760D02*
X55747Y-25763D01*
X55766Y-25783D01*
X55786Y-25800D01*
X55806Y-25815D01*
X55827Y-25826D01*
X55849Y-25835D01*
X55871Y-25842D01*
X55894Y-25846D01*
X55918Y-25847D01*
Y-26247D01*
X55894Y-26249D01*
X55871Y-26252D01*
X55849Y-26259D01*
X55827Y-26268D01*
X55806Y-26280D01*
X55786Y-26294D01*
X55773Y-26306D01*
X55791Y-26663D01*
X55702Y-26584D01*
X55529Y-26451D01*
X55446Y-26397D01*
X55366Y-26351D01*
X55287Y-26314D01*
X55211Y-26285D01*
X55137Y-26264D01*
X55064Y-26251D01*
X54995Y-26247D01*
X54973Y-25847D01*
X55046Y-25843D01*
X55119Y-25829D01*
X55193Y-25807D01*
X55267Y-25776D01*
X55342Y-25737D01*
X55417Y-25688D01*
X55493Y-25630D01*
X55570Y-25564D01*
X55647Y-25489D01*
X55725Y-25405D01*
X55744Y-25760D01*
D02*
G37*
G36*
X5280Y-26036D02*
X5246Y-26042D01*
X5217Y-26052D01*
X5192Y-26065D01*
X5170Y-26083D01*
X5153Y-26104D01*
X5139Y-26129D01*
X5129Y-26158D01*
X5123Y-26191D01*
X5122Y-26206D01*
X5125Y-26258D01*
X5138Y-26331D01*
X5159Y-26405D01*
X5189Y-26481D01*
X5227Y-26558D01*
X5274Y-26638D01*
X5329Y-26719D01*
X5392Y-26802D01*
X5545Y-26972D01*
X4285Y-26943D01*
X4368Y-26862D01*
X4508Y-26703D01*
X4564Y-26625D01*
X4612Y-26548D01*
X4651Y-26472D01*
X4682Y-26397D01*
X4704Y-26323D01*
X4717Y-26250D01*
X4720Y-26201D01*
X4719Y-26191D01*
X4713Y-26158D01*
X4704Y-26129D01*
X4690Y-26104D01*
X4672Y-26083D01*
X4651Y-26065D01*
X4625Y-26052D01*
X4596Y-26042D01*
X4563Y-26036D01*
X4526Y-26034D01*
X5317D01*
X5280Y-26036D01*
D02*
G37*
G36*
X55728Y-27710D02*
X55747Y-27732D01*
X55766Y-27752D01*
X55786Y-27769D01*
X55806Y-27783D01*
X55827Y-27795D01*
X55849Y-27804D01*
X55871Y-27810D01*
X55894Y-27814D01*
X55918Y-27816D01*
Y-28216D01*
X55894Y-28217D01*
X55871Y-28221D01*
X55849Y-28227D01*
X55827Y-28237D01*
X55806Y-28249D01*
X55786Y-28263D01*
X55766Y-28280D01*
X55747Y-28299D01*
X55728Y-28322D01*
X55711Y-28347D01*
Y-27685D01*
X55728Y-27710D01*
D02*
G37*
G36*
X34289Y-28347D02*
X34272Y-28322D01*
X34253Y-28299D01*
X34234Y-28280D01*
X34214Y-28263D01*
X34194Y-28249D01*
X34173Y-28237D01*
X34151Y-28227D01*
X34129Y-28221D01*
X34106Y-28217D01*
X34082Y-28216D01*
Y-27816D01*
X34106Y-27814D01*
X34129Y-27810D01*
X34151Y-27804D01*
X34173Y-27795D01*
X34194Y-27783D01*
X34214Y-27769D01*
X34234Y-27752D01*
X34253Y-27732D01*
X34272Y-27710D01*
X34289Y-27685D01*
Y-28347D01*
D02*
G37*
G36*
X-23045Y-25990D02*
X-23016Y-26160D01*
X-22965Y-26310D01*
X-22896Y-26440D01*
X-22806Y-26550D01*
X-22695Y-26640D01*
X-22566Y-26710D01*
X-22415Y-26760D01*
X-22245Y-26790D01*
X-22055Y-26800D01*
X-22348Y-27800D01*
X-22546Y-27807D01*
X-22737Y-27828D01*
X-22922Y-27864D01*
X-23101Y-27913D01*
X-23275Y-27977D01*
X-23443Y-28055D01*
X-23605Y-28146D01*
X-23761Y-28253D01*
X-23911Y-28373D01*
X-24056Y-28507D01*
X-24763Y-27800D01*
X-24628Y-27656D01*
X-24508Y-27505D01*
X-24402Y-27349D01*
X-24310Y-27187D01*
X-24232Y-27020D01*
X-24169Y-26846D01*
X-24119Y-26667D01*
X-24084Y-26481D01*
X-24063Y-26290D01*
X-24056Y-26093D01*
X-23055Y-25800D01*
X-23045Y-25990D01*
D02*
G37*
G36*
X58373Y-28646D02*
X58289Y-28564D01*
X58126Y-28426D01*
X58047Y-28370D01*
X57969Y-28323D01*
X57892Y-28285D01*
X57816Y-28255D01*
X57742Y-28233D01*
X57670Y-28220D01*
X57598Y-28216D01*
Y-27816D01*
X57670Y-27812D01*
X57742Y-27799D01*
X57816Y-27777D01*
X57892Y-27747D01*
X57969Y-27708D01*
X58047Y-27661D01*
X58126Y-27605D01*
X58207Y-27541D01*
X58289Y-27468D01*
X58373Y-27386D01*
Y-28646D01*
D02*
G37*
G36*
X-156Y-27839D02*
X-204Y-27893D01*
X-246Y-27953D01*
X-283Y-28021D01*
X-315Y-28095D01*
X-342Y-28177D01*
X-364Y-28266D01*
X-381Y-28361D01*
X-392Y-28464D01*
X-399Y-28574D01*
X-400Y-28691D01*
X-1291Y-27800D01*
X-1174Y-27799D01*
X-961Y-27781D01*
X-866Y-27764D01*
X-777Y-27742D01*
X-695Y-27715D01*
X-621Y-27683D01*
X-553Y-27646D01*
X-493Y-27604D01*
X-439Y-27556D01*
X-156Y-27839D01*
D02*
G37*
G36*
X-30510Y-27445D02*
X-30500Y-27530D01*
X-30485Y-27605D01*
X-30463Y-27670D01*
X-30435Y-27725D01*
X-30400Y-27770D01*
X-30360Y-27805D01*
X-30313Y-27830D01*
X-30260Y-27845D01*
X-30201Y-27850D01*
Y-28850D01*
X-30260Y-28855D01*
X-30313Y-28870D01*
X-30360Y-28895D01*
X-30400Y-28930D01*
X-30435Y-28975D01*
X-30463Y-29030D01*
X-30485Y-29095D01*
X-30500Y-29170D01*
X-30510Y-29255D01*
X-30513Y-29350D01*
Y-27350D01*
X-30510Y-27445D01*
D02*
G37*
G36*
X704Y-29354D02*
X717Y-29427D01*
X739Y-29501D01*
X769Y-29576D01*
X807Y-29653D01*
X855Y-29731D01*
X911Y-29811D01*
X975Y-29891D01*
X1048Y-29974D01*
X1130Y-30057D01*
X-130D01*
X-48Y-29974D01*
X89Y-29811D01*
X145Y-29731D01*
X192Y-29653D01*
X231Y-29576D01*
X261Y-29501D01*
X283Y-29427D01*
X296Y-29354D01*
X300Y-29283D01*
X700D01*
X704Y-29354D01*
D02*
G37*
G36*
X30539Y-29752D02*
X30558Y-29781D01*
X30579Y-29802D01*
X30602Y-29815D01*
X30627Y-29821D01*
X30654Y-29819D01*
X30683Y-29809D01*
X30714Y-29792D01*
X30747Y-29768D01*
X30782Y-29735D01*
X30938Y-30145D01*
X30905Y-30180D01*
X30878Y-30216D01*
X30856Y-30252D01*
X30838Y-30288D01*
X30826Y-30324D01*
X30819Y-30361D01*
X30817Y-30399D01*
X30820Y-30436D01*
X30828Y-30474D01*
X30841Y-30513D01*
X30522Y-29716D01*
X30539Y-29752D01*
D02*
G37*
G36*
X23092Y-30035D02*
X23088Y-30068D01*
X23087Y-30099D01*
X23088Y-30128D01*
X23092Y-30156D01*
X23098Y-30181D01*
X23107Y-30205D01*
X23118Y-30226D01*
X23131Y-30246D01*
X23147Y-30264D01*
X22864Y-30547D01*
X22846Y-30531D01*
X22826Y-30518D01*
X22805Y-30507D01*
X22781Y-30498D01*
X22756Y-30492D01*
X22728Y-30488D01*
X22699Y-30487D01*
X22668Y-30488D01*
X22635Y-30492D01*
X22600Y-30498D01*
X23098Y-30000D01*
X23092Y-30035D01*
D02*
G37*
G36*
X55744Y-29697D02*
X55747Y-29700D01*
X55766Y-29720D01*
X55786Y-29737D01*
X55806Y-29752D01*
X55827Y-29763D01*
X55849Y-29772D01*
X55871Y-29779D01*
X55894Y-29783D01*
X55918Y-29784D01*
Y-30184D01*
X55894Y-30186D01*
X55871Y-30189D01*
X55849Y-30196D01*
X55827Y-30205D01*
X55806Y-30217D01*
X55786Y-30231D01*
X55773Y-30243D01*
X55791Y-30600D01*
X55702Y-30521D01*
X55529Y-30388D01*
X55446Y-30334D01*
X55366Y-30288D01*
X55287Y-30251D01*
X55211Y-30222D01*
X55137Y-30201D01*
X55064Y-30188D01*
X54995Y-30184D01*
X54973Y-29784D01*
X55046Y-29780D01*
X55119Y-29766D01*
X55193Y-29744D01*
X55267Y-29713D01*
X55342Y-29674D01*
X55417Y-29625D01*
X55493Y-29567D01*
X55570Y-29501D01*
X55647Y-29426D01*
X55725Y-29342D01*
X55744Y-29697D01*
D02*
G37*
G36*
X-27345Y-30760D02*
X-27337Y-30789D01*
X-26337D01*
X-26364Y-30820D01*
X-26381Y-30850D01*
X-26387Y-30878D01*
X-26383Y-30904D01*
X-26368Y-30929D01*
X-26343Y-30951D01*
X-26308Y-30972D01*
X-26261Y-30991D01*
X-26205Y-31008D01*
X-26138Y-31023D01*
X-28671Y-31013D01*
X-28850D01*
X-28755Y-31010D01*
X-28670Y-31000D01*
X-28595Y-30985D01*
X-28530Y-30963D01*
X-28475Y-30935D01*
X-28430Y-30900D01*
X-28395Y-30860D01*
X-28370Y-30813D01*
X-28355Y-30760D01*
X-28350Y-30701D01*
X-27350D01*
X-27345Y-30760D01*
D02*
G37*
G36*
X25159Y-31140D02*
X25158Y-31102D01*
X25154Y-31068D01*
X25147Y-31038D01*
X25138Y-31012D01*
X25126Y-30990D01*
X25112Y-30972D01*
X25095Y-30958D01*
X25075Y-30948D01*
X25052Y-30942D01*
X25027Y-30940D01*
Y-30540D01*
X25052Y-30538D01*
X25075Y-30532D01*
X25095Y-30522D01*
X25112Y-30508D01*
X25126Y-30490D01*
X25138Y-30468D01*
X25147Y-30442D01*
X25154Y-30412D01*
X25158Y-30378D01*
X25159Y-30340D01*
Y-31140D01*
D02*
G37*
G36*
X-4421Y-29372D02*
X-4414Y-29569D01*
X-4393Y-29760D01*
X-4358Y-29945D01*
X-4308Y-30125D01*
X-4245Y-30298D01*
X-4167Y-30466D01*
X-4075Y-30628D01*
X-3969Y-30784D01*
X-3849Y-30934D01*
X-3714Y-31079D01*
X-4421Y-31786D01*
X-4566Y-31651D01*
X-4716Y-31531D01*
X-4872Y-31425D01*
X-5034Y-31333D01*
X-5202Y-31255D01*
X-5375Y-31192D01*
X-5555Y-31142D01*
X-5740Y-31107D01*
X-5931Y-31086D01*
X-6128Y-31079D01*
X-6421Y-30079D01*
X-6231Y-30069D01*
X-6061Y-30039D01*
X-5911Y-29989D01*
X-5781Y-29919D01*
X-5671Y-29829D01*
X-5581Y-29719D01*
X-5511Y-29589D01*
X-5461Y-29439D01*
X-5431Y-29269D01*
X-5421Y-29079D01*
X-4421Y-29372D01*
D02*
G37*
G36*
X55728Y-31647D02*
X55747Y-31669D01*
X55766Y-31689D01*
X55786Y-31706D01*
X55806Y-31720D01*
X55827Y-31732D01*
X55849Y-31741D01*
X55871Y-31747D01*
X55894Y-31751D01*
X55918Y-31753D01*
Y-32153D01*
X55894Y-32154D01*
X55871Y-32158D01*
X55849Y-32164D01*
X55827Y-32174D01*
X55806Y-32186D01*
X55786Y-32200D01*
X55766Y-32217D01*
X55747Y-32236D01*
X55728Y-32259D01*
X55711Y-32284D01*
Y-31622D01*
X55728Y-31647D01*
D02*
G37*
G36*
X36105Y-32410D02*
X36071Y-32414D01*
X36041Y-32421D01*
X36015Y-32430D01*
X35993Y-32442D01*
X35975Y-32456D01*
X35961Y-32473D01*
X35951Y-32493D01*
X35945Y-32516D01*
X35943Y-32541D01*
X35543D01*
X35541Y-32516D01*
X35535Y-32493D01*
X35525Y-32473D01*
X35511Y-32456D01*
X35493Y-32442D01*
X35471Y-32430D01*
X35445Y-32421D01*
X35415Y-32414D01*
X35381Y-32410D01*
X35343Y-32409D01*
X36143D01*
X36105Y-32410D01*
D02*
G37*
G36*
X58373Y-32583D02*
X58289Y-32501D01*
X58126Y-32364D01*
X58047Y-32308D01*
X57969Y-32260D01*
X57892Y-32222D01*
X57816Y-32192D01*
X57742Y-32170D01*
X57670Y-32157D01*
X57598Y-32153D01*
Y-31753D01*
X57670Y-31749D01*
X57742Y-31736D01*
X57816Y-31714D01*
X57892Y-31684D01*
X57969Y-31645D01*
X58047Y-31598D01*
X58126Y-31542D01*
X58207Y-31478D01*
X58289Y-31405D01*
X58373Y-31323D01*
Y-32583D01*
D02*
G37*
G36*
X35945Y-33358D02*
X35951Y-33381D01*
X35961Y-33401D01*
X35975Y-33418D01*
X35993Y-33432D01*
X36015Y-33444D01*
X36041Y-33453D01*
X36071Y-33460D01*
X36105Y-33464D01*
X36143Y-33465D01*
X35343D01*
X35381Y-33464D01*
X35415Y-33460D01*
X35445Y-33453D01*
X35471Y-33444D01*
X35493Y-33432D01*
X35511Y-33418D01*
X35525Y-33401D01*
X35535Y-33381D01*
X35541Y-33358D01*
X35543Y-33333D01*
X35943D01*
X35945Y-33358D01*
D02*
G37*
G36*
X-7443Y-33830D02*
X-7526Y-33748D01*
X-7689Y-33611D01*
X-7769Y-33555D01*
X-7847Y-33507D01*
X-7924Y-33469D01*
X-7999Y-33439D01*
X-8073Y-33417D01*
X-8146Y-33404D01*
X-8218Y-33400D01*
Y-33000D01*
X-8146Y-32996D01*
X-8073Y-32983D01*
X-7999Y-32961D01*
X-7924Y-32931D01*
X-7847Y-32893D01*
X-7769Y-32845D01*
X-7689Y-32789D01*
X-7609Y-32725D01*
X-7526Y-32652D01*
X-7443Y-32570D01*
Y-33830D01*
D02*
G37*
G36*
X34289Y-34252D02*
X34272Y-34227D01*
X34253Y-34205D01*
X34234Y-34185D01*
X34214Y-34168D01*
X34194Y-34154D01*
X34173Y-34142D01*
X34151Y-34133D01*
X34129Y-34126D01*
X34106Y-34123D01*
X34082Y-34121D01*
Y-33721D01*
X34106Y-33720D01*
X34129Y-33716D01*
X34151Y-33709D01*
X34173Y-33700D01*
X34194Y-33689D01*
X34214Y-33674D01*
X34234Y-33657D01*
X34253Y-33637D01*
X34272Y-33615D01*
X34289Y-33590D01*
Y-34252D01*
D02*
G37*
G36*
X32183Y-34100D02*
X32136Y-34153D01*
X32093Y-34214D01*
X32056Y-34281D01*
X32024Y-34356D01*
X31997Y-34438D01*
X31975Y-34526D01*
X31959Y-34622D01*
X31947Y-34725D01*
X31941Y-34835D01*
X31939Y-34952D01*
X31048Y-34061D01*
X31165Y-34059D01*
X31378Y-34041D01*
X31474Y-34025D01*
X31562Y-34003D01*
X31644Y-33976D01*
X31719Y-33944D01*
X31786Y-33907D01*
X31847Y-33864D01*
X31900Y-33817D01*
X32183Y-34100D01*
D02*
G37*
G36*
X31181Y-35102D02*
X31113Y-35175D01*
X31051Y-35254D01*
X30994Y-35339D01*
X30993Y-35341D01*
X30992Y-35344D01*
X30988Y-35372D01*
X30987Y-35401D01*
X30988Y-35432D01*
X30992Y-35465D01*
X30998Y-35500D01*
X30937Y-35440D01*
X30896Y-35527D01*
X30855Y-35630D01*
X30841Y-35671D01*
X31030Y-35861D01*
X30913Y-35862D01*
X30784Y-35873D01*
X30763Y-35973D01*
X30744Y-36099D01*
X30554Y-35909D01*
X30516Y-35919D01*
X30435Y-35945D01*
X30360Y-35978D01*
X30292Y-36015D01*
X30232Y-36057D01*
X30178Y-36104D01*
X29896Y-35822D01*
X29943Y-35768D01*
X29985Y-35708D01*
X30022Y-35640D01*
X30055Y-35565D01*
X30081Y-35484D01*
X30091Y-35446D01*
X29901Y-35256D01*
X30027Y-35237D01*
X30130Y-35212D01*
X30132Y-35196D01*
X30138Y-35087D01*
X30139Y-34970D01*
X30329Y-35159D01*
X30370Y-35145D01*
X30473Y-35104D01*
X30560Y-35063D01*
X30500Y-35002D01*
X30535Y-35008D01*
X30568Y-35012D01*
X30599Y-35013D01*
X30628Y-35012D01*
X30656Y-35008D01*
X30659Y-35007D01*
X30661Y-35006D01*
X30746Y-34949D01*
X30825Y-34887D01*
X30898Y-34819D01*
X31181Y-35102D01*
D02*
G37*
G36*
X-4943Y-36130D02*
X-5026Y-36048D01*
X-5190Y-35911D01*
X-5269Y-35855D01*
X-5347Y-35807D01*
X-5424Y-35769D01*
X-5499Y-35739D01*
X-5573Y-35717D01*
X-5646Y-35704D01*
X-5717Y-35700D01*
Y-35300D01*
X-5646Y-35296D01*
X-5573Y-35283D01*
X-5499Y-35261D01*
X-5424Y-35231D01*
X-5347Y-35192D01*
X-5269Y-35145D01*
X-5190Y-35089D01*
X-5109Y-35025D01*
X-5026Y-34952D01*
X-4943Y-34870D01*
Y-36130D01*
D02*
G37*
G36*
X35788Y-36347D02*
X35694Y-36355D01*
X35652Y-36361D01*
X35613Y-36370D01*
X35578Y-36381D01*
X35547Y-36393D01*
X35519Y-36408D01*
X35494Y-36424D01*
X35473Y-36443D01*
X34907D01*
X34923Y-36424D01*
X34931Y-36408D01*
X34930Y-36393D01*
X34922Y-36381D01*
X34906Y-36370D01*
X34883Y-36361D01*
X34851Y-36355D01*
X34812Y-36350D01*
X34765Y-36347D01*
X34709Y-36346D01*
X35841D01*
X35788Y-36347D01*
D02*
G37*
G36*
X54619Y-36347D02*
X54585Y-36351D01*
X54555Y-36358D01*
X54529Y-36367D01*
X54507Y-36379D01*
X54489Y-36393D01*
X54475Y-36410D01*
X54465Y-36430D01*
X54459Y-36453D01*
X54457Y-36478D01*
X54057D01*
X54055Y-36453D01*
X54049Y-36430D01*
X54039Y-36410D01*
X54025Y-36393D01*
X54007Y-36379D01*
X53985Y-36367D01*
X53959Y-36358D01*
X53929Y-36351D01*
X53895Y-36347D01*
X53857Y-36346D01*
X54657D01*
X54619Y-36347D01*
D02*
G37*
G36*
X30832Y-36869D02*
X30815Y-36894D01*
X30800Y-36927D01*
X30787Y-36967D01*
X30775Y-37015D01*
X30766Y-37071D01*
X30754Y-37205D01*
X30750Y-37370D01*
X29250D01*
X29249Y-37284D01*
X29234Y-37071D01*
X29225Y-37015D01*
X29213Y-36967D01*
X29200Y-36927D01*
X29185Y-36894D01*
X29168Y-36869D01*
X29148Y-36852D01*
X30852D01*
X30832Y-36869D01*
D02*
G37*
G36*
X-25986Y-37140D02*
X-25982Y-37174D01*
X-25974Y-37203D01*
X-25964Y-37229D01*
X-25950Y-37251D01*
X-25933Y-37268D01*
X-25914Y-37282D01*
X-25891Y-37292D01*
X-25865Y-37298D01*
X-25836Y-37300D01*
Y-37700D01*
X-25865Y-37702D01*
X-25891Y-37708D01*
X-25914Y-37718D01*
X-25933Y-37732D01*
X-25950Y-37749D01*
X-25964Y-37771D01*
X-25974Y-37797D01*
X-25982Y-37826D01*
X-25986Y-37860D01*
X-25988Y-37898D01*
Y-37102D01*
X-25986Y-37140D01*
D02*
G37*
G36*
X30751Y-37716D02*
X30766Y-37929D01*
X30775Y-37985D01*
X30787Y-38033D01*
X30800Y-38073D01*
X30815Y-38106D01*
X30832Y-38131D01*
X30852Y-38148D01*
X29148D01*
X29168Y-38131D01*
X29185Y-38106D01*
X29200Y-38073D01*
X29213Y-38033D01*
X29225Y-37985D01*
X29234Y-37929D01*
X29246Y-37795D01*
X29250Y-37630D01*
X30750D01*
X30751Y-37716D01*
D02*
G37*
G36*
X48132Y-39812D02*
X48162Y-39808D01*
X48183Y-39811D01*
X48194Y-39821D01*
X48196Y-39837D01*
X48188Y-39860D01*
X48171Y-39890D01*
X48145Y-39926D01*
X48109Y-39968D01*
X48009Y-40074D01*
X47648Y-39870D01*
X47663Y-39853D01*
X47674Y-39836D01*
X47681Y-39820D01*
X47684Y-39803D01*
X47684Y-39787D01*
X47679Y-39772D01*
X47671Y-39756D01*
X47658Y-39741D01*
X47642Y-39726D01*
X47622Y-39711D01*
X48132Y-39812D01*
D02*
G37*
G36*
X33702Y-41908D02*
X33708Y-41930D01*
X33718Y-41950D01*
X33732Y-41967D01*
X33750Y-41981D01*
X33772Y-41993D01*
X33798Y-42003D01*
X33828Y-42009D01*
X33862Y-42013D01*
X33900Y-42014D01*
X33100D01*
X33138Y-42013D01*
X33172Y-42009D01*
X33202Y-42003D01*
X33228Y-41993D01*
X33250Y-41981D01*
X33268Y-41967D01*
X33282Y-41950D01*
X33292Y-41930D01*
X33298Y-41908D01*
X33300Y-41882D01*
X33700D01*
X33702Y-41908D01*
D02*
G37*
G36*
X44580Y-42403D02*
X44548Y-42438D01*
X44521Y-42473D01*
X44499Y-42508D01*
X44482Y-42544D01*
X44470Y-42581D01*
X44463Y-42617D01*
X44461Y-42654D01*
X44464Y-42692D01*
X44472Y-42730D01*
X44486Y-42768D01*
X44190Y-42040D01*
X44212Y-42054D01*
X44234Y-42064D01*
X44255Y-42071D01*
X44276Y-42074D01*
X44295Y-42075D01*
X44315Y-42072D01*
X44334Y-42067D01*
X44352Y-42058D01*
X44370Y-42046D01*
X44387Y-42030D01*
X44580Y-42403D01*
D02*
G37*
G36*
X52944Y-42139D02*
X52896Y-42193D01*
X52854Y-42253D01*
X52817Y-42321D01*
X52785Y-42395D01*
X52758Y-42477D01*
X52736Y-42566D01*
X52719Y-42661D01*
X52708Y-42764D01*
X52701Y-42874D01*
X52700Y-42991D01*
X51809Y-42100D01*
X51926Y-42099D01*
X52139Y-42081D01*
X52234Y-42064D01*
X52323Y-42042D01*
X52405Y-42015D01*
X52479Y-41983D01*
X52547Y-41946D01*
X52607Y-41904D01*
X52661Y-41856D01*
X52944Y-42139D01*
D02*
G37*
G36*
X44333Y-43869D02*
X44315Y-43894D01*
X44300Y-43927D01*
X44287Y-43967D01*
X44276Y-44015D01*
X44266Y-44071D01*
X44254Y-44205D01*
X44250Y-44370D01*
X42750D01*
X42749Y-44284D01*
X42734Y-44071D01*
X42724Y-44015D01*
X42713Y-43967D01*
X42700Y-43927D01*
X42685Y-43894D01*
X42667Y-43869D01*
X42648Y-43852D01*
X44352D01*
X44333Y-43869D01*
D02*
G37*
G36*
X44251Y-44716D02*
X44266Y-44929D01*
X44276Y-44985D01*
X44287Y-45033D01*
X44300Y-45073D01*
X44315Y-45106D01*
X44333Y-45131D01*
X44352Y-45148D01*
X42648D01*
X42667Y-45131D01*
X42685Y-45106D01*
X42700Y-45073D01*
X42713Y-45033D01*
X42724Y-44985D01*
X42734Y-44929D01*
X42746Y-44795D01*
X42750Y-44630D01*
X44250D01*
X44251Y-44716D01*
D02*
G37*
G36*
X38470Y-45346D02*
X38485Y-45378D01*
X38506Y-45407D01*
X38532Y-45432D01*
X38563Y-45452D01*
X38600Y-45469D01*
X38641Y-45483D01*
X38688Y-45492D01*
X38740Y-45498D01*
X38798Y-45500D01*
Y-46500D01*
X38740Y-46502D01*
X38688Y-46508D01*
X38641Y-46517D01*
X38600Y-46531D01*
X38563Y-46548D01*
X38532Y-46569D01*
X38506Y-46593D01*
X38485Y-46622D01*
X38470Y-46654D01*
X38460Y-46690D01*
Y-45310D01*
X38470Y-45346D01*
D02*
G37*
G36*
X34154Y-46970D02*
X34122Y-46985D01*
X34093Y-47006D01*
X34069Y-47032D01*
X34048Y-47063D01*
X34031Y-47100D01*
X34017Y-47141D01*
X34008Y-47188D01*
X34002Y-47240D01*
X34000Y-47298D01*
X33000D01*
X32998Y-47240D01*
X32992Y-47188D01*
X32983Y-47141D01*
X32969Y-47100D01*
X32952Y-47063D01*
X32932Y-47032D01*
X32907Y-47006D01*
X32878Y-46985D01*
X32846Y-46970D01*
X32810Y-46960D01*
X34190D01*
X34154Y-46970D01*
D02*
G37*
G36*
X44333Y-46869D02*
X44315Y-46894D01*
X44300Y-46927D01*
X44287Y-46967D01*
X44276Y-47015D01*
X44266Y-47071D01*
X44254Y-47205D01*
X44250Y-47370D01*
X42750D01*
X42749Y-47284D01*
X42734Y-47071D01*
X42724Y-47015D01*
X42713Y-46967D01*
X42700Y-46927D01*
X42685Y-46894D01*
X42667Y-46869D01*
X42648Y-46852D01*
X44352D01*
X44333Y-46869D01*
D02*
G37*
G36*
X44251Y-47716D02*
X44266Y-47929D01*
X44276Y-47985D01*
X44287Y-48033D01*
X44300Y-48073D01*
X44315Y-48106D01*
X44333Y-48131D01*
X44352Y-48148D01*
X42648D01*
X42540Y-49690D01*
X42529Y-49656D01*
X42509Y-49625D01*
X42481Y-49598D01*
X42445Y-49575D01*
X42401Y-49555D01*
X42348Y-49539D01*
X42287Y-49526D01*
X42218Y-49517D01*
X42140Y-49512D01*
X42054Y-49510D01*
X42513Y-48010D01*
X42576Y-48011D01*
X42628Y-48015D01*
X42669Y-48022D01*
X42699Y-48032D01*
X42711Y-48040D01*
X42713Y-48033D01*
X42724Y-47985D01*
X42734Y-47929D01*
X42746Y-47795D01*
X42750Y-47630D01*
X44250D01*
X44251Y-47716D01*
D02*
G37*
G36*
X41562Y-49499D02*
X41506Y-49553D01*
X41370Y-49667D01*
X41336Y-49688D01*
X41306Y-49701D01*
X41283Y-49706D01*
X41264Y-49702D01*
X41251Y-49690D01*
X41244Y-49669D01*
X38799Y-49091D01*
X38966Y-49124D01*
X39126Y-49142D01*
X39280Y-49146D01*
X39427Y-49135D01*
X39568Y-49109D01*
X39703Y-49069D01*
X39831Y-49014D01*
X39953Y-48944D01*
X40069Y-48860D01*
X40178Y-48761D01*
X41562Y-49499D01*
D02*
G37*
G36*
X44025Y-49551D02*
X44020Y-49601D01*
X44011Y-49789D01*
X44010Y-49960D01*
X44190D01*
X44154Y-49970D01*
X44122Y-49985D01*
X44093Y-50006D01*
X44069Y-50032D01*
X44048Y-50063D01*
X44030Y-50099D01*
X44017Y-50141D01*
X44008Y-50188D01*
X44008Y-50188D01*
X44000Y-51059D01*
X43000D01*
X42981Y-50137D01*
X42970Y-50099D01*
X42952Y-50063D01*
X42932Y-50032D01*
X42907Y-50006D01*
X42878Y-49985D01*
X42846Y-49970D01*
X42810Y-49960D01*
X42978D01*
X42969Y-49530D01*
X44031D01*
X44025Y-49551D01*
D02*
G37*
G36*
X29814Y-49504D02*
X29833Y-49557D01*
X29856Y-49605D01*
X29884Y-49646D01*
X29917Y-49681D01*
X29953Y-49709D01*
X29994Y-49731D01*
X30040Y-49747D01*
X30090Y-49757D01*
X30144Y-49760D01*
Y-50760D01*
X30090Y-50763D01*
X30040Y-50773D01*
X29994Y-50788D01*
X29953Y-50810D01*
X29917Y-50839D01*
X29884Y-50874D01*
X29856Y-50915D01*
X29833Y-50962D01*
X29814Y-51016D01*
X29799Y-51076D01*
Y-49444D01*
X29814Y-49504D01*
D02*
G37*
G36*
X33574Y-49553D02*
X33447Y-49694D01*
X33348Y-49836D01*
X33277Y-49977D01*
X33235Y-50118D01*
X33220Y-50260D01*
X33235Y-50401D01*
X33277Y-50543D01*
X33348Y-50684D01*
X33447Y-50826D01*
X33574Y-50967D01*
X32660Y-51467D01*
X32515Y-51333D01*
X32365Y-51212D01*
X32209Y-51106D01*
X32047Y-51014D01*
X31879Y-50937D01*
X31706Y-50873D01*
X31526Y-50823D01*
X31341Y-50788D01*
X31150Y-50767D01*
X30953Y-50760D01*
Y-49760D01*
X31150Y-49753D01*
X31341Y-49732D01*
X31526Y-49696D01*
X31706Y-49647D01*
X31879Y-49583D01*
X32047Y-49505D01*
X32209Y-49413D01*
X32365Y-49307D01*
X32515Y-49187D01*
X32660Y-49053D01*
X33574Y-49553D01*
D02*
G37*
G36*
X46907Y-53730D02*
X46878Y-53705D01*
X46841Y-53683D01*
X46796Y-53664D01*
X46743Y-53647D01*
X46682Y-53632D01*
X46614Y-53621D01*
X46453Y-53605D01*
X46361Y-53601D01*
X46325Y-53601D01*
X46289Y-53601D01*
X46036Y-53621D01*
X45968Y-53632D01*
X45907Y-53647D01*
X45854Y-53664D01*
X45809Y-53683D01*
X45772Y-53705D01*
X45743Y-53730D01*
Y-52470D01*
X45772Y-52495D01*
X45809Y-52517D01*
X45854Y-52536D01*
X45907Y-52553D01*
X45968Y-52567D01*
X46036Y-52579D01*
X46197Y-52595D01*
X46289Y-52599D01*
X46325Y-52599D01*
X46361Y-52599D01*
X46614Y-52579D01*
X46682Y-52567D01*
X46743Y-52553D01*
X46796Y-52536D01*
X46841Y-52517D01*
X46878Y-52495D01*
X46907Y-52470D01*
Y-53730D01*
D02*
G37*
G36*
X44614Y-51905D02*
X44806Y-52070D01*
X44863Y-52110D01*
X44916Y-52143D01*
X44965Y-52168D01*
X45011Y-52186D01*
X45053Y-52197D01*
X45091Y-52200D01*
X44200Y-53091D01*
X44197Y-53053D01*
X44186Y-53011D01*
X44168Y-52965D01*
X44143Y-52916D01*
X44110Y-52863D01*
X44070Y-52806D01*
X43967Y-52682D01*
X43905Y-52614D01*
X43835Y-52543D01*
X44543Y-51836D01*
X44614Y-51905D01*
D02*
G37*
G36*
X24470Y-56846D02*
X24485Y-56878D01*
X24506Y-56907D01*
X24532Y-56931D01*
X24563Y-56952D01*
X24600Y-56969D01*
X24641Y-56983D01*
X24688Y-56992D01*
X24740Y-56998D01*
X24798Y-57000D01*
Y-58000D01*
X24740Y-58002D01*
X24688Y-58008D01*
X24641Y-58017D01*
X24600Y-58030D01*
X24563Y-58048D01*
X24532Y-58069D01*
X24506Y-58093D01*
X24485Y-58122D01*
X24470Y-58154D01*
X24460Y-58190D01*
Y-56810D01*
X24470Y-56846D01*
D02*
G37*
G36*
X22540Y-58190D02*
X22530Y-58154D01*
X22515Y-58122D01*
X22494Y-58093D01*
X22468Y-58069D01*
X22437Y-58048D01*
X22400Y-58030D01*
X22359Y-58017D01*
X22312Y-58008D01*
X22260Y-58002D01*
X22202Y-58000D01*
Y-57000D01*
X22260Y-56998D01*
X22312Y-56992D01*
X22359Y-56983D01*
X22400Y-56969D01*
X22437Y-56952D01*
X22468Y-56931D01*
X22494Y-56907D01*
X22515Y-56878D01*
X22530Y-56846D01*
X22540Y-56810D01*
Y-58190D01*
D02*
G37*
G36*
X20970Y-56846D02*
X20985Y-56878D01*
X21006Y-56907D01*
X21032Y-56931D01*
X21063Y-56952D01*
X21100Y-56969D01*
X21141Y-56983D01*
X21188Y-56992D01*
X21240Y-56998D01*
X21298Y-57000D01*
Y-58000D01*
X21240Y-58002D01*
X21188Y-58008D01*
X21141Y-58017D01*
X21100Y-58030D01*
X21063Y-58048D01*
X21032Y-58069D01*
X21006Y-58093D01*
X20985Y-58122D01*
X20970Y-58154D01*
X20960Y-58190D01*
Y-56810D01*
X20970Y-56846D01*
D02*
G37*
G36*
X19040Y-58190D02*
X19030Y-58154D01*
X19015Y-58122D01*
X18994Y-58093D01*
X18968Y-58069D01*
X18937Y-58048D01*
X18901Y-58030D01*
X18859Y-58017D01*
X18812Y-58008D01*
X18760Y-58002D01*
X18702Y-58000D01*
Y-57000D01*
X18760Y-56998D01*
X18812Y-56992D01*
X18859Y-56983D01*
X18901Y-56969D01*
X18937Y-56952D01*
X18968Y-56931D01*
X18994Y-56907D01*
X19015Y-56878D01*
X19030Y-56846D01*
X19040Y-56810D01*
Y-58190D01*
D02*
G37*
G36*
X26391Y-58498D02*
X26387Y-58403D01*
X26377Y-58319D01*
X26359Y-58244D01*
X26335Y-58179D01*
X26304Y-58124D01*
X26266Y-58080D01*
X26221Y-58045D01*
X26169Y-58020D01*
X26111Y-58005D01*
X26045Y-58000D01*
X26075Y-57000D01*
X26132Y-56999D01*
X26269Y-56988D01*
X26304Y-56981D01*
X26332Y-56973D01*
X26355Y-56963D01*
X26373Y-56951D01*
X26384Y-56938D01*
X26390Y-56924D01*
X26391Y-58498D01*
D02*
G37*
G36*
X29814Y-56984D02*
X29833Y-57038D01*
X29856Y-57085D01*
X29884Y-57126D01*
X29917Y-57161D01*
X29953Y-57190D01*
X29994Y-57212D01*
X30040Y-57227D01*
X30090Y-57237D01*
X30144Y-57240D01*
Y-58240D01*
X30090Y-58243D01*
X30040Y-58253D01*
X29994Y-58269D01*
X29953Y-58291D01*
X29917Y-58319D01*
X29884Y-58354D01*
X29856Y-58395D01*
X29833Y-58443D01*
X29814Y-58496D01*
X29799Y-58556D01*
Y-56924D01*
X29814Y-56984D01*
D02*
G37*
%LPC*%
G36*
X25059Y63703D02*
X19941D01*
X19631Y63641D01*
X19369Y63466D01*
X19193Y63203D01*
X19132Y62894D01*
Y62106D01*
X19193Y61797D01*
X19369Y61534D01*
X19631Y61359D01*
X19941Y61297D01*
X24784D01*
X26351Y59731D01*
Y59095D01*
X25851Y59046D01*
X25807Y59266D01*
X25631Y59529D01*
X25369Y59704D01*
X25059Y59766D01*
X20982D01*
X20659Y59900D01*
X20141D01*
X19704Y59719D01*
X19631Y59704D01*
X19369Y59529D01*
X19193Y59266D01*
X19132Y58957D01*
Y58935D01*
X19100Y58859D01*
Y58341D01*
X19132Y58265D01*
Y58169D01*
X19193Y57860D01*
X19369Y57597D01*
X19631Y57422D01*
X19941Y57360D01*
X19997D01*
X20141Y57300D01*
X20659D01*
X20804Y57360D01*
X25059D01*
X25369Y57422D01*
X25631Y57597D01*
X25807Y57860D01*
X25851Y58080D01*
X26351Y58031D01*
Y56338D01*
X26336Y56302D01*
X26313Y56257D01*
X26283Y56206D01*
X26246Y56154D01*
X26131Y56018D01*
X26060Y55945D01*
X26029Y55868D01*
X25898Y55736D01*
X25700Y55259D01*
Y54741D01*
X25898Y54264D01*
X26264Y53898D01*
X26741Y53700D01*
X27259D01*
X27736Y53898D01*
X28102Y54264D01*
X28300Y54741D01*
Y55259D01*
X28102Y55736D01*
X27971Y55868D01*
X27940Y55945D01*
X27865Y56022D01*
X27806Y56088D01*
X27757Y56149D01*
X27718Y56206D01*
X27687Y56257D01*
X27664Y56302D01*
X27649Y56338D01*
Y60000D01*
X27459Y60459D01*
X25859Y62059D01*
X25868Y62106D01*
Y62894D01*
X25807Y63203D01*
X25631Y63466D01*
X25369Y63641D01*
X25059Y63703D01*
D02*
G37*
G36*
X-34641Y51900D02*
X-35159D01*
X-35636Y51702D01*
X-36002Y51336D01*
X-36200Y50859D01*
Y50341D01*
X-36002Y49864D01*
X-35636Y49498D01*
X-35159Y49300D01*
X-34641D01*
X-34164Y49498D01*
X-33798Y49864D01*
X-33600Y50341D01*
Y50859D01*
X-33798Y51336D01*
X-34164Y51702D01*
X-34641Y51900D01*
D02*
G37*
G36*
X16000Y42418D02*
X15000D01*
X14649Y42348D01*
X14351Y42149D01*
X14152Y41851D01*
X14082Y41500D01*
Y40500D01*
X14152Y40149D01*
X14351Y39851D01*
X14339Y39258D01*
X12887Y37806D01*
X12851Y37790D01*
X12803Y37774D01*
X12745Y37760D01*
X12683Y37749D01*
X12505Y37734D01*
X12404Y37733D01*
X12327Y37700D01*
X12141D01*
X11664Y37502D01*
X11298Y37136D01*
X11100Y36659D01*
Y36141D01*
X11298Y35664D01*
X11664Y35298D01*
X12141Y35100D01*
X12659D01*
X13136Y35298D01*
X13502Y35664D01*
X13700Y36141D01*
Y36327D01*
X13733Y36404D01*
X13734Y36511D01*
X13739Y36599D01*
X13748Y36677D01*
X13760Y36745D01*
X13774Y36803D01*
X13790Y36851D01*
X13805Y36887D01*
X15959Y39041D01*
X16149Y39500D01*
Y39612D01*
X16351Y39652D01*
X16649Y39851D01*
X16848Y40149D01*
X16918Y40500D01*
Y41500D01*
X16848Y41851D01*
X16649Y42149D01*
X16351Y42348D01*
X16000Y42418D01*
D02*
G37*
G36*
X-42658Y23591D02*
X-48169D01*
X-48594Y23506D01*
X-48954Y23265D01*
X-49195Y22905D01*
X-49280Y22480D01*
Y22149D01*
X-51112D01*
X-51152Y22351D01*
X-51351Y22649D01*
X-51649Y22848D01*
X-52000Y22918D01*
X-53000D01*
X-53351Y22848D01*
X-53649Y22649D01*
X-53848Y22351D01*
X-53918Y22000D01*
Y21000D01*
X-53848Y20649D01*
X-53649Y20351D01*
X-53351Y20152D01*
X-53000Y20082D01*
X-52000D01*
X-51649Y20152D01*
X-51351Y20351D01*
X-51152Y20649D01*
X-51112Y20851D01*
X-49229D01*
X-49195Y20677D01*
X-48954Y20317D01*
X-48594Y20077D01*
X-48169Y19992D01*
X-42658D01*
X-42233Y20077D01*
X-41872Y20317D01*
X-41632Y20677D01*
X-41569Y20992D01*
X-41498Y21064D01*
X-41300Y21541D01*
Y22059D01*
X-41498Y22536D01*
X-41573Y22612D01*
X-41632Y22905D01*
X-41872Y23265D01*
X-42233Y23506D01*
X-42658Y23591D01*
D02*
G37*
G36*
Y19260D02*
X-48169D01*
X-48594Y19175D01*
X-48954Y18935D01*
X-49195Y18575D01*
X-49280Y18150D01*
Y18149D01*
X-51112D01*
X-51152Y18351D01*
X-51351Y18649D01*
X-51649Y18848D01*
X-52000Y18918D01*
X-53000D01*
X-53351Y18848D01*
X-53649Y18649D01*
X-53848Y18351D01*
X-53918Y18000D01*
Y17000D01*
X-53848Y16649D01*
X-53649Y16351D01*
X-53351Y16152D01*
X-53000Y16082D01*
X-52000D01*
X-51649Y16152D01*
X-51351Y16351D01*
X-51152Y16649D01*
X-51112Y16851D01*
X-49280D01*
Y16772D01*
X-49195Y16347D01*
X-48954Y15987D01*
X-48594Y15746D01*
X-48169Y15661D01*
X-42658D01*
X-42233Y15746D01*
X-41872Y15987D01*
X-41632Y16347D01*
X-41586Y16575D01*
X-41498Y16664D01*
X-41300Y17141D01*
Y17659D01*
X-41498Y18136D01*
X-41556Y18195D01*
X-41632Y18575D01*
X-41872Y18935D01*
X-42233Y19175D01*
X-42658Y19260D01*
D02*
G37*
G36*
X4500Y7918D02*
X3500D01*
X3149Y7848D01*
X2994Y7744D01*
X2859Y7800D01*
X2341D01*
X1864Y7602D01*
X1498Y7236D01*
X1300Y6759D01*
Y6241D01*
X1498Y5764D01*
X1864Y5398D01*
X2341Y5200D01*
X2859D01*
X2994Y5256D01*
X3149Y5152D01*
X3500Y5082D01*
X4500D01*
X4851Y5152D01*
X5149Y5351D01*
X5348Y5649D01*
X5418Y6000D01*
Y7000D01*
X5348Y7351D01*
X5149Y7649D01*
X4851Y7848D01*
X4500Y7918D01*
D02*
G37*
G36*
X-42658Y10599D02*
X-48169D01*
X-48594Y10514D01*
X-48954Y10273D01*
X-49113Y10036D01*
X-49436Y9902D01*
X-49802Y9536D01*
X-50000Y9059D01*
Y8541D01*
X-49802Y8064D01*
X-49436Y7698D01*
X-49114Y7564D01*
X-48954Y7325D01*
X-48594Y7084D01*
X-48169Y7000D01*
X-42658D01*
X-42233Y7084D01*
X-41872Y7325D01*
X-41632Y7685D01*
X-41547Y8110D01*
Y9488D01*
X-41632Y9913D01*
X-41872Y10273D01*
X-42233Y10514D01*
X-42658Y10599D01*
D02*
G37*
G36*
X-56000Y22918D02*
X-57000D01*
X-57351Y22848D01*
X-57649Y22649D01*
X-57848Y22351D01*
X-57918Y22000D01*
Y21000D01*
X-57848Y20649D01*
X-57649Y20351D01*
X-57351Y20152D01*
X-57149Y20112D01*
Y18888D01*
X-57351Y18848D01*
X-57649Y18649D01*
X-57848Y18351D01*
X-57918Y18000D01*
Y17000D01*
X-57848Y16649D01*
X-57649Y16351D01*
X-57351Y16152D01*
X-57149Y16112D01*
Y2500D01*
Y888D01*
X-57351Y848D01*
X-57649Y649D01*
X-57848Y351D01*
X-57918Y0D01*
Y-1000D01*
X-57848Y-1351D01*
X-57649Y-1649D01*
X-57351Y-1848D01*
X-57149Y-1888D01*
Y-3112D01*
X-57351Y-3152D01*
X-57649Y-3351D01*
X-57848Y-3649D01*
X-57918Y-4000D01*
Y-5000D01*
X-57848Y-5351D01*
X-57649Y-5649D01*
X-57351Y-5848D01*
X-57149Y-5888D01*
Y-7112D01*
X-57351Y-7152D01*
X-57649Y-7351D01*
X-57848Y-7649D01*
X-57918Y-8000D01*
Y-9000D01*
X-57848Y-9351D01*
X-57649Y-9649D01*
X-57351Y-9848D01*
X-57000Y-9918D01*
X-56000D01*
X-55649Y-9848D01*
X-55351Y-9649D01*
X-55152Y-9351D01*
X-55082Y-9000D01*
Y-8000D01*
X-55152Y-7649D01*
X-55351Y-7351D01*
X-55649Y-7152D01*
X-55851Y-7112D01*
Y-5888D01*
X-55649Y-5848D01*
X-55351Y-5649D01*
X-55152Y-5351D01*
X-55082Y-5000D01*
Y-4000D01*
X-55152Y-3649D01*
X-55351Y-3351D01*
X-55649Y-3152D01*
X-55851Y-3112D01*
Y-1888D01*
X-55649Y-1848D01*
X-55351Y-1649D01*
X-55152Y-1351D01*
X-55082Y-1000D01*
Y0D01*
X-55152Y351D01*
X-55351Y649D01*
X-55649Y848D01*
X-55851Y888D01*
Y2156D01*
X-55842Y2186D01*
X-55829Y2222D01*
X-55813Y2257D01*
X-55797Y2284D01*
X-54263Y3819D01*
X-49280D01*
Y3779D01*
X-49195Y3355D01*
X-48954Y2994D01*
X-48594Y2754D01*
X-48169Y2669D01*
X-42658D01*
X-42233Y2754D01*
X-41872Y2994D01*
X-41802Y3099D01*
X-41564Y3198D01*
X-41198Y3564D01*
X-41000Y4041D01*
Y4559D01*
X-41198Y5036D01*
X-41564Y5402D01*
X-41599Y5417D01*
X-41632Y5582D01*
X-41872Y5943D01*
X-42233Y6183D01*
X-42658Y6268D01*
X-48169D01*
X-48594Y6183D01*
X-48954Y5943D01*
X-49195Y5582D01*
X-49280Y5158D01*
Y5118D01*
X-54532D01*
X-54991Y4928D01*
X-55389Y4530D01*
X-55851Y4721D01*
Y16112D01*
X-55649Y16152D01*
X-55351Y16351D01*
X-55152Y16649D01*
X-55082Y17000D01*
Y18000D01*
X-55152Y18351D01*
X-55351Y18649D01*
X-55649Y18848D01*
X-55851Y18888D01*
Y20112D01*
X-55649Y20152D01*
X-55351Y20351D01*
X-55152Y20649D01*
X-55082Y21000D01*
Y22000D01*
X-55152Y22351D01*
X-55351Y22649D01*
X-55649Y22848D01*
X-56000Y22918D01*
D02*
G37*
G36*
X-42658Y1937D02*
X-48169D01*
X-48594Y1853D01*
X-48954Y1612D01*
X-49195Y1252D01*
X-49206Y1198D01*
X-49436Y1102D01*
X-49459Y1080D01*
X-49492Y1072D01*
X-49584Y1006D01*
X-49752Y897D01*
X-49815Y862D01*
X-49947Y802D01*
X-49988Y787D01*
X-51558D01*
X-51649Y848D01*
X-52000Y918D01*
X-53000D01*
X-53351Y848D01*
X-53649Y649D01*
X-53848Y351D01*
X-53918Y0D01*
Y-1000D01*
X-53848Y-1351D01*
X-53649Y-1649D01*
X-53351Y-1848D01*
X-53000Y-1918D01*
X-52000D01*
X-51649Y-1848D01*
X-51351Y-1649D01*
X-51152Y-1351D01*
X-51082Y-1000D01*
Y-512D01*
X-50065D01*
X-50043Y-521D01*
X-50011Y-541D01*
X-49973Y-568D01*
X-49930Y-605D01*
X-49884Y-652D01*
X-49835Y-709D01*
X-49776Y-786D01*
X-49751Y-800D01*
X-49741Y-827D01*
X-49689Y-849D01*
X-49436Y-1102D01*
X-48986Y-1288D01*
X-48954Y-1336D01*
X-48594Y-1577D01*
X-48169Y-1661D01*
X-42658D01*
X-42233Y-1577D01*
X-41872Y-1336D01*
X-41632Y-976D01*
X-41547Y-551D01*
Y827D01*
X-41632Y1252D01*
X-41872Y1612D01*
X-42233Y1853D01*
X-42658Y1937D01*
D02*
G37*
G36*
Y-2394D02*
X-48169D01*
X-48594Y-2478D01*
X-48954Y-2719D01*
X-49195Y-3079D01*
X-49280Y-3504D01*
Y-3851D01*
X-51112D01*
X-51152Y-3649D01*
X-51351Y-3351D01*
X-51649Y-3152D01*
X-52000Y-3082D01*
X-53000D01*
X-53351Y-3152D01*
X-53649Y-3351D01*
X-53848Y-3649D01*
X-53918Y-4000D01*
Y-5000D01*
X-53848Y-5351D01*
X-53649Y-5649D01*
X-53351Y-5848D01*
X-53000Y-5918D01*
X-52000D01*
X-51649Y-5848D01*
X-51351Y-5649D01*
X-51152Y-5351D01*
X-51112Y-5149D01*
X-49226D01*
X-49195Y-5307D01*
X-48954Y-5667D01*
X-48594Y-5908D01*
X-48169Y-5992D01*
X-42658D01*
X-42233Y-5908D01*
X-41872Y-5667D01*
X-41692Y-5396D01*
X-41464Y-5302D01*
X-41098Y-4936D01*
X-40900Y-4459D01*
Y-3941D01*
X-41098Y-3464D01*
X-41464Y-3098D01*
X-41679Y-3009D01*
X-41872Y-2719D01*
X-42233Y-2478D01*
X-42658Y-2394D01*
D02*
G37*
G36*
Y-6724D02*
X-48169D01*
X-48594Y-6809D01*
X-48954Y-7050D01*
X-49195Y-7410D01*
X-49280Y-7835D01*
Y-7874D01*
X-51107D01*
X-51152Y-7649D01*
X-51351Y-7351D01*
X-51649Y-7152D01*
X-52000Y-7082D01*
X-53000D01*
X-53351Y-7152D01*
X-53649Y-7351D01*
X-53848Y-7649D01*
X-53918Y-8000D01*
Y-9000D01*
X-53848Y-9351D01*
X-53649Y-9649D01*
X-53351Y-9848D01*
X-53000Y-9918D01*
X-52000D01*
X-51649Y-9848D01*
X-51351Y-9649D01*
X-51152Y-9351D01*
X-51117Y-9173D01*
X-49280D01*
Y-9213D01*
X-49195Y-9638D01*
X-48954Y-9998D01*
X-48594Y-10238D01*
X-48169Y-10323D01*
X-42658D01*
X-42233Y-10238D01*
X-41872Y-9998D01*
X-41632Y-9638D01*
X-41630Y-9630D01*
X-41564Y-9602D01*
X-41198Y-9236D01*
X-41000Y-8759D01*
Y-8241D01*
X-41198Y-7764D01*
X-41564Y-7398D01*
X-41669Y-7354D01*
X-41872Y-7050D01*
X-42233Y-6809D01*
X-42658Y-6724D01*
D02*
G37*
G36*
X-26250Y-40423D02*
X-29450D01*
X-29723Y-40478D01*
X-29955Y-40632D01*
X-30109Y-40864D01*
X-30164Y-41137D01*
Y-41737D01*
X-30109Y-42010D01*
X-29955Y-42242D01*
Y-42601D01*
X-30109Y-42832D01*
X-30164Y-43106D01*
Y-43705D01*
X-30109Y-43979D01*
X-29955Y-44210D01*
X-29723Y-44365D01*
X-29450Y-44419D01*
X-26250D01*
X-25977Y-44365D01*
X-25745Y-44210D01*
X-25591Y-43979D01*
X-25536Y-43705D01*
Y-43106D01*
X-25591Y-42832D01*
X-25745Y-42601D01*
Y-42242D01*
X-25591Y-42010D01*
X-25536Y-41737D01*
Y-41137D01*
X-25591Y-40864D01*
X-25745Y-40632D01*
X-25977Y-40478D01*
X-26250Y-40423D01*
D02*
G37*
G36*
X-44550Y-30581D02*
X-47750D01*
X-48023Y-30635D01*
X-48255Y-30790D01*
X-48409Y-31021D01*
X-48464Y-31295D01*
Y-31894D01*
X-48409Y-32168D01*
X-48255Y-32399D01*
Y-32758D01*
X-48409Y-32990D01*
X-48464Y-33263D01*
Y-33863D01*
X-48409Y-34136D01*
X-48255Y-34368D01*
Y-34727D01*
X-48409Y-34958D01*
X-48464Y-35232D01*
Y-35831D01*
X-48409Y-36105D01*
X-48255Y-36336D01*
Y-36695D01*
X-48409Y-36927D01*
X-48464Y-37200D01*
Y-37800D01*
X-48409Y-38073D01*
X-48255Y-38305D01*
Y-38664D01*
X-48409Y-38895D01*
X-48464Y-39169D01*
Y-39768D01*
X-48409Y-40042D01*
X-48255Y-40273D01*
Y-40632D01*
X-48409Y-40864D01*
X-48464Y-41137D01*
Y-41737D01*
X-48409Y-42010D01*
X-48255Y-42242D01*
Y-42601D01*
X-48409Y-42832D01*
X-48464Y-43106D01*
Y-43705D01*
X-48409Y-43979D01*
X-48255Y-44210D01*
X-48023Y-44365D01*
X-47750Y-44419D01*
X-44550D01*
X-44277Y-44365D01*
X-44045Y-44210D01*
X-43891Y-43979D01*
X-43836Y-43705D01*
Y-43106D01*
X-43891Y-42832D01*
X-44045Y-42601D01*
Y-42242D01*
X-43891Y-42010D01*
X-43836Y-41737D01*
Y-41137D01*
X-43891Y-40864D01*
X-44045Y-40632D01*
Y-40273D01*
X-43891Y-40042D01*
X-43836Y-39768D01*
Y-39169D01*
X-43891Y-38895D01*
X-44045Y-38664D01*
Y-38305D01*
X-43891Y-38073D01*
X-43836Y-37800D01*
Y-37200D01*
X-43891Y-36927D01*
X-44045Y-36695D01*
Y-36336D01*
X-43891Y-36105D01*
X-43836Y-35831D01*
Y-35232D01*
X-43891Y-34958D01*
X-44045Y-34727D01*
Y-34368D01*
X-43891Y-34136D01*
X-43836Y-33863D01*
Y-33263D01*
X-43891Y-32990D01*
X-44045Y-32758D01*
Y-32399D01*
X-43891Y-32168D01*
X-43836Y-31894D01*
Y-31295D01*
X-43891Y-31021D01*
X-44045Y-30790D01*
X-44277Y-30635D01*
X-44550Y-30581D01*
D02*
G37*
G36*
X-30795Y-44336D02*
X-31394D01*
X-31668Y-44391D01*
X-31899Y-44545D01*
X-32258D01*
X-32490Y-44391D01*
X-32763Y-44336D01*
X-33363D01*
X-33636Y-44391D01*
X-33868Y-44545D01*
X-34227D01*
X-34458Y-44391D01*
X-34732Y-44336D01*
X-35331D01*
X-35605Y-44391D01*
X-35836Y-44545D01*
X-36195D01*
X-36427Y-44391D01*
X-36700Y-44336D01*
X-37300D01*
X-37573Y-44391D01*
X-37805Y-44545D01*
X-38164D01*
X-38395Y-44391D01*
X-38669Y-44336D01*
X-39268D01*
X-39542Y-44391D01*
X-39773Y-44545D01*
X-40132D01*
X-40364Y-44391D01*
X-40637Y-44336D01*
X-41237D01*
X-41510Y-44391D01*
X-41742Y-44545D01*
X-42101D01*
X-42332Y-44391D01*
X-42606Y-44336D01*
X-43205D01*
X-43479Y-44391D01*
X-43710Y-44545D01*
X-43865Y-44777D01*
X-43919Y-45050D01*
Y-48250D01*
X-43865Y-48523D01*
X-43710Y-48755D01*
X-43479Y-48909D01*
X-43205Y-48964D01*
X-42606D01*
X-42332Y-48909D01*
X-42101Y-48755D01*
X-41742D01*
X-41510Y-48909D01*
X-41237Y-48964D01*
X-40637D01*
X-40364Y-48909D01*
X-40132Y-48755D01*
X-39773D01*
X-39542Y-48909D01*
X-39268Y-48964D01*
X-38669D01*
X-38395Y-48909D01*
X-38164Y-48755D01*
X-38096D01*
X-37808Y-49036D01*
X-37797Y-49082D01*
X-37790Y-49161D01*
X-37961Y-49563D01*
X-37995Y-49566D01*
X-38096Y-49567D01*
X-38173Y-49600D01*
X-38359D01*
X-38836Y-49798D01*
X-39202Y-50164D01*
X-39400Y-50641D01*
Y-51159D01*
X-39202Y-51636D01*
X-38836Y-52002D01*
X-38359Y-52200D01*
X-37841D01*
X-37364Y-52002D01*
X-36998Y-51636D01*
X-36800Y-51159D01*
Y-50973D01*
X-36767Y-50896D01*
X-36766Y-50789D01*
X-36761Y-50701D01*
X-36752Y-50623D01*
X-36740Y-50555D01*
X-36726Y-50497D01*
X-36710Y-50449D01*
X-36694Y-50413D01*
X-36541Y-50259D01*
X-36351Y-49800D01*
Y-49235D01*
X-35851Y-49025D01*
X-35681Y-49190D01*
Y-50468D01*
X-35491Y-50928D01*
X-35427Y-50991D01*
X-35430Y-51000D01*
X-35418Y-51031D01*
Y-52000D01*
X-35348Y-52351D01*
X-35149Y-52649D01*
X-34851Y-52848D01*
X-34500Y-52918D01*
X-33500D01*
X-33149Y-52848D01*
X-32851Y-52649D01*
X-32652Y-52351D01*
X-32582Y-52000D01*
Y-51000D01*
X-32652Y-50649D01*
X-32851Y-50351D01*
X-33149Y-50152D01*
X-33500Y-50082D01*
X-34382D01*
Y-48885D01*
X-34297Y-48802D01*
X-34227Y-48755D01*
X-33868D01*
X-33636Y-48909D01*
X-33363Y-48964D01*
X-32763D01*
X-32490Y-48909D01*
X-32258Y-48755D01*
X-31899D01*
X-31668Y-48909D01*
X-31394Y-48964D01*
X-30795D01*
X-30521Y-48909D01*
X-30290Y-48755D01*
X-30135Y-48523D01*
X-30081Y-48250D01*
Y-45050D01*
X-30135Y-44777D01*
X-30290Y-44545D01*
X-30521Y-44391D01*
X-30795Y-44336D01*
D02*
G37*
G36*
X-28441Y-48900D02*
X-28959D01*
X-29436Y-49098D01*
X-29802Y-49464D01*
X-30000Y-49941D01*
Y-50082D01*
X-30500D01*
X-30851Y-50152D01*
X-31149Y-50351D01*
X-31348Y-50649D01*
X-31418Y-51000D01*
Y-52000D01*
X-31348Y-52351D01*
X-31149Y-52649D01*
X-30851Y-52848D01*
X-30500Y-52918D01*
X-29500D01*
X-29149Y-52848D01*
X-28851Y-52649D01*
X-28652Y-52351D01*
X-28582Y-52000D01*
Y-51500D01*
X-28441D01*
X-27964Y-51302D01*
X-27598Y-50936D01*
X-27400Y-50459D01*
Y-49941D01*
X-27598Y-49464D01*
X-27964Y-49098D01*
X-28441Y-48900D01*
D02*
G37*
G36*
X40654Y-56140D02*
X38335D01*
X37949Y-56217D01*
X37621Y-56436D01*
X37402Y-56763D01*
X37325Y-57150D01*
Y-58331D01*
X37368Y-58546D01*
X37365Y-58549D01*
X37337Y-58578D01*
X37324Y-58613D01*
X34855Y-61082D01*
X32845D01*
X32812Y-61067D01*
X32793Y-61067D01*
X32791Y-61063D01*
X32766Y-61003D01*
X32745Y-60995D01*
X32649Y-60851D01*
X32351Y-60652D01*
X32000Y-60582D01*
X31000D01*
X30649Y-60652D01*
X30351Y-60851D01*
X30152Y-61149D01*
X30082Y-61500D01*
Y-62500D01*
X30152Y-62851D01*
X30351Y-63149D01*
X30649Y-63348D01*
X31000Y-63418D01*
X32000D01*
X32351Y-63348D01*
X32649Y-63149D01*
X32745Y-63005D01*
X32766Y-62997D01*
X32791Y-62937D01*
X32793Y-62933D01*
X32812Y-62933D01*
X32845Y-62918D01*
X35235D01*
X35586Y-62848D01*
X35884Y-62649D01*
X39033Y-59499D01*
X39042Y-59498D01*
X39059Y-59473D01*
X39066Y-59466D01*
X39099Y-59455D01*
X39150Y-59409D01*
X39184Y-59384D01*
X39221Y-59363D01*
X39262Y-59346D01*
X39279Y-59341D01*
X40654D01*
X41040Y-59264D01*
X41368Y-59045D01*
X41587Y-58717D01*
X41664Y-58331D01*
Y-57150D01*
X41587Y-56763D01*
X41368Y-56436D01*
X41040Y-56217D01*
X40654Y-56140D01*
D02*
G37*
%LPD*%
G36*
X25412Y61946D02*
X25409Y61934D01*
X25407Y61921D01*
X25408Y61908D01*
X25412Y61894D01*
X25418Y61880D01*
X25426Y61865D01*
X25437Y61849D01*
X25450Y61833D01*
X25466Y61817D01*
X25085Y61632D01*
X25052Y61663D01*
X25018Y61688D01*
X24983Y61710D01*
X24948Y61726D01*
X24911Y61738D01*
X24874Y61746D01*
X24836Y61748D01*
X24797Y61747D01*
X24758Y61740D01*
X24717Y61729D01*
X25419Y61957D01*
X25412Y61946D01*
D02*
G37*
G36*
X27204Y56346D02*
X27217Y56274D01*
X27239Y56199D01*
X27269Y56124D01*
X27308Y56047D01*
X27355Y55969D01*
X27411Y55889D01*
X27475Y55809D01*
X27548Y55726D01*
X27630Y55643D01*
X26370D01*
X26452Y55726D01*
X26589Y55889D01*
X26645Y55969D01*
X26693Y56047D01*
X26731Y56124D01*
X26761Y56199D01*
X26783Y56274D01*
X26796Y56346D01*
X26800Y56418D01*
X27200D01*
X27204Y56346D01*
D02*
G37*
G36*
X15862Y40013D02*
X15828Y40009D01*
X15798Y40003D01*
X15772Y39993D01*
X15750Y39981D01*
X15732Y39967D01*
X15718Y39950D01*
X15708Y39930D01*
X15702Y39908D01*
X15700Y39882D01*
X15300D01*
X15298Y39908D01*
X15292Y39930D01*
X15282Y39950D01*
X15268Y39967D01*
X15250Y39981D01*
X15228Y39993D01*
X15202Y40003D01*
X15172Y40009D01*
X15138Y40013D01*
X15100Y40014D01*
X15900D01*
X15862Y40013D01*
D02*
G37*
G36*
X13544Y37261D02*
X13496Y37207D01*
X13454Y37147D01*
X13417Y37079D01*
X13385Y37005D01*
X13358Y36923D01*
X13336Y36834D01*
X13319Y36738D01*
X13308Y36636D01*
X13301Y36526D01*
X13300Y36409D01*
X12409Y37300D01*
X12526Y37301D01*
X12739Y37319D01*
X12834Y37336D01*
X12923Y37358D01*
X13005Y37385D01*
X13079Y37417D01*
X13147Y37454D01*
X13207Y37496D01*
X13261Y37544D01*
X13544Y37261D01*
D02*
G37*
G36*
X-48847Y21102D02*
X-48849Y21140D01*
X-48853Y21173D01*
X-48859Y21203D01*
X-48869Y21229D01*
X-48880Y21251D01*
X-48895Y21268D01*
X-48912Y21282D01*
X-48932Y21292D01*
X-48954Y21298D01*
X-48979Y21300D01*
Y21700D01*
X-48954Y21702D01*
X-48932Y21708D01*
X-48912Y21718D01*
X-48895Y21732D01*
X-48880Y21750D01*
X-48869Y21772D01*
X-48859Y21798D01*
X-48853Y21828D01*
X-48849Y21862D01*
X-48847Y21900D01*
X-48847Y21102D01*
D02*
G37*
G36*
X-51513Y21862D02*
X-51509Y21828D01*
X-51503Y21798D01*
X-51493Y21772D01*
X-51481Y21750D01*
X-51467Y21732D01*
X-51450Y21718D01*
X-51430Y21708D01*
X-51407Y21702D01*
X-51382Y21700D01*
Y21300D01*
X-51407Y21298D01*
X-51430Y21292D01*
X-51450Y21282D01*
X-51467Y21268D01*
X-51481Y21250D01*
X-51493Y21228D01*
X-51503Y21202D01*
X-51509Y21172D01*
X-51513Y21138D01*
X-51514Y21100D01*
Y21900D01*
X-51513Y21862D01*
D02*
G37*
G36*
X-48847Y17100D02*
X-48849Y17138D01*
X-48853Y17172D01*
X-48859Y17202D01*
X-48869Y17228D01*
X-48880Y17250D01*
X-48895Y17268D01*
X-48912Y17282D01*
X-48932Y17292D01*
X-48954Y17298D01*
X-48979Y17300D01*
Y17700D01*
X-48954Y17702D01*
X-48932Y17708D01*
X-48912Y17718D01*
X-48895Y17732D01*
X-48880Y17750D01*
X-48869Y17772D01*
X-48859Y17798D01*
X-48853Y17828D01*
X-48849Y17862D01*
X-48847Y17900D01*
Y17100D01*
D02*
G37*
G36*
X-51513Y17862D02*
X-51509Y17828D01*
X-51503Y17798D01*
X-51493Y17772D01*
X-51481Y17750D01*
X-51467Y17732D01*
X-51450Y17718D01*
X-51430Y17708D01*
X-51407Y17702D01*
X-51382Y17700D01*
Y17300D01*
X-51407Y17298D01*
X-51430Y17292D01*
X-51450Y17282D01*
X-51467Y17268D01*
X-51481Y17250D01*
X-51493Y17228D01*
X-51503Y17202D01*
X-51509Y17172D01*
X-51513Y17138D01*
X-51514Y17100D01*
Y17900D01*
X-51513Y17862D01*
D02*
G37*
G36*
X-56138Y20513D02*
X-56172Y20509D01*
X-56202Y20503D01*
X-56228Y20493D01*
X-56250Y20481D01*
X-56268Y20467D01*
X-56282Y20450D01*
X-56292Y20430D01*
X-56298Y20407D01*
X-56300Y20382D01*
X-56700D01*
X-56702Y20407D01*
X-56708Y20430D01*
X-56718Y20450D01*
X-56732Y20467D01*
X-56750Y20481D01*
X-56772Y20493D01*
X-56798Y20503D01*
X-56828Y20509D01*
X-56862Y20513D01*
X-56900Y20514D01*
X-56100D01*
X-56138Y20513D01*
D02*
G37*
G36*
X-56298Y18593D02*
X-56292Y18570D01*
X-56282Y18550D01*
X-56268Y18533D01*
X-56250Y18519D01*
X-56228Y18507D01*
X-56202Y18497D01*
X-56172Y18491D01*
X-56138Y18487D01*
X-56100Y18486D01*
X-56900D01*
X-56862Y18487D01*
X-56828Y18491D01*
X-56798Y18497D01*
X-56772Y18507D01*
X-56750Y18519D01*
X-56732Y18533D01*
X-56718Y18550D01*
X-56708Y18570D01*
X-56702Y18593D01*
X-56700Y18618D01*
X-56300D01*
X-56298Y18593D01*
D02*
G37*
G36*
X-56138Y16513D02*
X-56172Y16509D01*
X-56202Y16503D01*
X-56228Y16493D01*
X-56250Y16481D01*
X-56268Y16467D01*
X-56282Y16450D01*
X-56292Y16430D01*
X-56298Y16408D01*
X-56300Y16382D01*
X-56700D01*
X-56702Y16408D01*
X-56708Y16430D01*
X-56718Y16450D01*
X-56732Y16467D01*
X-56750Y16481D01*
X-56772Y16493D01*
X-56798Y16503D01*
X-56828Y16509D01*
X-56862Y16513D01*
X-56900Y16514D01*
X-56100D01*
X-56138Y16513D01*
D02*
G37*
G36*
X-48847Y4069D02*
X-48849Y4106D01*
X-48853Y4140D01*
X-48859Y4171D01*
X-48869Y4197D01*
X-48880Y4219D01*
X-48895Y4236D01*
X-48912Y4250D01*
X-48932Y4261D01*
X-48954Y4267D01*
X-48979Y4268D01*
Y4668D01*
X-48954Y4671D01*
X-48932Y4676D01*
X-48912Y4687D01*
X-48895Y4701D01*
X-48880Y4719D01*
X-48869Y4741D01*
X-48859Y4766D01*
X-48853Y4797D01*
X-48849Y4831D01*
X-48847Y4868D01*
Y4069D01*
D02*
G37*
G36*
X-56297Y3310D02*
X-56289Y3250D01*
X-56274Y3204D01*
X-56255Y3172D01*
X-56229Y3153D01*
X-56198Y3149D01*
X-56161Y3157D01*
X-56119Y3180D01*
X-56071Y3216D01*
X-56017Y3266D01*
Y2700D01*
X-56071Y2642D01*
X-56119Y2582D01*
X-56161Y2520D01*
X-56198Y2455D01*
X-56229Y2388D01*
X-56255Y2318D01*
X-56274Y2247D01*
X-56289Y2173D01*
X-56297Y2096D01*
X-56300Y2017D01*
X-56700Y2500D01*
X-56300Y3383D01*
X-56297Y3310D01*
D02*
G37*
G36*
X-56298Y593D02*
X-56292Y570D01*
X-56282Y550D01*
X-56268Y533D01*
X-56250Y519D01*
X-56228Y507D01*
X-56202Y497D01*
X-56172Y491D01*
X-56138Y487D01*
X-56100Y486D01*
X-56900D01*
X-56862Y487D01*
X-56828Y491D01*
X-56798Y497D01*
X-56772Y507D01*
X-56750Y519D01*
X-56732Y533D01*
X-56718Y550D01*
X-56708Y570D01*
X-56702Y593D01*
X-56700Y618D01*
X-56300D01*
X-56298Y593D01*
D02*
G37*
G36*
X-56138Y-1487D02*
X-56172Y-1491D01*
X-56202Y-1497D01*
X-56228Y-1507D01*
X-56250Y-1519D01*
X-56268Y-1533D01*
X-56282Y-1550D01*
X-56292Y-1570D01*
X-56298Y-1592D01*
X-56300Y-1618D01*
X-56700D01*
X-56702Y-1592D01*
X-56708Y-1570D01*
X-56718Y-1550D01*
X-56732Y-1533D01*
X-56750Y-1519D01*
X-56772Y-1507D01*
X-56798Y-1497D01*
X-56828Y-1491D01*
X-56862Y-1487D01*
X-56900Y-1486D01*
X-56100D01*
X-56138Y-1487D01*
D02*
G37*
G36*
X-56298Y-3407D02*
X-56292Y-3430D01*
X-56282Y-3450D01*
X-56268Y-3467D01*
X-56250Y-3481D01*
X-56228Y-3493D01*
X-56202Y-3503D01*
X-56172Y-3509D01*
X-56138Y-3513D01*
X-56100Y-3514D01*
X-56900D01*
X-56862Y-3513D01*
X-56828Y-3509D01*
X-56798Y-3503D01*
X-56772Y-3493D01*
X-56750Y-3481D01*
X-56732Y-3467D01*
X-56718Y-3450D01*
X-56708Y-3430D01*
X-56702Y-3407D01*
X-56700Y-3382D01*
X-56300D01*
X-56298Y-3407D01*
D02*
G37*
G36*
X-56138Y-5487D02*
X-56172Y-5491D01*
X-56202Y-5497D01*
X-56228Y-5507D01*
X-56250Y-5519D01*
X-56268Y-5533D01*
X-56282Y-5550D01*
X-56292Y-5570D01*
X-56298Y-5593D01*
X-56300Y-5618D01*
X-56700D01*
X-56702Y-5593D01*
X-56708Y-5570D01*
X-56718Y-5550D01*
X-56732Y-5533D01*
X-56750Y-5519D01*
X-56772Y-5507D01*
X-56798Y-5497D01*
X-56828Y-5491D01*
X-56862Y-5487D01*
X-56900Y-5486D01*
X-56100D01*
X-56138Y-5487D01*
D02*
G37*
G36*
X-56298Y-7407D02*
X-56292Y-7430D01*
X-56282Y-7450D01*
X-56268Y-7467D01*
X-56250Y-7481D01*
X-56228Y-7493D01*
X-56202Y-7503D01*
X-56172Y-7509D01*
X-56138Y-7513D01*
X-56100Y-7514D01*
X-56900D01*
X-56862Y-7513D01*
X-56828Y-7509D01*
X-56798Y-7503D01*
X-56772Y-7493D01*
X-56750Y-7481D01*
X-56732Y-7467D01*
X-56718Y-7450D01*
X-56708Y-7430D01*
X-56702Y-7407D01*
X-56700Y-7382D01*
X-56300D01*
X-56298Y-7407D01*
D02*
G37*
G36*
X-48889Y378D02*
X-48880Y388D01*
X-48869Y410D01*
X-48859Y436D01*
X-48853Y466D01*
X-48849Y500D01*
X-48847Y538D01*
Y338D01*
X-48700Y193D01*
X-48847Y48D01*
Y-262D01*
X-48849Y-224D01*
X-48853Y-190D01*
X-48859Y-160D01*
X-48869Y-134D01*
X-48880Y-112D01*
X-48895Y-94D01*
X-48912Y-80D01*
X-48932Y-70D01*
X-48954Y-64D01*
X-48962Y-64D01*
X-49432Y-524D01*
X-49498Y-436D01*
X-49566Y-358D01*
X-49634Y-289D01*
X-49703Y-228D01*
X-49774Y-178D01*
X-49845Y-136D01*
X-49917Y-104D01*
X-49990Y-81D01*
X-50063Y-67D01*
X-50138Y-62D01*
X-50074Y338D01*
X-50008Y342D01*
X-49937Y353D01*
X-49863Y372D01*
X-49786Y399D01*
X-49619Y476D01*
X-49529Y526D01*
X-49339Y648D01*
X-49239Y721D01*
X-48889Y378D01*
D02*
G37*
G36*
X-51645Y349D02*
X-51640Y347D01*
X-51633Y345D01*
X-51623Y343D01*
X-51611Y341D01*
X-51581Y339D01*
X-51519Y338D01*
X-51382Y-62D01*
X-51415Y-64D01*
X-51444Y-70D01*
X-51468Y-80D01*
X-51488Y-94D01*
X-51503Y-112D01*
X-51514Y-134D01*
X-51521Y-160D01*
X-51523Y-190D01*
X-51521Y-224D01*
X-51514Y-262D01*
X-51648Y352D01*
X-51645Y349D01*
D02*
G37*
G36*
X-48061Y648D02*
X-47871Y526D01*
X-47782Y476D01*
X-47614Y399D01*
X-47537Y372D01*
X-47462Y353D01*
X-47392Y342D01*
X-47326Y338D01*
X-47262Y-62D01*
X-47337Y-67D01*
X-47411Y-81D01*
X-47483Y-104D01*
X-47555Y-136D01*
X-47626Y-178D01*
X-47697Y-228D01*
X-47766Y-289D01*
X-47834Y-358D01*
X-47902Y-436D01*
X-47968Y-524D01*
X-48700Y193D01*
X-48161Y721D01*
X-48061Y648D01*
D02*
G37*
G36*
X-48844Y-4898D02*
X-48846Y-4860D01*
X-48850Y-4826D01*
X-48857Y-4797D01*
X-48866Y-4771D01*
X-48878Y-4749D01*
X-48893Y-4732D01*
X-48911Y-4718D01*
X-48931Y-4708D01*
X-48954Y-4702D01*
X-48979Y-4700D01*
Y-4300D01*
X-48954Y-4298D01*
X-48932Y-4292D01*
X-48912Y-4282D01*
X-48895Y-4268D01*
X-48880Y-4250D01*
X-48868Y-4228D01*
X-48859Y-4202D01*
X-48853Y-4172D01*
X-48849Y-4138D01*
X-48847Y-4100D01*
X-48844Y-4898D01*
D02*
G37*
G36*
X-51513Y-4138D02*
X-51509Y-4172D01*
X-51503Y-4202D01*
X-51493Y-4228D01*
X-51481Y-4250D01*
X-51467Y-4268D01*
X-51450Y-4282D01*
X-51430Y-4292D01*
X-51407Y-4298D01*
X-51382Y-4300D01*
Y-4700D01*
X-51407Y-4702D01*
X-51430Y-4708D01*
X-51450Y-4718D01*
X-51467Y-4732D01*
X-51481Y-4750D01*
X-51493Y-4772D01*
X-51503Y-4798D01*
X-51509Y-4828D01*
X-51513Y-4862D01*
X-51514Y-4900D01*
Y-4100D01*
X-51513Y-4138D01*
D02*
G37*
G36*
X-48847Y-8924D02*
X-48849Y-8886D01*
X-48853Y-8852D01*
X-48859Y-8822D01*
X-48869Y-8796D01*
X-48880Y-8774D01*
X-48895Y-8756D01*
X-48912Y-8742D01*
X-48932Y-8732D01*
X-48954Y-8726D01*
X-48979Y-8724D01*
Y-8324D01*
X-48954Y-8322D01*
X-48932Y-8316D01*
X-48912Y-8306D01*
X-48895Y-8292D01*
X-48880Y-8274D01*
X-48869Y-8252D01*
X-48859Y-8226D01*
X-48853Y-8196D01*
X-48849Y-8162D01*
X-48847Y-8124D01*
Y-8924D01*
D02*
G37*
G36*
X-51513Y-8162D02*
X-51509Y-8196D01*
X-51503Y-8226D01*
X-51493Y-8252D01*
X-51481Y-8274D01*
X-51467Y-8292D01*
X-51450Y-8306D01*
X-51430Y-8316D01*
X-51407Y-8322D01*
X-51382Y-8324D01*
Y-8724D01*
X-51407Y-8726D01*
X-51430Y-8732D01*
X-51450Y-8742D01*
X-51467Y-8756D01*
X-51481Y-8774D01*
X-51493Y-8796D01*
X-51503Y-8822D01*
X-51509Y-8852D01*
X-51513Y-8886D01*
X-51514Y-8924D01*
Y-8124D01*
X-51513Y-8162D01*
D02*
G37*
G36*
X-34671Y-48513D02*
X-34705Y-48518D01*
X-34735Y-48526D01*
X-34760Y-48536D01*
X-34782Y-48550D01*
X-34800Y-48567D01*
X-34814Y-48586D01*
X-34824Y-48609D01*
X-34830Y-48635D01*
X-34832Y-48664D01*
X-35232D01*
X-35234Y-48635D01*
X-35239Y-48609D01*
X-35249Y-48586D01*
X-35263Y-48567D01*
X-35281Y-48550D01*
X-35303Y-48536D01*
X-35328Y-48526D01*
X-35358Y-48518D01*
X-35392Y-48513D01*
X-35429Y-48512D01*
X-34634D01*
X-34671Y-48513D01*
D02*
G37*
G36*
X-36640D02*
X-36674Y-48518D01*
X-36703Y-48526D01*
X-36729Y-48536D01*
X-36751Y-48550D01*
X-36768Y-48567D01*
X-36782Y-48586D01*
X-36792Y-48609D01*
X-36798Y-48635D01*
X-36800Y-48664D01*
X-37200D01*
X-37202Y-48635D01*
X-37208Y-48609D01*
X-37218Y-48586D01*
X-37232Y-48567D01*
X-37249Y-48550D01*
X-37271Y-48536D01*
X-37297Y-48526D01*
X-37326Y-48518D01*
X-37360Y-48513D01*
X-37398Y-48512D01*
X-36602D01*
X-36640Y-48513D01*
D02*
G37*
G36*
X-36956Y-50039D02*
X-37004Y-50093D01*
X-37046Y-50153D01*
X-37083Y-50221D01*
X-37115Y-50295D01*
X-37142Y-50377D01*
X-37164Y-50466D01*
X-37181Y-50561D01*
X-37192Y-50664D01*
X-37199Y-50774D01*
X-37200Y-50891D01*
X-38091Y-50000D01*
X-37974Y-49999D01*
X-37762Y-49981D01*
X-37666Y-49964D01*
X-37577Y-49942D01*
X-37495Y-49915D01*
X-37421Y-49883D01*
X-37353Y-49846D01*
X-37293Y-49804D01*
X-37239Y-49756D01*
X-36956Y-50039D01*
D02*
G37*
G36*
X-34746Y-50469D02*
X-34726Y-50482D01*
X-34705Y-50493D01*
X-34681Y-50502D01*
X-34655Y-50508D01*
X-34628Y-50512D01*
X-34599Y-50513D01*
X-34568Y-50512D01*
X-34535Y-50508D01*
X-34500Y-50502D01*
X-34998Y-51000D01*
X-34992Y-50965D01*
X-34988Y-50932D01*
X-34987Y-50901D01*
X-34988Y-50872D01*
X-34992Y-50845D01*
X-34998Y-50819D01*
X-35007Y-50795D01*
X-35018Y-50774D01*
X-35031Y-50754D01*
X-35047Y-50736D01*
X-34764Y-50453D01*
X-34746Y-50469D01*
D02*
G37*
G36*
X-29310Y-50499D02*
X-29295Y-50493D01*
X-29274Y-50482D01*
X-29254Y-50469D01*
X-29236Y-50453D01*
X-28953Y-50736D01*
X-28969Y-50754D01*
X-28982Y-50774D01*
X-28993Y-50795D01*
X-28999Y-50810D01*
X-28709Y-51100D01*
X-28826Y-51101D01*
X-29039Y-51119D01*
X-29134Y-51136D01*
X-29223Y-51158D01*
X-29305Y-51185D01*
X-29379Y-51217D01*
X-29447Y-51254D01*
X-29507Y-51296D01*
X-29561Y-51344D01*
X-29844Y-51061D01*
X-29796Y-51007D01*
X-29754Y-50947D01*
X-29717Y-50879D01*
X-29685Y-50805D01*
X-29658Y-50723D01*
X-29636Y-50634D01*
X-29619Y-50538D01*
X-29608Y-50436D01*
X-29601Y-50326D01*
X-29600Y-50209D01*
X-29310Y-50499D01*
D02*
G37*
G36*
X39728Y-58909D02*
X39613Y-58892D01*
X39503Y-58883D01*
X39399Y-58884D01*
X39299Y-58893D01*
X39204Y-58911D01*
X39115Y-58938D01*
X39031Y-58973D01*
X38952Y-59018D01*
X38878Y-59071D01*
X38809Y-59133D01*
X37650Y-58877D01*
X37690Y-58836D01*
X37752Y-58759D01*
X37775Y-58724D01*
X37791Y-58691D01*
X37802Y-58660D01*
X37808Y-58631D01*
X37808Y-58604D01*
X37802Y-58579D01*
X37790Y-58556D01*
X39728Y-58909D01*
D02*
G37*
G36*
X32470Y-61346D02*
X32485Y-61378D01*
X32506Y-61407D01*
X32532Y-61431D01*
X32563Y-61452D01*
X32599Y-61470D01*
X32641Y-61483D01*
X32688Y-61492D01*
X32740Y-61498D01*
X32798Y-61500D01*
Y-62500D01*
X32740Y-62502D01*
X32688Y-62508D01*
X32641Y-62517D01*
X32599Y-62530D01*
X32563Y-62548D01*
X32532Y-62569D01*
X32506Y-62593D01*
X32485Y-62622D01*
X32470Y-62654D01*
X32460Y-62690D01*
Y-61310D01*
X32470Y-61346D01*
D02*
G37*
%LPC*%
G36*
X23736Y-6388D02*
X23350Y-6465D01*
X23022Y-6684D01*
X22803Y-7011D01*
X22726Y-7398D01*
Y-13256D01*
X22605Y-13266D01*
X22504Y-13267D01*
X22427Y-13300D01*
X22241D01*
X21764Y-13498D01*
X21398Y-13864D01*
X21200Y-14341D01*
Y-14859D01*
X21398Y-15336D01*
X21764Y-15702D01*
X22241Y-15900D01*
X22759D01*
X23236Y-15702D01*
X23602Y-15336D01*
X23800Y-14859D01*
Y-14673D01*
X23833Y-14596D01*
X23834Y-14489D01*
X23839Y-14401D01*
X23848Y-14323D01*
X23853Y-14296D01*
X23866Y-14287D01*
X24123Y-14236D01*
X24450Y-14017D01*
X24669Y-13690D01*
X24746Y-13303D01*
Y-7398D01*
X24669Y-7011D01*
X24450Y-6684D01*
X24123Y-6465D01*
X23736Y-6388D01*
D02*
G37*
G36*
X30500Y-41582D02*
X29500D01*
X29149Y-41652D01*
X29070Y-41705D01*
X29059Y-41700D01*
X28541D01*
X28064Y-41898D01*
X27698Y-42264D01*
X27500Y-42741D01*
Y-43259D01*
X27698Y-43736D01*
X28064Y-44102D01*
X28541Y-44300D01*
X29059D01*
X29070Y-44295D01*
X29149Y-44348D01*
X29500Y-44418D01*
X30500D01*
X30851Y-44348D01*
X31149Y-44149D01*
X31348Y-43851D01*
X31418Y-43500D01*
Y-42500D01*
X31348Y-42149D01*
X31149Y-41851D01*
X30851Y-41652D01*
X30500Y-41582D01*
D02*
G37*
%LPD*%
G36*
X23644Y-13739D02*
X23596Y-13793D01*
X23593Y-13797D01*
X23736Y-13893D01*
X23696Y-13886D01*
X23659Y-13882D01*
X23624Y-13880D01*
X23591Y-13880D01*
X23561Y-13884D01*
X23534Y-13889D01*
X23517Y-13921D01*
X23485Y-13995D01*
X23458Y-14077D01*
X23436Y-14166D01*
X23419Y-14261D01*
X23408Y-14364D01*
X23401Y-14474D01*
X23400Y-14591D01*
X22509Y-13700D01*
X22626Y-13699D01*
X22839Y-13681D01*
X22934Y-13664D01*
X23023Y-13642D01*
X23105Y-13615D01*
X23179Y-13583D01*
X23203Y-13570D01*
X23203Y-13566D01*
X23202Y-13553D01*
X23198Y-13541D01*
X23191Y-13529D01*
X23230Y-13555D01*
X23247Y-13546D01*
X23307Y-13504D01*
X23361Y-13456D01*
X23644Y-13739D01*
D02*
G37*
D11*
X37500Y-46000D02*
X38900D01*
X40100Y-44800D01*
Y-42500D01*
X41600Y-41000D01*
X42800D01*
X44016Y-39784D01*
Y-38257D01*
X32160Y-50260D02*
X33500Y-48920D01*
Y-46000D01*
X3700Y-47700D02*
X13500Y-57500D01*
X7500Y43500D02*
X9773D01*
X3500Y38100D02*
X8600Y33000D01*
X13000D02*
X16000Y30000D01*
X8600Y33000D02*
X13000D01*
X3500Y38100D02*
Y41500D01*
X5500Y43500D01*
X7500D01*
X8500Y44500D02*
X9500D01*
X7500Y43500D02*
X8500Y44500D01*
X16000Y30000D02*
X16500D01*
X60500Y-7500D02*
X66500D01*
X70000Y-19800D02*
Y-11000D01*
X66500Y-7500D02*
X70000Y-11000D01*
X66800Y-29200D02*
Y-23000D01*
X70000Y-19800D01*
X-23563Y66437D02*
X22000D01*
X-41700Y34700D02*
Y48300D01*
X-23563Y66437D01*
X48700Y-53100D02*
X56700Y-45100D01*
X47550Y-53100D02*
X48700D01*
X56700Y-45100D02*
Y-39300D01*
X45100Y-53100D02*
X47550D01*
X19000Y-20800D02*
X21000Y-22800D01*
X21100D01*
X-41700Y34700D02*
X-37200Y30200D01*
Y-8400D02*
Y30200D01*
Y-8400D02*
X-23555Y-22045D01*
Y-27300D02*
Y-22045D01*
X53264Y-10350D02*
X54413Y-11500D01*
X59500D01*
Y-8500D01*
X60500Y-7500D01*
X56700Y-39300D02*
X66800Y-29200D01*
X43500Y-51500D02*
X45100Y-53100D01*
X43500Y-51500D02*
Y-49000D01*
X21100Y-22800D02*
X23300Y-20600D01*
X27400D01*
X30000Y-18000D01*
X16650Y26264D02*
X21764D01*
X23736Y28236D01*
Y33350D01*
X16650Y26264D02*
Y29850D01*
X16500Y30000D02*
X16650Y29850D01*
X-23555Y-27300D02*
X-13400D01*
X-27850Y-31594D02*
X-23555Y-27300D01*
X-27850Y-31594D02*
Y-29450D01*
X-13400Y-27300D02*
X-10121Y-30579D01*
X-4921D01*
X-28950Y-28350D02*
X-27850Y-29450D01*
X-31095Y-28350D02*
X-28950D01*
X-31095Y-24595D02*
X-30000Y-23500D01*
X-31095Y-28350D02*
Y-24595D01*
X8000Y3500D02*
X9700D01*
X7500D02*
X8000D01*
X4000Y0D02*
X7500Y3500D01*
X4000Y-2500D02*
Y0D01*
X9700Y3500D02*
X10810Y4610D01*
X16650D01*
X8000Y-2500D02*
Y500D01*
Y-5500D02*
Y-2500D01*
Y500D02*
X9500D01*
X11642Y2642D01*
X16650D01*
X35235Y-62000D02*
X39494Y-57740D01*
X31500Y-62000D02*
X35235D01*
X20000Y-57500D02*
X23500D01*
X13500D02*
X20000D01*
X28095Y-50260D02*
X32160D01*
X34000Y-52100D01*
Y-56000D02*
Y-52100D01*
X32260Y-57740D02*
X34000Y-56000D01*
X28095Y-57740D02*
X32260D01*
X27854Y-57500D02*
X28095Y-57740D01*
X23500Y-57500D02*
X27854D01*
X3700Y-47700D02*
Y-39200D01*
X-4921Y-30579D02*
X3700Y-39200D01*
X-4921Y-30579D02*
Y-23600D01*
D18*
X22100Y-29500D02*
D03*
Y-25500D02*
D03*
X23500Y-53500D02*
D03*
Y-57500D02*
D03*
X20000Y-53500D02*
D03*
Y-57500D02*
D03*
X59500Y34000D02*
D03*
Y30000D02*
D03*
X16500Y34000D02*
D03*
Y30000D02*
D03*
X62500Y34000D02*
D03*
Y30000D02*
D03*
X30000Y-39000D02*
D03*
Y-43000D02*
D03*
X50500D02*
D03*
Y-47000D02*
D03*
D19*
X33500Y-46000D02*
D03*
X37500D02*
D03*
X47500Y-49000D02*
D03*
X43500D02*
D03*
X47500Y-46000D02*
D03*
X43500D02*
D03*
X27500Y-62000D02*
D03*
X31500D02*
D03*
X63500Y-11500D02*
D03*
X59500D02*
D03*
X4000Y-2500D02*
D03*
X8000D02*
D03*
X4000Y500D02*
D03*
X8000D02*
D03*
Y-5500D02*
D03*
X4000D02*
D03*
X8000Y3500D02*
D03*
X4000D02*
D03*
X11500Y41000D02*
D03*
X15500D02*
D03*
X13500Y44500D02*
D03*
X9500D02*
D03*
X8000Y6500D02*
D03*
X4000D02*
D03*
X-5000Y29500D02*
D03*
X-1000D02*
D03*
X63500Y-14500D02*
D03*
X59500D02*
D03*
X4000Y9500D02*
D03*
X8000D02*
D03*
X-56500Y17500D02*
D03*
X-52500D02*
D03*
X-56500Y21500D02*
D03*
X-52500D02*
D03*
X-30000Y-23500D02*
D03*
X-34000D02*
D03*
X-56500Y-8500D02*
D03*
X-52500D02*
D03*
X-56500Y-4500D02*
D03*
X-52500D02*
D03*
X-56500Y-500D02*
D03*
X-52500D02*
D03*
X-30000Y-51500D02*
D03*
X-34000D02*
D03*
X33500Y-43000D02*
D03*
X37500D02*
D03*
X30000Y-36000D02*
D03*
X26000D02*
D03*
X43500Y-43000D02*
D03*
X47500D02*
D03*
X59500Y-17500D02*
D03*
X63500D02*
D03*
X30000Y-18000D02*
D03*
X26000D02*
D03*
X59500Y-23500D02*
D03*
X63500D02*
D03*
X59500Y-20500D02*
D03*
X63500D02*
D03*
D20*
X-5945Y42965D02*
D03*
X-24055D02*
D03*
D21*
X-18937Y34500D02*
D03*
X-11063D02*
D03*
X-15000D02*
D03*
D22*
X22500Y70374D02*
D03*
Y66437D02*
D03*
Y62500D02*
D03*
Y58563D02*
D03*
D23*
X8000Y74937D02*
D03*
Y54000D02*
D03*
D24*
X-15000Y27500D02*
D03*
D25*
X-12441Y-19449D02*
D03*
D26*
X-44921Y27016D02*
D03*
D27*
Y-18169D02*
D03*
D28*
X-9094Y26221D02*
D03*
D29*
X-2894Y-17874D02*
D03*
D30*
X-45413Y21791D02*
D03*
Y17461D02*
D03*
Y13130D02*
D03*
Y8799D02*
D03*
Y4468D02*
D03*
Y138D02*
D03*
Y-4193D02*
D03*
Y-8524D02*
D03*
D31*
X23736Y33350D02*
D03*
X25705D02*
D03*
X27673D02*
D03*
X29642D02*
D03*
X31610D02*
D03*
X33579D02*
D03*
X35547D02*
D03*
X37516D02*
D03*
X39484D02*
D03*
X41453D02*
D03*
X43421D02*
D03*
X45390D02*
D03*
X47358D02*
D03*
X49327D02*
D03*
X51295D02*
D03*
X53264D02*
D03*
Y-10350D02*
D03*
X51295D02*
D03*
X49327D02*
D03*
X47358D02*
D03*
X45390D02*
D03*
X43421D02*
D03*
X41453D02*
D03*
X39484D02*
D03*
X37516D02*
D03*
X35547D02*
D03*
X33579D02*
D03*
X31610D02*
D03*
X29642D02*
D03*
X27673D02*
D03*
X25705D02*
D03*
X23736D02*
D03*
D32*
X60350Y26264D02*
D03*
Y24295D02*
D03*
Y22327D02*
D03*
Y20358D02*
D03*
Y18390D02*
D03*
Y16421D02*
D03*
Y14453D02*
D03*
Y12484D02*
D03*
Y10516D02*
D03*
Y8547D02*
D03*
Y6579D02*
D03*
Y4610D02*
D03*
Y2642D02*
D03*
Y673D02*
D03*
Y-1295D02*
D03*
Y-3264D02*
D03*
X16650D02*
D03*
Y-1295D02*
D03*
Y673D02*
D03*
Y2642D02*
D03*
Y4610D02*
D03*
Y6579D02*
D03*
Y8547D02*
D03*
Y10516D02*
D03*
Y12484D02*
D03*
Y14453D02*
D03*
Y16421D02*
D03*
Y18390D02*
D03*
Y20358D02*
D03*
Y22327D02*
D03*
Y24295D02*
D03*
Y26264D02*
D03*
D33*
X39494Y-57740D02*
D03*
Y-50260D02*
D03*
X28095D02*
D03*
Y-54000D02*
D03*
Y-57740D02*
D03*
D34*
X18563Y-36000D02*
D03*
X-18563D02*
D03*
D35*
X6890Y-23600D02*
D03*
X4921D02*
D03*
X2953D02*
D03*
X984D02*
D03*
X-984D02*
D03*
X-2953D02*
D03*
X-4921D02*
D03*
X-6890D02*
D03*
D36*
X6000Y22740D02*
D03*
X28000Y-23260D02*
D03*
D37*
X6000Y19000D02*
D03*
Y15260D02*
D03*
X28000Y-27000D02*
D03*
Y-30740D02*
D03*
D38*
X2760Y29594D02*
D03*
X10240D02*
D03*
X6500Y39406D02*
D03*
D39*
X-27850Y-43406D02*
D03*
Y-41437D02*
D03*
Y-39469D02*
D03*
Y-37500D02*
D03*
Y-35531D02*
D03*
Y-33563D02*
D03*
Y-31594D02*
D03*
X-46150D02*
D03*
Y-33563D02*
D03*
Y-35531D02*
D03*
Y-37500D02*
D03*
Y-39469D02*
D03*
Y-41437D02*
D03*
Y-43406D02*
D03*
D40*
X-31095Y-28350D02*
D03*
X-33063D02*
D03*
X-35032D02*
D03*
X-37000D02*
D03*
X-38969D02*
D03*
X-40937D02*
D03*
X-42906D02*
D03*
Y-46650D02*
D03*
X-40937D02*
D03*
X-38969D02*
D03*
X-37000D02*
D03*
X-35032D02*
D03*
X-33063D02*
D03*
X-31095D02*
D03*
D41*
X-37000Y-37500D02*
D03*
D42*
X38110Y-38257D02*
D03*
D43*
X40079D02*
D03*
X42047D02*
D03*
X44016D02*
D03*
X45984D02*
D03*
X47953D02*
D03*
X49921D02*
D03*
X51890D02*
D03*
Y-19743D02*
D03*
X49921D02*
D03*
X47953D02*
D03*
X45984D02*
D03*
X44016D02*
D03*
X42047D02*
D03*
X40079D02*
D03*
X38110D02*
D03*
D44*
X54257Y-35890D02*
D03*
Y-33921D02*
D03*
Y-31953D02*
D03*
Y-29984D02*
D03*
Y-28016D02*
D03*
Y-26047D02*
D03*
Y-24079D02*
D03*
Y-22110D02*
D03*
X35743D02*
D03*
Y-24079D02*
D03*
Y-26047D02*
D03*
Y-28016D02*
D03*
Y-29984D02*
D03*
Y-31953D02*
D03*
Y-33921D02*
D03*
Y-35890D02*
D03*
D69*
X45000Y-29000D02*
D03*
D70*
X22100Y-29500D02*
X23340Y-30740D01*
X28000D01*
X22100Y-25500D02*
X24340Y-23260D01*
X28000D01*
X-16500Y55000D02*
X-14100D01*
X-18937Y52563D02*
X-16500Y55000D01*
X-14100D02*
X-12300Y53200D01*
X-15500Y47400D02*
Y52900D01*
X-18000Y40103D02*
Y44900D01*
X-15500Y47400D01*
X-18937Y34500D02*
Y52563D01*
X-12300Y50700D02*
Y53200D01*
Y50700D02*
X-11200Y49600D01*
X3800D01*
X4900Y50700D01*
X3774Y48300D02*
X5274Y49800D01*
X1337Y43600D02*
X5937Y48200D01*
X30969Y49800D02*
X38769Y42000D01*
X-1931Y39200D02*
X6269Y47400D01*
X-2900Y37100D02*
X6600Y46600D01*
X5274Y49800D02*
X30969D01*
X6600Y46600D02*
X26900D01*
X5606Y49000D02*
X30637D01*
X5937Y48200D02*
X30306D01*
X4106Y47500D02*
X5606Y49000D01*
X6269Y47400D02*
X28000D01*
X30637Y49000D02*
X41453Y38184D01*
X28000Y47400D02*
X35547Y39853D01*
X26900Y46600D02*
X33579Y39921D01*
X30306Y48200D02*
X39484Y39022D01*
X-7400Y47500D02*
X4106D01*
X-10500Y39200D02*
X-1931D01*
X-4200Y37100D02*
X-2900D01*
X-200Y43600D02*
X1337D01*
X-13054Y48300D02*
X3774D01*
X4900Y50700D02*
X31200D01*
X39100Y42800D01*
X41453Y33350D02*
Y38184D01*
X39484Y33350D02*
Y39022D01*
X38769Y42000D02*
X52000D01*
X39100Y42800D02*
X52500D01*
X52000Y42000D02*
X55600Y38400D01*
X52500Y42800D02*
X56400Y38900D01*
Y29051D02*
Y38900D01*
X55600Y29818D02*
Y38400D01*
X54200Y28418D02*
X55600Y29818D01*
X55100Y27751D02*
X56400Y29051D01*
X55100Y23800D02*
Y27751D01*
Y23800D02*
X56573Y22327D01*
X60350D01*
X54200Y19800D02*
Y28418D01*
X-15000Y34500D02*
Y37103D01*
X-18000Y40103D02*
X-15000Y37103D01*
X-16900Y44454D02*
X-13054Y48300D01*
X-16900Y40800D02*
Y44454D01*
Y40800D02*
X-14500Y38400D01*
X52200Y38700D02*
X53264Y37636D01*
Y33350D02*
Y37636D01*
X-14500Y38400D02*
X-8400D01*
X-11000Y43900D02*
X-7400Y47500D01*
X-8400Y38400D02*
X-1000Y31000D01*
Y29500D02*
Y31000D01*
X-12400Y41100D02*
X-10500Y39200D01*
X-1300Y42500D02*
X-200Y43600D01*
X-1000Y29500D02*
X2665D01*
X12400Y36400D02*
X15500Y39500D01*
Y41000D01*
X6500Y39406D02*
X8095Y41000D01*
X11500D01*
X27000Y55000D02*
Y60000D01*
X24500Y62500D02*
X27000Y60000D01*
X22500Y62500D02*
X24500D01*
X-22500Y-30300D02*
X-14800D01*
X-23700Y-35600D02*
Y-31500D01*
X-22500Y-30300D01*
X20000Y-6800D02*
X29642Y2842D01*
X12900Y-6000D02*
X19669D01*
X13231Y-6800D02*
X20000D01*
X29642Y2842D02*
Y33350D01*
X19669Y-6000D02*
X27673Y2005D01*
Y37927D01*
X3400Y-16631D02*
X13231Y-6800D01*
X1300Y-17600D02*
X12900Y-6000D01*
X1300Y-19300D02*
Y-17600D01*
X3400Y-18600D02*
Y-16631D01*
X35547Y-10350D02*
Y17253D01*
X31600Y21200D02*
X35547Y17253D01*
X59500Y-17500D02*
X61500Y-15500D01*
Y-13500D01*
X59500Y-11500D02*
X61500Y-13500D01*
X-56500Y2500D02*
Y17500D01*
Y-500D02*
Y2500D01*
X-54532Y4468D01*
X-45413D01*
X60350Y24295D02*
X64495D01*
X65600Y25400D01*
Y26900D01*
X62500Y30000D02*
X65600Y26900D01*
X59500Y27114D02*
X60350Y26264D01*
X59500Y27114D02*
Y30000D01*
X54257Y-22110D02*
X55290D01*
X55800Y-21600D02*
Y-20567D01*
X55290Y-22110D02*
X55800Y-21600D01*
X29642Y33350D02*
Y38658D01*
X47353Y8547D02*
X60350D01*
X44700Y10500D02*
X60335D01*
X60350Y10516D01*
X49327Y33350D02*
Y37810D01*
X47358Y33350D02*
Y39658D01*
X45390Y33350D02*
Y37810D01*
X32700Y24100D02*
X40600D01*
X43421Y26921D01*
Y33350D01*
X33500Y-38133D02*
X35743Y-35890D01*
X33500Y-43000D02*
Y-38133D01*
X31039Y-34961D02*
X32079Y-33921D01*
X30000Y-36000D02*
X31039Y-34961D01*
X-984Y-23600D02*
Y-21584D01*
X1300Y-19300D01*
X28800Y39500D02*
X29642Y38658D01*
X26100Y39500D02*
X27673Y37927D01*
X-30000Y-51500D02*
X-28700Y-50200D01*
X51700Y14500D02*
X51747Y14453D01*
X60350D01*
X53521Y16421D02*
X60350D01*
X33579Y33350D02*
Y39921D01*
X35547Y33350D02*
Y39853D01*
X54200Y19800D02*
X55610Y18390D01*
X60350D01*
X-56500Y17500D02*
Y21500D01*
Y-4500D02*
Y-500D01*
Y-8500D02*
Y-4500D01*
X-52500Y21500D02*
X-45705D01*
X-52500Y17500D02*
X-45453D01*
X-51862Y138D02*
X-45413D01*
X-52500Y-500D02*
X-51862Y138D01*
X-52500Y-4500D02*
X-45720D01*
X-52476Y-8524D02*
X-45413D01*
X-38100Y-50900D02*
X-37000Y-49800D01*
Y-46650D01*
X500Y-30700D02*
Y-28300D01*
X2953Y-25847D02*
Y-23600D01*
X500Y-28300D02*
X2953Y-25847D01*
X-1300Y-28700D02*
X984Y-26416D01*
Y-23600D01*
X-9600Y-35500D02*
X-4300D01*
X-14800Y-30300D02*
X-9600Y-35500D01*
X-25600Y-37500D02*
X-23700Y-35600D01*
X-27850Y-37500D02*
X-25600D01*
X-9900Y-33200D02*
X-6800D01*
X-14200Y-28900D02*
X-9900Y-33200D01*
X-23000Y-28900D02*
X-14200D01*
X-24800Y-30700D02*
X-23000Y-28900D01*
X-24800Y-34400D02*
Y-30700D01*
X-25932Y-35531D02*
X-24800Y-34400D01*
X-27850Y-35531D02*
X-25932D01*
X-34000Y-23500D02*
X-33063Y-24437D01*
Y-28350D02*
Y-24437D01*
X-35032Y-50468D02*
X-34000Y-51500D01*
X-35032Y-50468D02*
Y-46650D01*
X4921Y-27579D02*
Y-23600D01*
X59500Y-22000D02*
Y-20500D01*
Y-23500D02*
Y-22000D01*
X28000Y-23260D02*
X30060D01*
X32847Y-26047D02*
X35743D01*
X30060Y-23260D02*
X32847Y-26047D01*
X28000Y-30740D02*
X30060D01*
X32784Y-28016D02*
X35743D01*
X30060Y-30740D02*
X32784Y-28016D01*
X8000Y9500D02*
Y9900D01*
X12553Y14453D02*
X16650D01*
X8000Y9900D02*
X12553Y14453D01*
X8000Y6500D02*
Y9500D01*
X6000Y15260D02*
X10160D01*
X11321Y16421D01*
X16650D01*
X6000Y22740D02*
X8660D01*
X13010Y18390D01*
X16650D01*
Y12484D02*
X22016D01*
X16650Y8547D02*
X22247D01*
X21021Y6579D02*
X22300Y5300D01*
X16650Y6579D02*
X21021D01*
X31610Y-14990D02*
Y-10350D01*
X54257Y-29984D02*
X56353D01*
X54257Y-31953D02*
X59016D01*
X54257Y-28016D02*
X59016D01*
X54257Y-26047D02*
X56353D01*
X59414Y-4200D02*
X60350Y-3264D01*
X58400Y-4200D02*
X59414D01*
X37516Y27984D02*
Y33350D01*
X55800Y-1300D02*
X55805Y-1295D01*
X60350D01*
X49921Y-19743D02*
Y-16521D01*
X45984Y-19743D02*
Y-16916D01*
X49327Y-13573D02*
Y-10350D01*
X45984Y-16916D02*
X49327Y-13573D01*
X47358Y-14142D02*
Y-10350D01*
X44016Y-19743D02*
Y-17484D01*
X47358Y-14142D01*
X22500Y-14600D02*
X23736Y-13364D01*
Y-10350D01*
X35743Y-22110D02*
Y-20443D01*
X33300Y-18000D02*
X35743Y-20443D01*
X30000Y-18000D02*
X33300D01*
X27673Y-15673D02*
X30000Y-18000D01*
X27673Y-15673D02*
Y-10350D01*
X40079Y-19743D02*
Y-15821D01*
X41453Y-14447D01*
Y-10350D01*
X42047Y-19743D02*
X42100Y-19690D01*
Y-15800D01*
X43421Y-14479D01*
Y-10350D01*
X57500Y-14500D02*
X59500D01*
X56600Y-15400D02*
X57500Y-14500D01*
X52400Y-15400D02*
X56600D01*
X51295Y-14295D02*
X52400Y-15400D01*
X51295Y-14295D02*
Y-10350D01*
X55800Y-20567D02*
Y-19100D01*
X57400Y-17500D01*
X59500D01*
X58921Y-24079D02*
X59500Y-23500D01*
X54257Y-24079D02*
X58921D01*
X51800Y-43000D02*
X54257Y-40543D01*
Y-35890D01*
X43500Y-43000D02*
X43700D01*
X45800Y-40900D01*
X46900D01*
X47953Y-39847D01*
Y-38257D01*
X32079Y-33921D02*
X35743D01*
Y-31953D01*
D71*
X40000Y-50000D02*
X41240Y-48760D01*
X43500Y-44500D02*
Y-43000D01*
Y-46000D02*
Y-44500D01*
X30000Y-39000D02*
Y-36000D01*
X43500Y-49000D02*
Y-46000D01*
X43260Y-48760D02*
X43500Y-49000D01*
X41240Y-48760D02*
X43260D01*
D72*
X17800Y37600D02*
D03*
X10400Y30400D02*
D03*
X-8100Y30800D02*
D03*
X-5500Y44100D02*
D03*
X-15500Y52900D02*
D03*
X52200Y38700D02*
D03*
X-11000Y43900D02*
D03*
X-4200Y37100D02*
D03*
X6500Y30500D02*
D03*
X12400Y36400D02*
D03*
X1700D02*
D03*
X4000Y34500D02*
D03*
X7500Y43500D02*
D03*
X27000Y55000D02*
D03*
X26000Y-34500D02*
D03*
X23700Y-32700D02*
D03*
X11000Y25000D02*
D03*
X0Y13500D02*
D03*
Y19000D02*
D03*
Y24000D02*
D03*
X11000Y-2500D02*
D03*
X22000Y40000D02*
D03*
Y43000D02*
D03*
X-15000Y42500D02*
D03*
X-13000Y30500D02*
D03*
X-16900D02*
D03*
X16000Y35000D02*
D03*
X14500Y44000D02*
D03*
X-48500Y13000D02*
D03*
X-40000Y15000D02*
D03*
X-50500Y-24000D02*
D03*
X-54500D02*
D03*
X-58500D02*
D03*
Y-20000D02*
D03*
X-54500D02*
D03*
X-50500D02*
D03*
Y-16000D02*
D03*
X-54500D02*
D03*
X-58500D02*
D03*
X2500Y-13000D02*
D03*
X4500Y-10500D02*
D03*
X19500Y-64500D02*
D03*
X23000D02*
D03*
Y-61500D02*
D03*
X19500D02*
D03*
X17000Y-54500D02*
D03*
X14500D02*
D03*
X37000D02*
D03*
X20000Y-55000D02*
D03*
X23500D02*
D03*
X30500Y-54000D02*
D03*
X27000D02*
D03*
X-4000Y-41000D02*
D03*
X-8000D02*
D03*
X-21000Y-36000D02*
D03*
X-18000D02*
D03*
Y-33000D02*
D03*
X-21000D02*
D03*
X-40000Y-39000D02*
D03*
X-36000D02*
D03*
Y-35000D02*
D03*
X-40000D02*
D03*
X-25000Y2000D02*
D03*
X-21000D02*
D03*
X-17000D02*
D03*
X-13000D02*
D03*
X-9000D02*
D03*
Y-2000D02*
D03*
X-13000D02*
D03*
X-17000D02*
D03*
X-21000D02*
D03*
X-25000D02*
D03*
Y-6000D02*
D03*
X-21000D02*
D03*
X-17000D02*
D03*
X-13000D02*
D03*
X-9000D02*
D03*
Y15000D02*
D03*
X-13000D02*
D03*
X-17000D02*
D03*
X-21000D02*
D03*
X-25000D02*
D03*
Y19000D02*
D03*
X-21000D02*
D03*
X-17000D02*
D03*
X-13000D02*
D03*
X-9000D02*
D03*
Y23000D02*
D03*
X-13000D02*
D03*
X-17000D02*
D03*
X-21000D02*
D03*
X-25000D02*
D03*
X15900Y-23100D02*
D03*
X12000Y-21000D02*
D03*
Y-18000D02*
D03*
Y-15000D02*
D03*
X25000Y-40000D02*
D03*
X7000D02*
D03*
X12000D02*
D03*
Y-35000D02*
D03*
X7000D02*
D03*
X45000Y-32000D02*
D03*
X41000D02*
D03*
Y-29000D02*
D03*
X45000D02*
D03*
Y-26000D02*
D03*
X41000D02*
D03*
X66000Y-18000D02*
D03*
Y-15000D02*
D03*
Y-12000D02*
D03*
X49000Y0D02*
D03*
Y4000D02*
D03*
X41000Y0D02*
D03*
X45000D02*
D03*
Y4000D02*
D03*
X41000D02*
D03*
X32000Y-1000D02*
D03*
Y3000D02*
D03*
Y7000D02*
D03*
Y11000D02*
D03*
X24000Y17000D02*
D03*
Y20000D02*
D03*
X35000Y21000D02*
D03*
X34000Y27000D02*
D03*
X41000Y14000D02*
D03*
X39000Y16000D02*
D03*
X50000Y19000D02*
D03*
X46000D02*
D03*
Y22000D02*
D03*
X50000D02*
D03*
Y25000D02*
D03*
X46000D02*
D03*
X59000Y37000D02*
D03*
X42000Y53000D02*
D03*
X39000Y56000D02*
D03*
X36000Y59000D02*
D03*
X21000Y53000D02*
D03*
X17000D02*
D03*
X13000D02*
D03*
X0Y57000D02*
D03*
Y60000D02*
D03*
Y63000D02*
D03*
X-4000D02*
D03*
Y60000D02*
D03*
Y57000D02*
D03*
X-8000D02*
D03*
Y60000D02*
D03*
Y63000D02*
D03*
X22000Y75000D02*
D03*
X18000D02*
D03*
X14000D02*
D03*
X-19000Y71000D02*
D03*
X-15000D02*
D03*
X-11000D02*
D03*
X-7000D02*
D03*
X-3000D02*
D03*
Y75000D02*
D03*
X-7000D02*
D03*
X-11000D02*
D03*
X-15000D02*
D03*
X-19000D02*
D03*
X31600Y21200D02*
D03*
X47550Y-53100D02*
D03*
X45100D02*
D03*
X19000Y-20800D02*
D03*
X-42300Y4300D02*
D03*
X2600Y6500D02*
D03*
X22900Y34200D02*
D03*
X59500Y27114D02*
D03*
X55800Y-20567D02*
D03*
X-42600Y17400D02*
D03*
Y21800D02*
D03*
X47353Y8547D02*
D03*
X44700Y10500D02*
D03*
X-42300Y-8500D02*
D03*
X-42200Y-4200D02*
D03*
X-48700Y8800D02*
D03*
X49327Y37810D02*
D03*
X47358Y39658D02*
D03*
X45390Y37810D02*
D03*
X-48700Y0D02*
D03*
X32700Y24100D02*
D03*
X21100Y-22800D02*
D03*
X4000Y-6400D02*
D03*
X43500Y-44500D02*
D03*
X31039Y-34961D02*
D03*
X3400Y-18600D02*
D03*
X-2900Y-26600D02*
D03*
X20400Y58600D02*
D03*
X28800Y39500D02*
D03*
X26100D02*
D03*
X-28700Y-50200D02*
D03*
X51700Y14500D02*
D03*
X53521Y16421D02*
D03*
X-34900Y50600D02*
D03*
X-12400Y41100D02*
D03*
X-1300Y42500D02*
D03*
X-38100Y-50900D02*
D03*
X500Y-30700D02*
D03*
X-1300Y-28700D02*
D03*
X-4300Y-35500D02*
D03*
X-6800Y-33200D02*
D03*
X4900Y-27600D02*
D03*
X7100Y-21200D02*
D03*
X59500Y-22000D02*
D03*
X33700Y-24000D02*
D03*
Y-30000D02*
D03*
X26200Y-27000D02*
D03*
X4200Y19000D02*
D03*
X22300Y5300D02*
D03*
Y8600D02*
D03*
X22100Y12400D02*
D03*
X31600Y-15000D02*
D03*
X56400Y-29937D02*
D03*
X59016Y-31953D02*
D03*
Y-28016D02*
D03*
X56400Y-26000D02*
D03*
X58400Y-4200D02*
D03*
X37516Y27984D02*
D03*
X55800Y-1300D02*
D03*
X52500Y-19500D02*
D03*
X49921Y-16521D02*
D03*
X47900Y-18200D02*
D03*
X22500Y-14600D02*
D03*
X37600Y-18400D02*
D03*
X52500Y-38500D02*
D03*
X49900Y-40000D02*
D03*
X51800Y-43000D02*
D03*
X28800D02*
D03*
M02*
