G04*
G04 #@! TF.GenerationSoftware,Altium Limited,Altium Designer,22.0.2 (36)*
G04*
G04 Layer_Color=16711935*
%FSLAX25Y25*%
%MOIN*%
G70*
G04*
G04 #@! TF.SameCoordinates,9873FD8C-C369-40C8-B75A-0789E1F0109A*
G04*
G04*
G04 #@! TF.FilePolarity,Positive*
G04*
G01*
G75*
%ADD11C,0.01000*%
%ADD75C,0.00000*%
D11*
X25464Y77901D02*
G03*
X22056Y79871I-3410J-1968D01*
G01*
X-22187Y79887D02*
G03*
X-25603Y77909I-1J-3937D01*
G01*
X-32721Y65358D02*
G03*
X32651Y65393I32721J-66358D01*
G01*
X-22187Y79887D02*
X22056Y79871D01*
X-29213Y71615D02*
X-25603Y77909D01*
X-32758Y65433D02*
X-29213Y71615D01*
X29088Y71622D02*
X32665Y65422D01*
X25464Y77901D02*
X29088Y71622D01*
D75*
X-43505Y-47350D02*
X-42305D01*
X-43505D02*
X-42305D01*
X-41537D02*
X-40337D01*
X-41537D02*
X-40337D01*
X-39568D02*
X-38368D01*
X-39568D02*
X-38368D01*
X-37600D02*
X-36400D01*
X-37600D02*
X-36400D01*
X-35631D02*
X-34431D01*
X-35631D02*
X-34431D01*
X-33663D02*
X-32463D01*
X-33663D02*
X-32463D01*
X-31694D02*
X-30494D01*
X-31694D02*
X-30494D01*
X-27150Y-44006D02*
Y-42805D01*
Y-44006D02*
Y-42805D01*
Y-42037D02*
Y-40837D01*
Y-42037D02*
Y-40837D01*
Y-40069D02*
Y-38868D01*
Y-40069D02*
Y-38868D01*
Y-38100D02*
Y-36900D01*
Y-38100D02*
Y-36900D01*
Y-36132D02*
Y-34931D01*
Y-36132D02*
Y-34931D01*
Y-34163D02*
Y-32963D01*
Y-34163D02*
Y-32963D01*
Y-32195D02*
Y-30994D01*
Y-32195D02*
Y-30994D01*
X-31694Y-27650D02*
X-30494D01*
X-31694D02*
X-30494D01*
X-33663D02*
X-32463D01*
X-33663D02*
X-32463D01*
X-35631D02*
X-34431D01*
X-35631D02*
X-34431D01*
X-37600D02*
X-36400D01*
X-37600D02*
X-36400D01*
X-39568D02*
X-38368D01*
X-39568D02*
X-38368D01*
X-41537D02*
X-40337D01*
X-41537D02*
X-40337D01*
X-43505D02*
X-42305D01*
X-43505D02*
X-42305D01*
X-46850Y-32195D02*
Y-30994D01*
Y-32195D02*
Y-30994D01*
Y-34163D02*
Y-32963D01*
Y-34163D02*
Y-32963D01*
Y-36132D02*
Y-34931D01*
Y-36132D02*
Y-34931D01*
Y-38100D02*
Y-36900D01*
Y-38100D02*
Y-36900D01*
Y-40069D02*
Y-38868D01*
Y-40069D02*
Y-38868D01*
Y-42037D02*
Y-40837D01*
Y-42037D02*
Y-40837D01*
Y-44006D02*
Y-42805D01*
Y-44006D02*
Y-42805D01*
Y-27650D02*
X-27150D01*
X-46850Y-47350D02*
Y-27650D01*
Y-47350D02*
X-27150D01*
Y-27650D01*
M02*
