G04*
G04 #@! TF.GenerationSoftware,Altium Limited,Altium Designer,22.0.2 (36)*
G04*
G04 Layer_Color=128*
%FSLAX25Y25*%
%MOIN*%
G70*
G04*
G04 #@! TF.SameCoordinates,9873FD8C-C369-40C8-B75A-0789E1F0109A*
G04*
G04*
G04 #@! TF.FilePolarity,Positive*
G04*
G01*
G75*
%ADD77C,0.00200*%
D77*
X17300Y37600D02*
X18300D01*
X17800Y37100D02*
Y38100D01*
X9900Y30400D02*
X10900D01*
X10400Y29900D02*
Y30900D01*
X-8600Y30800D02*
X-7600D01*
X-8100Y30300D02*
Y31300D01*
X-6000Y44100D02*
X-5000D01*
X-5500Y43600D02*
Y44600D01*
X-16000Y52900D02*
X-15000D01*
X-15500Y52400D02*
Y53400D01*
X51700Y38700D02*
X52700D01*
X52200Y38200D02*
Y39200D01*
X-11500Y43900D02*
X-10500D01*
X-11000Y43400D02*
Y44400D01*
X-4700Y37100D02*
X-3700D01*
X-4200Y36600D02*
Y37600D01*
X6000Y30500D02*
X7000D01*
X6500Y30000D02*
Y31000D01*
X11900Y36400D02*
X12900D01*
X12400Y35900D02*
Y36900D01*
X1200Y36400D02*
X2200D01*
X1700Y35900D02*
Y36900D01*
X3500Y34500D02*
X4500D01*
X4000Y34000D02*
Y35000D01*
X7000Y43500D02*
X8000D01*
X7500Y43000D02*
Y44000D01*
X26500Y55000D02*
X27500D01*
X27000Y54500D02*
Y55500D01*
X25500Y-34500D02*
X26500D01*
X26000Y-35000D02*
Y-34000D01*
X23200Y-32700D02*
X24200D01*
X23700Y-33200D02*
Y-32200D01*
X10500Y25000D02*
X11500D01*
X11000Y24500D02*
Y25500D01*
X-500Y13500D02*
X500D01*
X0Y13000D02*
Y14000D01*
X-500Y19000D02*
X500D01*
X0Y18500D02*
Y19500D01*
X-500Y24000D02*
X500D01*
X0Y23500D02*
Y24500D01*
X10500Y-2500D02*
X11500D01*
X11000Y-3000D02*
Y-2000D01*
X21500Y40000D02*
X22500D01*
X22000Y39500D02*
Y40500D01*
X21500Y43000D02*
X22500D01*
X22000Y42500D02*
Y43500D01*
X-15500Y42500D02*
X-14500D01*
X-15000Y42000D02*
Y43000D01*
X-13500Y30500D02*
X-12500D01*
X-13000Y30000D02*
Y31000D01*
X-17400Y30500D02*
X-16400D01*
X-16900Y30000D02*
Y31000D01*
X15500Y35000D02*
X16500D01*
X16000Y34500D02*
Y35500D01*
X14000Y44000D02*
X15000D01*
X14500Y43500D02*
Y44500D01*
X-49000Y13000D02*
X-48000D01*
X-48500Y12500D02*
Y13500D01*
X-40500Y15000D02*
X-39500D01*
X-40000Y14500D02*
Y15500D01*
X-51000Y-24000D02*
X-50000D01*
X-50500Y-24500D02*
Y-23500D01*
X-55000Y-24000D02*
X-54000D01*
X-54500Y-24500D02*
Y-23500D01*
X-59000Y-24000D02*
X-58000D01*
X-58500Y-24500D02*
Y-23500D01*
X-59000Y-20000D02*
X-58000D01*
X-58500Y-20500D02*
Y-19500D01*
X-55000Y-20000D02*
X-54000D01*
X-54500Y-20500D02*
Y-19500D01*
X-51000Y-20000D02*
X-50000D01*
X-50500Y-20500D02*
Y-19500D01*
X-51000Y-16000D02*
X-50000D01*
X-50500Y-16500D02*
Y-15500D01*
X-55000Y-16000D02*
X-54000D01*
X-54500Y-16500D02*
Y-15500D01*
X-59000Y-16000D02*
X-58000D01*
X-58500Y-16500D02*
Y-15500D01*
X2000Y-13000D02*
X3000D01*
X2500Y-13500D02*
Y-12500D01*
X4000Y-10500D02*
X5000D01*
X4500Y-11000D02*
Y-10000D01*
X19000Y-64500D02*
X20000D01*
X19500Y-65000D02*
Y-64000D01*
X22500Y-64500D02*
X23500D01*
X23000Y-65000D02*
Y-64000D01*
X22500Y-61500D02*
X23500D01*
X23000Y-62000D02*
Y-61000D01*
X19000Y-61500D02*
X20000D01*
X19500Y-62000D02*
Y-61000D01*
X16500Y-54500D02*
X17500D01*
X17000Y-55000D02*
Y-54000D01*
X14000Y-54500D02*
X15000D01*
X14500Y-55000D02*
Y-54000D01*
X36500Y-54500D02*
X37500D01*
X37000Y-55000D02*
Y-54000D01*
X19500Y-55000D02*
X20500D01*
X20000Y-55500D02*
Y-54500D01*
X23000Y-55000D02*
X24000D01*
X23500Y-55500D02*
Y-54500D01*
X30000Y-54000D02*
X31000D01*
X30500Y-54500D02*
Y-53500D01*
X26500Y-54000D02*
X27500D01*
X27000Y-54500D02*
Y-53500D01*
X-4500Y-41000D02*
X-3500D01*
X-4000Y-41500D02*
Y-40500D01*
X-8500Y-41000D02*
X-7500D01*
X-8000Y-41500D02*
Y-40500D01*
X-21500Y-36000D02*
X-20500D01*
X-21000Y-36500D02*
Y-35500D01*
X-18500Y-36000D02*
X-17500D01*
X-18000Y-36500D02*
Y-35500D01*
X-18500Y-33000D02*
X-17500D01*
X-18000Y-33500D02*
Y-32500D01*
X-21500Y-33000D02*
X-20500D01*
X-21000Y-33500D02*
Y-32500D01*
X-40500Y-39000D02*
X-39500D01*
X-40000Y-39500D02*
Y-38500D01*
X-36500Y-39000D02*
X-35500D01*
X-36000Y-39500D02*
Y-38500D01*
X-36500Y-35000D02*
X-35500D01*
X-36000Y-35500D02*
Y-34500D01*
X-40500Y-35000D02*
X-39500D01*
X-40000Y-35500D02*
Y-34500D01*
X-25500Y2000D02*
X-24500D01*
X-25000Y1500D02*
Y2500D01*
X-21500Y2000D02*
X-20500D01*
X-21000Y1500D02*
Y2500D01*
X-17500Y2000D02*
X-16500D01*
X-17000Y1500D02*
Y2500D01*
X-13500Y2000D02*
X-12500D01*
X-13000Y1500D02*
Y2500D01*
X-9500Y2000D02*
X-8500D01*
X-9000Y1500D02*
Y2500D01*
X-9500Y-2000D02*
X-8500D01*
X-9000Y-2500D02*
Y-1500D01*
X-13500Y-2000D02*
X-12500D01*
X-13000Y-2500D02*
Y-1500D01*
X-17500Y-2000D02*
X-16500D01*
X-17000Y-2500D02*
Y-1500D01*
X-21500Y-2000D02*
X-20500D01*
X-21000Y-2500D02*
Y-1500D01*
X-25500Y-2000D02*
X-24500D01*
X-25000Y-2500D02*
Y-1500D01*
X-25500Y-6000D02*
X-24500D01*
X-25000Y-6500D02*
Y-5500D01*
X-21500Y-6000D02*
X-20500D01*
X-21000Y-6500D02*
Y-5500D01*
X-17500Y-6000D02*
X-16500D01*
X-17000Y-6500D02*
Y-5500D01*
X-13500Y-6000D02*
X-12500D01*
X-13000Y-6500D02*
Y-5500D01*
X-9500Y-6000D02*
X-8500D01*
X-9000Y-6500D02*
Y-5500D01*
X-9500Y15000D02*
X-8500D01*
X-9000Y14500D02*
Y15500D01*
X-13500Y15000D02*
X-12500D01*
X-13000Y14500D02*
Y15500D01*
X-17500Y15000D02*
X-16500D01*
X-17000Y14500D02*
Y15500D01*
X-21500Y15000D02*
X-20500D01*
X-21000Y14500D02*
Y15500D01*
X-25500Y15000D02*
X-24500D01*
X-25000Y14500D02*
Y15500D01*
X-25500Y19000D02*
X-24500D01*
X-25000Y18500D02*
Y19500D01*
X-21500Y19000D02*
X-20500D01*
X-21000Y18500D02*
Y19500D01*
X-17500Y19000D02*
X-16500D01*
X-17000Y18500D02*
Y19500D01*
X-13500Y19000D02*
X-12500D01*
X-13000Y18500D02*
Y19500D01*
X-9500Y19000D02*
X-8500D01*
X-9000Y18500D02*
Y19500D01*
X-9500Y23000D02*
X-8500D01*
X-9000Y22500D02*
Y23500D01*
X-13500Y23000D02*
X-12500D01*
X-13000Y22500D02*
Y23500D01*
X-17500Y23000D02*
X-16500D01*
X-17000Y22500D02*
Y23500D01*
X-21500Y23000D02*
X-20500D01*
X-21000Y22500D02*
Y23500D01*
X-25500Y23000D02*
X-24500D01*
X-25000Y22500D02*
Y23500D01*
X15400Y-23100D02*
X16400D01*
X15900Y-23600D02*
Y-22600D01*
X11500Y-21000D02*
X12500D01*
X12000Y-21500D02*
Y-20500D01*
X11500Y-18000D02*
X12500D01*
X12000Y-18500D02*
Y-17500D01*
X11500Y-15000D02*
X12500D01*
X12000Y-15500D02*
Y-14500D01*
X24500Y-40000D02*
X25500D01*
X25000Y-40500D02*
Y-39500D01*
X6500Y-40000D02*
X7500D01*
X7000Y-40500D02*
Y-39500D01*
X11500Y-40000D02*
X12500D01*
X12000Y-40500D02*
Y-39500D01*
X11500Y-35000D02*
X12500D01*
X12000Y-35500D02*
Y-34500D01*
X6500Y-35000D02*
X7500D01*
X7000Y-35500D02*
Y-34500D01*
X44500Y-32000D02*
X45500D01*
X45000Y-32500D02*
Y-31500D01*
X40500Y-32000D02*
X41500D01*
X41000Y-32500D02*
Y-31500D01*
X40500Y-29000D02*
X41500D01*
X41000Y-29500D02*
Y-28500D01*
X44500Y-29000D02*
X45500D01*
X45000Y-29500D02*
Y-28500D01*
X44500Y-26000D02*
X45500D01*
X45000Y-26500D02*
Y-25500D01*
X40500Y-26000D02*
X41500D01*
X41000Y-26500D02*
Y-25500D01*
X65500Y-18000D02*
X66500D01*
X66000Y-18500D02*
Y-17500D01*
X65500Y-15000D02*
X66500D01*
X66000Y-15500D02*
Y-14500D01*
X65500Y-12000D02*
X66500D01*
X66000Y-12500D02*
Y-11500D01*
X48500Y0D02*
X49500D01*
X49000Y-500D02*
Y500D01*
X48500Y4000D02*
X49500D01*
X49000Y3500D02*
Y4500D01*
X40500Y0D02*
X41500D01*
X41000Y-500D02*
Y500D01*
X44500Y0D02*
X45500D01*
X45000Y-500D02*
Y500D01*
X44500Y4000D02*
X45500D01*
X45000Y3500D02*
Y4500D01*
X40500Y4000D02*
X41500D01*
X41000Y3500D02*
Y4500D01*
X31500Y-1000D02*
X32500D01*
X32000Y-1500D02*
Y-500D01*
X31500Y3000D02*
X32500D01*
X32000Y2500D02*
Y3500D01*
X31500Y7000D02*
X32500D01*
X32000Y6500D02*
Y7500D01*
X31500Y11000D02*
X32500D01*
X32000Y10500D02*
Y11500D01*
X23500Y17000D02*
X24500D01*
X24000Y16500D02*
Y17500D01*
X23500Y20000D02*
X24500D01*
X24000Y19500D02*
Y20500D01*
X34500Y21000D02*
X35500D01*
X35000Y20500D02*
Y21500D01*
X33500Y27000D02*
X34500D01*
X34000Y26500D02*
Y27500D01*
X40500Y14000D02*
X41500D01*
X41000Y13500D02*
Y14500D01*
X38500Y16000D02*
X39500D01*
X39000Y15500D02*
Y16500D01*
X49500Y19000D02*
X50500D01*
X50000Y18500D02*
Y19500D01*
X45500Y19000D02*
X46500D01*
X46000Y18500D02*
Y19500D01*
X45500Y22000D02*
X46500D01*
X46000Y21500D02*
Y22500D01*
X49500Y22000D02*
X50500D01*
X50000Y21500D02*
Y22500D01*
X49500Y25000D02*
X50500D01*
X50000Y24500D02*
Y25500D01*
X45500Y25000D02*
X46500D01*
X46000Y24500D02*
Y25500D01*
X58500Y37000D02*
X59500D01*
X59000Y36500D02*
Y37500D01*
X41500Y53000D02*
X42500D01*
X42000Y52500D02*
Y53500D01*
X38500Y56000D02*
X39500D01*
X39000Y55500D02*
Y56500D01*
X35500Y59000D02*
X36500D01*
X36000Y58500D02*
Y59500D01*
X20500Y53000D02*
X21500D01*
X21000Y52500D02*
Y53500D01*
X16500Y53000D02*
X17500D01*
X17000Y52500D02*
Y53500D01*
X12500Y53000D02*
X13500D01*
X13000Y52500D02*
Y53500D01*
X-500Y57000D02*
X500D01*
X0Y56500D02*
Y57500D01*
X-500Y60000D02*
X500D01*
X0Y59500D02*
Y60500D01*
X-500Y63000D02*
X500D01*
X0Y62500D02*
Y63500D01*
X-4500Y63000D02*
X-3500D01*
X-4000Y62500D02*
Y63500D01*
X-4500Y60000D02*
X-3500D01*
X-4000Y59500D02*
Y60500D01*
X-4500Y57000D02*
X-3500D01*
X-4000Y56500D02*
Y57500D01*
X-8500Y57000D02*
X-7500D01*
X-8000Y56500D02*
Y57500D01*
X-8500Y60000D02*
X-7500D01*
X-8000Y59500D02*
Y60500D01*
X-8500Y63000D02*
X-7500D01*
X-8000Y62500D02*
Y63500D01*
X21500Y75000D02*
X22500D01*
X22000Y74500D02*
Y75500D01*
X17500Y75000D02*
X18500D01*
X18000Y74500D02*
Y75500D01*
X13500Y75000D02*
X14500D01*
X14000Y74500D02*
Y75500D01*
X-19500Y71000D02*
X-18500D01*
X-19000Y70500D02*
Y71500D01*
X-15500Y71000D02*
X-14500D01*
X-15000Y70500D02*
Y71500D01*
X-11500Y71000D02*
X-10500D01*
X-11000Y70500D02*
Y71500D01*
X-7500Y71000D02*
X-6500D01*
X-7000Y70500D02*
Y71500D01*
X-3500Y71000D02*
X-2500D01*
X-3000Y70500D02*
Y71500D01*
X-3500Y75000D02*
X-2500D01*
X-3000Y74500D02*
Y75500D01*
X-7500Y75000D02*
X-6500D01*
X-7000Y74500D02*
Y75500D01*
X-11500Y75000D02*
X-10500D01*
X-11000Y74500D02*
Y75500D01*
X-15500Y75000D02*
X-14500D01*
X-15000Y74500D02*
Y75500D01*
X-19500Y75000D02*
X-18500D01*
X-19000Y74500D02*
Y75500D01*
X31100Y21200D02*
X32100D01*
X31600Y20700D02*
Y21700D01*
X47050Y-53100D02*
X48050D01*
X47550Y-53600D02*
Y-52600D01*
X44600Y-53100D02*
X45600D01*
X45100Y-53600D02*
Y-52600D01*
X18500Y-20800D02*
X19500D01*
X19000Y-21300D02*
Y-20300D01*
X-42800Y4300D02*
X-41800D01*
X-42300Y3800D02*
Y4800D01*
X2100Y6500D02*
X3100D01*
X2600Y6000D02*
Y7000D01*
X22400Y34200D02*
X23400D01*
X22900Y33700D02*
Y34700D01*
X59000Y27114D02*
X60000D01*
X59500Y26614D02*
Y27614D01*
X55300Y-20567D02*
X56300D01*
X55800Y-21067D02*
Y-20067D01*
X-43100Y17400D02*
X-42100D01*
X-42600Y16900D02*
Y17900D01*
X-43100Y21800D02*
X-42100D01*
X-42600Y21300D02*
Y22300D01*
X46853Y8547D02*
X47853D01*
X47353Y8047D02*
Y9047D01*
X44200Y10500D02*
X45200D01*
X44700Y10000D02*
Y11000D01*
X-42800Y-8500D02*
X-41800D01*
X-42300Y-9000D02*
Y-8000D01*
X-42700Y-4200D02*
X-41700D01*
X-42200Y-4700D02*
Y-3700D01*
X-49200Y8800D02*
X-48200D01*
X-48700Y8300D02*
Y9300D01*
X48827Y37810D02*
X49827D01*
X49327Y37310D02*
Y38310D01*
X46858Y39658D02*
X47858D01*
X47358Y39158D02*
Y40158D01*
X44890Y37810D02*
X45890D01*
X45390Y37310D02*
Y38310D01*
X-49200Y0D02*
X-48200D01*
X-48700Y-500D02*
Y500D01*
X32200Y24100D02*
X33200D01*
X32700Y23600D02*
Y24600D01*
X20600Y-22800D02*
X21600D01*
X21100Y-23300D02*
Y-22300D01*
X3500Y-6400D02*
X4500D01*
X4000Y-6900D02*
Y-5900D01*
X43000Y-44500D02*
X44000D01*
X43500Y-45000D02*
Y-44000D01*
X30539Y-34961D02*
X31539D01*
X31039Y-35461D02*
Y-34461D01*
X2900Y-18600D02*
X3900D01*
X3400Y-19100D02*
Y-18100D01*
X-3400Y-26600D02*
X-2400D01*
X-2900Y-27100D02*
Y-26100D01*
X19900Y58600D02*
X20900D01*
X20400Y58100D02*
Y59100D01*
X28300Y39500D02*
X29300D01*
X28800Y39000D02*
Y40000D01*
X25600Y39500D02*
X26600D01*
X26100Y39000D02*
Y40000D01*
X-29200Y-50200D02*
X-28200D01*
X-28700Y-50700D02*
Y-49700D01*
X51200Y14500D02*
X52200D01*
X51700Y14000D02*
Y15000D01*
X53021Y16421D02*
X54021D01*
X53521Y15921D02*
Y16921D01*
X-35400Y50600D02*
X-34400D01*
X-34900Y50100D02*
Y51100D01*
X-12900Y41100D02*
X-11900D01*
X-12400Y40600D02*
Y41600D01*
X-1800Y42500D02*
X-800D01*
X-1300Y42000D02*
Y43000D01*
X-38600Y-50900D02*
X-37600D01*
X-38100Y-51400D02*
Y-50400D01*
X0Y-30700D02*
X1000D01*
X500Y-31200D02*
Y-30200D01*
X-1800Y-28700D02*
X-800D01*
X-1300Y-29200D02*
Y-28200D01*
X-4800Y-35500D02*
X-3800D01*
X-4300Y-36000D02*
Y-35000D01*
X-7300Y-33200D02*
X-6300D01*
X-6800Y-33700D02*
Y-32700D01*
X4400Y-27600D02*
X5400D01*
X4900Y-28100D02*
Y-27100D01*
X6600Y-21200D02*
X7600D01*
X7100Y-21700D02*
Y-20700D01*
X59000Y-22000D02*
X60000D01*
X59500Y-22500D02*
Y-21500D01*
X33200Y-24000D02*
X34200D01*
X33700Y-24500D02*
Y-23500D01*
X33200Y-30000D02*
X34200D01*
X33700Y-30500D02*
Y-29500D01*
X25700Y-27000D02*
X26700D01*
X26200Y-27500D02*
Y-26500D01*
X3700Y19000D02*
X4700D01*
X4200Y18500D02*
Y19500D01*
X21800Y5300D02*
X22800D01*
X22300Y4800D02*
Y5800D01*
X21800Y8600D02*
X22800D01*
X22300Y8100D02*
Y9100D01*
X21600Y12400D02*
X22600D01*
X22100Y11900D02*
Y12900D01*
X31100Y-15000D02*
X32100D01*
X31600Y-15500D02*
Y-14500D01*
X55900Y-29937D02*
X56900D01*
X56400Y-30437D02*
Y-29437D01*
X58516Y-31953D02*
X59516D01*
X59016Y-32453D02*
Y-31453D01*
X58516Y-28016D02*
X59516D01*
X59016Y-28516D02*
Y-27516D01*
X55900Y-26000D02*
X56900D01*
X56400Y-26500D02*
Y-25500D01*
X57900Y-4200D02*
X58900D01*
X58400Y-4700D02*
Y-3700D01*
X37016Y27984D02*
X38016D01*
X37516Y27484D02*
Y28484D01*
X55300Y-1300D02*
X56300D01*
X55800Y-1800D02*
Y-800D01*
X52000Y-19500D02*
X53000D01*
X52500Y-20000D02*
Y-19000D01*
X49421Y-16521D02*
X50421D01*
X49921Y-17021D02*
Y-16021D01*
X47400Y-18200D02*
X48400D01*
X47900Y-18700D02*
Y-17700D01*
X22000Y-14600D02*
X23000D01*
X22500Y-15100D02*
Y-14100D01*
X37100Y-18400D02*
X38100D01*
X37600Y-18900D02*
Y-17900D01*
X52000Y-38500D02*
X53000D01*
X52500Y-39000D02*
Y-38000D01*
X49400Y-40000D02*
X50400D01*
X49900Y-40500D02*
Y-39500D01*
X51300Y-43000D02*
X52300D01*
X51800Y-43500D02*
Y-42500D01*
X28300Y-43000D02*
X29300D01*
X28800Y-43500D02*
Y-42500D01*
M02*
