G04*
G04 #@! TF.GenerationSoftware,Altium Limited,Altium Designer,22.0.2 (36)*
G04*
G04 Layer_Color=8388736*
%FSLAX25Y25*%
%MOIN*%
G70*
G04*
G04 #@! TF.SameCoordinates,9873FD8C-C369-40C8-B75A-0789E1F0109A*
G04*
G04*
G04 #@! TF.FilePolarity,Positive*
G04*
G01*
G75*
%ADD77C,0.00200*%
D77*
X20400Y-31000D02*
Y-24000D01*
X23800D01*
X20400Y-31000D02*
X23800D01*
Y-24000D01*
X32000Y-44300D02*
X39000D01*
Y-47700D02*
Y-44300D01*
X32000Y-47700D02*
Y-44300D01*
Y-47700D02*
X39000D01*
X42000Y-47300D02*
X49000D01*
Y-50700D02*
Y-47300D01*
X42000Y-50700D02*
Y-47300D01*
Y-50700D02*
X49000D01*
X42000Y-44300D02*
X49000D01*
Y-47700D02*
Y-44300D01*
X42000Y-47700D02*
Y-44300D01*
Y-47700D02*
X49000D01*
X21800Y-59000D02*
Y-52000D01*
X25200D01*
X21800Y-59000D02*
X25200D01*
Y-52000D01*
X18300Y-59000D02*
Y-52000D01*
X21700D01*
X18300Y-59000D02*
X21700D01*
Y-52000D01*
X26000Y-63700D02*
X33000D01*
X26000D02*
Y-60300D01*
X33000Y-63700D02*
Y-60300D01*
X26000D02*
X33000D01*
X57800Y28500D02*
Y35500D01*
X61200D01*
X57800Y28500D02*
X61200D01*
Y35500D01*
X58000Y-9800D02*
X65000D01*
Y-13200D02*
Y-9800D01*
X58000Y-13200D02*
Y-9800D01*
Y-13200D02*
X65000D01*
X14800Y28500D02*
Y35500D01*
X18200D01*
X14800Y28500D02*
X18200D01*
Y35500D01*
X23500Y-45500D02*
Y-20000D01*
X-23500Y-45500D02*
X23500D01*
X-23500D02*
Y-20000D01*
X23500D01*
X2500Y-4200D02*
X9500D01*
X2500D02*
Y-800D01*
X9500Y-4200D02*
Y-800D01*
X2500D02*
X9500D01*
X2500Y-1200D02*
X9500D01*
X2500D02*
Y2200D01*
X9500Y-1200D02*
Y2200D01*
X2500D02*
X9500D01*
X2500Y-7200D02*
X9500D01*
X2500D02*
Y-3800D01*
X9500Y-7200D02*
Y-3800D01*
X2500D02*
X9500D01*
X2500Y1800D02*
X9500D01*
X2500D02*
Y5200D01*
X9500Y1800D02*
Y5200D01*
X2500D02*
X9500D01*
X10000Y42700D02*
X17000D01*
Y39300D02*
Y42700D01*
X10000Y39300D02*
Y42700D01*
Y39300D02*
X17000D01*
X8000Y46200D02*
X15000D01*
Y42800D02*
Y46200D01*
X8000Y42800D02*
Y46200D01*
Y42800D02*
X15000D01*
X2500Y4800D02*
X9500D01*
X2500D02*
Y8200D01*
X9500Y4800D02*
Y8200D01*
X2500D02*
X9500D01*
X-6500Y31200D02*
X500D01*
Y27800D02*
Y31200D01*
X-6500Y27800D02*
Y31200D01*
Y27800D02*
X500D01*
X58000Y-12800D02*
X65000D01*
Y-16200D02*
Y-12800D01*
X58000Y-16200D02*
Y-12800D01*
Y-16200D02*
X65000D01*
X60800Y28500D02*
Y35500D01*
X64200D01*
X60800Y28500D02*
X64200D01*
Y35500D01*
X2500Y7800D02*
X9500D01*
X2500D02*
Y11200D01*
X9500Y7800D02*
Y11200D01*
X2500D02*
X9500D01*
X-58000Y19200D02*
X-51000D01*
Y15800D02*
Y19200D01*
X-58000Y15800D02*
Y19200D01*
Y15800D02*
X-51000D01*
X-58000Y23200D02*
X-51000D01*
Y19800D02*
Y23200D01*
X-58000Y19800D02*
Y23200D01*
Y19800D02*
X-51000D01*
X-35500Y-25200D02*
X-28500D01*
X-35500D02*
Y-21800D01*
X-28500Y-25200D02*
Y-21800D01*
X-35500D02*
X-28500D01*
X-58000Y-6800D02*
X-51000D01*
Y-10200D02*
Y-6800D01*
X-58000Y-10200D02*
Y-6800D01*
Y-10200D02*
X-51000D01*
X-58000Y-2800D02*
X-51000D01*
Y-6200D02*
Y-2800D01*
X-58000Y-6200D02*
Y-2800D01*
Y-6200D02*
X-51000D01*
X-58000Y1200D02*
X-51000D01*
Y-2200D02*
Y1200D01*
X-58000Y-2200D02*
Y1200D01*
Y-2200D02*
X-51000D01*
X-35500Y-53200D02*
X-28500D01*
X-35500D02*
Y-49800D01*
X-28500Y-53200D02*
Y-49800D01*
X-35500D02*
X-28500D01*
X28300Y-44500D02*
Y-37500D01*
X31700D01*
X28300Y-44500D02*
X31700D01*
Y-37500D01*
X32000Y-41300D02*
X39000D01*
Y-44700D02*
Y-41300D01*
X32000Y-44700D02*
Y-41300D01*
Y-44700D02*
X39000D01*
X52200Y-48500D02*
Y-41500D01*
X48800Y-48500D02*
X52200D01*
X48800Y-41500D02*
X52200D01*
X48800Y-48500D02*
Y-41500D01*
X24500Y-34300D02*
X31500D01*
Y-37700D02*
Y-34300D01*
X24500Y-37700D02*
Y-34300D01*
Y-37700D02*
X31500D01*
X42000Y-44700D02*
X49000D01*
X42000D02*
Y-41300D01*
X49000Y-44700D02*
Y-41300D01*
X42000D02*
X49000D01*
X58000Y-19200D02*
X65000D01*
X58000D02*
Y-15800D01*
X65000Y-19200D02*
Y-15800D01*
X58000D02*
X65000D01*
X24500Y-16300D02*
X31500D01*
Y-19700D02*
Y-16300D01*
X24500Y-19700D02*
Y-16300D01*
Y-19700D02*
X31500D01*
X58000Y-25200D02*
X65000D01*
X58000D02*
Y-21800D01*
X65000Y-25200D02*
Y-21800D01*
X58000D02*
X65000D01*
X58000Y-22200D02*
X65000D01*
X58000D02*
Y-18800D01*
X65000Y-22200D02*
Y-18800D01*
X58000D02*
X65000D01*
M02*
