G04*
G04 #@! TF.GenerationSoftware,Altium Limited,Altium Designer,22.0.2 (36)*
G04*
G04 Layer_Physical_Order=2*
G04 Layer_Color=6736896*
%FSLAX25Y25*%
%MOIN*%
G70*
G04*
G04 #@! TF.SameCoordinates,9873FD8C-C369-40C8-B75A-0789E1F0109A*
G04*
G04*
G04 #@! TF.FilePolarity,Positive*
G04*
G01*
G75*
%ADD11C,0.01000*%
%ADD70C,0.00400*%
%ADD72C,0.01800*%
G04:AMPARAMS|DCode=73|XSize=15.75mil|YSize=80mil|CornerRadius=3.94mil|HoleSize=0mil|Usage=FLASHONLY|Rotation=180.000|XOffset=0mil|YOffset=0mil|HoleType=Round|Shape=RoundedRectangle|*
%AMROUNDEDRECTD73*
21,1,0.01575,0.07213,0,0,180.0*
21,1,0.00787,0.08000,0,0,180.0*
1,1,0.00787,-0.00394,0.03606*
1,1,0.00787,0.00394,0.03606*
1,1,0.00787,0.00394,-0.03606*
1,1,0.00787,-0.00394,-0.03606*
%
%ADD73ROUNDEDRECTD73*%
G36*
X22055Y78953D02*
Y78946D01*
X22834Y78844D01*
X23561Y78543D01*
X24185Y78064D01*
X24373Y77819D01*
X24664Y77439D01*
D01*
X24915Y77018D01*
X28293Y71163D01*
X31791Y65101D01*
X31803Y65042D01*
X32002Y64744D01*
X32250Y64578D01*
X32232Y64542D01*
X35025Y63144D01*
X39512Y60482D01*
X43797Y57506D01*
X47859Y54233D01*
X51678Y50678D01*
X55233Y46859D01*
X58506Y42797D01*
X61482Y38512D01*
X64144Y34025D01*
X66479Y29360D01*
X68476Y24540D01*
X70123Y19590D01*
X71413Y14535D01*
X72340Y9401D01*
X72897Y4214D01*
X73084Y-1000D01*
X72897Y-6214D01*
X72340Y-11401D01*
X71413Y-16535D01*
X70123Y-21590D01*
X68476Y-26540D01*
X66479Y-31360D01*
X64144Y-36025D01*
X61482Y-40512D01*
X58506Y-44797D01*
X55233Y-48860D01*
X51678Y-52678D01*
X47859Y-56233D01*
X43797Y-59506D01*
X39512Y-62482D01*
X35025Y-65144D01*
X30360Y-67479D01*
X25540Y-69476D01*
X20590Y-71123D01*
X15535Y-72413D01*
X10401Y-73340D01*
X5214Y-73897D01*
X0Y-74084D01*
X-5214Y-73897D01*
X-10401Y-73340D01*
X-15535Y-72413D01*
X-20590Y-71123D01*
X-25540Y-69476D01*
X-30360Y-67479D01*
X-35025Y-65144D01*
X-39512Y-62482D01*
X-43797Y-59506D01*
X-47859Y-56233D01*
X-51678Y-52678D01*
X-55233Y-48860D01*
X-58506Y-44797D01*
X-61482Y-40512D01*
X-64144Y-36025D01*
X-66479Y-31360D01*
X-68476Y-26540D01*
X-70123Y-21590D01*
X-71413Y-16535D01*
X-72340Y-11401D01*
X-72897Y-6214D01*
X-73084Y-1000D01*
X-72897Y4214D01*
X-72340Y9401D01*
X-71413Y14535D01*
X-70123Y19590D01*
X-68476Y24540D01*
X-66479Y29360D01*
X-64144Y34025D01*
X-61482Y38512D01*
X-58506Y42797D01*
X-55233Y46859D01*
X-51678Y50678D01*
X-47859Y54233D01*
X-43797Y57506D01*
X-39512Y60482D01*
X-35025Y63144D01*
X-32302Y64507D01*
X-32320Y64544D01*
X-32072Y64709D01*
X-31873Y65007D01*
X-31835Y65198D01*
X-28417Y71158D01*
X-24807Y77453D01*
X-24801Y77449D01*
X-24797Y77457D01*
X-24318Y78081D01*
X-23695Y78560D01*
X-22968Y78861D01*
X-22661Y78901D01*
X-22187Y78963D01*
D01*
X-21697Y78970D01*
X22055Y78953D01*
D02*
G37*
%LPC*%
G36*
X29200Y63349D02*
X14000D01*
X13541Y63159D01*
X2731Y52349D01*
X-14031D01*
X-14095Y52413D01*
X-14110Y52449D01*
X-14126Y52497D01*
X-14140Y52555D01*
X-14151Y52617D01*
X-14166Y52795D01*
X-14167Y52896D01*
X-14200Y52973D01*
Y53159D01*
X-14398Y53636D01*
X-14764Y54002D01*
X-15241Y54200D01*
X-15759D01*
X-16236Y54002D01*
X-16602Y53636D01*
X-16800Y53159D01*
Y52641D01*
X-16602Y52164D01*
X-16388Y51949D01*
X-16595Y51449D01*
X-28137D01*
X-32247Y55559D01*
X-32706Y55749D01*
X-37394D01*
X-37853Y55559D01*
X-38453Y54959D01*
X-38453Y54959D01*
X-53759Y39653D01*
X-53949Y39194D01*
Y-2300D01*
X-53759Y-2759D01*
X-47559Y-8959D01*
X-47100Y-9149D01*
X-43638D01*
X-43602Y-9164D01*
X-43557Y-9187D01*
X-43506Y-9217D01*
X-43454Y-9254D01*
X-43318Y-9369D01*
X-43245Y-9440D01*
X-43168Y-9471D01*
X-43036Y-9602D01*
X-42559Y-9800D01*
X-42041D01*
X-41564Y-9602D01*
X-41198Y-9236D01*
X-41000Y-8759D01*
Y-8241D01*
X-41198Y-7764D01*
X-41564Y-7398D01*
X-42041Y-7200D01*
X-42559D01*
X-43036Y-7398D01*
X-43168Y-7529D01*
X-43245Y-7560D01*
X-43322Y-7635D01*
X-43388Y-7694D01*
X-43449Y-7743D01*
X-43506Y-7783D01*
X-43557Y-7813D01*
X-43602Y-7836D01*
X-43638Y-7851D01*
X-46831D01*
X-49070Y-5611D01*
X-48879Y-5149D01*
X-43404D01*
X-43338Y-5166D01*
X-43284Y-5184D01*
X-42895Y-5345D01*
X-42783Y-5399D01*
X-42783Y-5399D01*
X-42783Y-5399D01*
X-42691Y-5404D01*
X-42459Y-5500D01*
X-41941D01*
X-41464Y-5302D01*
X-41098Y-4936D01*
X-40900Y-4459D01*
Y-3941D01*
X-41098Y-3464D01*
X-41464Y-3098D01*
X-41941Y-2900D01*
X-42459D01*
X-42936Y-3098D01*
X-43302Y-3464D01*
X-43350Y-3580D01*
X-43402Y-3624D01*
X-43441Y-3700D01*
X-43472Y-3751D01*
X-43501Y-3790D01*
X-43526Y-3818D01*
X-43548Y-3837D01*
X-43565Y-3849D01*
X-43569Y-3851D01*
X-46478D01*
X-46632Y-3351D01*
X-45541Y-2259D01*
X-45351Y-1800D01*
Y6100D01*
X-45541Y6559D01*
X-47295Y8313D01*
X-47310Y8349D01*
X-47326Y8397D01*
X-47340Y8455D01*
X-47351Y8517D01*
X-47366Y8695D01*
X-47367Y8796D01*
X-47400Y8873D01*
Y9059D01*
X-47598Y9536D01*
X-47964Y9902D01*
X-48441Y10100D01*
X-48959D01*
X-49436Y9902D01*
X-49751Y9588D01*
X-49992Y9623D01*
X-50251Y9741D01*
Y37931D01*
X-36417Y51764D01*
X-36304Y51741D01*
X-36225Y51635D01*
X-36065Y51184D01*
X-36200Y50859D01*
Y50341D01*
X-36002Y49864D01*
X-35636Y49498D01*
X-35159Y49300D01*
X-34641D01*
X-34164Y49498D01*
X-34032Y49629D01*
X-33955Y49660D01*
X-33878Y49735D01*
X-33812Y49793D01*
X-33751Y49843D01*
X-33694Y49883D01*
X-33643Y49913D01*
X-33598Y49936D01*
X-33562Y49951D01*
X-33369D01*
X-30559Y47141D01*
X-30100Y46951D01*
X-16854D01*
X-16647Y46451D01*
X-19349Y43749D01*
X-19548Y43451D01*
X-19618Y43100D01*
Y34780D01*
X-23380Y31018D01*
X-40000D01*
X-40351Y30948D01*
X-40649Y30749D01*
X-46649Y24749D01*
X-46848Y24451D01*
X-46918Y24100D01*
Y16100D01*
X-46848Y15749D01*
X-46649Y15451D01*
X-39548Y8350D01*
X-42009Y5889D01*
X-42045Y5875D01*
X-42112Y5810D01*
X-42166Y5760D01*
X-42269Y5675D01*
X-42302Y5651D01*
X-42329Y5635D01*
X-42344Y5627D01*
X-42360Y5623D01*
X-42366Y5618D01*
X-42370Y5617D01*
X-42377Y5610D01*
X-42390Y5600D01*
X-42559D01*
X-43036Y5402D01*
X-43402Y5036D01*
X-43600Y4559D01*
Y4041D01*
X-43402Y3564D01*
X-43036Y3198D01*
X-42559Y3000D01*
X-42041D01*
X-41564Y3198D01*
X-41198Y3564D01*
X-41000Y4041D01*
Y4210D01*
X-40990Y4223D01*
X-40983Y4230D01*
X-40982Y4234D01*
X-40977Y4240D01*
X-40973Y4256D01*
X-40965Y4271D01*
X-40949Y4298D01*
X-40928Y4327D01*
X-40785Y4494D01*
X-40725Y4555D01*
X-40711Y4591D01*
X-37820Y7482D01*
X320D01*
X1011Y6791D01*
X1025Y6755D01*
X1091Y6688D01*
X1140Y6634D01*
X1225Y6531D01*
X1249Y6498D01*
X1266Y6471D01*
X1273Y6456D01*
X1277Y6440D01*
X1282Y6434D01*
X1283Y6430D01*
X1290Y6423D01*
X1300Y6410D01*
Y6241D01*
X1498Y5764D01*
X1617Y5644D01*
X1619Y5628D01*
X1619Y5619D01*
X1621Y5614D01*
X1622Y5607D01*
X1630Y5593D01*
X1636Y5577D01*
X1643Y5546D01*
X1649Y5511D01*
X1666Y5292D01*
X1667Y5206D01*
X1682Y5170D01*
Y-5000D01*
X1752Y-5351D01*
X1951Y-5649D01*
X2411Y-6109D01*
X2425Y-6145D01*
X2490Y-6212D01*
X2540Y-6266D01*
X2625Y-6369D01*
X2647Y-6400D01*
X2628Y-6427D01*
X2485Y-6594D01*
X2425Y-6655D01*
X2411Y-6691D01*
X-11849Y-20951D01*
X-12048Y-21249D01*
X-12118Y-21600D01*
Y-37020D01*
X-19380Y-44282D01*
X-37200D01*
X-37551Y-44352D01*
X-37849Y-44551D01*
X-42149Y-48851D01*
X-42348Y-49149D01*
X-42418Y-49500D01*
Y-52100D01*
X-42348Y-52451D01*
X-42149Y-52749D01*
X-39549Y-55349D01*
X-39251Y-55548D01*
X-38900Y-55618D01*
X-28500D01*
X-28149Y-55548D01*
X-27851Y-55349D01*
X-23420Y-50918D01*
X38220D01*
X41051Y-53749D01*
X41349Y-53948D01*
X41700Y-54018D01*
X43770D01*
X43806Y-54033D01*
X43899Y-54034D01*
X43973Y-54037D01*
X44106Y-54050D01*
X44146Y-54057D01*
X44177Y-54064D01*
X44193Y-54070D01*
X44207Y-54078D01*
X44214Y-54079D01*
X44219Y-54080D01*
X44228Y-54081D01*
X44245Y-54083D01*
X44364Y-54202D01*
X44841Y-54400D01*
X45359D01*
X45836Y-54202D01*
X45956Y-54083D01*
X45972Y-54081D01*
X45981Y-54080D01*
X45986Y-54079D01*
X45993Y-54078D01*
X46007Y-54070D01*
X46023Y-54064D01*
X46054Y-54057D01*
X46090Y-54051D01*
X46308Y-54034D01*
X46325Y-54034D01*
X46349Y-54034D01*
X46423Y-54037D01*
X46556Y-54050D01*
X46596Y-54057D01*
X46627Y-54064D01*
X46643Y-54070D01*
X46657Y-54078D01*
X46664Y-54079D01*
X46669Y-54080D01*
X46678Y-54081D01*
X46694Y-54083D01*
X46814Y-54202D01*
X47291Y-54400D01*
X47809D01*
X48286Y-54202D01*
X48652Y-53836D01*
X48850Y-53359D01*
Y-52841D01*
X48652Y-52364D01*
X48286Y-51998D01*
X47809Y-51800D01*
X47291D01*
X46814Y-51998D01*
X46694Y-52117D01*
X46678Y-52119D01*
X46669Y-52119D01*
X46664Y-52121D01*
X46657Y-52122D01*
X46643Y-52131D01*
X46627Y-52136D01*
X46596Y-52143D01*
X46560Y-52149D01*
X46342Y-52166D01*
X46325Y-52166D01*
X46301Y-52166D01*
X46227Y-52163D01*
X46094Y-52150D01*
X46054Y-52143D01*
X46023Y-52136D01*
X46007Y-52131D01*
X45993Y-52122D01*
X45986Y-52121D01*
X45981Y-52119D01*
X45972Y-52119D01*
X45956Y-52117D01*
X45836Y-51998D01*
X45359Y-51800D01*
X44841D01*
X44364Y-51998D01*
X44245Y-52117D01*
X44228Y-52119D01*
X44219Y-52119D01*
X44214Y-52121D01*
X44207Y-52122D01*
X44193Y-52131D01*
X44177Y-52136D01*
X44146Y-52143D01*
X44110Y-52149D01*
X43892Y-52166D01*
X43806Y-52167D01*
X43770Y-52182D01*
X42080D01*
X39447Y-49549D01*
X39654Y-49049D01*
X50000D01*
X50459Y-48859D01*
X63759Y-35559D01*
X63949Y-35100D01*
Y-1400D01*
X63759Y-941D01*
X54171Y8648D01*
Y15083D01*
X54185Y15119D01*
X54208Y15164D01*
X54239Y15215D01*
X54275Y15267D01*
X54390Y15404D01*
X54461Y15476D01*
X54492Y15554D01*
X54623Y15685D01*
X54821Y16163D01*
Y16680D01*
X54623Y17158D01*
X54258Y17523D01*
X53780Y17721D01*
X53263D01*
X52785Y17523D01*
X52419Y17158D01*
X52221Y16680D01*
Y16232D01*
X52124Y16073D01*
X51830Y15800D01*
X51441D01*
X50964Y15602D01*
X50598Y15236D01*
X50400Y14759D01*
Y14241D01*
X50598Y13764D01*
X50729Y13632D01*
X50760Y13555D01*
X50835Y13478D01*
X50893Y13412D01*
X50943Y13351D01*
X50982Y13294D01*
X51013Y13243D01*
X51036Y13198D01*
X51051Y13162D01*
Y9821D01*
X50589Y9630D01*
X38165Y22053D01*
Y26646D01*
X38180Y26682D01*
X38202Y26727D01*
X38233Y26778D01*
X38270Y26830D01*
X38385Y26967D01*
X38455Y27039D01*
X38486Y27117D01*
X38618Y27248D01*
X38816Y27726D01*
Y28243D01*
X38618Y28721D01*
X38252Y29086D01*
X37774Y29284D01*
X37257D01*
X36779Y29086D01*
X36414Y28721D01*
X36216Y28243D01*
Y27726D01*
X36414Y27248D01*
X36545Y27117D01*
X36576Y27039D01*
X36651Y26963D01*
X36709Y26897D01*
X36758Y26835D01*
X36798Y26778D01*
X36829Y26727D01*
X36852Y26682D01*
X36866Y26646D01*
Y21784D01*
X37056Y21325D01*
X48263Y10119D01*
X47980Y9695D01*
X47611Y9847D01*
X47094D01*
X46616Y9649D01*
X46485Y9518D01*
X46407Y9487D01*
X46376Y9456D01*
X46172Y9450D01*
X46072Y9536D01*
X46039Y9576D01*
X45901Y9853D01*
X45883Y9959D01*
X46000Y10241D01*
Y10759D01*
X45802Y11236D01*
X45436Y11602D01*
X44959Y11800D01*
X44441D01*
X43964Y11602D01*
X43832Y11471D01*
X43755Y11440D01*
X43678Y11365D01*
X43612Y11306D01*
X43551Y11257D01*
X43494Y11218D01*
X43443Y11187D01*
X43398Y11164D01*
X43362Y11149D01*
X39800D01*
X31550Y19400D01*
X31757Y19900D01*
X31859D01*
X32336Y20098D01*
X32702Y20464D01*
X32900Y20941D01*
Y21459D01*
X32702Y21936D01*
X32336Y22302D01*
X31859Y22500D01*
X31673D01*
X31596Y22533D01*
X31489Y22534D01*
X31401Y22539D01*
X31323Y22548D01*
X31255Y22560D01*
X31197Y22574D01*
X31149Y22590D01*
X31113Y22605D01*
X30730Y22989D01*
X30921Y23451D01*
X31362D01*
X31398Y23436D01*
X31443Y23413D01*
X31494Y23382D01*
X31546Y23346D01*
X31682Y23231D01*
X31755Y23160D01*
X31832Y23129D01*
X31964Y22998D01*
X32441Y22800D01*
X32959D01*
X33436Y22998D01*
X33802Y23364D01*
X34000Y23841D01*
Y24359D01*
X33802Y24836D01*
X33436Y25202D01*
X32959Y25400D01*
X32441D01*
X31964Y25202D01*
X31832Y25071D01*
X31755Y25040D01*
X31678Y24965D01*
X31612Y24906D01*
X31551Y24857D01*
X31494Y24817D01*
X31443Y24787D01*
X31398Y24764D01*
X31362Y24749D01*
X30100D01*
X22385Y32465D01*
X22615Y32856D01*
X22657Y32900D01*
X23159D01*
X23636Y33098D01*
X24002Y33464D01*
X24200Y33941D01*
Y34127D01*
X24233Y34204D01*
X24234Y34311D01*
X24239Y34399D01*
X24248Y34477D01*
X24260Y34545D01*
X24274Y34603D01*
X24290Y34651D01*
X24306Y34687D01*
X24469Y34851D01*
X50845D01*
X58095Y27601D01*
X58110Y27565D01*
X58126Y27518D01*
X58140Y27459D01*
X58151Y27397D01*
X58166Y27219D01*
X58167Y27118D01*
X58200Y27041D01*
Y26856D01*
X58398Y26378D01*
X58764Y26012D01*
X59241Y25814D01*
X59759D01*
X60236Y26012D01*
X60602Y26378D01*
X60800Y26856D01*
Y27373D01*
X60602Y27851D01*
X60236Y28216D01*
X59759Y28414D01*
X59573D01*
X59496Y28447D01*
X59389Y28448D01*
X59301Y28453D01*
X59223Y28462D01*
X59155Y28474D01*
X59097Y28488D01*
X59049Y28504D01*
X59013Y28520D01*
X51573Y35959D01*
X51114Y36149D01*
X50021D01*
X49922Y36649D01*
X50063Y36708D01*
X50429Y37074D01*
X50627Y37552D01*
Y37795D01*
X50985Y37923D01*
X51127Y37935D01*
X51464Y37598D01*
X51941Y37400D01*
X52459D01*
X52936Y37598D01*
X53302Y37964D01*
X53500Y38441D01*
Y38959D01*
X53302Y39436D01*
X52936Y39802D01*
X52459Y40000D01*
X52273D01*
X52196Y40033D01*
X52089Y40034D01*
X52001Y40039D01*
X51923Y40048D01*
X51855Y40060D01*
X51797Y40074D01*
X51749Y40090D01*
X51713Y40106D01*
X51249Y40569D01*
Y41300D01*
X51059Y41759D01*
X29659Y63159D01*
X29200Y63349D01*
D02*
G37*
%LPD*%
G36*
X21301Y58474D02*
X21319Y58262D01*
X21336Y58166D01*
X21358Y58077D01*
X21385Y57995D01*
X21417Y57921D01*
X21454Y57853D01*
X21496Y57793D01*
X21544Y57739D01*
X21261Y57456D01*
X21207Y57504D01*
X21147Y57546D01*
X21079Y57583D01*
X21005Y57615D01*
X20923Y57642D01*
X20834Y57664D01*
X20739Y57681D01*
X20636Y57692D01*
X20526Y57699D01*
X20409Y57700D01*
X21300Y58591D01*
X21301Y58474D01*
D02*
G37*
G36*
X27901Y54874D02*
X27919Y54662D01*
X27936Y54566D01*
X27958Y54477D01*
X27985Y54395D01*
X28017Y54321D01*
X28054Y54253D01*
X28096Y54193D01*
X28144Y54139D01*
X27861Y53856D01*
X27807Y53904D01*
X27747Y53946D01*
X27679Y53983D01*
X27605Y54015D01*
X27523Y54042D01*
X27434Y54064D01*
X27338Y54081D01*
X27236Y54092D01*
X27126Y54099D01*
X27009Y54100D01*
X27900Y54991D01*
X27901Y54874D01*
D02*
G37*
G36*
X-14599Y52774D02*
X-14581Y52561D01*
X-14564Y52466D01*
X-14542Y52377D01*
X-14515Y52295D01*
X-14483Y52221D01*
X-14446Y52153D01*
X-14404Y52093D01*
X-14356Y52039D01*
X-14639Y51756D01*
X-14693Y51804D01*
X-14753Y51846D01*
X-14821Y51883D01*
X-14895Y51915D01*
X-14977Y51942D01*
X-15066Y51964D01*
X-15161Y51981D01*
X-15264Y51992D01*
X-15374Y51999D01*
X-15491Y52000D01*
X-14600Y52891D01*
X-14599Y52774D01*
D02*
G37*
G36*
X-34174Y51148D02*
X-34010Y51011D01*
X-33931Y50955D01*
X-33853Y50907D01*
X-33776Y50869D01*
X-33701Y50839D01*
X-33626Y50817D01*
X-33554Y50804D01*
X-33483Y50800D01*
Y50400D01*
X-33554Y50396D01*
X-33626Y50383D01*
X-33701Y50361D01*
X-33776Y50331D01*
X-33853Y50292D01*
X-33931Y50245D01*
X-34010Y50189D01*
X-34091Y50125D01*
X-34174Y50052D01*
X-34257Y49970D01*
Y51230D01*
X-34174Y51148D01*
D02*
G37*
G36*
X-10274Y44448D02*
X-10110Y44311D01*
X-10031Y44255D01*
X-9953Y44208D01*
X-9876Y44169D01*
X-9801Y44139D01*
X-9727Y44117D01*
X-9654Y44104D01*
X-9583Y44100D01*
Y43700D01*
X-9654Y43696D01*
X-9727Y43683D01*
X-9801Y43661D01*
X-9876Y43631D01*
X-9953Y43593D01*
X-10031Y43545D01*
X-10110Y43489D01*
X-10191Y43425D01*
X-10274Y43352D01*
X-10357Y43270D01*
Y44530D01*
X-10274Y44448D01*
D02*
G37*
G36*
X7390Y42473D02*
X7400Y42303D01*
X7405Y42275D01*
X7411Y42253D01*
X7417Y42237D01*
X7424Y42226D01*
X7432Y42222D01*
X6347D01*
X6355Y42226D01*
X6363Y42237D01*
X6369Y42253D01*
X6374Y42275D01*
X6379Y42303D01*
X6383Y42337D01*
X6388Y42422D01*
X6390Y42530D01*
X7390D01*
X7390Y42473D01*
D02*
G37*
G36*
X-7011Y42313D02*
X-6982Y42292D01*
X-6951Y42275D01*
X-6918Y42261D01*
X-6882Y42250D01*
X-6844Y42241D01*
X-6804Y42236D01*
X-6762Y42234D01*
X-6716Y42235D01*
X-6669Y42239D01*
X-7559Y42137D01*
X-7542Y42150D01*
X-7529Y42163D01*
X-7519Y42177D01*
X-7513Y42191D01*
X-7510Y42205D01*
X-7511Y42220D01*
X-7516Y42235D01*
X-7524Y42251D01*
X-7535Y42268D01*
X-7551Y42284D01*
X-7037Y42336D01*
X-7011Y42313D01*
D02*
G37*
G36*
X12079Y42307D02*
X12112Y42281D01*
X12146Y42261D01*
X12182Y42244D01*
X12218Y42232D01*
X12255Y42225D01*
X12294Y42222D01*
X12333Y42223D01*
X12373Y42229D01*
X12414Y42239D01*
X11648Y42011D01*
X11660Y42030D01*
X11668Y42049D01*
X11673Y42067D01*
X11675Y42085D01*
X11675Y42103D01*
X11671Y42121D01*
X11664Y42139D01*
X11655Y42156D01*
X11642Y42173D01*
X11627Y42191D01*
X12047Y42336D01*
X12079Y42307D01*
D02*
G37*
G36*
X47563Y41004D02*
X47576Y40932D01*
X47597Y40858D01*
X47627Y40782D01*
X47666Y40705D01*
X47713Y40627D01*
X47769Y40548D01*
X47833Y40467D01*
X47907Y40385D01*
X47988Y40301D01*
X46728D01*
X46810Y40385D01*
X46948Y40548D01*
X47003Y40627D01*
X47051Y40705D01*
X47089Y40782D01*
X47120Y40858D01*
X47141Y40932D01*
X47154Y41004D01*
X47158Y41076D01*
X47558D01*
X47563Y41004D01*
D02*
G37*
G36*
X29004Y40846D02*
X29017Y40773D01*
X29039Y40699D01*
X29069Y40624D01*
X29107Y40547D01*
X29155Y40469D01*
X29211Y40389D01*
X29275Y40309D01*
X29348Y40226D01*
X29430Y40143D01*
X28170D01*
X28252Y40226D01*
X28389Y40389D01*
X28445Y40469D01*
X28493Y40547D01*
X28531Y40624D01*
X28561Y40699D01*
X28583Y40773D01*
X28596Y40846D01*
X28600Y40918D01*
X29000D01*
X29004Y40846D01*
D02*
G37*
G36*
X26304D02*
X26317Y40773D01*
X26339Y40699D01*
X26369Y40624D01*
X26408Y40547D01*
X26455Y40469D01*
X26511Y40389D01*
X26575Y40309D01*
X26648Y40226D01*
X26730Y40143D01*
X25470D01*
X25552Y40226D01*
X25689Y40389D01*
X25745Y40469D01*
X25793Y40547D01*
X25831Y40624D01*
X25861Y40699D01*
X25883Y40773D01*
X25896Y40846D01*
X25900Y40918D01*
X26300D01*
X26304Y40846D01*
D02*
G37*
G36*
X51393Y39796D02*
X51453Y39754D01*
X51521Y39717D01*
X51595Y39685D01*
X51677Y39658D01*
X51766Y39636D01*
X51862Y39619D01*
X51964Y39608D01*
X52074Y39601D01*
X52191Y39600D01*
X51300Y38709D01*
X51299Y38826D01*
X51281Y39039D01*
X51264Y39134D01*
X51242Y39223D01*
X51215Y39305D01*
X51183Y39379D01*
X51146Y39447D01*
X51104Y39507D01*
X51056Y39561D01*
X51339Y39844D01*
X51393Y39796D01*
D02*
G37*
G36*
X7662Y38618D02*
X7666Y38584D01*
X7672Y38554D01*
X7682Y38528D01*
X7694Y38506D01*
X7708Y38488D01*
X7714Y38483D01*
X7849Y38470D01*
X8166Y38458D01*
X8348Y38456D01*
Y38056D01*
X8166Y38054D01*
X7709Y38025D01*
X7708Y38024D01*
X7694Y38006D01*
X7682Y37984D01*
X7672Y37958D01*
X7666Y37928D01*
X7662Y37894D01*
X7661Y37856D01*
Y38022D01*
X7596Y38017D01*
X7494Y38001D01*
X7407Y37981D01*
X7337Y37958D01*
X7282Y37931D01*
X7243Y37902D01*
Y38610D01*
X7282Y38581D01*
X7337Y38554D01*
X7407Y38531D01*
X7494Y38511D01*
X7596Y38494D01*
X7661Y38488D01*
Y38656D01*
X7662Y38618D01*
D02*
G37*
G36*
X49531Y39156D02*
X49544Y39084D01*
X49566Y39010D01*
X49596Y38934D01*
X49634Y38857D01*
X49682Y38779D01*
X49738Y38700D01*
X49802Y38619D01*
X49875Y38537D01*
X49957Y38453D01*
X48697D01*
X48779Y38537D01*
X48916Y38700D01*
X48972Y38779D01*
X49019Y38857D01*
X49058Y38934D01*
X49088Y39010D01*
X49110Y39084D01*
X49123Y39156D01*
X49127Y39228D01*
X49527D01*
X49531Y39156D01*
D02*
G37*
G36*
X45594D02*
X45607Y39084D01*
X45628Y39010D01*
X45659Y38934D01*
X45697Y38857D01*
X45745Y38779D01*
X45801Y38700D01*
X45865Y38619D01*
X45938Y38537D01*
X46020Y38453D01*
X44760D01*
X44842Y38537D01*
X44979Y38700D01*
X45035Y38779D01*
X45082Y38857D01*
X45121Y38934D01*
X45151Y39010D01*
X45173Y39084D01*
X45186Y39156D01*
X45190Y39228D01*
X45590D01*
X45594Y39156D01*
D02*
G37*
G36*
X44740Y42841D02*
Y39149D01*
X44726Y39112D01*
X44703Y39067D01*
X44672Y39016D01*
X44636Y38964D01*
X44521Y38828D01*
X44450Y38756D01*
X44419Y38678D01*
X44288Y38547D01*
X44090Y38069D01*
Y37552D01*
X44288Y37074D01*
X44653Y36708D01*
X44795Y36649D01*
X44696Y36149D01*
X24200D01*
X23741Y35959D01*
X23387Y35605D01*
X23351Y35590D01*
X23303Y35574D01*
X23245Y35560D01*
X23183Y35549D01*
X23005Y35534D01*
X22904Y35533D01*
X22827Y35500D01*
X22641D01*
X22164Y35302D01*
X21798Y34936D01*
X21600Y34459D01*
Y33957D01*
X21556Y33915D01*
X21165Y33685D01*
X20449Y34400D01*
Y41900D01*
X20259Y42359D01*
X13759Y48859D01*
X13300Y49049D01*
X5538D01*
X5331Y49549D01*
X15432Y59651D01*
X18959D01*
X19221Y59150D01*
X19100Y58859D01*
Y58341D01*
X19298Y57864D01*
X19664Y57498D01*
X20141Y57300D01*
X20327D01*
X20404Y57267D01*
X20511Y57266D01*
X20599Y57261D01*
X20677Y57252D01*
X20745Y57240D01*
X20803Y57226D01*
X20851Y57210D01*
X20887Y57195D01*
X25451Y52631D01*
Y40838D01*
X25436Y40802D01*
X25413Y40757D01*
X25383Y40706D01*
X25346Y40654D01*
X25231Y40518D01*
X25160Y40445D01*
X25129Y40368D01*
X24998Y40236D01*
X24800Y39759D01*
Y39241D01*
X24998Y38764D01*
X25364Y38398D01*
X25841Y38200D01*
X26359D01*
X26836Y38398D01*
X27170Y38732D01*
X27450Y38748D01*
X27730Y38732D01*
X28064Y38398D01*
X28541Y38200D01*
X29059D01*
X29536Y38398D01*
X29902Y38764D01*
X30100Y39241D01*
Y39759D01*
X29902Y40236D01*
X29771Y40368D01*
X29740Y40445D01*
X29665Y40522D01*
X29607Y40588D01*
X29557Y40649D01*
X29517Y40706D01*
X29487Y40757D01*
X29464Y40802D01*
X29449Y40838D01*
Y53200D01*
X29259Y53659D01*
X28405Y54513D01*
X28390Y54549D01*
X28374Y54597D01*
X28360Y54655D01*
X28349Y54717D01*
X28334Y54895D01*
X28333Y54996D01*
X28300Y55073D01*
Y55259D01*
X28102Y55736D01*
X27736Y56102D01*
X27259Y56300D01*
X26741D01*
X26264Y56102D01*
X25898Y55736D01*
X25700Y55259D01*
Y54926D01*
X25216Y54702D01*
X21805Y58113D01*
X21790Y58149D01*
X21774Y58197D01*
X21760Y58255D01*
X21749Y58317D01*
X21734Y58495D01*
X21733Y58596D01*
X21700Y58673D01*
Y58859D01*
X21579Y59150D01*
X21841Y59651D01*
X27931D01*
X44740Y42841D01*
D02*
G37*
G36*
X8875Y37856D02*
X8873Y37894D01*
X8869Y37928D01*
X8863Y37958D01*
X8854Y37984D01*
X8842Y38006D01*
X8827Y38024D01*
X8810Y38038D01*
X8790Y38048D01*
X8768Y38054D01*
X8743Y38056D01*
Y38456D01*
X8768Y38458D01*
X8790Y38464D01*
X8810Y38474D01*
X8827Y38488D01*
X8842Y38506D01*
X8854Y38528D01*
X8863Y38554D01*
X8869Y38584D01*
X8873Y38618D01*
X8875Y38656D01*
Y37856D01*
D02*
G37*
G36*
X24044Y35061D02*
X23996Y35007D01*
X23954Y34947D01*
X23917Y34879D01*
X23885Y34805D01*
X23858Y34723D01*
X23836Y34634D01*
X23819Y34538D01*
X23808Y34436D01*
X23801Y34326D01*
X23800Y34209D01*
X22909Y35100D01*
X23026Y35101D01*
X23239Y35119D01*
X23334Y35136D01*
X23423Y35158D01*
X23505Y35185D01*
X23579Y35217D01*
X23647Y35254D01*
X23707Y35296D01*
X23761Y35344D01*
X24044Y35061D01*
D02*
G37*
G36*
X-9103Y34289D02*
X-9101Y34286D01*
X-9097Y34282D01*
X-9052Y34235D01*
X-9022Y34205D01*
X-9558Y34176D01*
X-9580Y34195D01*
X-9606Y34212D01*
X-9635Y34227D01*
X-9667Y34240D01*
X-9702Y34251D01*
X-9740Y34260D01*
X-9782Y34266D01*
X-9826Y34270D01*
X-9926Y34272D01*
X-9103Y34290D01*
X-9103Y34289D01*
D02*
G37*
G36*
X19151Y41631D02*
Y34131D01*
X19226Y33950D01*
X18910Y33449D01*
X13259D01*
X13189Y33656D01*
X13176Y33949D01*
X13367Y34077D01*
X13543Y34340D01*
X13604Y34650D01*
Y35911D01*
X13700Y36141D01*
Y36659D01*
X13604Y36889D01*
Y41862D01*
X13543Y42172D01*
X13367Y42434D01*
X13105Y42610D01*
X12795Y42671D01*
X12347D01*
X7730Y47289D01*
X7921Y47751D01*
X13031D01*
X19151Y41631D01*
D02*
G37*
G36*
X5861Y42341D02*
X5748Y42172D01*
X5687Y41862D01*
Y34650D01*
X5748Y34340D01*
X5924Y34077D01*
X6115Y33949D01*
X6103Y33656D01*
X6032Y33449D01*
X-520D01*
X-591Y33656D01*
X-604Y33949D01*
X-412Y34077D01*
X-237Y34340D01*
X-175Y34650D01*
Y41819D01*
X0Y42241D01*
Y42759D01*
X-198Y43236D01*
X-564Y43602D01*
X-1041Y43800D01*
X-1559D01*
X-2036Y43602D01*
X-2402Y43236D01*
X-2600Y42759D01*
Y42484D01*
X-3100Y42333D01*
X-3168Y42434D01*
X-3430Y42610D01*
X-3740Y42671D01*
X-4528D01*
X-4837Y42610D01*
X-5100Y42434D01*
X-5247Y42214D01*
X-5512Y42189D01*
X-5777Y42214D01*
X-5924Y42434D01*
X-6186Y42610D01*
X-6496Y42671D01*
X-6736D01*
X-8424Y44359D01*
X-8883Y44549D01*
X-9597D01*
X-9834Y44782D01*
X-9638Y45282D01*
X2920D01*
X5861Y42341D01*
D02*
G37*
G36*
X58693Y28210D02*
X58753Y28168D01*
X58821Y28131D01*
X58895Y28099D01*
X58977Y28072D01*
X59066Y28050D01*
X59162Y28034D01*
X59264Y28022D01*
X59374Y28016D01*
X59491Y28014D01*
X58600Y27123D01*
X58599Y27240D01*
X58581Y27453D01*
X58564Y27549D01*
X58542Y27637D01*
X58515Y27719D01*
X58483Y27793D01*
X58446Y27861D01*
X58404Y27922D01*
X58356Y27975D01*
X58639Y28258D01*
X58693Y28210D01*
D02*
G37*
G36*
X38064Y27258D02*
X37926Y27095D01*
X37870Y27015D01*
X37823Y26937D01*
X37785Y26860D01*
X37754Y26785D01*
X37733Y26711D01*
X37720Y26638D01*
X37716Y26567D01*
X37316D01*
X37312Y26638D01*
X37299Y26711D01*
X37277Y26785D01*
X37247Y26860D01*
X37208Y26937D01*
X37161Y27015D01*
X37105Y27095D01*
X37041Y27176D01*
X36968Y27258D01*
X36886Y27341D01*
X38146D01*
X38064Y27258D01*
D02*
G37*
G36*
X32057Y23470D02*
X31974Y23552D01*
X31811Y23689D01*
X31731Y23745D01*
X31653Y23792D01*
X31576Y23831D01*
X31501Y23861D01*
X31427Y23883D01*
X31354Y23896D01*
X31282Y23900D01*
Y24300D01*
X31354Y24304D01*
X31427Y24317D01*
X31501Y24339D01*
X31576Y24369D01*
X31653Y24408D01*
X31731Y24455D01*
X31811Y24511D01*
X31891Y24575D01*
X31974Y24648D01*
X32057Y24730D01*
Y23470D01*
D02*
G37*
G36*
X-41456Y22661D02*
X-41504Y22607D01*
X-41546Y22547D01*
X-41583Y22479D01*
X-41615Y22405D01*
X-41642Y22323D01*
X-41664Y22234D01*
X-41681Y22139D01*
X-41692Y22036D01*
X-41699Y21926D01*
X-41700Y21809D01*
X-42591Y22700D01*
X-42474Y22701D01*
X-42261Y22719D01*
X-42166Y22736D01*
X-42077Y22758D01*
X-41995Y22785D01*
X-41921Y22817D01*
X-41853Y22854D01*
X-41793Y22896D01*
X-41739Y22944D01*
X-41456Y22661D01*
D02*
G37*
G36*
X-11956Y44782D02*
X-12102Y44636D01*
X-12300Y44159D01*
Y43641D01*
X-12102Y43164D01*
X-12317Y42671D01*
X-12795D01*
X-13105Y42610D01*
X-13367Y42434D01*
X-13543Y42172D01*
X-13604Y41862D01*
Y41589D01*
X-13700Y41359D01*
Y40841D01*
X-13604Y40611D01*
Y34650D01*
X-13543Y34340D01*
X-13367Y34077D01*
X-13105Y33902D01*
X-12795Y33840D01*
X-12008D01*
X-11698Y33902D01*
X-11436Y34077D01*
X-11288Y34298D01*
X-11024Y34323D01*
X-10759Y34298D01*
X-10612Y34077D01*
X-10349Y33902D01*
X-10039Y33840D01*
X-9937D01*
X-9935Y33840D01*
X-9856Y33838D01*
X-8359Y32341D01*
X-7900Y32151D01*
X19731D01*
X30057Y21824D01*
X30057Y21600D01*
X29644Y21426D01*
X29514Y21436D01*
X21991Y28959D01*
X21531Y29149D01*
X-21946D01*
X-22153Y29649D01*
X-18051Y33751D01*
X-17852Y34049D01*
X-17782Y34400D01*
Y42720D01*
X-15220Y45282D01*
X-12163D01*
X-11956Y44782D01*
D02*
G37*
G36*
X30793Y22296D02*
X30853Y22254D01*
X30921Y22217D01*
X30995Y22185D01*
X31077Y22158D01*
X31166Y22136D01*
X31262Y22119D01*
X31364Y22108D01*
X31474Y22101D01*
X31591Y22100D01*
X30700Y21209D01*
X30699Y21326D01*
X30681Y21539D01*
X30664Y21634D01*
X30642Y21723D01*
X30615Y21805D01*
X30583Y21879D01*
X30546Y21947D01*
X30504Y22007D01*
X30456Y22061D01*
X30739Y22344D01*
X30793Y22296D01*
D02*
G37*
G36*
X-41456Y18261D02*
X-41504Y18207D01*
X-41546Y18147D01*
X-41583Y18079D01*
X-41615Y18005D01*
X-41642Y17923D01*
X-41664Y17834D01*
X-41681Y17739D01*
X-41692Y17636D01*
X-41699Y17526D01*
X-41700Y17409D01*
X-42591Y18300D01*
X-42474Y18301D01*
X-42261Y18319D01*
X-42166Y18336D01*
X-42077Y18358D01*
X-41995Y18385D01*
X-41921Y18417D01*
X-41853Y18454D01*
X-41793Y18496D01*
X-41739Y18544D01*
X-41456Y18261D01*
D02*
G37*
G36*
X54070Y15695D02*
X53932Y15532D01*
X53876Y15452D01*
X53829Y15374D01*
X53790Y15297D01*
X53760Y15222D01*
X53738Y15148D01*
X53726Y15075D01*
X53721Y15004D01*
X53321D01*
X53317Y15075D01*
X53304Y15148D01*
X53283Y15222D01*
X53253Y15297D01*
X53214Y15374D01*
X53167Y15452D01*
X53111Y15532D01*
X53046Y15613D01*
X52973Y15695D01*
X52891Y15778D01*
X54151D01*
X54070Y15695D01*
D02*
G37*
G36*
X52248Y13774D02*
X52111Y13611D01*
X52055Y13531D01*
X52008Y13453D01*
X51969Y13376D01*
X51939Y13301D01*
X51917Y13227D01*
X51904Y13154D01*
X51900Y13082D01*
X51500D01*
X51496Y13154D01*
X51483Y13227D01*
X51461Y13301D01*
X51431Y13376D01*
X51393Y13453D01*
X51345Y13531D01*
X51289Y13611D01*
X51225Y13691D01*
X51152Y13774D01*
X51070Y13857D01*
X52330D01*
X52248Y13774D01*
D02*
G37*
G36*
X23001Y12274D02*
X23019Y12061D01*
X23036Y11966D01*
X23058Y11877D01*
X23085Y11795D01*
X23117Y11721D01*
X23154Y11653D01*
X23196Y11593D01*
X23244Y11539D01*
X22961Y11256D01*
X22907Y11304D01*
X22847Y11346D01*
X22779Y11383D01*
X22705Y11415D01*
X22623Y11442D01*
X22534Y11464D01*
X22439Y11481D01*
X22336Y11492D01*
X22226Y11499D01*
X22109Y11500D01*
X23000Y12391D01*
X23001Y12274D01*
D02*
G37*
G36*
X44057Y9870D02*
X43974Y9952D01*
X43810Y10089D01*
X43731Y10145D01*
X43653Y10193D01*
X43576Y10231D01*
X43501Y10261D01*
X43426Y10283D01*
X43354Y10296D01*
X43282Y10300D01*
Y10700D01*
X43354Y10704D01*
X43426Y10717D01*
X43501Y10739D01*
X43576Y10769D01*
X43653Y10808D01*
X43731Y10855D01*
X43810Y10911D01*
X43891Y10975D01*
X43974Y11048D01*
X44057Y11130D01*
Y9870D01*
D02*
G37*
G36*
X-38656Y9473D02*
X-38505Y9352D01*
X-38349Y9246D01*
X-38188Y9155D01*
X-38020Y9077D01*
X-37846Y9013D01*
X-37666Y8964D01*
X-37481Y8928D01*
X-37290Y8907D01*
X-37093Y8900D01*
X-38300Y8400D01*
X-38800Y9607D01*
X-38656Y9473D01*
D02*
G37*
G36*
X46710Y7917D02*
X46626Y7999D01*
X46463Y8136D01*
X46384Y8192D01*
X46306Y8240D01*
X46229Y8278D01*
X46153Y8309D01*
X46079Y8330D01*
X46007Y8343D01*
X45935Y8347D01*
Y8747D01*
X46007Y8752D01*
X46079Y8764D01*
X46153Y8786D01*
X46229Y8816D01*
X46306Y8855D01*
X46384Y8902D01*
X46463Y8958D01*
X46544Y9023D01*
X46626Y9096D01*
X46710Y9177D01*
Y7917D01*
D02*
G37*
G36*
X23169Y8872D02*
X23465Y8346D01*
X23506Y8289D01*
X23582Y8201D01*
X23457Y7760D01*
X23397Y7813D01*
X23335Y7855D01*
X23270Y7886D01*
X23202Y7907D01*
X23131Y7917D01*
X23057Y7917D01*
X22980Y7906D01*
X22901Y7885D01*
X22818Y7853D01*
X22732Y7811D01*
X23111Y8990D01*
X23169Y8872D01*
D02*
G37*
G36*
X-47799Y8674D02*
X-47781Y8461D01*
X-47764Y8366D01*
X-47742Y8277D01*
X-47715Y8195D01*
X-47683Y8121D01*
X-47646Y8053D01*
X-47604Y7993D01*
X-47556Y7939D01*
X-47839Y7656D01*
X-47893Y7704D01*
X-47953Y7746D01*
X-48021Y7783D01*
X-48095Y7815D01*
X-48177Y7842D01*
X-48266Y7864D01*
X-48362Y7881D01*
X-48464Y7892D01*
X-48574Y7899D01*
X-48691Y7900D01*
X-47800Y8791D01*
X-47799Y8674D01*
D02*
G37*
G36*
X2114Y7695D02*
X2306Y7530D01*
X2363Y7490D01*
X2416Y7457D01*
X2465Y7432D01*
X2511Y7414D01*
X2553Y7403D01*
X2591Y7400D01*
X1700Y6509D01*
X1697Y6547D01*
X1686Y6589D01*
X1668Y6635D01*
X1643Y6684D01*
X1610Y6737D01*
X1570Y6794D01*
X1467Y6918D01*
X1405Y6986D01*
X1335Y7057D01*
X2043Y7764D01*
X2114Y7695D01*
D02*
G37*
G36*
X3205Y5828D02*
X3183Y5791D01*
X3164Y5746D01*
X3147Y5693D01*
X3133Y5632D01*
X3121Y5564D01*
X3105Y5403D01*
X3101Y5311D01*
X3100Y5212D01*
X2100D01*
X2099Y5311D01*
X2079Y5564D01*
X2067Y5632D01*
X2053Y5693D01*
X2036Y5746D01*
X2017Y5791D01*
X1995Y5828D01*
X1970Y5857D01*
X3230D01*
X3205Y5828D01*
D02*
G37*
G36*
X-41036Y4857D02*
X-41105Y4786D01*
X-41270Y4594D01*
X-41310Y4537D01*
X-41343Y4484D01*
X-41368Y4435D01*
X-41386Y4389D01*
X-41397Y4347D01*
X-41400Y4309D01*
X-42291Y5200D01*
X-42253Y5203D01*
X-42211Y5214D01*
X-42165Y5232D01*
X-42116Y5257D01*
X-42063Y5290D01*
X-42006Y5330D01*
X-41882Y5433D01*
X-41814Y5495D01*
X-41743Y5565D01*
X-41036Y4857D01*
D02*
G37*
G36*
X23201Y5174D02*
X23219Y4961D01*
X23236Y4866D01*
X23258Y4777D01*
X23285Y4695D01*
X23317Y4621D01*
X23354Y4553D01*
X23396Y4493D01*
X23444Y4439D01*
X23161Y4156D01*
X23107Y4204D01*
X23047Y4246D01*
X22979Y4283D01*
X22905Y4315D01*
X22823Y4342D01*
X22734Y4364D01*
X22639Y4381D01*
X22536Y4392D01*
X22426Y4399D01*
X22309Y4400D01*
X23200Y5291D01*
X23201Y5174D01*
D02*
G37*
G36*
X-49507Y1096D02*
X-49447Y1054D01*
X-49379Y1017D01*
X-49305Y985D01*
X-49223Y958D01*
X-49134Y936D01*
X-49038Y919D01*
X-48936Y908D01*
X-48826Y901D01*
X-48709Y900D01*
X-49600Y9D01*
X-49601Y126D01*
X-49619Y338D01*
X-49636Y434D01*
X-49658Y523D01*
X-49685Y605D01*
X-49717Y679D01*
X-49754Y747D01*
X-49796Y807D01*
X-49844Y861D01*
X-49561Y1144D01*
X-49507Y1096D01*
D02*
G37*
G36*
X55791Y-2200D02*
X55674Y-2201D01*
X55462Y-2219D01*
X55366Y-2236D01*
X55277Y-2258D01*
X55195Y-2285D01*
X55121Y-2317D01*
X55053Y-2354D01*
X54993Y-2396D01*
X54939Y-2444D01*
X54656Y-2161D01*
X54704Y-2107D01*
X54746Y-2047D01*
X54783Y-1979D01*
X54815Y-1905D01*
X54842Y-1823D01*
X54864Y-1734D01*
X54881Y-1639D01*
X54892Y-1536D01*
X54899Y-1426D01*
X54900Y-1309D01*
X55791Y-2200D01*
D02*
G37*
G36*
X-36636Y28682D02*
X-42113Y23205D01*
X-42149Y23190D01*
X-42197Y23174D01*
X-42255Y23160D01*
X-42317Y23149D01*
X-42495Y23134D01*
X-42596Y23133D01*
X-42673Y23100D01*
X-42859D01*
X-43336Y22902D01*
X-43702Y22536D01*
X-43900Y22059D01*
Y21541D01*
X-43702Y21064D01*
X-43336Y20698D01*
X-42859Y20500D01*
X-42341D01*
X-41864Y20698D01*
X-41498Y21064D01*
X-41300Y21541D01*
Y21727D01*
X-41267Y21804D01*
X-41266Y21911D01*
X-41261Y21999D01*
X-41252Y22077D01*
X-41240Y22145D01*
X-41226Y22203D01*
X-41210Y22251D01*
X-41194Y22287D01*
X-35631Y27851D01*
X-33721D01*
X-33530Y27389D01*
X-42113Y18805D01*
X-42149Y18790D01*
X-42197Y18774D01*
X-42255Y18760D01*
X-42317Y18749D01*
X-42495Y18734D01*
X-42596Y18733D01*
X-42673Y18700D01*
X-42859D01*
X-43336Y18502D01*
X-43702Y18136D01*
X-43900Y17659D01*
Y17141D01*
X-43702Y16664D01*
X-43336Y16298D01*
X-42859Y16100D01*
X-42341D01*
X-41864Y16298D01*
X-41498Y16664D01*
X-41300Y17141D01*
Y17327D01*
X-41267Y17404D01*
X-41266Y17511D01*
X-41261Y17599D01*
X-41252Y17677D01*
X-41240Y17745D01*
X-41226Y17803D01*
X-41210Y17851D01*
X-41194Y17887D01*
X-32031Y27051D01*
X20931D01*
X39893Y8088D01*
X40353Y7898D01*
X46014D01*
X46051Y7883D01*
X46096Y7861D01*
X46147Y7830D01*
X46199Y7793D01*
X46335Y7678D01*
X46407Y7608D01*
X46485Y7576D01*
X46616Y7445D01*
X47094Y7247D01*
X47611D01*
X48089Y7445D01*
X48455Y7811D01*
X48653Y8289D01*
Y8806D01*
X48500Y9174D01*
X48924Y9458D01*
X60051Y-1669D01*
Y-3481D01*
X59551Y-3581D01*
X59502Y-3464D01*
X59136Y-3098D01*
X58659Y-2900D01*
X58141D01*
X57664Y-3098D01*
X57298Y-3464D01*
X57100Y-3941D01*
Y-4127D01*
X57067Y-4204D01*
X57066Y-4311D01*
X57061Y-4399D01*
X57052Y-4477D01*
X57040Y-4545D01*
X57026Y-4603D01*
X57010Y-4651D01*
X56994Y-4687D01*
X51441Y-10241D01*
X51251Y-10700D01*
Y-14939D01*
X50769Y-15258D01*
X50751Y-15256D01*
X50571Y-15033D01*
Y-7448D01*
X55313Y-2706D01*
X55349Y-2690D01*
X55397Y-2674D01*
X55455Y-2660D01*
X55517Y-2649D01*
X55695Y-2634D01*
X55796Y-2633D01*
X55873Y-2600D01*
X56059D01*
X56536Y-2402D01*
X56902Y-2036D01*
X57100Y-1559D01*
Y-1041D01*
X56902Y-564D01*
X56536Y-198D01*
X56059Y0D01*
X55541D01*
X55064Y-198D01*
X54698Y-564D01*
X54500Y-1041D01*
Y-1227D01*
X54467Y-1304D01*
X54466Y-1411D01*
X54461Y-1499D01*
X54452Y-1577D01*
X54440Y-1645D01*
X54426Y-1703D01*
X54410Y-1751D01*
X54395Y-1787D01*
X49462Y-6719D01*
X49272Y-7179D01*
Y-15183D01*
X49257Y-15219D01*
X49235Y-15264D01*
X49204Y-15315D01*
X49167Y-15367D01*
X49052Y-15504D01*
X48982Y-15576D01*
X48950Y-15654D01*
X48819Y-15785D01*
X48621Y-16263D01*
Y-16550D01*
X48192Y-16892D01*
X48159Y-16900D01*
X48159Y-16900D01*
X47641D01*
X47164Y-17098D01*
X46798Y-17464D01*
X46600Y-17941D01*
Y-18274D01*
X46116Y-18498D01*
X43559Y-15941D01*
X43100Y-15751D01*
X33269D01*
X33005Y-15487D01*
X32990Y-15451D01*
X32974Y-15403D01*
X32960Y-15345D01*
X32949Y-15283D01*
X32934Y-15105D01*
X32933Y-15004D01*
X32900Y-14927D01*
Y-14741D01*
X32702Y-14264D01*
X32336Y-13898D01*
X31859Y-13700D01*
X31341D01*
X30864Y-13898D01*
X30498Y-14264D01*
X30300Y-14741D01*
Y-15259D01*
X30498Y-15736D01*
X30864Y-16102D01*
X31341Y-16300D01*
X31527D01*
X31604Y-16333D01*
X31711Y-16334D01*
X31799Y-16339D01*
X31877Y-16348D01*
X31945Y-16360D01*
X32003Y-16374D01*
X32051Y-16390D01*
X32087Y-16406D01*
X32541Y-16859D01*
X33000Y-17049D01*
X36136D01*
X36363Y-17549D01*
X36187Y-17751D01*
X26569D01*
X23905Y-15087D01*
X23890Y-15051D01*
X23874Y-15003D01*
X23860Y-14945D01*
X23849Y-14883D01*
X23834Y-14705D01*
X23833Y-14604D01*
X23800Y-14527D01*
Y-14341D01*
X23602Y-13864D01*
X23236Y-13498D01*
X22759Y-13300D01*
X22241D01*
X21764Y-13498D01*
X21749Y-13512D01*
X21249Y-13305D01*
Y-12632D01*
X25959Y-7922D01*
X26149Y-7463D01*
Y9000D01*
X25959Y9459D01*
X23505Y11913D01*
X23490Y11949D01*
X23474Y11997D01*
X23460Y12055D01*
X23449Y12117D01*
X23434Y12295D01*
X23433Y12396D01*
X23400Y12473D01*
Y12659D01*
X23202Y13136D01*
X22836Y13502D01*
X22359Y13700D01*
X21841D01*
X21364Y13502D01*
X20998Y13136D01*
X20800Y12659D01*
Y12141D01*
X20998Y11664D01*
X21364Y11298D01*
X21841Y11100D01*
X22027D01*
X22104Y11067D01*
X22211Y11066D01*
X22299Y11061D01*
X22377Y11052D01*
X22445Y11040D01*
X22503Y11026D01*
X22551Y11010D01*
X22587Y10994D01*
X24851Y8731D01*
Y8221D01*
X24389Y8030D01*
X23820Y8598D01*
X23552Y9073D01*
X23500Y9180D01*
X23497Y9183D01*
X23496Y9188D01*
X23446Y9230D01*
X23402Y9336D01*
X23036Y9702D01*
X22559Y9900D01*
X22041D01*
X21564Y9702D01*
X21198Y9336D01*
X21000Y8859D01*
Y8341D01*
X21198Y7864D01*
X21564Y7498D01*
X22041Y7300D01*
X22559D01*
X22841Y7417D01*
X22924Y7423D01*
X22992Y7456D01*
X23035Y7473D01*
X23067Y7481D01*
X23088Y7484D01*
X23097Y7484D01*
X23851Y6731D01*
Y6241D01*
X23592Y6123D01*
X23351Y6088D01*
X23036Y6402D01*
X22559Y6600D01*
X22041D01*
X21564Y6402D01*
X21198Y6036D01*
X21000Y5559D01*
Y5041D01*
X21198Y4564D01*
X21564Y4198D01*
X22041Y4000D01*
X22227D01*
X22304Y3967D01*
X22411Y3966D01*
X22499Y3961D01*
X22577Y3952D01*
X22645Y3940D01*
X22703Y3926D01*
X22751Y3910D01*
Y-7031D01*
X18541Y-11241D01*
X18351Y-11700D01*
Y-16500D01*
X18541Y-16959D01*
X23864Y-22282D01*
X23785Y-22646D01*
X23711Y-22782D01*
X22400D01*
Y-22541D01*
X22202Y-22064D01*
X21836Y-21698D01*
X21359Y-21500D01*
X21190D01*
X21177Y-21490D01*
X21170Y-21483D01*
X21166Y-21482D01*
X21160Y-21477D01*
X21144Y-21473D01*
X21129Y-21465D01*
X21102Y-21449D01*
X21073Y-21428D01*
X20906Y-21285D01*
X20845Y-21225D01*
X20809Y-21211D01*
X20604Y-21006D01*
X20590Y-20971D01*
X20466Y-20841D01*
X20378Y-20738D01*
X20351Y-20702D01*
X20332Y-20673D01*
X20321Y-20654D01*
X20320Y-20651D01*
X20314Y-20636D01*
X20310Y-20631D01*
X20309Y-20629D01*
X20304Y-20624D01*
X20300Y-20619D01*
Y-20541D01*
X20102Y-20064D01*
X19736Y-19698D01*
X19259Y-19500D01*
X19181D01*
X19176Y-19496D01*
X19171Y-19491D01*
X19169Y-19490D01*
X19164Y-19486D01*
X19149Y-19480D01*
X19146Y-19479D01*
X19128Y-19469D01*
X19098Y-19449D01*
X19062Y-19422D01*
X18959Y-19334D01*
X18829Y-19210D01*
X18794Y-19196D01*
X17618Y-18020D01*
Y-13400D01*
X17548Y-13049D01*
X17349Y-12751D01*
X10349Y-5751D01*
X10051Y-5552D01*
X9700Y-5482D01*
X5330D01*
X5294Y-5467D01*
X5201Y-5466D01*
X5127Y-5463D01*
X4994Y-5450D01*
X4954Y-5443D01*
X4923Y-5436D01*
X4907Y-5430D01*
X4893Y-5422D01*
X4886Y-5421D01*
X4881Y-5420D01*
X4872Y-5419D01*
X4856Y-5417D01*
X4736Y-5298D01*
X4259Y-5100D01*
X4090D01*
X4077Y-5090D01*
X4070Y-5083D01*
X4066Y-5082D01*
X4060Y-5077D01*
X4044Y-5073D01*
X4029Y-5065D01*
X4002Y-5049D01*
X3973Y-5028D01*
X3806Y-4885D01*
X3745Y-4825D01*
X3709Y-4811D01*
X3518Y-4620D01*
Y5170D01*
X3533Y5206D01*
X3534Y5299D01*
X3537Y5373D01*
X3550Y5506D01*
X3557Y5546D01*
X3564Y5577D01*
X3570Y5593D01*
X3578Y5607D01*
X3579Y5614D01*
X3581Y5619D01*
X3581Y5628D01*
X3583Y5644D01*
X3702Y5764D01*
X3900Y6241D01*
Y6759D01*
X3702Y7236D01*
X3336Y7602D01*
X2859Y7800D01*
X2690D01*
X2677Y7810D01*
X2670Y7817D01*
X2666Y7818D01*
X2660Y7823D01*
X2644Y7827D01*
X2629Y7835D01*
X2602Y7851D01*
X2573Y7872D01*
X2406Y8015D01*
X2345Y8075D01*
X2309Y8089D01*
X1349Y9049D01*
X1051Y9248D01*
X700Y9318D01*
X-37044D01*
X-37077Y9333D01*
X-37258Y9339D01*
X-37417Y9357D01*
X-37568Y9386D01*
X-37714Y9426D01*
X-37854Y9477D01*
X-37989Y9540D01*
X-38121Y9614D01*
X-38248Y9701D01*
X-38372Y9801D01*
X-38505Y9924D01*
X-38539Y9937D01*
X-45082Y16480D01*
Y23720D01*
X-39620Y29182D01*
X-36843D01*
X-36636Y28682D01*
D02*
G37*
G36*
X-42596Y-5008D02*
X-42718Y-4950D01*
X-43134Y-4777D01*
X-43219Y-4749D01*
X-43368Y-4712D01*
X-43432Y-4703D01*
X-43488Y-4700D01*
X-43634Y-4300D01*
X-43557Y-4295D01*
X-43483Y-4281D01*
X-43413Y-4257D01*
X-43346Y-4223D01*
X-43282Y-4180D01*
X-43222Y-4127D01*
X-43165Y-4065D01*
X-43112Y-3993D01*
X-43062Y-3911D01*
X-43016Y-3820D01*
X-42596Y-5008D01*
D02*
G37*
G36*
X58391Y-5100D02*
X58274Y-5101D01*
X58061Y-5119D01*
X57966Y-5136D01*
X57877Y-5158D01*
X57795Y-5185D01*
X57721Y-5217D01*
X57653Y-5254D01*
X57593Y-5296D01*
X57539Y-5344D01*
X57256Y-5061D01*
X57304Y-5007D01*
X57346Y-4947D01*
X57383Y-4879D01*
X57415Y-4805D01*
X57442Y-4723D01*
X57464Y-4634D01*
X57481Y-4539D01*
X57492Y-4436D01*
X57499Y-4326D01*
X57500Y-4209D01*
X58391Y-5100D01*
D02*
G37*
G36*
X3514Y-5205D02*
X3706Y-5370D01*
X3763Y-5410D01*
X3816Y-5443D01*
X3865Y-5468D01*
X3911Y-5486D01*
X3953Y-5497D01*
X3991Y-5500D01*
X3100Y-6391D01*
X3097Y-6353D01*
X3086Y-6311D01*
X3068Y-6265D01*
X3043Y-6216D01*
X3010Y-6163D01*
X2970Y-6106D01*
X2867Y-5982D01*
X2805Y-5914D01*
X2736Y-5843D01*
X3443Y-5136D01*
X3514Y-5205D01*
D02*
G37*
G36*
X4672Y-5795D02*
X4709Y-5817D01*
X4754Y-5836D01*
X4807Y-5853D01*
X4868Y-5867D01*
X4936Y-5879D01*
X5097Y-5895D01*
X5189Y-5899D01*
X5288Y-5900D01*
Y-6900D01*
X5189Y-6901D01*
X4936Y-6921D01*
X4868Y-6933D01*
X4807Y-6947D01*
X4754Y-6964D01*
X4709Y-6983D01*
X4672Y-7005D01*
X4643Y-7030D01*
Y-5770D01*
X4672Y-5795D01*
D02*
G37*
G36*
X3991Y-7300D02*
X3953Y-7303D01*
X3911Y-7314D01*
X3865Y-7332D01*
X3816Y-7357D01*
X3763Y-7390D01*
X3706Y-7430D01*
X3582Y-7533D01*
X3514Y-7595D01*
X3443Y-7665D01*
X2736Y-6957D01*
X2805Y-6886D01*
X2970Y-6694D01*
X3010Y-6637D01*
X3043Y-6584D01*
X3068Y-6535D01*
X3086Y-6489D01*
X3097Y-6447D01*
X3100Y-6409D01*
X3991Y-7300D01*
D02*
G37*
G36*
X-42943Y-9130D02*
X-43026Y-9048D01*
X-43189Y-8911D01*
X-43269Y-8855D01*
X-43347Y-8807D01*
X-43424Y-8769D01*
X-43499Y-8739D01*
X-43573Y-8717D01*
X-43646Y-8704D01*
X-43718Y-8700D01*
Y-8300D01*
X-43646Y-8296D01*
X-43573Y-8283D01*
X-43499Y-8261D01*
X-43424Y-8231D01*
X-43347Y-8192D01*
X-43269Y-8145D01*
X-43189Y-8089D01*
X-43109Y-8025D01*
X-43026Y-7952D01*
X-42943Y-7870D01*
Y-9130D01*
D02*
G37*
G36*
X23401Y-14726D02*
X23419Y-14939D01*
X23436Y-15034D01*
X23458Y-15123D01*
X23485Y-15205D01*
X23517Y-15279D01*
X23554Y-15347D01*
X23596Y-15407D01*
X23644Y-15461D01*
X23361Y-15744D01*
X23307Y-15696D01*
X23247Y-15654D01*
X23179Y-15617D01*
X23105Y-15585D01*
X23023Y-15558D01*
X22934Y-15536D01*
X22839Y-15519D01*
X22736Y-15508D01*
X22626Y-15501D01*
X22509Y-15500D01*
X23400Y-14609D01*
X23401Y-14726D01*
D02*
G37*
G36*
X50126Y-15175D02*
X50138Y-15248D01*
X50160Y-15322D01*
X50190Y-15397D01*
X50229Y-15474D01*
X50276Y-15552D01*
X50332Y-15632D01*
X50397Y-15713D01*
X50470Y-15795D01*
X50551Y-15879D01*
X49291D01*
X49373Y-15795D01*
X49511Y-15632D01*
X49567Y-15552D01*
X49614Y-15474D01*
X49652Y-15397D01*
X49683Y-15322D01*
X49704Y-15248D01*
X49717Y-15175D01*
X49721Y-15104D01*
X50121D01*
X50126Y-15175D01*
D02*
G37*
G36*
X32501Y-15126D02*
X32519Y-15339D01*
X32536Y-15434D01*
X32558Y-15523D01*
X32585Y-15605D01*
X32617Y-15679D01*
X32654Y-15747D01*
X32696Y-15807D01*
X32744Y-15861D01*
X32461Y-16144D01*
X32407Y-16096D01*
X32347Y-16054D01*
X32279Y-16017D01*
X32205Y-15985D01*
X32123Y-15958D01*
X32034Y-15936D01*
X31938Y-15919D01*
X31836Y-15908D01*
X31726Y-15901D01*
X31609Y-15900D01*
X32500Y-15009D01*
X32501Y-15126D01*
D02*
G37*
G36*
X48626Y-17652D02*
X48790Y-17789D01*
X48869Y-17845D01*
X48947Y-17892D01*
X49024Y-17931D01*
X49099Y-17961D01*
X49174Y-17983D01*
X49246Y-17996D01*
X49317Y-18000D01*
Y-18400D01*
X49246Y-18404D01*
X49174Y-18417D01*
X49099Y-18439D01*
X49024Y-18469D01*
X48947Y-18507D01*
X48869Y-18555D01*
X48790Y-18611D01*
X48709Y-18675D01*
X48626Y-18748D01*
X48543Y-18830D01*
Y-17570D01*
X48626Y-17652D01*
D02*
G37*
G36*
X36957Y-19030D02*
X36874Y-18948D01*
X36711Y-18811D01*
X36631Y-18755D01*
X36553Y-18708D01*
X36476Y-18669D01*
X36401Y-18639D01*
X36327Y-18617D01*
X36254Y-18604D01*
X36182Y-18600D01*
Y-18200D01*
X36254Y-18196D01*
X36327Y-18183D01*
X36401Y-18161D01*
X36476Y-18131D01*
X36553Y-18092D01*
X36631Y-18045D01*
X36711Y-17989D01*
X36791Y-17925D01*
X36874Y-17852D01*
X36957Y-17770D01*
Y-19030D01*
D02*
G37*
G36*
X53644Y-18639D02*
X53596Y-18693D01*
X53554Y-18753D01*
X53517Y-18821D01*
X53485Y-18895D01*
X53458Y-18977D01*
X53436Y-19066D01*
X53419Y-19161D01*
X53408Y-19264D01*
X53401Y-19374D01*
X53400Y-19491D01*
X52509Y-18600D01*
X52626Y-18599D01*
X52838Y-18581D01*
X52934Y-18564D01*
X53023Y-18542D01*
X53105Y-18515D01*
X53179Y-18483D01*
X53247Y-18446D01*
X53307Y-18404D01*
X53361Y-18356D01*
X53644Y-18639D01*
D02*
G37*
G36*
X56944Y-19706D02*
X56896Y-19760D01*
X56854Y-19820D01*
X56817Y-19888D01*
X56785Y-19962D01*
X56758Y-20044D01*
X56736Y-20133D01*
X56719Y-20229D01*
X56708Y-20331D01*
X56701Y-20441D01*
X56700Y-20558D01*
X55809Y-19667D01*
X55926Y-19666D01*
X56138Y-19648D01*
X56234Y-19631D01*
X56323Y-19609D01*
X56405Y-19582D01*
X56479Y-19550D01*
X56547Y-19513D01*
X56607Y-19471D01*
X56661Y-19423D01*
X56944Y-19706D01*
D02*
G37*
G36*
X18669Y-19656D02*
X18792Y-19760D01*
X18847Y-19802D01*
X18898Y-19836D01*
X18945Y-19863D01*
X18988Y-19883D01*
X19027Y-19896D01*
X19062Y-19902D01*
X19070Y-20730D01*
X19898Y-20738D01*
X19904Y-20773D01*
X19917Y-20812D01*
X19937Y-20855D01*
X19964Y-20902D01*
X19998Y-20953D01*
X20040Y-21008D01*
X20144Y-21131D01*
X20278Y-21270D01*
X19638Y-22045D01*
X19566Y-21975D01*
X19434Y-21860D01*
X19373Y-21814D01*
X19316Y-21775D01*
X19261Y-21744D01*
X19211Y-21721D01*
X19164Y-21705D01*
X19120Y-21697D01*
X19080Y-21697D01*
X19071Y-20812D01*
X19070Y-20730D01*
X18103Y-20720D01*
X18103Y-20680D01*
X18095Y-20636D01*
X18079Y-20589D01*
X18056Y-20539D01*
X18025Y-20484D01*
X17986Y-20427D01*
X17940Y-20366D01*
X17824Y-20234D01*
X17755Y-20162D01*
X18530Y-19523D01*
X18669Y-19656D01*
D02*
G37*
G36*
X7091Y-22100D02*
X6974Y-22101D01*
X6762Y-22119D01*
X6666Y-22136D01*
X6577Y-22158D01*
X6495Y-22185D01*
X6421Y-22217D01*
X6353Y-22254D01*
X6293Y-22296D01*
X6239Y-22344D01*
X5956Y-22061D01*
X6004Y-22007D01*
X6046Y-21947D01*
X6083Y-21879D01*
X6115Y-21805D01*
X6142Y-21723D01*
X6164Y-21634D01*
X6181Y-21539D01*
X6192Y-21436D01*
X6199Y-21326D01*
X6200Y-21209D01*
X7091Y-22100D01*
D02*
G37*
G36*
X20614Y-21605D02*
X20806Y-21770D01*
X20863Y-21810D01*
X20916Y-21843D01*
X20965Y-21868D01*
X21011Y-21886D01*
X21053Y-21897D01*
X21091Y-21900D01*
X20200Y-22791D01*
X20197Y-22753D01*
X20186Y-22711D01*
X20168Y-22665D01*
X20143Y-22616D01*
X20110Y-22563D01*
X20070Y-22506D01*
X19967Y-22382D01*
X19905Y-22314D01*
X19836Y-22243D01*
X20543Y-21535D01*
X20614Y-21605D01*
D02*
G37*
G36*
X60401Y-22126D02*
X60419Y-22339D01*
X60436Y-22434D01*
X60458Y-22523D01*
X60485Y-22605D01*
X60517Y-22679D01*
X60554Y-22747D01*
X60596Y-22807D01*
X60644Y-22861D01*
X60361Y-23144D01*
X60307Y-23096D01*
X60247Y-23054D01*
X60179Y-23017D01*
X60105Y-22985D01*
X60023Y-22958D01*
X59934Y-22936D01*
X59838Y-22919D01*
X59736Y-22908D01*
X59626Y-22901D01*
X59509Y-22900D01*
X60400Y-22009D01*
X60401Y-22126D01*
D02*
G37*
G36*
X34844Y-23139D02*
X34796Y-23193D01*
X34754Y-23253D01*
X34717Y-23321D01*
X34685Y-23395D01*
X34658Y-23477D01*
X34636Y-23566D01*
X34619Y-23661D01*
X34608Y-23764D01*
X34601Y-23874D01*
X34600Y-23991D01*
X33709Y-23100D01*
X33826Y-23099D01*
X34038Y-23081D01*
X34134Y-23064D01*
X34223Y-23042D01*
X34305Y-23015D01*
X34379Y-22983D01*
X34447Y-22946D01*
X34507Y-22904D01*
X34561Y-22856D01*
X34844Y-23139D01*
D02*
G37*
G36*
X34248Y-24726D02*
X34111Y-24890D01*
X34055Y-24969D01*
X34007Y-25047D01*
X33969Y-25124D01*
X33939Y-25199D01*
X33917Y-25273D01*
X33904Y-25346D01*
X33900Y-25418D01*
X33500D01*
X33496Y-25346D01*
X33483Y-25273D01*
X33461Y-25199D01*
X33431Y-25124D01*
X33393Y-25047D01*
X33345Y-24969D01*
X33289Y-24890D01*
X33225Y-24809D01*
X33152Y-24726D01*
X33070Y-24643D01*
X34330D01*
X34248Y-24726D01*
D02*
G37*
G36*
X55757Y-26630D02*
X55674Y-26548D01*
X55510Y-26411D01*
X55431Y-26355D01*
X55353Y-26307D01*
X55276Y-26269D01*
X55201Y-26239D01*
X55127Y-26217D01*
X55054Y-26204D01*
X54983Y-26200D01*
Y-25800D01*
X55054Y-25796D01*
X55127Y-25783D01*
X55201Y-25761D01*
X55276Y-25731D01*
X55353Y-25692D01*
X55431Y-25645D01*
X55510Y-25589D01*
X55591Y-25525D01*
X55674Y-25452D01*
X55757Y-25370D01*
Y-26630D01*
D02*
G37*
G36*
X58373Y-28646D02*
X58289Y-28564D01*
X58126Y-28426D01*
X58047Y-28370D01*
X57969Y-28323D01*
X57892Y-28285D01*
X57816Y-28255D01*
X57742Y-28233D01*
X57670Y-28220D01*
X57598Y-28216D01*
Y-27816D01*
X57670Y-27812D01*
X57742Y-27799D01*
X57816Y-27777D01*
X57892Y-27747D01*
X57969Y-27708D01*
X58047Y-27661D01*
X58126Y-27605D01*
X58207Y-27541D01*
X58289Y-27468D01*
X58373Y-27386D01*
Y-28646D01*
D02*
G37*
G36*
X5801Y-27726D02*
X5819Y-27939D01*
X5836Y-28034D01*
X5858Y-28123D01*
X5885Y-28205D01*
X5917Y-28279D01*
X5954Y-28347D01*
X5996Y-28407D01*
X6044Y-28461D01*
X5761Y-28744D01*
X5707Y-28696D01*
X5647Y-28654D01*
X5579Y-28617D01*
X5505Y-28585D01*
X5423Y-28558D01*
X5334Y-28536D01*
X5239Y-28519D01*
X5136Y-28508D01*
X5026Y-28501D01*
X4909Y-28500D01*
X5800Y-27609D01*
X5801Y-27726D01*
D02*
G37*
G36*
X33904Y-28654D02*
X33917Y-28727D01*
X33939Y-28801D01*
X33969Y-28876D01*
X34007Y-28953D01*
X34055Y-29031D01*
X34111Y-29111D01*
X34175Y-29191D01*
X34248Y-29274D01*
X34330Y-29357D01*
X33070D01*
X33152Y-29274D01*
X33289Y-29111D01*
X33345Y-29031D01*
X33393Y-28953D01*
X33431Y-28876D01*
X33461Y-28801D01*
X33483Y-28727D01*
X33496Y-28654D01*
X33500Y-28583D01*
X33900D01*
X33904Y-28654D01*
D02*
G37*
G36*
X55757Y-30567D02*
X55674Y-30485D01*
X55510Y-30348D01*
X55431Y-30292D01*
X55353Y-30244D01*
X55276Y-30206D01*
X55201Y-30176D01*
X55127Y-30154D01*
X55054Y-30141D01*
X54983Y-30137D01*
Y-29737D01*
X55054Y-29733D01*
X55127Y-29720D01*
X55201Y-29698D01*
X55276Y-29668D01*
X55353Y-29629D01*
X55431Y-29582D01*
X55510Y-29526D01*
X55591Y-29462D01*
X55674Y-29389D01*
X55757Y-29307D01*
Y-30567D01*
D02*
G37*
G36*
X55741Y-34559D02*
X56200Y-34749D01*
X59625D01*
X59832Y-35249D01*
X58331Y-36751D01*
X54944D01*
X54914Y-36742D01*
X54878Y-36729D01*
X54843Y-36713D01*
X54816Y-36697D01*
X52620Y-34501D01*
X52161Y-34311D01*
X32378D01*
X32341Y-34297D01*
X32296Y-34274D01*
X32245Y-34243D01*
X32193Y-34207D01*
X32057Y-34092D01*
X32005Y-34040D01*
X32004Y-34038D01*
X31996Y-34007D01*
X31990Y-33971D01*
X31973Y-33753D01*
X31972Y-33667D01*
X31957Y-33631D01*
Y-30496D01*
X32457Y-30396D01*
X32598Y-30736D01*
X32964Y-31102D01*
X33441Y-31300D01*
X33959D01*
X34436Y-31102D01*
X34802Y-30736D01*
X35000Y-30259D01*
Y-29741D01*
X34802Y-29264D01*
X34671Y-29132D01*
X34640Y-29055D01*
X34565Y-28978D01*
X34506Y-28912D01*
X34457Y-28851D01*
X34418Y-28794D01*
X34387Y-28743D01*
X34364Y-28698D01*
X34349Y-28662D01*
Y-25338D01*
X34364Y-25302D01*
X34387Y-25257D01*
X34418Y-25206D01*
X34454Y-25154D01*
X34569Y-25018D01*
X34640Y-24945D01*
X34671Y-24868D01*
X34802Y-24736D01*
X35000Y-24259D01*
Y-24073D01*
X35033Y-23996D01*
X35034Y-23889D01*
X35039Y-23801D01*
X35048Y-23723D01*
X35060Y-23655D01*
X35074Y-23597D01*
X35090Y-23549D01*
X35105Y-23513D01*
X35269Y-23349D01*
X44531D01*
X55741Y-34559D01*
D02*
G37*
G36*
X58373Y-32583D02*
X58289Y-32501D01*
X58126Y-32364D01*
X58047Y-32308D01*
X57969Y-32260D01*
X57892Y-32222D01*
X57816Y-32192D01*
X57742Y-32170D01*
X57670Y-32157D01*
X57598Y-32153D01*
Y-31753D01*
X57670Y-31749D01*
X57742Y-31736D01*
X57816Y-31714D01*
X57892Y-31684D01*
X57969Y-31645D01*
X58047Y-31598D01*
X58126Y-31542D01*
X58207Y-31478D01*
X58289Y-31405D01*
X58373Y-31323D01*
Y-32583D01*
D02*
G37*
G36*
X31541Y-33772D02*
X31560Y-34024D01*
X31572Y-34093D01*
X31586Y-34153D01*
X31603Y-34206D01*
X31623Y-34251D01*
X31645Y-34288D01*
X31669Y-34318D01*
X30409D01*
X30434Y-34288D01*
X30456Y-34251D01*
X30476Y-34206D01*
X30493Y-34153D01*
X30507Y-34093D01*
X30519Y-34024D01*
X30534Y-33864D01*
X30538Y-33772D01*
X30539Y-33672D01*
X31539D01*
X31541Y-33772D01*
D02*
G37*
G36*
X31766Y-34412D02*
X31929Y-34550D01*
X32008Y-34606D01*
X32087Y-34653D01*
X32163Y-34692D01*
X32239Y-34722D01*
X32313Y-34743D01*
X32386Y-34756D01*
X32450Y-34760D01*
X32498Y-34761D01*
Y-35161D01*
X32450Y-35161D01*
X32386Y-35165D01*
X32313Y-35178D01*
X32239Y-35199D01*
X32163Y-35229D01*
X32087Y-35268D01*
X32008Y-35315D01*
X31929Y-35371D01*
X31848Y-35436D01*
X31766Y-35509D01*
X31682Y-35591D01*
Y-35210D01*
X31643Y-35216D01*
X31557Y-35236D01*
X31486Y-35259D01*
X31431Y-35285D01*
X31393Y-35314D01*
Y-34607D01*
X31431Y-34636D01*
X31486Y-34662D01*
X31557Y-34685D01*
X31643Y-34705D01*
X31682Y-34712D01*
Y-34331D01*
X31766Y-34412D01*
D02*
G37*
G36*
X15782Y-13780D02*
Y-18400D01*
X15852Y-18751D01*
X16051Y-19049D01*
X17413Y-20411D01*
X17422Y-20438D01*
X17438Y-20447D01*
X17445Y-20464D01*
X17506Y-20527D01*
X17604Y-20640D01*
X17634Y-20679D01*
X17657Y-20713D01*
X17671Y-20737D01*
X17675Y-20746D01*
X17677Y-20759D01*
X17682Y-20765D01*
X17684Y-20773D01*
X17694Y-20785D01*
X17700Y-20793D01*
X17700Y-20794D01*
Y-21059D01*
X17898Y-21536D01*
X18264Y-21902D01*
X18741Y-22100D01*
X19006D01*
X19007Y-22100D01*
X19015Y-22106D01*
X19027Y-22116D01*
X19035Y-22118D01*
X19041Y-22123D01*
X19053Y-22125D01*
X19063Y-22129D01*
X19087Y-22143D01*
X19121Y-22166D01*
X19160Y-22196D01*
X19273Y-22294D01*
X19336Y-22355D01*
X19353Y-22362D01*
X19362Y-22378D01*
X19389Y-22387D01*
X19511Y-22509D01*
X19525Y-22545D01*
X19590Y-22612D01*
X19640Y-22666D01*
X19725Y-22769D01*
X19749Y-22802D01*
X19766Y-22829D01*
X19773Y-22844D01*
X19777Y-22860D01*
X19782Y-22866D01*
X19783Y-22870D01*
X19790Y-22877D01*
X19800Y-22890D01*
Y-23059D01*
X19998Y-23536D01*
X20364Y-23902D01*
X20841Y-24100D01*
X21102D01*
X21351Y-24349D01*
X21649Y-24548D01*
X22000Y-24618D01*
X27220D01*
X30122Y-27520D01*
Y-33631D01*
X30106Y-33667D01*
X30105Y-33760D01*
X30102Y-33834D01*
X30089Y-33967D01*
X30082Y-34006D01*
X30075Y-34038D01*
X30070Y-34054D01*
X30062Y-34067D01*
X30061Y-34075D01*
X30059Y-34079D01*
X30059Y-34089D01*
X30056Y-34105D01*
X29937Y-34224D01*
X29739Y-34702D01*
Y-35219D01*
X29937Y-35697D01*
X30191Y-35951D01*
X30032Y-36451D01*
X25369D01*
X17459Y-28541D01*
X17000Y-28351D01*
X6569D01*
X6306Y-28087D01*
X6290Y-28051D01*
X6274Y-28003D01*
X6260Y-27945D01*
X6249Y-27883D01*
X6234Y-27705D01*
X6233Y-27604D01*
X6200Y-27527D01*
Y-27341D01*
X6002Y-26864D01*
X5636Y-26498D01*
X5159Y-26300D01*
X4641D01*
X4164Y-26498D01*
X4049Y-26612D01*
X3549Y-26405D01*
Y-25669D01*
X6613Y-22605D01*
X6649Y-22590D01*
X6697Y-22574D01*
X6755Y-22560D01*
X6817Y-22549D01*
X6995Y-22534D01*
X7096Y-22533D01*
X7173Y-22500D01*
X7359D01*
X7836Y-22302D01*
X8202Y-21936D01*
X8400Y-21459D01*
Y-20941D01*
X8202Y-20464D01*
X7836Y-20098D01*
X7359Y-19900D01*
X6841D01*
X6364Y-20098D01*
X5998Y-20464D01*
X5800Y-20941D01*
Y-21127D01*
X5767Y-21204D01*
X5766Y-21311D01*
X5761Y-21399D01*
X5752Y-21477D01*
X5740Y-21545D01*
X5726Y-21603D01*
X5710Y-21651D01*
X5694Y-21687D01*
X2441Y-24941D01*
X2251Y-25400D01*
Y-28500D01*
X2441Y-28959D01*
X3841Y-30359D01*
X4300Y-30549D01*
X16500D01*
X24309Y-38359D01*
X24769Y-38549D01*
X47531D01*
X48494Y-39513D01*
X48510Y-39549D01*
X48526Y-39597D01*
X48540Y-39655D01*
X48551Y-39717D01*
X48566Y-39895D01*
X48567Y-39996D01*
X48600Y-40073D01*
Y-40259D01*
X48798Y-40736D01*
X49164Y-41102D01*
X49453Y-41222D01*
X49620Y-41762D01*
X47531Y-43851D01*
X44838D01*
X44802Y-43836D01*
X44757Y-43813D01*
X44706Y-43782D01*
X44654Y-43746D01*
X44518Y-43631D01*
X44445Y-43560D01*
X44368Y-43529D01*
X44236Y-43398D01*
X43759Y-43200D01*
X43241D01*
X42764Y-43398D01*
X42398Y-43764D01*
X42200Y-44241D01*
Y-44759D01*
X42398Y-45236D01*
X42414Y-45252D01*
X42425Y-45410D01*
X42255Y-45801D01*
X42122Y-45803D01*
X38859Y-42541D01*
X38400Y-42351D01*
X30138D01*
X30102Y-42336D01*
X30057Y-42313D01*
X30006Y-42283D01*
X29954Y-42246D01*
X29818Y-42131D01*
X29745Y-42060D01*
X29668Y-42029D01*
X29536Y-41898D01*
X29059Y-41700D01*
X28541D01*
X28064Y-41898D01*
X27698Y-42264D01*
X27500Y-42741D01*
Y-43259D01*
X27698Y-43736D01*
X28064Y-44102D01*
X28541Y-44300D01*
X29059D01*
X29536Y-44102D01*
X29668Y-43971D01*
X29745Y-43940D01*
X29822Y-43865D01*
X29888Y-43806D01*
X29949Y-43757D01*
X30006Y-43718D01*
X30057Y-43687D01*
X30102Y-43664D01*
X30138Y-43649D01*
X38131D01*
X40870Y-46389D01*
X40679Y-46851D01*
X-34700D01*
X-35159Y-47041D01*
X-37613Y-49494D01*
X-37649Y-49510D01*
X-37697Y-49526D01*
X-37755Y-49540D01*
X-37817Y-49551D01*
X-37995Y-49566D01*
X-38096Y-49567D01*
X-38173Y-49600D01*
X-38359D01*
X-38836Y-49798D01*
X-39202Y-50164D01*
X-39400Y-50641D01*
Y-51159D01*
X-39202Y-51636D01*
X-38836Y-52002D01*
X-38359Y-52200D01*
X-37841D01*
X-37364Y-52002D01*
X-36998Y-51636D01*
X-36800Y-51159D01*
Y-50973D01*
X-36767Y-50896D01*
X-36766Y-50789D01*
X-36761Y-50701D01*
X-36752Y-50623D01*
X-36740Y-50555D01*
X-36726Y-50497D01*
X-36710Y-50449D01*
X-36694Y-50413D01*
X-34431Y-48149D01*
X-28570D01*
X-28345Y-48371D01*
X-28272Y-48649D01*
X-28379Y-48798D01*
X-28442Y-48853D01*
X-28595Y-48866D01*
X-28696Y-48867D01*
X-28773Y-48900D01*
X-28959D01*
X-29436Y-49098D01*
X-29802Y-49464D01*
X-30000Y-49941D01*
Y-50459D01*
X-29802Y-50936D01*
X-29436Y-51302D01*
X-28959Y-51500D01*
X-28441D01*
X-27964Y-51302D01*
X-27598Y-50936D01*
X-27400Y-50459D01*
Y-50273D01*
X-27367Y-50196D01*
X-27366Y-50089D01*
X-27361Y-50001D01*
X-27352Y-49923D01*
X-27340Y-49855D01*
X-27326Y-49797D01*
X-27310Y-49749D01*
X-27294Y-49713D01*
X-26631Y-49049D01*
X-24854D01*
X-24647Y-49549D01*
X-28880Y-53782D01*
X-38520D01*
X-40582Y-51720D01*
Y-49880D01*
X-36820Y-46118D01*
X-19000D01*
X-18649Y-46048D01*
X-18351Y-45849D01*
X-10551Y-38049D01*
X-10352Y-37751D01*
X-10282Y-37400D01*
Y-21980D01*
X3709Y-7989D01*
X3745Y-7975D01*
X3812Y-7909D01*
X3866Y-7860D01*
X3969Y-7775D01*
X4002Y-7751D01*
X4029Y-7735D01*
X4044Y-7727D01*
X4060Y-7723D01*
X4066Y-7718D01*
X4070Y-7717D01*
X4077Y-7710D01*
X4090Y-7700D01*
X4259D01*
X4736Y-7502D01*
X4856Y-7383D01*
X4872Y-7381D01*
X4881Y-7380D01*
X4886Y-7379D01*
X4893Y-7378D01*
X4907Y-7369D01*
X4923Y-7364D01*
X4954Y-7357D01*
X4989Y-7351D01*
X5208Y-7334D01*
X5294Y-7333D01*
X5330Y-7318D01*
X9320D01*
X15782Y-13780D01*
D02*
G37*
G36*
X54458Y-36971D02*
X54518Y-37019D01*
X54580Y-37061D01*
X54645Y-37098D01*
X54712Y-37129D01*
X54782Y-37155D01*
X54853Y-37174D01*
X54927Y-37189D01*
X55004Y-37197D01*
X55083Y-37200D01*
X55200Y-37600D01*
X55124Y-37604D01*
X55056Y-37616D01*
X54996Y-37636D01*
X54944Y-37664D01*
X54900Y-37700D01*
X54864Y-37744D01*
X54836Y-37796D01*
X54816Y-37856D01*
X54804Y-37924D01*
X54800Y-38000D01*
X54400Y-37883D01*
X54397Y-37804D01*
X54389Y-37727D01*
X54374Y-37653D01*
X54355Y-37582D01*
X54329Y-37512D01*
X54298Y-37445D01*
X54261Y-37380D01*
X54219Y-37318D01*
X54171Y-37258D01*
X54117Y-37200D01*
X54400Y-36917D01*
X54458Y-36971D01*
D02*
G37*
G36*
X51693Y-37404D02*
X51753Y-37446D01*
X51821Y-37483D01*
X51895Y-37515D01*
X51977Y-37542D01*
X52066Y-37564D01*
X52162Y-37581D01*
X52264Y-37592D01*
X52374Y-37599D01*
X52491Y-37600D01*
X51600Y-38491D01*
X51599Y-38374D01*
X51581Y-38162D01*
X51564Y-38066D01*
X51542Y-37977D01*
X51515Y-37895D01*
X51483Y-37821D01*
X51446Y-37753D01*
X51404Y-37693D01*
X51356Y-37639D01*
X51639Y-37356D01*
X51693Y-37404D01*
D02*
G37*
G36*
X49093Y-38904D02*
X49153Y-38946D01*
X49221Y-38983D01*
X49295Y-39015D01*
X49377Y-39042D01*
X49466Y-39064D01*
X49562Y-39081D01*
X49664Y-39092D01*
X49774Y-39099D01*
X49891Y-39100D01*
X49000Y-39991D01*
X48999Y-39874D01*
X48981Y-39661D01*
X48964Y-39566D01*
X48942Y-39477D01*
X48915Y-39395D01*
X48883Y-39321D01*
X48846Y-39253D01*
X48804Y-39193D01*
X48756Y-39139D01*
X49039Y-38856D01*
X49093Y-38904D01*
D02*
G37*
G36*
X29526Y-42452D02*
X29689Y-42589D01*
X29769Y-42645D01*
X29847Y-42693D01*
X29924Y-42731D01*
X29999Y-42761D01*
X30073Y-42783D01*
X30146Y-42796D01*
X30217Y-42800D01*
Y-43200D01*
X30146Y-43204D01*
X30073Y-43217D01*
X29999Y-43239D01*
X29924Y-43269D01*
X29847Y-43308D01*
X29769Y-43355D01*
X29689Y-43411D01*
X29609Y-43475D01*
X29526Y-43548D01*
X29443Y-43630D01*
Y-42370D01*
X29526Y-42452D01*
D02*
G37*
G36*
X51791Y-43900D02*
X51674Y-43901D01*
X51461Y-43919D01*
X51366Y-43936D01*
X51277Y-43958D01*
X51195Y-43985D01*
X51121Y-44017D01*
X51053Y-44054D01*
X50993Y-44096D01*
X50939Y-44144D01*
X50656Y-43861D01*
X50704Y-43807D01*
X50746Y-43747D01*
X50783Y-43679D01*
X50815Y-43605D01*
X50842Y-43523D01*
X50864Y-43434D01*
X50881Y-43339D01*
X50892Y-43236D01*
X50899Y-43126D01*
X50900Y-43009D01*
X51791Y-43900D01*
D02*
G37*
G36*
X44226Y-43952D02*
X44390Y-44089D01*
X44469Y-44145D01*
X44547Y-44192D01*
X44624Y-44231D01*
X44699Y-44261D01*
X44774Y-44283D01*
X44846Y-44296D01*
X44918Y-44300D01*
Y-44700D01*
X44846Y-44704D01*
X44774Y-44717D01*
X44699Y-44739D01*
X44624Y-44769D01*
X44547Y-44807D01*
X44469Y-44855D01*
X44390Y-44911D01*
X44309Y-44975D01*
X44226Y-45048D01*
X44143Y-45130D01*
Y-43870D01*
X44226Y-43952D01*
D02*
G37*
G36*
X-27556Y-49339D02*
X-27604Y-49393D01*
X-27646Y-49453D01*
X-27683Y-49521D01*
X-27715Y-49595D01*
X-27742Y-49677D01*
X-27764Y-49766D01*
X-27781Y-49861D01*
X-27792Y-49964D01*
X-27799Y-50074D01*
X-27800Y-50191D01*
X-28691Y-49300D01*
X-28574Y-49299D01*
X-28361Y-49281D01*
X-28266Y-49264D01*
X-28177Y-49242D01*
X-28095Y-49215D01*
X-28021Y-49183D01*
X-27953Y-49146D01*
X-27893Y-49104D01*
X-27839Y-49056D01*
X-27556Y-49339D01*
D02*
G37*
G36*
X-36956Y-50039D02*
X-37004Y-50093D01*
X-37046Y-50153D01*
X-37083Y-50221D01*
X-37115Y-50295D01*
X-37142Y-50377D01*
X-37164Y-50466D01*
X-37181Y-50561D01*
X-37192Y-50664D01*
X-37199Y-50774D01*
X-37200Y-50891D01*
X-38091Y-50000D01*
X-37974Y-49999D01*
X-37762Y-49981D01*
X-37666Y-49964D01*
X-37577Y-49942D01*
X-37495Y-49915D01*
X-37421Y-49883D01*
X-37353Y-49846D01*
X-37293Y-49804D01*
X-37239Y-49756D01*
X-36956Y-50039D01*
D02*
G37*
G36*
X46907Y-53730D02*
X46878Y-53705D01*
X46841Y-53683D01*
X46796Y-53664D01*
X46743Y-53647D01*
X46682Y-53632D01*
X46614Y-53621D01*
X46453Y-53605D01*
X46361Y-53601D01*
X46325Y-53601D01*
X46289Y-53601D01*
X46036Y-53621D01*
X45968Y-53632D01*
X45907Y-53647D01*
X45854Y-53664D01*
X45809Y-53683D01*
X45772Y-53705D01*
X45743Y-53730D01*
Y-52470D01*
X45772Y-52495D01*
X45809Y-52517D01*
X45854Y-52536D01*
X45907Y-52553D01*
X45968Y-52567D01*
X46036Y-52579D01*
X46197Y-52595D01*
X46289Y-52599D01*
X46325Y-52599D01*
X46361Y-52599D01*
X46614Y-52579D01*
X46682Y-52567D01*
X46743Y-52553D01*
X46796Y-52536D01*
X46841Y-52517D01*
X46878Y-52495D01*
X46907Y-52470D01*
Y-53730D01*
D02*
G37*
G36*
X44457D02*
X44428Y-53705D01*
X44391Y-53683D01*
X44346Y-53664D01*
X44293Y-53647D01*
X44232Y-53632D01*
X44164Y-53621D01*
X44003Y-53605D01*
X43911Y-53601D01*
X43812Y-53600D01*
Y-52600D01*
X43911Y-52599D01*
X44164Y-52579D01*
X44232Y-52567D01*
X44293Y-52553D01*
X44346Y-52536D01*
X44391Y-52517D01*
X44428Y-52495D01*
X44457Y-52470D01*
Y-53730D01*
D02*
G37*
%LPC*%
G36*
X3659Y-17300D02*
X3141D01*
X2664Y-17498D01*
X2298Y-17864D01*
X2100Y-18341D01*
Y-18859D01*
X2298Y-19336D01*
X2429Y-19468D01*
X2460Y-19545D01*
X2535Y-19622D01*
X2593Y-19688D01*
X2643Y-19749D01*
X2682Y-19806D01*
X2713Y-19857D01*
X2736Y-19902D01*
X2751Y-19938D01*
Y-20031D01*
X-2413Y-25194D01*
X-2449Y-25210D01*
X-2497Y-25226D01*
X-2555Y-25240D01*
X-2617Y-25251D01*
X-2795Y-25266D01*
X-2896Y-25267D01*
X-2973Y-25300D01*
X-3159D01*
X-3636Y-25498D01*
X-4002Y-25864D01*
X-4200Y-26341D01*
Y-26859D01*
X-4002Y-27336D01*
X-3636Y-27702D01*
X-3159Y-27900D01*
X-2917D01*
X-2571Y-28371D01*
X-2600Y-28441D01*
Y-28959D01*
X-2402Y-29436D01*
X-2271Y-29568D01*
X-2240Y-29645D01*
X-2165Y-29722D01*
X-2107Y-29788D01*
X-2057Y-29849D01*
X-2018Y-29906D01*
X-1987Y-29957D01*
X-1964Y-30002D01*
X-1949Y-30038D01*
Y-30131D01*
X-4369Y-32551D01*
X-5462D01*
X-5498Y-32536D01*
X-5543Y-32513D01*
X-5594Y-32482D01*
X-5646Y-32446D01*
X-5782Y-32331D01*
X-5855Y-32260D01*
X-5932Y-32229D01*
X-6064Y-32098D01*
X-6541Y-31900D01*
X-7059D01*
X-7536Y-32098D01*
X-7902Y-32464D01*
X-8100Y-32941D01*
Y-33459D01*
X-7902Y-33936D01*
X-7536Y-34302D01*
X-7059Y-34500D01*
X-6541D01*
X-6064Y-34302D01*
X-5932Y-34171D01*
X-5855Y-34140D01*
X-5778Y-34065D01*
X-5712Y-34007D01*
X-5651Y-33957D01*
X-5594Y-33917D01*
X-5543Y-33887D01*
X-5498Y-33864D01*
X-5492Y-33862D01*
X-5171Y-33913D01*
X-5081Y-34238D01*
X-5069Y-34431D01*
X-5402Y-34764D01*
X-5600Y-35241D01*
Y-35759D01*
X-5402Y-36236D01*
X-5036Y-36602D01*
X-4559Y-36800D01*
X-4041D01*
X-3564Y-36602D01*
X-3198Y-36236D01*
X-3000Y-35759D01*
Y-35573D01*
X-2967Y-35496D01*
X-2966Y-35389D01*
X-2961Y-35301D01*
X-2952Y-35223D01*
X-2940Y-35155D01*
X-2926Y-35097D01*
X-2910Y-35049D01*
X-2895Y-35013D01*
X13Y-32105D01*
X49Y-32090D01*
X97Y-32074D01*
X155Y-32060D01*
X217Y-32049D01*
X395Y-32034D01*
X496Y-32033D01*
X573Y-32000D01*
X759D01*
X1236Y-31802D01*
X1602Y-31436D01*
X1800Y-30959D01*
Y-30441D01*
X1602Y-29964D01*
X1236Y-29598D01*
X759Y-29400D01*
X358D01*
X89Y-29122D01*
X-0Y-28959D01*
X0Y-28959D01*
Y-28441D01*
X-198Y-27964D01*
X-564Y-27598D01*
X-1041Y-27400D01*
X-1283D01*
X-1629Y-26929D01*
X-1600Y-26859D01*
Y-26673D01*
X-1567Y-26596D01*
X-1566Y-26489D01*
X-1561Y-26401D01*
X-1552Y-26323D01*
X-1540Y-26255D01*
X-1526Y-26197D01*
X-1510Y-26149D01*
X-1495Y-26113D01*
X3859Y-20759D01*
X4049Y-20300D01*
Y-19938D01*
X4064Y-19902D01*
X4087Y-19857D01*
X4118Y-19806D01*
X4154Y-19754D01*
X4269Y-19618D01*
X4340Y-19545D01*
X4371Y-19468D01*
X4502Y-19336D01*
X4700Y-18859D01*
Y-18341D01*
X4502Y-17864D01*
X4136Y-17498D01*
X3659Y-17300D01*
D02*
G37*
%LPD*%
G36*
X3948Y-19326D02*
X3811Y-19489D01*
X3755Y-19569D01*
X3708Y-19647D01*
X3669Y-19724D01*
X3639Y-19799D01*
X3617Y-19873D01*
X3604Y-19946D01*
X3600Y-20018D01*
X3200D01*
X3196Y-19946D01*
X3183Y-19873D01*
X3161Y-19799D01*
X3131Y-19724D01*
X3093Y-19647D01*
X3045Y-19569D01*
X2989Y-19489D01*
X2925Y-19409D01*
X2852Y-19326D01*
X2770Y-19243D01*
X4030D01*
X3948Y-19326D01*
D02*
G37*
G36*
X-1756Y-25739D02*
X-1804Y-25793D01*
X-1846Y-25853D01*
X-1883Y-25921D01*
X-1915Y-25995D01*
X-1942Y-26077D01*
X-1964Y-26166D01*
X-1981Y-26261D01*
X-1992Y-26364D01*
X-1999Y-26474D01*
X-2000Y-26591D01*
X-2891Y-25700D01*
X-2774Y-25699D01*
X-2561Y-25681D01*
X-2466Y-25664D01*
X-2377Y-25642D01*
X-2295Y-25615D01*
X-2221Y-25583D01*
X-2153Y-25546D01*
X-2093Y-25504D01*
X-2039Y-25456D01*
X-1756Y-25739D01*
D02*
G37*
G36*
X-752Y-29426D02*
X-889Y-29590D01*
X-945Y-29669D01*
X-993Y-29747D01*
X-1031Y-29824D01*
X-1061Y-29899D01*
X-1083Y-29974D01*
X-1096Y-30046D01*
X-1100Y-30117D01*
X-1500D01*
X-1504Y-30046D01*
X-1517Y-29974D01*
X-1539Y-29899D01*
X-1569Y-29824D01*
X-1608Y-29747D01*
X-1655Y-29669D01*
X-1711Y-29590D01*
X-1775Y-29509D01*
X-1848Y-29426D01*
X-1930Y-29343D01*
X-670D01*
X-752Y-29426D01*
D02*
G37*
G36*
X491Y-31600D02*
X374Y-31601D01*
X161Y-31619D01*
X66Y-31636D01*
X-23Y-31658D01*
X-105Y-31685D01*
X-179Y-31717D01*
X-247Y-31754D01*
X-307Y-31796D01*
X-361Y-31844D01*
X-644Y-31561D01*
X-596Y-31507D01*
X-554Y-31447D01*
X-517Y-31379D01*
X-485Y-31305D01*
X-458Y-31223D01*
X-436Y-31134D01*
X-419Y-31038D01*
X-408Y-30936D01*
X-401Y-30826D01*
X-400Y-30709D01*
X491Y-31600D01*
D02*
G37*
G36*
X-6074Y-32652D02*
X-5911Y-32789D01*
X-5831Y-32845D01*
X-5753Y-32893D01*
X-5676Y-32931D01*
X-5601Y-32961D01*
X-5527Y-32983D01*
X-5454Y-32996D01*
X-5382Y-33000D01*
Y-33400D01*
X-5454Y-33404D01*
X-5527Y-33417D01*
X-5601Y-33439D01*
X-5676Y-33469D01*
X-5753Y-33507D01*
X-5831Y-33555D01*
X-5911Y-33611D01*
X-5991Y-33675D01*
X-6074Y-33748D01*
X-6157Y-33830D01*
Y-32570D01*
X-6074Y-32652D01*
D02*
G37*
G36*
X-3156Y-34639D02*
X-3204Y-34693D01*
X-3246Y-34753D01*
X-3283Y-34821D01*
X-3315Y-34895D01*
X-3342Y-34977D01*
X-3364Y-35066D01*
X-3381Y-35162D01*
X-3392Y-35264D01*
X-3399Y-35374D01*
X-3400Y-35491D01*
X-4291Y-34600D01*
X-4174Y-34599D01*
X-3961Y-34581D01*
X-3866Y-34564D01*
X-3777Y-34542D01*
X-3695Y-34515D01*
X-3621Y-34483D01*
X-3553Y-34446D01*
X-3493Y-34404D01*
X-3439Y-34356D01*
X-3156Y-34639D01*
D02*
G37*
D11*
X3300Y46200D02*
X6890Y42610D01*
X16700Y-18400D02*
X21100Y-22800D01*
X-28500Y-54700D02*
X-23800Y-50000D01*
X38600D01*
X41700Y-53100D01*
X-38900Y-54700D02*
X-28500D01*
X-23000Y30100D02*
X-18700Y34400D01*
X-40000Y30100D02*
X-23000D01*
X-18700Y34400D02*
Y43100D01*
X-15600Y46200D01*
X3300D01*
X45100Y-53100D02*
X47550D01*
X41700D02*
X45100D01*
X-11200Y-21600D02*
X4000Y-6400D01*
X-11200Y-37400D02*
Y-21600D01*
X-19000Y-45200D02*
X-11200Y-37400D01*
X-37200Y-45200D02*
X-19000D01*
X-41500Y-49500D02*
X-37200Y-45200D01*
X-41500Y-52100D02*
Y-49500D01*
Y-52100D02*
X-38900Y-54700D01*
X-42300Y4300D02*
X-38300Y8300D01*
Y8400D01*
X2600Y-5000D02*
Y6500D01*
Y-5000D02*
X4000Y-6400D01*
X700Y8400D02*
X2600Y6500D01*
X-38300Y8400D02*
X700D01*
X6890Y38256D02*
Y42610D01*
X-46000Y16100D02*
X-38300Y8400D01*
X-46000Y16100D02*
Y24100D01*
X-40000Y30100D01*
X31039Y-34961D02*
Y-27139D01*
X27600Y-23700D02*
X31039Y-27139D01*
X22000Y-23700D02*
X27600D01*
X21100Y-22800D02*
X22000Y-23700D01*
X16700Y-18400D02*
Y-13400D01*
X9700Y-6400D02*
X16700Y-13400D01*
X4000Y-6400D02*
X9700D01*
D70*
X13300Y48400D02*
X19800Y41900D01*
Y34131D02*
Y41900D01*
Y34131D02*
X29831Y24100D01*
X-15500Y52900D02*
X-14300Y51700D01*
X3000D01*
X14000Y62700D01*
X3400Y50800D02*
X14500Y61900D01*
X-29669Y49800D02*
X-29069Y49200D01*
X-28406Y50800D02*
X3400D01*
X-28737Y50000D02*
X3731D01*
X-32706Y55100D02*
X-28406Y50800D01*
X6500Y47600D02*
X12402Y41698D01*
X-33100Y50600D02*
X-30100Y47600D01*
X-33700Y52700D02*
X-29400Y48400D01*
X13300D01*
X-29069Y49200D02*
X4063D01*
X-30100Y47600D02*
X6500D01*
X-29337Y50600D02*
X-28737Y50000D01*
X4063Y49200D02*
X4663Y49800D01*
X3731Y50000D02*
X14831Y61100D01*
X14000Y62700D02*
X29200D01*
X14831Y61100D02*
X28531D01*
X4663Y49800D02*
X15163Y60300D01*
X28200D01*
X14500Y61900D02*
X28863D01*
X49327Y41436D01*
X28200Y60300D02*
X45390Y43110D01*
X28531Y61100D02*
X47358Y42273D01*
X29200Y62700D02*
X50600Y41300D01*
X45390Y37810D02*
Y43110D01*
X47358Y39658D02*
Y42273D01*
X49327Y37810D02*
Y41436D01*
X50600Y40300D02*
Y41300D01*
Y40300D02*
X52200Y38700D01*
X-8883Y43900D02*
X-6890Y41906D01*
X-11000Y43900D02*
X-8883D01*
X-6890Y38256D02*
Y41906D01*
X27000Y55000D02*
X28800Y53200D01*
Y39500D02*
Y53200D01*
X25100Y-37100D02*
X51100D01*
X24769Y-37900D02*
X47800D01*
X17000Y-29000D02*
X25100Y-37100D01*
X6300Y-29000D02*
X17000D01*
X4300Y-29900D02*
X16769D01*
X24769Y-37900D01*
X4900Y-27600D02*
X6300Y-29000D01*
X2900Y-28500D02*
X4300Y-29900D01*
X28800Y-43000D02*
X38400D01*
X42100Y-46700D01*
X48100D01*
X47800Y-37900D02*
X49900Y-40000D01*
X62500Y-34769D02*
Y-1731D01*
X49769Y-47500D02*
X62500Y-34769D01*
X63300Y-35100D02*
Y-1400D01*
X50000Y-48400D02*
X63300Y-35100D01*
X-26900Y-48400D02*
X50000D01*
X-34700Y-47500D02*
X49769D01*
X61700Y-34300D02*
Y-20400D01*
X58600Y-37400D02*
X61700Y-34300D01*
X54600Y-37400D02*
X58600D01*
X33000Y-16400D02*
X43100D01*
X52700Y-26000D02*
X56400D01*
X43100Y-16400D02*
X52700Y-26000D01*
X55184Y-31953D02*
X59016D01*
X56200Y-34100D02*
X59900D01*
X44800Y-22700D02*
X56200Y-34100D01*
X35000Y-22700D02*
X44800D01*
X25063Y-20300D02*
X45794D01*
X54300Y-29937D02*
X56400D01*
X53510Y-28016D02*
X59016D01*
X45794Y-20300D02*
X53510Y-28016D01*
X24731Y-21100D02*
X45463D01*
X24400Y-21900D02*
X45131D01*
X55184Y-31953D01*
X45463Y-21100D02*
X54300Y-29937D01*
X33700Y-24000D02*
X35000Y-22700D01*
X19800Y-16169D02*
X24731Y-21100D01*
X19000Y-16500D02*
X24400Y-21900D01*
X20600Y-15837D02*
X25063Y-20300D01*
X60300Y-19000D02*
X61700Y-20400D01*
X53521Y8379D02*
X63300Y-1400D01*
X60900Y-33100D02*
Y-23400D01*
X59900Y-34100D02*
X60900Y-33100D01*
X59500Y-22000D02*
X60900Y-23400D01*
X51700Y9069D02*
X62500Y-1731D01*
X51700Y9069D02*
Y14500D01*
X53521Y8379D02*
Y16421D01*
X-32300Y27700D02*
X21200D01*
X21531Y28500D02*
X39531Y10500D01*
X44700D01*
X40353Y8547D02*
X47353D01*
X21200Y27700D02*
X40353Y8547D01*
X-35900Y28500D02*
X21531D01*
X20000Y32800D02*
X31600Y21200D01*
X-7900Y32800D02*
X20000D01*
X29831Y24100D02*
X32700D01*
X-42600Y17400D02*
X-32300Y27700D01*
X-42600Y21800D02*
X-35900Y28500D01*
X-9646Y34546D02*
X-7900Y32800D01*
X-9646Y34546D02*
Y38256D01*
X20400Y58600D02*
X26100Y52900D01*
Y39500D02*
Y52900D01*
X-33037Y54300D02*
X-29337Y50600D01*
X-33369Y53500D02*
X-29669Y49800D01*
X12402Y38256D02*
Y41698D01*
X-34900Y50600D02*
X-33100D01*
X-36731Y53500D02*
X-33369D01*
X-37394Y55100D02*
X-32706D01*
X-37063Y54300D02*
X-33037D01*
X-36400Y52700D02*
X-33700D01*
X-50900Y38200D02*
X-36400Y52700D01*
X-37663Y53700D02*
X-37063Y54300D01*
X-51700Y38531D02*
X-36731Y53500D01*
X-37994Y54500D02*
X-37394Y55100D01*
X-53300Y39194D02*
X-37994Y54500D01*
X-52500Y38863D02*
X-37663Y53700D01*
X-53300Y-2300D02*
Y39194D01*
X-52500Y-1969D02*
Y38863D01*
X-51700Y-1637D02*
Y38531D01*
X-50900Y2200D02*
Y38200D01*
X-53300Y-2300D02*
X-47100Y-8500D01*
X-52500Y-1969D02*
X-49969Y-4500D01*
X-51700Y-1637D02*
X-50337Y-3000D01*
X-50900Y2200D02*
X-48700Y0D01*
X-49969Y-4500D02*
X-42500D01*
X-47100Y-8500D02*
X-42300D01*
X-50337Y-3000D02*
X-47200D01*
X22900Y34200D02*
X24200Y35500D01*
X51114D01*
X59500Y27114D01*
X57367Y-19000D02*
X60300D01*
X55800Y-20567D02*
X57367Y-19000D01*
X-42500Y-4500D02*
X-42200Y-4200D01*
X-48700Y8800D02*
X-46000Y6100D01*
Y-1800D02*
Y6100D01*
X-47200Y-3000D02*
X-46000Y-1800D01*
X43500Y-44500D02*
X47800D01*
X51200Y-41100D01*
X53200D01*
X54600Y-39700D01*
Y-37400D01*
X52161Y-34961D02*
X54600Y-37400D01*
X31039Y-34961D02*
X52161D01*
X48100Y-46700D02*
X51800Y-43000D01*
X-38100Y-50900D02*
X-34700Y-47500D01*
X-2900Y-26600D02*
X3400Y-20300D01*
Y-18600D01*
X-28700Y-50200D02*
X-26900Y-48400D01*
X37516Y21784D02*
X60700Y-1400D01*
X37516Y21784D02*
Y27984D01*
X60700Y-7600D02*
Y-1400D01*
X6890Y38256D02*
X9646D01*
X-4300Y-35500D02*
X500Y-30700D01*
X-1300Y-30400D02*
Y-28700D01*
X-4100Y-33200D02*
X-1300Y-30400D01*
X-6800Y-33200D02*
X-4100D01*
X2900Y-28500D02*
Y-25400D01*
X7100Y-21200D01*
X51100Y-37100D02*
X52500Y-38500D01*
X33700Y-30000D02*
Y-24000D01*
X19800Y-12031D02*
X24500Y-7331D01*
X22900Y8600D02*
X24500Y7000D01*
Y-7331D02*
Y7000D01*
X25500Y-7463D02*
Y9000D01*
X20600Y-12363D02*
X25500Y-7463D01*
X20600Y-15837D02*
Y-12363D01*
X19000Y-16500D02*
Y-11700D01*
X19800Y-16169D02*
Y-12031D01*
X19000Y-11700D02*
X23400Y-7300D01*
Y4200D01*
X22300Y5300D02*
X23400Y4200D01*
X22300Y8600D02*
X22900D01*
X22100Y12400D02*
X25500Y9000D01*
X31600Y-15000D02*
X33000Y-16400D01*
X22500Y-14600D02*
X26300Y-18400D01*
X37600D01*
X53700Y-14600D02*
X60700Y-7600D01*
X51900Y-10700D02*
X58400Y-4200D01*
X51900Y-17200D02*
Y-10700D01*
X49921Y-7179D02*
X55800Y-1300D01*
X49921Y-16521D02*
Y-7179D01*
X52500Y-19500D02*
X53700Y-18300D01*
Y-14600D01*
X50900Y-18200D02*
X51900Y-17200D01*
X47900Y-18200D02*
X50900D01*
D72*
X17800Y37600D02*
D03*
X10400Y30400D02*
D03*
X-8100Y30800D02*
D03*
X-5500Y44100D02*
D03*
X-15500Y52900D02*
D03*
X52200Y38700D02*
D03*
X-11000Y43900D02*
D03*
X-4200Y37100D02*
D03*
X6500Y30500D02*
D03*
X12400Y36400D02*
D03*
X1700D02*
D03*
X4000Y34500D02*
D03*
X7500Y43500D02*
D03*
X27000Y55000D02*
D03*
X26000Y-34500D02*
D03*
X23700Y-32700D02*
D03*
X11000Y25000D02*
D03*
X0Y13500D02*
D03*
Y19000D02*
D03*
Y24000D02*
D03*
X11000Y-2500D02*
D03*
X22000Y40000D02*
D03*
Y43000D02*
D03*
X-15000Y42500D02*
D03*
X-13000Y30500D02*
D03*
X-16900D02*
D03*
X16000Y35000D02*
D03*
X14500Y44000D02*
D03*
X-48500Y13000D02*
D03*
X-40000Y15000D02*
D03*
X-50500Y-24000D02*
D03*
X-54500D02*
D03*
X-58500D02*
D03*
Y-20000D02*
D03*
X-54500D02*
D03*
X-50500D02*
D03*
Y-16000D02*
D03*
X-54500D02*
D03*
X-58500D02*
D03*
X2500Y-13000D02*
D03*
X4500Y-10500D02*
D03*
X19500Y-64500D02*
D03*
X23000D02*
D03*
Y-61500D02*
D03*
X19500D02*
D03*
X17000Y-54500D02*
D03*
X14500D02*
D03*
X37000D02*
D03*
X20000Y-55000D02*
D03*
X23500D02*
D03*
X30500Y-54000D02*
D03*
X27000D02*
D03*
X-4000Y-41000D02*
D03*
X-8000D02*
D03*
X-21000Y-36000D02*
D03*
X-18000D02*
D03*
Y-33000D02*
D03*
X-21000D02*
D03*
X-40000Y-39000D02*
D03*
X-36000D02*
D03*
Y-35000D02*
D03*
X-40000D02*
D03*
X-25000Y2000D02*
D03*
X-21000D02*
D03*
X-17000D02*
D03*
X-13000D02*
D03*
X-9000D02*
D03*
Y-2000D02*
D03*
X-13000D02*
D03*
X-17000D02*
D03*
X-21000D02*
D03*
X-25000D02*
D03*
Y-6000D02*
D03*
X-21000D02*
D03*
X-17000D02*
D03*
X-13000D02*
D03*
X-9000D02*
D03*
Y15000D02*
D03*
X-13000D02*
D03*
X-17000D02*
D03*
X-21000D02*
D03*
X-25000D02*
D03*
Y19000D02*
D03*
X-21000D02*
D03*
X-17000D02*
D03*
X-13000D02*
D03*
X-9000D02*
D03*
Y23000D02*
D03*
X-13000D02*
D03*
X-17000D02*
D03*
X-21000D02*
D03*
X-25000D02*
D03*
X15900Y-23100D02*
D03*
X12000Y-21000D02*
D03*
Y-18000D02*
D03*
Y-15000D02*
D03*
X25000Y-40000D02*
D03*
X7000D02*
D03*
X12000D02*
D03*
Y-35000D02*
D03*
X7000D02*
D03*
X45000Y-32000D02*
D03*
X41000D02*
D03*
Y-29000D02*
D03*
X45000D02*
D03*
Y-26000D02*
D03*
X41000D02*
D03*
X66000Y-18000D02*
D03*
Y-15000D02*
D03*
Y-12000D02*
D03*
X49000Y0D02*
D03*
Y4000D02*
D03*
X41000Y0D02*
D03*
X45000D02*
D03*
Y4000D02*
D03*
X41000D02*
D03*
X32000Y-1000D02*
D03*
Y3000D02*
D03*
Y7000D02*
D03*
Y11000D02*
D03*
X24000Y17000D02*
D03*
Y20000D02*
D03*
X35000Y21000D02*
D03*
X34000Y27000D02*
D03*
X41000Y14000D02*
D03*
X39000Y16000D02*
D03*
X50000Y19000D02*
D03*
X46000D02*
D03*
Y22000D02*
D03*
X50000D02*
D03*
Y25000D02*
D03*
X46000D02*
D03*
X59000Y37000D02*
D03*
X42000Y53000D02*
D03*
X39000Y56000D02*
D03*
X36000Y59000D02*
D03*
X21000Y53000D02*
D03*
X17000D02*
D03*
X13000D02*
D03*
X0Y57000D02*
D03*
Y60000D02*
D03*
Y63000D02*
D03*
X-4000D02*
D03*
Y60000D02*
D03*
Y57000D02*
D03*
X-8000D02*
D03*
Y60000D02*
D03*
Y63000D02*
D03*
X22000Y75000D02*
D03*
X18000D02*
D03*
X14000D02*
D03*
X-19000Y71000D02*
D03*
X-15000D02*
D03*
X-11000D02*
D03*
X-7000D02*
D03*
X-3000D02*
D03*
Y75000D02*
D03*
X-7000D02*
D03*
X-11000D02*
D03*
X-15000D02*
D03*
X-19000D02*
D03*
X31600Y21200D02*
D03*
X47550Y-53100D02*
D03*
X45100D02*
D03*
X19000Y-20800D02*
D03*
X-42300Y4300D02*
D03*
X2600Y6500D02*
D03*
X22900Y34200D02*
D03*
X59500Y27114D02*
D03*
X55800Y-20567D02*
D03*
X-42600Y17400D02*
D03*
Y21800D02*
D03*
X47353Y8547D02*
D03*
X44700Y10500D02*
D03*
X-42300Y-8500D02*
D03*
X-42200Y-4200D02*
D03*
X-48700Y8800D02*
D03*
X49327Y37810D02*
D03*
X47358Y39658D02*
D03*
X45390Y37810D02*
D03*
X-48700Y0D02*
D03*
X32700Y24100D02*
D03*
X21100Y-22800D02*
D03*
X4000Y-6400D02*
D03*
X43500Y-44500D02*
D03*
X31039Y-34961D02*
D03*
X3400Y-18600D02*
D03*
X-2900Y-26600D02*
D03*
X20400Y58600D02*
D03*
X28800Y39500D02*
D03*
X26100D02*
D03*
X-28700Y-50200D02*
D03*
X51700Y14500D02*
D03*
X53521Y16421D02*
D03*
X-34900Y50600D02*
D03*
X-12400Y41100D02*
D03*
X-1300Y42500D02*
D03*
X-38100Y-50900D02*
D03*
X500Y-30700D02*
D03*
X-1300Y-28700D02*
D03*
X-4300Y-35500D02*
D03*
X-6800Y-33200D02*
D03*
X4900Y-27600D02*
D03*
X7100Y-21200D02*
D03*
X59500Y-22000D02*
D03*
X33700Y-24000D02*
D03*
Y-30000D02*
D03*
X26200Y-27000D02*
D03*
X4200Y19000D02*
D03*
X22300Y5300D02*
D03*
Y8600D02*
D03*
X22100Y12400D02*
D03*
X31600Y-15000D02*
D03*
X56400Y-29937D02*
D03*
X59016Y-31953D02*
D03*
Y-28016D02*
D03*
X56400Y-26000D02*
D03*
X58400Y-4200D02*
D03*
X37516Y27984D02*
D03*
X55800Y-1300D02*
D03*
X52500Y-19500D02*
D03*
X49921Y-16521D02*
D03*
X47900Y-18200D02*
D03*
X22500Y-14600D02*
D03*
X37600Y-18400D02*
D03*
X52500Y-38500D02*
D03*
X49900Y-40000D02*
D03*
X51800Y-43000D02*
D03*
X28800D02*
D03*
D73*
X-15157Y38256D02*
D03*
X-12402D02*
D03*
X-6890D02*
D03*
X-4134D02*
D03*
X4134D02*
D03*
X1378D02*
D03*
X12402D02*
D03*
X9646D02*
D03*
X-9646D02*
D03*
X-1378D02*
D03*
X6890D02*
D03*
X15157D02*
D03*
M02*
