G04*
G04 #@! TF.GenerationSoftware,Altium Limited,Altium Designer,22.0.2 (36)*
G04*
G04 Layer_Color=2752767*
%FSLAX25Y25*%
%MOIN*%
G70*
G04*
G04 #@! TF.SameCoordinates,9873FD8C-C369-40C8-B75A-0789E1F0109A*
G04*
G04*
G04 #@! TF.FilePolarity,Positive*
G04*
G01*
G75*
%ADD77C,0.00200*%
D77*
X17000Y36800D02*
Y38400D01*
X18600D01*
Y36800D01*
X17000D01*
X9600Y29600D02*
Y31200D01*
X11200D01*
Y29600D01*
X9600D01*
X-8900Y30000D02*
Y31600D01*
X-7300D01*
Y30000D01*
X-8900D01*
X-6300Y43300D02*
Y44900D01*
X-4700D01*
Y43300D01*
X-6300D01*
X-16300Y52100D02*
Y53700D01*
X-14700D01*
Y52100D01*
X-16300D01*
X51400Y37900D02*
Y39500D01*
X53000D01*
Y37900D01*
X51400D01*
X-11800Y43100D02*
Y44700D01*
X-10200D01*
Y43100D01*
X-11800D01*
X-5000Y36300D02*
Y37900D01*
X-3400D01*
Y36300D01*
X-5000D01*
X5700Y29700D02*
Y31300D01*
X7300D01*
Y29700D01*
X5700D01*
X11600Y35600D02*
Y37200D01*
X13200D01*
Y35600D01*
X11600D01*
X900D02*
Y37200D01*
X2500D01*
Y35600D01*
X900D01*
X3200Y33700D02*
Y35300D01*
X4800D01*
Y33700D01*
X3200D01*
X6700Y42700D02*
Y44300D01*
X8300D01*
Y42700D01*
X6700D01*
X26200Y54200D02*
Y55800D01*
X27800D01*
Y54200D01*
X26200D01*
X25200Y-35300D02*
Y-33700D01*
X26800D01*
Y-35300D01*
X25200D01*
X22900Y-33500D02*
Y-31900D01*
X24500D01*
Y-33500D01*
X22900D01*
X10200Y24200D02*
Y25800D01*
X11800D01*
Y24200D01*
X10200D01*
X-800Y12700D02*
Y14300D01*
X800D01*
Y12700D01*
X-800D01*
Y18200D02*
Y19800D01*
X800D01*
Y18200D01*
X-800D01*
Y23200D02*
Y24800D01*
X800D01*
Y23200D01*
X-800D01*
X10200Y-3300D02*
Y-1700D01*
X11800D01*
Y-3300D01*
X10200D01*
X21200Y39200D02*
Y40800D01*
X22800D01*
Y39200D01*
X21200D01*
Y42200D02*
Y43800D01*
X22800D01*
Y42200D01*
X21200D01*
X-15800Y41700D02*
Y43300D01*
X-14200D01*
Y41700D01*
X-15800D01*
X-13800Y29700D02*
Y31300D01*
X-12200D01*
Y29700D01*
X-13800D01*
X-17700D02*
Y31300D01*
X-16100D01*
Y29700D01*
X-17700D01*
X15200Y34200D02*
Y35800D01*
X16800D01*
Y34200D01*
X15200D01*
X13700Y43200D02*
Y44800D01*
X15300D01*
Y43200D01*
X13700D01*
X-49300Y12200D02*
Y13800D01*
X-47700D01*
Y12200D01*
X-49300D01*
X-40800Y14200D02*
Y15800D01*
X-39200D01*
Y14200D01*
X-40800D01*
X-51300Y-24800D02*
Y-23200D01*
X-49700D01*
Y-24800D01*
X-51300D01*
X-55300D02*
Y-23200D01*
X-53700D01*
Y-24800D01*
X-55300D01*
X-59300D02*
Y-23200D01*
X-57700D01*
Y-24800D01*
X-59300D01*
Y-20800D02*
Y-19200D01*
X-57700D01*
Y-20800D01*
X-59300D01*
X-55300D02*
Y-19200D01*
X-53700D01*
Y-20800D01*
X-55300D01*
X-51300D02*
Y-19200D01*
X-49700D01*
Y-20800D01*
X-51300D01*
Y-16800D02*
Y-15200D01*
X-49700D01*
Y-16800D01*
X-51300D01*
X-55300D02*
Y-15200D01*
X-53700D01*
Y-16800D01*
X-55300D01*
X-59300D02*
Y-15200D01*
X-57700D01*
Y-16800D01*
X-59300D01*
X1700Y-13800D02*
Y-12200D01*
X3300D01*
Y-13800D01*
X1700D01*
X3700Y-11300D02*
Y-9700D01*
X5300D01*
Y-11300D01*
X3700D01*
X18700Y-65300D02*
Y-63700D01*
X20300D01*
Y-65300D01*
X18700D01*
X22200D02*
Y-63700D01*
X23800D01*
Y-65300D01*
X22200D01*
Y-62300D02*
Y-60700D01*
X23800D01*
Y-62300D01*
X22200D01*
X18700D02*
Y-60700D01*
X20300D01*
Y-62300D01*
X18700D01*
X16200Y-55300D02*
Y-53700D01*
X17800D01*
Y-55300D01*
X16200D01*
X13700D02*
Y-53700D01*
X15300D01*
Y-55300D01*
X13700D01*
X36200D02*
Y-53700D01*
X37800D01*
Y-55300D01*
X36200D01*
X19200Y-55800D02*
Y-54200D01*
X20800D01*
Y-55800D01*
X19200D01*
X22700D02*
Y-54200D01*
X24300D01*
Y-55800D01*
X22700D01*
X29700Y-54800D02*
Y-53200D01*
X31300D01*
Y-54800D01*
X29700D01*
X26200D02*
Y-53200D01*
X27800D01*
Y-54800D01*
X26200D01*
X-4800Y-41800D02*
Y-40200D01*
X-3200D01*
Y-41800D01*
X-4800D01*
X-8800D02*
Y-40200D01*
X-7200D01*
Y-41800D01*
X-8800D01*
X-21800Y-36800D02*
Y-35200D01*
X-20200D01*
Y-36800D01*
X-21800D01*
X-18800D02*
Y-35200D01*
X-17200D01*
Y-36800D01*
X-18800D01*
Y-33800D02*
Y-32200D01*
X-17200D01*
Y-33800D01*
X-18800D01*
X-21800D02*
Y-32200D01*
X-20200D01*
Y-33800D01*
X-21800D01*
X-40800Y-39800D02*
Y-38200D01*
X-39200D01*
Y-39800D01*
X-40800D01*
X-36800D02*
Y-38200D01*
X-35200D01*
Y-39800D01*
X-36800D01*
Y-35800D02*
Y-34200D01*
X-35200D01*
Y-35800D01*
X-36800D01*
X-40800D02*
Y-34200D01*
X-39200D01*
Y-35800D01*
X-40800D01*
X-25800Y1200D02*
Y2800D01*
X-24200D01*
Y1200D01*
X-25800D01*
X-21800D02*
Y2800D01*
X-20200D01*
Y1200D01*
X-21800D01*
X-17800D02*
Y2800D01*
X-16200D01*
Y1200D01*
X-17800D01*
X-13800D02*
Y2800D01*
X-12200D01*
Y1200D01*
X-13800D01*
X-9800D02*
Y2800D01*
X-8200D01*
Y1200D01*
X-9800D01*
Y-2800D02*
Y-1200D01*
X-8200D01*
Y-2800D01*
X-9800D01*
X-13800D02*
Y-1200D01*
X-12200D01*
Y-2800D01*
X-13800D01*
X-17800D02*
Y-1200D01*
X-16200D01*
Y-2800D01*
X-17800D01*
X-21800D02*
Y-1200D01*
X-20200D01*
Y-2800D01*
X-21800D01*
X-25800D02*
Y-1200D01*
X-24200D01*
Y-2800D01*
X-25800D01*
Y-6800D02*
Y-5200D01*
X-24200D01*
Y-6800D01*
X-25800D01*
X-21800D02*
Y-5200D01*
X-20200D01*
Y-6800D01*
X-21800D01*
X-17800D02*
Y-5200D01*
X-16200D01*
Y-6800D01*
X-17800D01*
X-13800D02*
Y-5200D01*
X-12200D01*
Y-6800D01*
X-13800D01*
X-9800D02*
Y-5200D01*
X-8200D01*
Y-6800D01*
X-9800D01*
Y14200D02*
Y15800D01*
X-8200D01*
Y14200D01*
X-9800D01*
X-13800D02*
Y15800D01*
X-12200D01*
Y14200D01*
X-13800D01*
X-17800D02*
Y15800D01*
X-16200D01*
Y14200D01*
X-17800D01*
X-21800D02*
Y15800D01*
X-20200D01*
Y14200D01*
X-21800D01*
X-25800D02*
Y15800D01*
X-24200D01*
Y14200D01*
X-25800D01*
Y18200D02*
Y19800D01*
X-24200D01*
Y18200D01*
X-25800D01*
X-21800D02*
Y19800D01*
X-20200D01*
Y18200D01*
X-21800D01*
X-17800D02*
Y19800D01*
X-16200D01*
Y18200D01*
X-17800D01*
X-13800D02*
Y19800D01*
X-12200D01*
Y18200D01*
X-13800D01*
X-9800D02*
Y19800D01*
X-8200D01*
Y18200D01*
X-9800D01*
Y22200D02*
Y23800D01*
X-8200D01*
Y22200D01*
X-9800D01*
X-13800D02*
Y23800D01*
X-12200D01*
Y22200D01*
X-13800D01*
X-17800D02*
Y23800D01*
X-16200D01*
Y22200D01*
X-17800D01*
X-21800D02*
Y23800D01*
X-20200D01*
Y22200D01*
X-21800D01*
X-25800D02*
Y23800D01*
X-24200D01*
Y22200D01*
X-25800D01*
X15100Y-23900D02*
Y-22300D01*
X16700D01*
Y-23900D01*
X15100D01*
X11200Y-21800D02*
Y-20200D01*
X12800D01*
Y-21800D01*
X11200D01*
Y-18800D02*
Y-17200D01*
X12800D01*
Y-18800D01*
X11200D01*
Y-15800D02*
Y-14200D01*
X12800D01*
Y-15800D01*
X11200D01*
X24200Y-40800D02*
Y-39200D01*
X25800D01*
Y-40800D01*
X24200D01*
X6200D02*
Y-39200D01*
X7800D01*
Y-40800D01*
X6200D01*
X11200D02*
Y-39200D01*
X12800D01*
Y-40800D01*
X11200D01*
Y-35800D02*
Y-34200D01*
X12800D01*
Y-35800D01*
X11200D01*
X6200D02*
Y-34200D01*
X7800D01*
Y-35800D01*
X6200D01*
X44200Y-32800D02*
Y-31200D01*
X45800D01*
Y-32800D01*
X44200D01*
X40200D02*
Y-31200D01*
X41800D01*
Y-32800D01*
X40200D01*
Y-29800D02*
Y-28200D01*
X41800D01*
Y-29800D01*
X40200D01*
X44200D02*
Y-28200D01*
X45800D01*
Y-29800D01*
X44200D01*
Y-26800D02*
Y-25200D01*
X45800D01*
Y-26800D01*
X44200D01*
X40200D02*
Y-25200D01*
X41800D01*
Y-26800D01*
X40200D01*
X65200Y-18800D02*
Y-17200D01*
X66800D01*
Y-18800D01*
X65200D01*
Y-15800D02*
Y-14200D01*
X66800D01*
Y-15800D01*
X65200D01*
Y-12800D02*
Y-11200D01*
X66800D01*
Y-12800D01*
X65200D01*
X48200Y-800D02*
Y800D01*
X49800D01*
Y-800D01*
X48200D01*
Y3200D02*
Y4800D01*
X49800D01*
Y3200D01*
X48200D01*
X40200Y-800D02*
Y800D01*
X41800D01*
Y-800D01*
X40200D01*
X44200D02*
Y800D01*
X45800D01*
Y-800D01*
X44200D01*
Y3200D02*
Y4800D01*
X45800D01*
Y3200D01*
X44200D01*
X40200D02*
Y4800D01*
X41800D01*
Y3200D01*
X40200D01*
X31200Y-1800D02*
Y-200D01*
X32800D01*
Y-1800D01*
X31200D01*
Y2200D02*
Y3800D01*
X32800D01*
Y2200D01*
X31200D01*
Y6200D02*
Y7800D01*
X32800D01*
Y6200D01*
X31200D01*
Y10200D02*
Y11800D01*
X32800D01*
Y10200D01*
X31200D01*
X23200Y16200D02*
Y17800D01*
X24800D01*
Y16200D01*
X23200D01*
Y19200D02*
Y20800D01*
X24800D01*
Y19200D01*
X23200D01*
X34200Y20200D02*
Y21800D01*
X35800D01*
Y20200D01*
X34200D01*
X33200Y26200D02*
Y27800D01*
X34800D01*
Y26200D01*
X33200D01*
X40200Y13200D02*
Y14800D01*
X41800D01*
Y13200D01*
X40200D01*
X38200Y15200D02*
Y16800D01*
X39800D01*
Y15200D01*
X38200D01*
X49200Y18200D02*
Y19800D01*
X50800D01*
Y18200D01*
X49200D01*
X45200D02*
Y19800D01*
X46800D01*
Y18200D01*
X45200D01*
Y21200D02*
Y22800D01*
X46800D01*
Y21200D01*
X45200D01*
X49200D02*
Y22800D01*
X50800D01*
Y21200D01*
X49200D01*
Y24200D02*
Y25800D01*
X50800D01*
Y24200D01*
X49200D01*
X45200D02*
Y25800D01*
X46800D01*
Y24200D01*
X45200D01*
X58200Y36200D02*
Y37800D01*
X59800D01*
Y36200D01*
X58200D01*
X41200Y52200D02*
Y53800D01*
X42800D01*
Y52200D01*
X41200D01*
X38200Y55200D02*
Y56800D01*
X39800D01*
Y55200D01*
X38200D01*
X35200Y58200D02*
Y59800D01*
X36800D01*
Y58200D01*
X35200D01*
X20200Y52200D02*
Y53800D01*
X21800D01*
Y52200D01*
X20200D01*
X16200D02*
Y53800D01*
X17800D01*
Y52200D01*
X16200D01*
X12200D02*
Y53800D01*
X13800D01*
Y52200D01*
X12200D01*
X-800Y56200D02*
Y57800D01*
X800D01*
Y56200D01*
X-800D01*
Y59200D02*
Y60800D01*
X800D01*
Y59200D01*
X-800D01*
Y62200D02*
Y63800D01*
X800D01*
Y62200D01*
X-800D01*
X-4800D02*
Y63800D01*
X-3200D01*
Y62200D01*
X-4800D01*
Y59200D02*
Y60800D01*
X-3200D01*
Y59200D01*
X-4800D01*
Y56200D02*
Y57800D01*
X-3200D01*
Y56200D01*
X-4800D01*
X-8800D02*
Y57800D01*
X-7200D01*
Y56200D01*
X-8800D01*
Y59200D02*
Y60800D01*
X-7200D01*
Y59200D01*
X-8800D01*
Y62200D02*
Y63800D01*
X-7200D01*
Y62200D01*
X-8800D01*
X21200Y74200D02*
Y75800D01*
X22800D01*
Y74200D01*
X21200D01*
X17200D02*
Y75800D01*
X18800D01*
Y74200D01*
X17200D01*
X13200D02*
Y75800D01*
X14800D01*
Y74200D01*
X13200D01*
X-19800Y70200D02*
Y71800D01*
X-18200D01*
Y70200D01*
X-19800D01*
X-15800D02*
Y71800D01*
X-14200D01*
Y70200D01*
X-15800D01*
X-11800D02*
Y71800D01*
X-10200D01*
Y70200D01*
X-11800D01*
X-7800D02*
Y71800D01*
X-6200D01*
Y70200D01*
X-7800D01*
X-3800D02*
Y71800D01*
X-2200D01*
Y70200D01*
X-3800D01*
Y74200D02*
Y75800D01*
X-2200D01*
Y74200D01*
X-3800D01*
X-7800D02*
Y75800D01*
X-6200D01*
Y74200D01*
X-7800D01*
X-11800D02*
Y75800D01*
X-10200D01*
Y74200D01*
X-11800D01*
X-15800D02*
Y75800D01*
X-14200D01*
Y74200D01*
X-15800D01*
X-19800D02*
Y75800D01*
X-18200D01*
Y74200D01*
X-19800D01*
X30800Y20400D02*
Y22000D01*
X32400D01*
Y20400D01*
X30800D01*
X46750Y-53900D02*
Y-52300D01*
X48350D01*
Y-53900D01*
X46750D01*
X44300D02*
Y-52300D01*
X45900D01*
Y-53900D01*
X44300D01*
X18200Y-21600D02*
Y-20000D01*
X19800D01*
Y-21600D01*
X18200D01*
X-43100Y3500D02*
Y5100D01*
X-41500D01*
Y3500D01*
X-43100D01*
X1800Y5700D02*
Y7300D01*
X3400D01*
Y5700D01*
X1800D01*
X22100Y33400D02*
Y35000D01*
X23700D01*
Y33400D01*
X22100D01*
X58700Y26314D02*
Y27914D01*
X60300D01*
Y26314D01*
X58700D01*
X55000Y-21367D02*
Y-19767D01*
X56600D01*
Y-21367D01*
X55000D01*
X-43400Y16600D02*
Y18200D01*
X-41800D01*
Y16600D01*
X-43400D01*
Y21000D02*
Y22600D01*
X-41800D01*
Y21000D01*
X-43400D01*
X46553Y7747D02*
Y9347D01*
X48153D01*
Y7747D01*
X46553D01*
X43900Y9700D02*
Y11300D01*
X45500D01*
Y9700D01*
X43900D01*
X-43100Y-9300D02*
Y-7700D01*
X-41500D01*
Y-9300D01*
X-43100D01*
X-43000Y-5000D02*
Y-3400D01*
X-41400D01*
Y-5000D01*
X-43000D01*
X-49500Y8000D02*
Y9600D01*
X-47900D01*
Y8000D01*
X-49500D01*
X48527Y37010D02*
Y38610D01*
X50127D01*
Y37010D01*
X48527D01*
X46558Y38858D02*
Y40458D01*
X48158D01*
Y38858D01*
X46558D01*
X44590Y37010D02*
Y38610D01*
X46190D01*
Y37010D01*
X44590D01*
X-49500Y-800D02*
Y800D01*
X-47900D01*
Y-800D01*
X-49500D01*
X31900Y23300D02*
Y24900D01*
X33500D01*
Y23300D01*
X31900D01*
X20300Y-23600D02*
Y-22000D01*
X21900D01*
Y-23600D01*
X20300D01*
X3200Y-7200D02*
Y-5600D01*
X4800D01*
Y-7200D01*
X3200D01*
X42700Y-45300D02*
Y-43700D01*
X44300D01*
Y-45300D01*
X42700D01*
X30239Y-35761D02*
Y-34161D01*
X31839D01*
Y-35761D01*
X30239D01*
X2600Y-19400D02*
Y-17800D01*
X4200D01*
Y-19400D01*
X2600D01*
X-3700Y-27400D02*
Y-25800D01*
X-2100D01*
Y-27400D01*
X-3700D01*
X19600Y57800D02*
Y59400D01*
X21200D01*
Y57800D01*
X19600D01*
X28000Y38700D02*
Y40300D01*
X29600D01*
Y38700D01*
X28000D01*
X25300D02*
Y40300D01*
X26900D01*
Y38700D01*
X25300D01*
X-29500Y-51000D02*
Y-49400D01*
X-27900D01*
Y-51000D01*
X-29500D01*
X50900Y13700D02*
Y15300D01*
X52500D01*
Y13700D01*
X50900D01*
X52721Y15621D02*
Y17221D01*
X54321D01*
Y15621D01*
X52721D01*
X-35700Y49800D02*
Y51400D01*
X-34100D01*
Y49800D01*
X-35700D01*
X-13200Y40300D02*
Y41900D01*
X-11600D01*
Y40300D01*
X-13200D01*
X-2100Y41700D02*
Y43300D01*
X-500D01*
Y41700D01*
X-2100D01*
X-38900Y-51700D02*
Y-50100D01*
X-37300D01*
Y-51700D01*
X-38900D01*
X-300Y-31500D02*
Y-29900D01*
X1300D01*
Y-31500D01*
X-300D01*
X-2100Y-29500D02*
Y-27900D01*
X-500D01*
Y-29500D01*
X-2100D01*
X-5100Y-36300D02*
Y-34700D01*
X-3500D01*
Y-36300D01*
X-5100D01*
X-7600Y-34000D02*
Y-32400D01*
X-6000D01*
Y-34000D01*
X-7600D01*
X4100Y-28400D02*
Y-26800D01*
X5700D01*
Y-28400D01*
X4100D01*
X6300Y-22000D02*
Y-20400D01*
X7900D01*
Y-22000D01*
X6300D01*
X58700Y-22800D02*
Y-21200D01*
X60300D01*
Y-22800D01*
X58700D01*
X32900Y-24800D02*
Y-23200D01*
X34500D01*
Y-24800D01*
X32900D01*
Y-30800D02*
Y-29200D01*
X34500D01*
Y-30800D01*
X32900D01*
X25400Y-27800D02*
Y-26200D01*
X27000D01*
Y-27800D01*
X25400D01*
X3400Y18200D02*
Y19800D01*
X5000D01*
Y18200D01*
X3400D01*
X21500Y4500D02*
Y6100D01*
X23100D01*
Y4500D01*
X21500D01*
Y7800D02*
Y9400D01*
X23100D01*
Y7800D01*
X21500D01*
X21300Y11600D02*
Y13200D01*
X22900D01*
Y11600D01*
X21300D01*
X30800Y-15800D02*
Y-14200D01*
X32400D01*
Y-15800D01*
X30800D01*
X55600Y-30737D02*
Y-29137D01*
X57200D01*
Y-30737D01*
X55600D01*
X58216Y-32753D02*
Y-31153D01*
X59816D01*
Y-32753D01*
X58216D01*
Y-28816D02*
Y-27216D01*
X59816D01*
Y-28816D01*
X58216D01*
X55600Y-26800D02*
Y-25200D01*
X57200D01*
Y-26800D01*
X55600D01*
X57600Y-5000D02*
Y-3400D01*
X59200D01*
Y-5000D01*
X57600D01*
X36716Y27184D02*
Y28784D01*
X38316D01*
Y27184D01*
X36716D01*
X55000Y-2100D02*
Y-500D01*
X56600D01*
Y-2100D01*
X55000D01*
X51700Y-20300D02*
Y-18700D01*
X53300D01*
Y-20300D01*
X51700D01*
X49121Y-17321D02*
Y-15721D01*
X50721D01*
Y-17321D01*
X49121D01*
X47100Y-19000D02*
Y-17400D01*
X48700D01*
Y-19000D01*
X47100D01*
X21700Y-15400D02*
Y-13800D01*
X23300D01*
Y-15400D01*
X21700D01*
X36800Y-19200D02*
Y-17600D01*
X38400D01*
Y-19200D01*
X36800D01*
X51700Y-39300D02*
Y-37700D01*
X53300D01*
Y-39300D01*
X51700D01*
X49100Y-40800D02*
Y-39200D01*
X50700D01*
Y-40800D01*
X49100D01*
X51000Y-43800D02*
Y-42200D01*
X52600D01*
Y-43800D01*
X51000D01*
X28000D02*
Y-42200D01*
X29600D01*
Y-43800D01*
X28000D01*
M02*
