G04*
G04 #@! TF.GenerationSoftware,Altium Limited,Altium Designer,22.0.2 (36)*
G04*
G04 Layer_Color=65535*
%FSLAX25Y25*%
%MOIN*%
G70*
G04*
G04 #@! TF.SameCoordinates,9873FD8C-C369-40C8-B75A-0789E1F0109A*
G04*
G04*
G04 #@! TF.FilePolarity,Positive*
G04*
G01*
G75*
%ADD10C,0.02362*%
%ADD11C,0.01000*%
%ADD12C,0.00984*%
%ADD13C,0.00100*%
%ADD14C,0.00500*%
%ADD15C,0.00787*%
%ADD16C,0.00600*%
G36*
X12150Y43600D02*
X11800D01*
Y45400D01*
X12150D01*
Y43600D01*
D02*
G37*
G36*
X11200D02*
X10850D01*
Y45400D01*
X11200D01*
Y43600D01*
D02*
G37*
G36*
X14150Y41600D02*
X12850D01*
Y41950D01*
X14150D01*
Y41600D01*
D02*
G37*
G36*
Y40050D02*
X12850D01*
X12850Y40400D01*
X14150D01*
X14150Y40050D01*
D02*
G37*
G36*
X17400Y32300D02*
X15600D01*
Y32650D01*
X17400D01*
Y32300D01*
D02*
G37*
G36*
Y31350D02*
X15600D01*
Y31700D01*
X17400D01*
Y31350D01*
D02*
G37*
G36*
X-2350Y30100D02*
X-3650D01*
Y30450D01*
X-2350D01*
Y30100D01*
D02*
G37*
G36*
Y28550D02*
X-3650D01*
X-3650Y28900D01*
X-2350D01*
X-2350Y28550D01*
D02*
G37*
G36*
X-53850Y22100D02*
X-55150D01*
Y22450D01*
X-53850D01*
Y22100D01*
D02*
G37*
G36*
Y20550D02*
X-55150D01*
X-55150Y20900D01*
X-53850D01*
X-53850Y20550D01*
D02*
G37*
G36*
Y18100D02*
X-55150D01*
Y18450D01*
X-53850D01*
Y18100D01*
D02*
G37*
G36*
Y16550D02*
X-55150D01*
X-55150Y16900D01*
X-53850D01*
X-53850Y16550D01*
D02*
G37*
G36*
X6650Y8600D02*
X6300D01*
Y10400D01*
X6650D01*
Y8600D01*
D02*
G37*
G36*
X5700D02*
X5350D01*
Y10400D01*
X5700D01*
Y8600D01*
D02*
G37*
G36*
X6650Y7100D02*
X5350D01*
X5350Y7450D01*
X6650D01*
X6650Y7100D01*
D02*
G37*
G36*
X6650Y5550D02*
X5350D01*
Y5900D01*
X6650D01*
Y5550D01*
D02*
G37*
G36*
X6650Y4100D02*
X5350D01*
X5350Y4450D01*
X6650D01*
X6650Y4100D01*
D02*
G37*
G36*
X6650Y2550D02*
X5350D01*
Y2900D01*
X6650D01*
Y2550D01*
D02*
G37*
G36*
X-53850Y100D02*
X-55150D01*
Y450D01*
X-53850D01*
Y100D01*
D02*
G37*
G36*
X6650Y-400D02*
X6300D01*
Y1400D01*
X6650D01*
Y-400D01*
D02*
G37*
G36*
X5700D02*
X5350D01*
Y1400D01*
X5700D01*
Y-400D01*
D02*
G37*
G36*
X-53850Y-1450D02*
X-55150D01*
X-55150Y-1100D01*
X-53850D01*
X-53850Y-1450D01*
D02*
G37*
G36*
X6650Y-3400D02*
X6300D01*
Y-1600D01*
X6650D01*
Y-3400D01*
D02*
G37*
G36*
X5700D02*
X5350D01*
Y-1600D01*
X5700D01*
Y-3400D01*
D02*
G37*
G36*
X-53850Y-3900D02*
X-55150D01*
Y-3550D01*
X-53850D01*
Y-3900D01*
D02*
G37*
G36*
X6650Y-4900D02*
X5350D01*
X5350Y-4550D01*
X6650D01*
X6650Y-4900D01*
D02*
G37*
G36*
X-53850Y-5450D02*
X-55150D01*
X-55150Y-5100D01*
X-53850D01*
X-53850Y-5450D01*
D02*
G37*
G36*
X6650Y-6450D02*
X5350D01*
Y-6100D01*
X6650D01*
Y-6450D01*
D02*
G37*
G36*
X-53850Y-7900D02*
X-55150D01*
Y-7550D01*
X-53850D01*
Y-7900D01*
D02*
G37*
G36*
Y-9450D02*
X-55150D01*
X-55150Y-9100D01*
X-53850D01*
X-53850Y-9450D01*
D02*
G37*
G36*
X-31350Y-22900D02*
X-32650D01*
X-32650Y-22550D01*
X-31350D01*
X-31350Y-22900D01*
D02*
G37*
G36*
X-31350Y-24450D02*
X-32650D01*
Y-24100D01*
X-31350D01*
Y-24450D01*
D02*
G37*
G36*
X21500Y-28150D02*
X21150D01*
Y-26850D01*
X21500D01*
Y-28150D01*
D02*
G37*
G36*
X-31350Y-50900D02*
X-32650D01*
X-32650Y-50550D01*
X-31350D01*
X-31350Y-50900D01*
D02*
G37*
G36*
X-31350Y-52450D02*
X-32650D01*
Y-52100D01*
X-31350D01*
Y-52450D01*
D02*
G37*
G36*
X20900Y-55200D02*
X19100D01*
Y-54850D01*
X20900D01*
Y-55200D01*
D02*
G37*
G36*
Y-56150D02*
X19100D01*
Y-55800D01*
X20900D01*
Y-56150D01*
D02*
G37*
G36*
X63400Y32300D02*
X61600D01*
Y32650D01*
X63400D01*
Y32300D01*
D02*
G37*
G36*
X60400D02*
X58600D01*
Y32650D01*
X60400D01*
Y32300D01*
D02*
G37*
G36*
X63400Y31350D02*
X61600D01*
Y31700D01*
X63400D01*
Y31350D01*
D02*
G37*
G36*
X60400D02*
X58600D01*
Y31700D01*
X60400D01*
Y31350D01*
D02*
G37*
G36*
X62150Y-12400D02*
X61800D01*
Y-10600D01*
X62150D01*
Y-12400D01*
D02*
G37*
G36*
X61200D02*
X60850D01*
Y-10600D01*
X61200D01*
Y-12400D01*
D02*
G37*
G36*
X62150Y-15400D02*
X61800D01*
Y-13600D01*
X62150D01*
Y-15400D01*
D02*
G37*
G36*
X61200D02*
X60850D01*
Y-13600D01*
X61200D01*
Y-15400D01*
D02*
G37*
G36*
X62150Y-18400D02*
X61800D01*
Y-16600D01*
X62150D01*
Y-18400D01*
D02*
G37*
G36*
X61200D02*
X60850D01*
Y-16600D01*
X61200D01*
Y-18400D01*
D02*
G37*
G36*
X28650Y-18900D02*
X28300D01*
Y-17100D01*
X28650D01*
Y-18900D01*
D02*
G37*
G36*
X27700D02*
X27350D01*
Y-17100D01*
X27700D01*
Y-18900D01*
D02*
G37*
G36*
X62150Y-21400D02*
X61800D01*
Y-19600D01*
X62150D01*
Y-21400D01*
D02*
G37*
G36*
X61200D02*
X60850D01*
Y-19600D01*
X61200D01*
Y-21400D01*
D02*
G37*
G36*
X62150Y-24400D02*
X61800D01*
Y-22600D01*
X62150D01*
Y-24400D01*
D02*
G37*
G36*
X61200D02*
X60850D01*
Y-22600D01*
X61200D01*
Y-24400D01*
D02*
G37*
G36*
X23050Y-28150D02*
X22700Y-28150D01*
Y-26850D01*
X23050Y-26850D01*
Y-28150D01*
D02*
G37*
G36*
X28650Y-36900D02*
X28300D01*
Y-35100D01*
X28650D01*
Y-36900D01*
D02*
G37*
G36*
X27700D02*
X27350D01*
Y-35100D01*
X27700D01*
Y-36900D01*
D02*
G37*
G36*
X30900Y-40700D02*
X29100D01*
Y-40350D01*
X30900D01*
Y-40700D01*
D02*
G37*
G36*
Y-41650D02*
X29100D01*
Y-41300D01*
X30900D01*
Y-41650D01*
D02*
G37*
G36*
X36150Y-42400D02*
X34850D01*
Y-42050D01*
X36150D01*
Y-42400D01*
D02*
G37*
G36*
X46150Y-43900D02*
X45800D01*
Y-42100D01*
X46150D01*
Y-43900D01*
D02*
G37*
G36*
X45200D02*
X44850D01*
Y-42100D01*
X45200D01*
Y-43900D01*
D02*
G37*
G36*
X36150Y-43950D02*
X34850D01*
X34850Y-43600D01*
X36150D01*
X36150Y-43950D01*
D02*
G37*
G36*
Y-45400D02*
X34850D01*
Y-45050D01*
X36150D01*
Y-45400D01*
D02*
G37*
G36*
X51450Y-45650D02*
X51100D01*
Y-44350D01*
X51450D01*
Y-45650D01*
D02*
G37*
G36*
X49900Y-44350D02*
Y-45650D01*
X49550Y-45650D01*
Y-44350D01*
X49900Y-44350D01*
D02*
G37*
G36*
X46150Y-46900D02*
X45800D01*
Y-45100D01*
X46150D01*
Y-46900D01*
D02*
G37*
G36*
X45200D02*
X44850D01*
Y-45100D01*
X45200D01*
Y-46900D01*
D02*
G37*
G36*
X36150Y-46950D02*
X34850D01*
X34850Y-46600D01*
X36150D01*
X36150Y-46950D01*
D02*
G37*
G36*
X46150Y-49900D02*
X45800D01*
Y-48100D01*
X46150D01*
Y-49900D01*
D02*
G37*
G36*
X45200D02*
X44850D01*
Y-48100D01*
X45200D01*
Y-49900D01*
D02*
G37*
G36*
X24400Y-55200D02*
X22600D01*
Y-54850D01*
X24400D01*
Y-55200D01*
D02*
G37*
G36*
Y-56150D02*
X22600D01*
Y-55800D01*
X24400D01*
Y-56150D01*
D02*
G37*
G36*
X30150Y-62900D02*
X29800D01*
Y-61100D01*
X30150D01*
Y-62900D01*
D02*
G37*
G36*
X29200D02*
X28850D01*
Y-61100D01*
X29200D01*
Y-62900D01*
D02*
G37*
D10*
X26886Y24295D02*
G03*
X26886Y24295I-1181J0D01*
G01*
D11*
X-48813Y39857D02*
G03*
X-48331Y39758I870J3029D01*
G01*
X-48014Y39735D02*
G03*
X-47451Y39773I69J3160D01*
G01*
D02*
G03*
X-47382Y39785I-488J3084D01*
G01*
Y39785D02*
G03*
X-47216Y39820I-559J3080D01*
G01*
X-48331Y39758D02*
G03*
X-48014Y39735I385J3118D01*
G01*
X-43797Y42577D02*
G03*
X-43494Y42929I-2228J2227D01*
G01*
X-43494D02*
G03*
X-43232Y43346I-2532J1877D01*
G01*
D02*
G03*
X-43100Y43635I-2785J1454D01*
G01*
D02*
G03*
X-42938Y44175I-2935J1173D01*
G01*
D02*
G03*
X-42925Y44244I-3059J624D01*
G01*
D02*
G03*
X-42899Y44412I-3081J556D01*
G01*
X-42899D02*
G03*
X-42898Y45185I-3136J392D01*
G01*
X-42898Y45187D02*
G03*
X-43157Y46109I-3126J-383D01*
G01*
X-49249Y40017D02*
G03*
X-48813Y39857I1305J2868D01*
G01*
X-47216Y39820D02*
G03*
X-46491Y40090I-732J3074D01*
G01*
X-46489Y40091D02*
G03*
X-45717Y40657I-1455J2793D01*
G01*
X47455Y39758D02*
G03*
X49144Y40017I384J3126D01*
G01*
X45612Y40657D02*
G03*
X46386Y40090I2227J2227D01*
G01*
X47276Y39785D02*
G03*
X47455Y39758I560J3082D01*
G01*
X46539Y40015D02*
G03*
X47273Y39786I1304J2879D01*
G01*
X46386Y40090D02*
G03*
X46539Y40015I1445J2778D01*
G01*
X43052Y46109D02*
G03*
X42792Y45185I2867J-1305D01*
G01*
Y45185D02*
G03*
X42777Y45016I3108J-379D01*
G01*
Y45016D02*
G03*
X42819Y44248I3153J-212D01*
G01*
X42819Y44244D02*
G03*
X42857Y44067I3083J557D01*
G01*
X42857D02*
G03*
X43692Y42577I3062J737D01*
G01*
X14908Y-58078D02*
G03*
X11758Y-54928I-3150J0D01*
G01*
X-11864D02*
G03*
X-15013Y-58078I0J-3150D01*
G01*
X-48554Y54679D02*
X-48457Y54555D01*
X-48360Y54432D01*
X-47343Y53084D02*
X-47254Y52963D01*
X-47432Y53206D02*
X-47343Y53084D01*
X-47522Y53328D02*
X-47432Y53206D01*
X-47613Y53449D02*
X-47522Y53328D01*
X-47704Y53572D02*
X-47613Y53449D01*
X-47796Y53694D02*
X-47704Y53572D01*
X-47888Y53816D02*
X-47796Y53694D01*
X-47981Y53939D02*
X-47888Y53816D01*
X-48075Y54062D02*
X-47981Y53939D01*
X-48170Y54185D02*
X-48075Y54062D01*
X-48265Y54308D02*
X-48170Y54185D01*
X-48360Y54432D02*
X-48265Y54308D01*
X-47254Y52963D02*
X-47166Y52842D01*
X-45268Y50019D02*
X-45199Y49907D01*
X-45337Y50131D02*
X-45268Y50019D01*
X-45408Y50243D02*
X-45337Y50131D01*
X-45478Y50355D02*
X-45408Y50243D01*
X-45549Y50467D02*
X-45478Y50355D01*
X-45621Y50580D02*
X-45549Y50467D01*
X-45694Y50693D02*
X-45621Y50580D01*
X-45767Y50805D02*
X-45694Y50693D01*
X-45799Y50855D02*
X-45767Y50805D01*
X-45951Y51086D02*
X-45876Y50973D01*
X-46026Y51199D02*
X-45951Y51086D01*
X-45876Y50973D02*
X-45799Y50855D01*
X-46102Y51313D02*
X-46026Y51199D01*
X-46178Y51427D02*
X-46102Y51313D01*
X-46255Y51541D02*
X-46178Y51427D01*
X-46333Y51655D02*
X-46255Y51541D01*
X-46411Y51769D02*
X-46333Y51655D01*
X-46490Y51884D02*
X-46411Y51769D01*
X-46569Y51999D02*
X-46490Y51884D01*
X-46652Y52118D02*
X-46569Y51999D01*
X-46736Y52239D02*
X-46652Y52118D01*
X-46906Y52479D02*
X-46821Y52359D01*
X-46992Y52600D02*
X-46906Y52479D01*
X-47079Y52721D02*
X-46992Y52600D01*
X-46821Y52359D02*
X-46736Y52239D01*
X-47166Y52842D02*
X-47079Y52721D01*
X-44418Y48582D02*
X-44357Y48473D01*
X-44480Y48691D02*
X-44418Y48582D01*
X-44542Y48801D02*
X-44480Y48691D01*
X-44605Y48911D02*
X-44542Y48801D01*
X-44669Y49021D02*
X-44605Y48911D01*
X-44733Y49131D02*
X-44669Y49021D01*
X-44798Y49242D02*
X-44733Y49131D01*
X-44863Y49352D02*
X-44798Y49242D01*
X-44929Y49463D02*
X-44863Y49352D01*
X-45063Y49685D02*
X-44996Y49574D01*
X-45131Y49796D02*
X-45063Y49685D01*
X-44996Y49574D02*
X-44929Y49463D01*
X-45199Y49907D02*
X-45131Y49796D01*
X-43668Y47175D02*
X-43615Y47068D01*
X-43722Y47282D02*
X-43668Y47175D01*
X-43777Y47389D02*
X-43722Y47282D01*
X-43832Y47497D02*
X-43777Y47389D01*
X-43888Y47605D02*
X-43832Y47497D01*
X-43945Y47712D02*
X-43888Y47605D01*
X-44002Y47820D02*
X-43945Y47712D01*
X-44059Y47929D02*
X-44002Y47820D01*
X-44118Y48037D02*
X-44059Y47929D01*
X-44236Y48254D02*
X-44177Y48146D01*
X-44296Y48364D02*
X-44236Y48254D01*
X-44177Y48146D02*
X-44118Y48037D01*
X-44357Y48473D02*
X-44296Y48364D01*
X-43257Y46324D02*
X-43208Y46219D01*
X-43306Y46430D02*
X-43257Y46324D01*
X-43356Y46536D02*
X-43306Y46430D01*
X-43407Y46642D02*
X-43356Y46536D01*
X-43509Y46854D02*
X-43458Y46748D01*
X-43562Y46961D02*
X-43509Y46854D01*
X-43615Y47068D02*
X-43562Y46961D01*
X-43458Y46748D02*
X-43407Y46642D01*
X-57637Y45271D02*
X-57522Y45181D01*
X-57401Y45088D01*
X-57281Y44995D01*
X-57156Y44900D01*
X-57032Y44805D01*
X-56903Y44707D01*
X-56774Y44610D01*
X-56640Y44510D01*
X-56502Y44408D01*
X-56365Y44306D01*
X-56222Y44201D01*
X-56147Y44146D01*
X-56028Y44060D01*
X-55910Y43974D01*
X-55792Y43889D01*
X-55674Y43805D01*
X-55557Y43722D01*
X-55439Y43639D01*
X-55322Y43556D01*
X-55205Y43474D01*
X-55088Y43393D01*
X-54971Y43313D01*
X-54855Y43233D01*
X-54738Y43154D01*
X-54622Y43075D01*
X-54506Y42997D01*
X-54390Y42919D01*
X-54275Y42843D01*
X-54159Y42766D01*
X-54044Y42691D01*
X-53933Y42619D01*
X-53823Y42547D01*
X-53713Y42477D01*
X-53685Y42459D01*
X-53566Y42383D01*
X-53452Y42311D01*
X-53338Y42239D01*
X-53224Y42168D01*
X-53110Y42097D01*
X-53001Y42030D01*
X-52892Y41963D01*
X-52784Y41897D01*
X-52675Y41832D01*
X-52567Y41767D01*
X-52458Y41703D01*
X-52350Y41639D01*
X-52242Y41576D01*
X-52135Y41513D01*
X-52027Y41451D01*
X-51920Y41390D01*
X-51813Y41329D01*
X-51706Y41268D01*
X-51599Y41209D01*
X-51492Y41149D01*
X-51386Y41091D01*
X-51279Y41033D01*
X-51173Y40975D01*
X-51067Y40918D01*
X-50961Y40862D01*
X-50856Y40806D01*
X-50750Y40751D01*
X-50645Y40696D01*
X-50540Y40642D01*
X-43208Y46219D02*
X-43157Y46109D01*
X-45717Y40657D02*
X-43797Y42577D01*
X-46491Y40090D02*
X-46489Y40091D01*
X-42898Y45187D02*
X-42898Y45185D01*
X-50435Y40589D02*
X-50330Y40536D01*
X-50226Y40483D01*
X-50121Y40431D01*
X-50017Y40380D01*
X-49913Y40329D01*
X-49809Y40279D01*
X-49705Y40229D01*
X-49602Y40181D01*
X-49498Y40132D01*
X-49395Y40084D01*
X-49292Y40037D01*
X-49249Y40017D01*
X-50540Y40642D02*
X-50435Y40589D01*
X49144Y40017D02*
X49255Y40068D01*
X49363Y40118D01*
X49470Y40168D01*
X43692Y42577D02*
X45612Y40657D01*
X49470Y40168D02*
X49578Y40219D01*
X49686Y40271D01*
X49795Y40323D01*
X49903Y40376D01*
X50012Y40429D01*
X50120Y40483D01*
X50229Y40538D01*
X50339Y40593D01*
X50448Y40649D01*
X50557Y40705D01*
X50667Y40762D01*
X47273Y39786D02*
X47276Y39785D01*
X50667Y40762D02*
X50777Y40820D01*
X50887Y40878D01*
X50997Y40937D01*
X51108Y40997D01*
X51218Y41057D01*
X51329Y41118D01*
X51436Y41177D01*
X51543Y41236D01*
X51649Y41296D01*
X51757Y41357D01*
X51868Y41420D01*
X51980Y41485D01*
X52092Y41550D01*
X52205Y41615D01*
X52317Y41681D01*
X52430Y41748D01*
X52543Y41816D01*
X52656Y41884D01*
X52769Y41952D01*
X52882Y42022D01*
X52996Y42092D01*
X53110Y42162D01*
X53224Y42233D01*
X53452Y42377D02*
X53566Y42450D01*
X53580Y42459D01*
X53700Y42536D01*
X53815Y42610D01*
X53224Y42233D02*
X53338Y42305D01*
X53452Y42377D01*
X47179Y53003D02*
X47267Y53125D01*
X47091Y52882D02*
X47179Y53003D01*
X47003Y52761D02*
X47091Y52882D01*
X46920Y52645D02*
X47003Y52761D01*
X46837Y52529D02*
X46920Y52645D01*
X46755Y52414D02*
X46837Y52529D01*
X46673Y52299D02*
X46755Y52414D01*
X46593Y52184D02*
X46673Y52299D01*
X46512Y52069D02*
X46593Y52184D01*
X46353Y51839D02*
X46433Y51954D01*
X46275Y51725D02*
X46353Y51839D01*
X46433Y51954D02*
X46512Y52069D01*
X46197Y51610D02*
X46275Y51725D01*
X46120Y51496D02*
X46197Y51610D01*
X46043Y51382D02*
X46120Y51496D01*
X45967Y51269D02*
X46043Y51382D01*
X45891Y51155D02*
X45967Y51269D01*
X45816Y51042D02*
X45891Y51155D01*
X45742Y50928D02*
X45816Y51042D01*
X45694Y50855D02*
X45742Y50928D01*
X45617Y50737D02*
X45694Y50855D01*
X45544Y50624D02*
X45617Y50737D01*
X45401Y50399D02*
X45472Y50511D01*
X45330Y50287D02*
X45401Y50399D01*
X45472Y50511D02*
X45544Y50624D01*
X45259Y50175D02*
X45330Y50287D01*
X45190Y50063D02*
X45259Y50175D01*
X45121Y49951D02*
X45190Y50063D01*
X45052Y49840D02*
X45121Y49951D01*
X44984Y49728D02*
X45052Y49840D01*
X44917Y49617D02*
X44984Y49728D01*
X44850Y49506D02*
X44917Y49617D01*
X44784Y49395D02*
X44850Y49506D01*
X44718Y49285D02*
X44784Y49395D01*
X44653Y49174D02*
X44718Y49285D01*
X44525Y48954D02*
X44589Y49064D01*
X44462Y48844D02*
X44525Y48954D01*
X44589Y49064D02*
X44653Y49174D01*
X44399Y48734D02*
X44462Y48844D01*
X44337Y48625D02*
X44399Y48734D01*
X44275Y48515D02*
X44337Y48625D01*
X44214Y48406D02*
X44275Y48515D01*
X44154Y48297D02*
X44214Y48406D01*
X44095Y48188D02*
X44154Y48297D01*
X44036Y48080D02*
X44095Y48188D01*
X43977Y47971D02*
X44036Y48080D01*
X43862Y47755D02*
X43919Y47863D01*
X43805Y47647D02*
X43862Y47755D01*
X43749Y47539D02*
X43805Y47647D01*
X43693Y47431D02*
X43749Y47539D01*
X43919Y47863D02*
X43977Y47971D01*
X43639Y47324D02*
X43693Y47431D01*
X43584Y47217D02*
X43639Y47324D01*
X43530Y47110D02*
X43584Y47217D01*
X43477Y47003D02*
X43530Y47110D01*
X43425Y46896D02*
X43477Y47003D01*
X43373Y46790D02*
X43425Y46896D01*
X43321Y46683D02*
X43373Y46790D01*
X43270Y46577D02*
X43321Y46683D01*
X43220Y46471D02*
X43270Y46577D01*
X43171Y46366D02*
X43220Y46471D01*
X43122Y46260D02*
X43171Y46366D01*
X43073Y46155D02*
X43122Y46260D01*
X48416Y54637D02*
X48513Y54761D01*
X48319Y54513D02*
X48416Y54637D01*
X48219Y54385D02*
X48319Y54513D01*
X48120Y54256D02*
X48219Y54385D01*
X48021Y54128D02*
X48120Y54256D01*
X47919Y53995D02*
X48021Y54128D01*
X47818Y53862D02*
X47919Y53995D01*
X47714Y53724D02*
X47818Y53862D01*
X47610Y53587D02*
X47714Y53724D01*
X47447Y53368D02*
X47538Y53490D01*
X47357Y53246D02*
X47447Y53368D01*
X47538Y53490D02*
X47610Y53587D01*
X47267Y53125D02*
X47357Y53246D01*
X57239Y45044D02*
X57364Y45141D01*
X57490Y45238D01*
X57615Y45336D01*
X57114Y44948D02*
X57239Y45044D01*
X56990Y44853D02*
X57114Y44948D01*
X56865Y44758D02*
X56990Y44853D01*
X56745Y44668D02*
X56865Y44758D01*
X56626Y44578D02*
X56745Y44668D01*
X53815Y42610D02*
X53930Y42685D01*
X54045Y42760D01*
X54160Y42836D01*
X54276Y42913D01*
X54392Y42991D01*
X54508Y43069D02*
X54624Y43147D01*
X54740Y43227D01*
X54857Y43306D01*
X54392Y42991D02*
X54508Y43069D01*
X43052Y46109D02*
X43073Y46155D01*
X42819Y44248D02*
X42819Y44244D01*
X56507Y44489D02*
X56626Y44578D01*
X56388Y44401D02*
X56507Y44489D01*
X54857Y43306D02*
X54973Y43387D01*
X55090Y43468D01*
X55207Y43550D01*
X55325Y43632D01*
X55442Y43715D01*
X55560Y43798D01*
X55677Y43883D01*
X55795Y43967D01*
X55914Y44053D02*
X56032Y44139D01*
X56150Y44225D01*
X56269Y44313D01*
X55795Y43967D02*
X55914Y44053D01*
X56269Y44313D02*
X56388Y44401D01*
X14908Y-73000D02*
Y-67494D01*
X-15013D02*
Y-58078D01*
Y-73000D02*
Y-67494D01*
X14908D02*
Y-58078D01*
X-11864Y-54928D02*
X11758D01*
X-18563Y-45000D02*
Y-41500D01*
X-18500Y-45000D02*
X18500D01*
X-18563Y-25000D02*
X-12563D01*
X-18563Y-30500D02*
Y-25000D01*
X12563D02*
X18563D01*
Y-30500D02*
Y-25000D01*
Y-45000D02*
Y-41500D01*
D12*
X-25008Y-46500D02*
G03*
X-25008Y-46500I-492J0D01*
G01*
D13*
X21150Y-28150D02*
Y-26850D01*
X21500D01*
Y-28150D02*
Y-26850D01*
X21150Y-28150D02*
X21500D01*
X22700Y-26850D02*
X23050Y-26850D01*
X22700Y-28150D02*
Y-26850D01*
Y-28150D02*
X23050Y-28150D01*
Y-26850D01*
X34850Y-45050D02*
X36150D01*
Y-45400D02*
Y-45050D01*
X34850Y-45400D02*
X36150D01*
X34850D02*
Y-45050D01*
X36150Y-46600D02*
X36150Y-46950D01*
X34850Y-46600D02*
X36150D01*
X34850Y-46950D02*
X34850Y-46600D01*
X34850Y-46950D02*
X36150D01*
X44850Y-48100D02*
X45200D01*
X44850Y-49900D02*
X45200D01*
Y-48100D01*
X44850Y-49900D02*
Y-48100D01*
X46150Y-49900D02*
Y-48100D01*
X45800Y-49900D02*
Y-48100D01*
X46150D01*
X45800Y-49900D02*
X46150D01*
X44850Y-45100D02*
X45200D01*
X44850Y-46900D02*
X45200D01*
Y-45100D01*
X44850Y-46900D02*
Y-45100D01*
X46150Y-46900D02*
Y-45100D01*
X45800Y-46900D02*
Y-45100D01*
X46150D01*
X45800Y-46900D02*
X46150D01*
X22600Y-56150D02*
Y-55800D01*
X24400Y-56150D02*
Y-55800D01*
X22600D02*
X24400D01*
X22600Y-56150D02*
X24400D01*
X22600Y-54850D02*
X24400D01*
X22600Y-55200D02*
X24400D01*
X22600D02*
Y-54850D01*
X24400Y-55200D02*
Y-54850D01*
X19100Y-56150D02*
Y-55800D01*
X20900Y-56150D02*
Y-55800D01*
X19100D02*
X20900D01*
X19100Y-56150D02*
X20900D01*
X19100Y-54850D02*
X20900D01*
X19100Y-55200D02*
X20900D01*
X19100D02*
Y-54850D01*
X20900Y-55200D02*
Y-54850D01*
X29800Y-62900D02*
X30150D01*
X29800Y-61100D02*
X30150D01*
X29800Y-62900D02*
Y-61100D01*
X30150Y-62900D02*
Y-61100D01*
X28850Y-62900D02*
Y-61100D01*
X29200Y-62900D02*
Y-61100D01*
X28850Y-62900D02*
X29200D01*
X28850Y-61100D02*
X29200D01*
X58600Y31350D02*
Y31700D01*
X60400Y31350D02*
Y31700D01*
X58600D02*
X60400D01*
X58600Y31350D02*
X60400D01*
X58600Y32650D02*
X60400D01*
X58600Y32300D02*
X60400D01*
X58600D02*
Y32650D01*
X60400Y32300D02*
Y32650D01*
X60850Y-10600D02*
X61200D01*
X60850Y-12400D02*
X61200D01*
Y-10600D01*
X60850Y-12400D02*
Y-10600D01*
X62150Y-12400D02*
Y-10600D01*
X61800Y-12400D02*
Y-10600D01*
X62150D01*
X61800Y-12400D02*
X62150D01*
X15600Y31350D02*
Y31700D01*
X17400Y31350D02*
Y31700D01*
X15600D02*
X17400D01*
X15600Y31350D02*
X17400D01*
X15600Y32650D02*
X17400D01*
X15600Y32300D02*
X17400D01*
X15600D02*
Y32650D01*
X17400Y32300D02*
Y32650D01*
X6300Y-3400D02*
X6650D01*
X6300Y-1600D02*
X6650D01*
X6300Y-3400D02*
Y-1600D01*
X6650Y-3400D02*
Y-1600D01*
X5350Y-3400D02*
Y-1600D01*
X5700Y-3400D02*
Y-1600D01*
X5350Y-3400D02*
X5700D01*
X5350Y-1600D02*
X5700D01*
X6300Y-400D02*
X6650D01*
X6300Y1400D02*
X6650D01*
X6300Y-400D02*
Y1400D01*
X6650Y-400D02*
Y1400D01*
X5350Y-400D02*
Y1400D01*
X5700Y-400D02*
Y1400D01*
X5350Y-400D02*
X5700D01*
X5350Y1400D02*
X5700D01*
X5350Y-6450D02*
X6650D01*
X5350D02*
Y-6100D01*
X6650D01*
Y-6450D02*
Y-6100D01*
X5350Y-4550D02*
X5350Y-4900D01*
X6650D01*
X6650Y-4550D01*
X5350D02*
X6650D01*
X5350Y2550D02*
X6650D01*
X5350D02*
Y2900D01*
X6650D01*
Y2550D02*
Y2900D01*
X5350Y4450D02*
X5350Y4100D01*
X6650D01*
X6650Y4450D01*
X5350D02*
X6650D01*
X12850Y41950D02*
X14150D01*
Y41600D02*
Y41950D01*
X12850Y41600D02*
X14150D01*
X12850D02*
Y41950D01*
X14150Y40400D02*
X14150Y40050D01*
X12850Y40400D02*
X14150D01*
X12850Y40050D02*
X12850Y40400D01*
X12850Y40050D02*
X14150D01*
X10850Y45400D02*
X11200D01*
X10850Y43600D02*
X11200D01*
Y45400D01*
X10850Y43600D02*
Y45400D01*
X12150Y43600D02*
Y45400D01*
X11800Y43600D02*
Y45400D01*
X12150D01*
X11800Y43600D02*
X12150D01*
X5350Y5550D02*
X6650D01*
X5350D02*
Y5900D01*
X6650D01*
Y5550D02*
Y5900D01*
X5350Y7450D02*
X5350Y7100D01*
X6650D01*
X6650Y7450D01*
X5350D02*
X6650D01*
X-3650Y30450D02*
X-2350D01*
Y30100D02*
Y30450D01*
X-3650Y30100D02*
X-2350D01*
X-3650D02*
Y30450D01*
X-2350Y28900D02*
X-2350Y28550D01*
X-3650Y28900D02*
X-2350D01*
X-3650Y28550D02*
X-3650Y28900D01*
X-3650Y28550D02*
X-2350D01*
X60850Y-13600D02*
X61200D01*
X60850Y-15400D02*
X61200D01*
Y-13600D01*
X60850Y-15400D02*
Y-13600D01*
X62150Y-15400D02*
Y-13600D01*
X61800Y-15400D02*
Y-13600D01*
X62150D01*
X61800Y-15400D02*
X62150D01*
X61600Y31350D02*
Y31700D01*
X63400Y31350D02*
Y31700D01*
X61600D02*
X63400D01*
X61600Y31350D02*
X63400D01*
X61600Y32650D02*
X63400D01*
X61600Y32300D02*
X63400D01*
X61600D02*
Y32650D01*
X63400Y32300D02*
Y32650D01*
X6300Y8600D02*
X6650D01*
X6300Y10400D02*
X6650D01*
X6300Y8600D02*
Y10400D01*
X6650Y8600D02*
Y10400D01*
X5350Y8600D02*
Y10400D01*
X5700Y8600D02*
Y10400D01*
X5350Y8600D02*
X5700D01*
X5350Y10400D02*
X5700D01*
X-55150Y18450D02*
X-53850D01*
Y18100D02*
Y18450D01*
X-55150Y18100D02*
X-53850D01*
X-55150D02*
Y18450D01*
X-53850Y16900D02*
X-53850Y16550D01*
X-55150Y16900D02*
X-53850D01*
X-55150Y16550D02*
X-55150Y16900D01*
X-55150Y16550D02*
X-53850D01*
X-55150Y22450D02*
X-53850D01*
Y22100D02*
Y22450D01*
X-55150Y22100D02*
X-53850D01*
X-55150D02*
Y22450D01*
X-53850Y20900D02*
X-53850Y20550D01*
X-55150Y20900D02*
X-53850D01*
X-55150Y20550D02*
X-55150Y20900D01*
X-55150Y20550D02*
X-53850D01*
X-32650Y-24450D02*
X-31350D01*
X-32650D02*
Y-24100D01*
X-31350D01*
Y-24450D02*
Y-24100D01*
X-32650Y-22550D02*
X-32650Y-22900D01*
X-31350D01*
X-31350Y-22550D01*
X-32650D02*
X-31350D01*
X-55150Y-7550D02*
X-53850D01*
Y-7900D02*
Y-7550D01*
X-55150Y-7900D02*
X-53850D01*
X-55150D02*
Y-7550D01*
X-53850Y-9100D02*
X-53850Y-9450D01*
X-55150Y-9100D02*
X-53850D01*
X-55150Y-9450D02*
X-55150Y-9100D01*
X-55150Y-9450D02*
X-53850D01*
X-55150Y-3550D02*
X-53850D01*
Y-3900D02*
Y-3550D01*
X-55150Y-3900D02*
X-53850D01*
X-55150D02*
Y-3550D01*
X-53850Y-5100D02*
X-53850Y-5450D01*
X-55150Y-5100D02*
X-53850D01*
X-55150Y-5450D02*
X-55150Y-5100D01*
X-55150Y-5450D02*
X-53850D01*
X-55150Y450D02*
X-53850D01*
Y100D02*
Y450D01*
X-55150Y100D02*
X-53850D01*
X-55150D02*
Y450D01*
X-53850Y-1100D02*
X-53850Y-1450D01*
X-55150Y-1100D02*
X-53850D01*
X-55150Y-1450D02*
X-55150Y-1100D01*
X-55150Y-1450D02*
X-53850D01*
X-32650Y-52450D02*
X-31350D01*
X-32650D02*
Y-52100D01*
X-31350D01*
Y-52450D02*
Y-52100D01*
X-32650Y-50550D02*
X-32650Y-50900D01*
X-31350D01*
X-31350Y-50550D01*
X-32650D02*
X-31350D01*
X29100Y-41650D02*
Y-41300D01*
X30900Y-41650D02*
Y-41300D01*
X29100D02*
X30900D01*
X29100Y-41650D02*
X30900D01*
X29100Y-40350D02*
X30900D01*
X29100Y-40700D02*
X30900D01*
X29100D02*
Y-40350D01*
X30900Y-40700D02*
Y-40350D01*
X34850Y-42050D02*
X36150D01*
Y-42400D02*
Y-42050D01*
X34850Y-42400D02*
X36150D01*
X34850D02*
Y-42050D01*
X36150Y-43600D02*
X36150Y-43950D01*
X34850Y-43600D02*
X36150D01*
X34850Y-43950D02*
X34850Y-43600D01*
X34850Y-43950D02*
X36150D01*
X51450Y-45650D02*
Y-44350D01*
X51100Y-45650D02*
X51450D01*
X51100D02*
Y-44350D01*
X51450D01*
X49550Y-45650D02*
X49900Y-45650D01*
Y-44350D01*
X49550Y-44350D02*
X49900Y-44350D01*
X49550Y-45650D02*
Y-44350D01*
X27350Y-35100D02*
X27700D01*
X27350Y-36900D02*
X27700D01*
Y-35100D01*
X27350Y-36900D02*
Y-35100D01*
X28650Y-36900D02*
Y-35100D01*
X28300Y-36900D02*
Y-35100D01*
X28650D01*
X28300Y-36900D02*
X28650D01*
X45800Y-43900D02*
X46150D01*
X45800Y-42100D02*
X46150D01*
X45800Y-43900D02*
Y-42100D01*
X46150Y-43900D02*
Y-42100D01*
X44850Y-43900D02*
Y-42100D01*
X45200Y-43900D02*
Y-42100D01*
X44850Y-43900D02*
X45200D01*
X44850Y-42100D02*
X45200D01*
X61800Y-18400D02*
X62150D01*
X61800Y-16600D02*
X62150D01*
X61800Y-18400D02*
Y-16600D01*
X62150Y-18400D02*
Y-16600D01*
X60850Y-18400D02*
Y-16600D01*
X61200Y-18400D02*
Y-16600D01*
X60850Y-18400D02*
X61200D01*
X60850Y-16600D02*
X61200D01*
X27350Y-17100D02*
X27700D01*
X27350Y-18900D02*
X27700D01*
Y-17100D01*
X27350Y-18900D02*
Y-17100D01*
X28650Y-18900D02*
Y-17100D01*
X28300Y-18900D02*
Y-17100D01*
X28650D01*
X28300Y-18900D02*
X28650D01*
X61800Y-24400D02*
X62150D01*
X61800Y-22600D02*
X62150D01*
X61800Y-24400D02*
Y-22600D01*
X62150Y-24400D02*
Y-22600D01*
X60850Y-24400D02*
Y-22600D01*
X61200Y-24400D02*
Y-22600D01*
X60850Y-24400D02*
X61200D01*
X60850Y-22600D02*
X61200D01*
X61800Y-21400D02*
X62150D01*
X61800Y-19600D02*
X62150D01*
X61800Y-21400D02*
Y-19600D01*
X62150Y-21400D02*
Y-19600D01*
X60850Y-21400D02*
Y-19600D01*
X61200Y-21400D02*
Y-19600D01*
X60850Y-21400D02*
X61200D01*
X60850Y-19600D02*
X61200D01*
D14*
X-40709Y27598D02*
X-19213D01*
X-1811Y-14744D02*
Y27598D01*
X-40709Y-19449D02*
X-16457D01*
X-5866Y27598D02*
X-1811D01*
D15*
X21768Y-5232D02*
X55232D01*
X21768Y28232D02*
X55232D01*
Y-5232D02*
Y28232D01*
X21768Y-5232D02*
Y28232D01*
X33213Y-47898D02*
X37543D01*
Y-51244D02*
Y-47898D01*
X33213Y-60102D02*
X37543D01*
Y-56756D01*
X9291Y25500D02*
X9587Y25205D01*
X2500Y25106D02*
X2894Y25500D01*
X2500Y13000D02*
X3000Y12500D01*
X9000D02*
X9500Y13000D01*
X2500D02*
Y13197D01*
X2894Y25500D02*
X9291D01*
X3000Y12500D02*
X9000D01*
X2500Y24909D02*
Y25106D01*
X398Y33713D02*
Y38043D01*
X3744D01*
X12602Y33713D02*
Y38043D01*
X9256D02*
X12602D01*
X31291Y-20500D02*
X31587Y-20795D01*
X24500Y-20894D02*
X24894Y-20500D01*
X24500Y-33000D02*
X25000Y-33500D01*
X31000D02*
X31500Y-33000D01*
X24500D02*
Y-32803D01*
X24894Y-20500D02*
X31291D01*
X25000Y-33500D02*
X31000D01*
X24500Y-21091D02*
Y-20894D01*
D16*
X-46850Y-47350D02*
Y-45316D01*
Y-27650D02*
X-44815D01*
X-29184Y-47350D02*
X-27150D01*
X-29184Y-27650D02*
X-27150D01*
X-46850Y-29684D02*
Y-27650D01*
Y-47350D02*
X-44815D01*
X-27150D02*
Y-45316D01*
Y-29684D02*
Y-27650D01*
X35500Y-39850D02*
X36184D01*
X34150Y-38500D02*
X35500Y-39850D01*
X34150Y-38500D02*
Y-37815D01*
X53816Y-39850D02*
X55850D01*
X34150Y-20185D02*
Y-18150D01*
X53816D02*
X55850D01*
Y-39850D02*
Y-37815D01*
Y-20185D02*
Y-18150D01*
X34150D02*
X36184D01*
M02*
