M48
;Layer_Color=9474304
;FILE_FORMAT=2:5
INCH,TZ
;TYPE=PLATED
T1F00S00C0.01000
%
T01
X-38100Y-50900
X-28700Y-50200
X-36000Y-39000
X-40000
Y-35000
X-36000
X-21000Y-36000
X-18000
Y-33000
X-21000
X-6800Y-33200
X-4300Y-35500
X-4000Y-41000
X-8000
X7000Y-40000
X12000
Y-35000
X7000
X4900Y-27600
X-1300Y-28700
X-2900Y-26600
X500Y-30700
X3400Y-18600
X7100Y-21200
X12000Y-21000
Y-18000
Y-15000
X22500Y-14600
X31600Y-15000
X37600Y-18400
X33700Y-24000
Y-30000
X31039Y-34961
X26000Y-34500
X23700Y-32700
X26200Y-27000
X21100Y-22800
X19000Y-20800
X15900Y-23100
X2500Y-13000
X4500Y-10500
X4000Y-6400
X11000Y-2500
X2600Y6500
X0Y13500
Y19000
X4200
X0Y24000
X-9000Y23000
Y19000
Y15000
X-13000
X-17000
X-21000
X-25000
Y19000
X-21000
X-17000
X-13000
Y23000
X-17000
X-21000
X-25000
X-16900Y30500
X-13000
X-8100Y30800
X-4200Y37100
X1700Y36400
X4000Y34500
X6500Y30500
X10400Y30400
X11000Y25000
X12400Y36400
X16000Y35000
X17800Y37600
X22000Y40000
Y43000
X26100Y39500
X28800
X22900Y34200
X24000Y20000
Y17000
X22100Y12400
X22300Y8600
Y5300
X32000Y7000
Y3000
Y-1000
X41000Y0
X45000
X49000
Y4000
X45000
X41000
Y14000
X39000Y16000
X35000Y21000
X31600Y21200
X32700Y24100
X34000Y27000
X37516Y27984
X46000Y25000
Y22000
Y19000
X50000
Y22000
Y25000
X59500Y27114
X59000Y37000
X52200Y38700
X49327Y37810
X47358Y39658
X45390Y37810
X42000Y53000
X39000Y56000
X36000Y59000
X27000Y55000
X21000Y53000
X17000
X13000
X14500Y44000
X7500Y43500
X-1300Y42500
X-5500Y44100
X-11000Y43900
X-12400Y41100
X-15000Y42500
X-15500Y52900
X-8000Y57000
Y60000
Y63000
X-4000
Y60000
Y57000
X0
Y60000
Y63000
X20400Y58600
X32000Y11000
X44700Y10500
X47353Y8547
X51700Y14500
X53521Y16421
X55800Y-1300
X58400Y-4200
X66000Y-12000
Y-15000
Y-18000
X59500Y-22000
X55800Y-20567
X52500Y-19500
X49921Y-16521
X47900Y-18200
X45000Y-26000
Y-29000
Y-32000
X41000
Y-29000
Y-26000
X56400
Y-29937
X59016Y-28016
Y-31953
X52500Y-38500
X49900Y-40000
X51800Y-43000
X43500Y-44500
X45100Y-53100
X47550
X37000Y-54500
X30500Y-54000
X27000
X23500Y-55000
X20000
X17000Y-54500
X14500
X19500Y-61500
Y-64500
X23000
Y-61500
X25000Y-40000
X28800Y-43000
X-9000Y-6000
Y-2000
Y2000
X-13000
X-17000
X-21000
X-25000
Y-2000
X-21000
X-17000
X-13000
Y-6000
X-17000
X-21000
X-25000
X-42200Y-4200
X-42300Y-8500
Y4300
X-48700Y0
Y8800
X-48500Y13000
X-42600Y17400
Y21800
X-40000Y15000
X-34900Y50600
X-50500Y-16000
Y-20000
Y-24000
X-54500
X-58500
Y-20000
X-54500
Y-16000
X-58500
X-19000Y71000
X-15000
X-11000
X-7000
X-3000
Y75000
X-7000
X-11000
X-15000
X-19000
X14000
X18000
X22000
M30
