G04*
G04 #@! TF.GenerationSoftware,Altium Limited,Altium Designer,22.0.2 (36)*
G04*
G04 Layer_Physical_Order=1*
G04 Layer_Color=255*
%FSLAX25Y25*%
%MOIN*%
G70*
G04*
G04 #@! TF.SameCoordinates,E213EF3E-3606-43F0-864D-A49EEA771394*
G04*
G04*
G04 #@! TF.FilePolarity,Positive*
G04*
G01*
G75*
%ADD10C,0.01000*%
G04:AMPARAMS|DCode=13|XSize=86mil|YSize=72mil|CornerRadius=18mil|HoleSize=0mil|Usage=FLASHONLY|Rotation=270.000|XOffset=0mil|YOffset=0mil|HoleType=Round|Shape=RoundedRectangle|*
%AMROUNDEDRECTD13*
21,1,0.08600,0.03600,0,0,270.0*
21,1,0.05000,0.07200,0,0,270.0*
1,1,0.03600,-0.01800,-0.02500*
1,1,0.03600,-0.01800,0.02500*
1,1,0.03600,0.01800,0.02500*
1,1,0.03600,0.01800,-0.02500*
%
%ADD13ROUNDEDRECTD13*%
G04:AMPARAMS|DCode=14|XSize=50mil|YSize=10mil|CornerRadius=2.5mil|HoleSize=0mil|Usage=FLASHONLY|Rotation=90.000|XOffset=0mil|YOffset=0mil|HoleType=Round|Shape=RoundedRectangle|*
%AMROUNDEDRECTD14*
21,1,0.05000,0.00500,0,0,90.0*
21,1,0.04500,0.01000,0,0,90.0*
1,1,0.00500,0.00250,0.02250*
1,1,0.00500,0.00250,-0.02250*
1,1,0.00500,-0.00250,-0.02250*
1,1,0.00500,-0.00250,0.02250*
%
%ADD14ROUNDEDRECTD14*%
G04:AMPARAMS|DCode=15|XSize=59.06mil|YSize=11.81mil|CornerRadius=2.95mil|HoleSize=0mil|Usage=FLASHONLY|Rotation=270.000|XOffset=0mil|YOffset=0mil|HoleType=Round|Shape=RoundedRectangle|*
%AMROUNDEDRECTD15*
21,1,0.05906,0.00591,0,0,270.0*
21,1,0.05315,0.01181,0,0,270.0*
1,1,0.00591,-0.00295,-0.02657*
1,1,0.00591,-0.00295,0.02657*
1,1,0.00591,0.00295,0.02657*
1,1,0.00591,0.00295,-0.02657*
%
%ADD15ROUNDEDRECTD15*%
G04:AMPARAMS|DCode=16|XSize=20mil|YSize=20mil|CornerRadius=5mil|HoleSize=0mil|Usage=FLASHONLY|Rotation=90.000|XOffset=0mil|YOffset=0mil|HoleType=Round|Shape=RoundedRectangle|*
%AMROUNDEDRECTD16*
21,1,0.02000,0.01000,0,0,90.0*
21,1,0.01000,0.02000,0,0,90.0*
1,1,0.01000,0.00500,0.00500*
1,1,0.01000,0.00500,-0.00500*
1,1,0.01000,-0.00500,-0.00500*
1,1,0.01000,-0.00500,0.00500*
%
%ADD16ROUNDEDRECTD16*%
%ADD25C,0.00500*%
%ADD26C,0.15748*%
%ADD27O,0.03937X0.08268*%
%ADD28O,0.03937X0.06299*%
%ADD29C,0.02559*%
%ADD30C,0.01800*%
G36*
X19685Y31138D02*
X20465Y31035D01*
X21191Y30734D01*
X21815Y30256D01*
X22294Y29632D01*
X22595Y28905D01*
X22698Y28125D01*
X22704D01*
Y17748D01*
X22697D01*
X22796Y16999D01*
X23085Y16301D01*
X23545Y15702D01*
X24144Y15242D01*
X24842Y14953D01*
X25591Y14855D01*
Y14862D01*
X30000D01*
X30026Y14867D01*
X32013Y14711D01*
X33977Y14239D01*
X35842Y13466D01*
X37564Y12411D01*
X39100Y11100D01*
X40411Y9564D01*
X41467Y7842D01*
X42239Y5977D01*
X42711Y4013D01*
X42869Y2000D01*
X42711Y-13D01*
X42239Y-1977D01*
X41467Y-3842D01*
X40411Y-5564D01*
X39100Y-7100D01*
X37564Y-8411D01*
X35842Y-9466D01*
X33977Y-10239D01*
X32013Y-10711D01*
X30026Y-10867D01*
X30000Y-10862D01*
X26153D01*
Y-10855D01*
X25405Y-10953D01*
X24707Y-11242D01*
X24108Y-11702D01*
X23648Y-12301D01*
X23359Y-12999D01*
X23260Y-13748D01*
X23267D01*
Y-20001D01*
X23261D01*
X23158Y-20781D01*
X22857Y-21507D01*
X22378Y-22131D01*
X21754Y-22610D01*
X21028Y-22911D01*
X20248Y-23014D01*
Y-23020D01*
X-20248D01*
Y-23014D01*
X-21028Y-22911D01*
X-21754Y-22610D01*
X-22378Y-22131D01*
X-22857Y-21507D01*
X-23158Y-20781D01*
X-23261Y-20001D01*
X-23267D01*
Y-13748D01*
X-23260D01*
X-23359Y-12999D01*
X-23648Y-12301D01*
X-24108Y-11702D01*
X-24707Y-11242D01*
X-25405Y-10953D01*
X-26153Y-10855D01*
Y-10862D01*
X-30000D01*
X-30026Y-10867D01*
X-32013Y-10711D01*
X-33977Y-10239D01*
X-35842Y-9466D01*
X-37564Y-8411D01*
X-39100Y-7100D01*
X-40411Y-5564D01*
X-41467Y-3842D01*
X-42239Y-1977D01*
X-42711Y-13D01*
X-42869Y2000D01*
X-42711Y4013D01*
X-42239Y5977D01*
X-41467Y7842D01*
X-40411Y9564D01*
X-39100Y11100D01*
X-37564Y12411D01*
X-35842Y13466D01*
X-33977Y14239D01*
X-32013Y14711D01*
X-30026Y14867D01*
X-30000Y14862D01*
X-25591D01*
Y14855D01*
X-24842Y14953D01*
X-24144Y15242D01*
X-23545Y15702D01*
X-23085Y16301D01*
X-22796Y16999D01*
X-22697Y17748D01*
X-22704D01*
Y28125D01*
X-22698D01*
X-22595Y28905D01*
X-22294Y29632D01*
X-21815Y30256D01*
X-21191Y30734D01*
X-20465Y31035D01*
X-19685Y31138D01*
Y31145D01*
X19685D01*
Y31138D01*
D02*
G37*
%LPC*%
G36*
X7759Y19700D02*
X7241D01*
X6764Y19502D01*
X6579Y19318D01*
X-6579D01*
X-6764Y19502D01*
X-7241Y19700D01*
X-7759D01*
X-8236Y19502D01*
X-8602Y19136D01*
X-8800Y18659D01*
Y18141D01*
X-8602Y17664D01*
X-8418Y17479D01*
Y16421D01*
X-8602Y16236D01*
X-8800Y15759D01*
Y15241D01*
X-8602Y14764D01*
X-8418Y14579D01*
Y13821D01*
X-8602Y13636D01*
X-8800Y13159D01*
Y12898D01*
X-9346Y12352D01*
X-9770Y12635D01*
X-9698Y12808D01*
Y13476D01*
X-9954Y14093D01*
X-10427Y14566D01*
X-11044Y14821D01*
X-11712D01*
X-12329Y14566D01*
X-12802Y14093D01*
X-13058Y13476D01*
Y12808D01*
X-12802Y12190D01*
X-12329Y11718D01*
X-11712Y11462D01*
X-11044D01*
X-10871Y11534D01*
X-10588Y11110D01*
X-10688Y11010D01*
X-10887Y10712D01*
X-10957Y10361D01*
Y10056D01*
X-10990Y10007D01*
X-11044Y9736D01*
Y4421D01*
X-10990Y4150D01*
X-10836Y3920D01*
X-10606Y3766D01*
X-10335Y3712D01*
X-9744D01*
X-9473Y3766D01*
X-9449Y3782D01*
X-9425Y3766D01*
X-9154Y3712D01*
X-8563D01*
X-8292Y3766D01*
X-8062Y3920D01*
X-7627Y3844D01*
X-7553Y3782D01*
Y2907D01*
X-7851Y2848D01*
X-8149Y2649D01*
X-8348Y2351D01*
X-8418Y2000D01*
Y1000D01*
X-8348Y649D01*
X-8149Y351D01*
X-7851Y152D01*
X-7500Y82D01*
X-6500D01*
X-6149Y152D01*
X-5851Y351D01*
X-5652Y649D01*
X-5582Y1000D01*
Y2000D01*
X-5652Y2351D01*
X-5851Y2649D01*
X-6149Y2848D01*
X-6227Y2863D01*
Y3782D01*
X-6152Y3844D01*
X-5718Y3920D01*
X-5488Y3766D01*
X-5217Y3712D01*
X-4626D01*
X-4355Y3766D01*
X-4125Y3920D01*
X-3749D01*
X-3519Y3766D01*
X-3248Y3712D01*
X-2657D01*
X-2386Y3766D01*
X-2156Y3920D01*
X-1722Y3844D01*
X-1647Y3782D01*
Y-844D01*
X-1703Y-881D01*
X-1847Y-1096D01*
X-1897Y-1350D01*
Y-5850D01*
X-1847Y-6104D01*
X-1703Y-6319D01*
X-1488Y-6462D01*
X-1234Y-6513D01*
X-734D01*
X-481Y-6462D01*
X-283Y-6330D01*
X-262Y-6319D01*
X262D01*
X282Y-6330D01*
X481Y-6462D01*
X734Y-6513D01*
X1234D01*
X1488Y-6462D01*
X1667Y-6342D01*
X1690Y-6330D01*
X1968Y-6323D01*
X2247Y-6330D01*
X2270Y-6342D01*
X2449Y-6462D01*
X2703Y-6513D01*
X3203D01*
X3456Y-6462D01*
X3655Y-6330D01*
X3675Y-6319D01*
X4199D01*
X4219Y-6330D01*
X4418Y-6462D01*
X4671Y-6513D01*
X5171D01*
X5425Y-6462D01*
X5623Y-6330D01*
X5643Y-6319D01*
X6168D01*
X6188Y-6330D01*
X6386Y-6462D01*
X6640Y-6513D01*
X7140D01*
X7393Y-6462D01*
X7608Y-6319D01*
X7752Y-6104D01*
X7802Y-5850D01*
Y-4518D01*
X8479D01*
X8664Y-4702D01*
X9141Y-4900D01*
X9659D01*
X10136Y-4702D01*
X10321Y-4518D01*
X10929D01*
X11114Y-4702D01*
X11591Y-4900D01*
X12109D01*
X12586Y-4702D01*
X12771Y-4518D01*
X13379D01*
X13564Y-4702D01*
X14041Y-4900D01*
X14559D01*
X15036Y-4702D01*
X15402Y-4336D01*
X15600Y-3859D01*
Y-3341D01*
X15402Y-2864D01*
X15036Y-2498D01*
X14559Y-2300D01*
X14041D01*
X13564Y-2498D01*
X13379Y-2682D01*
X12771D01*
X12586Y-2498D01*
X12109Y-2300D01*
X11591D01*
X11114Y-2498D01*
X10929Y-2682D01*
X10321D01*
X10136Y-2498D01*
X9659Y-2300D01*
X9141D01*
X8664Y-2498D01*
X8479Y-2682D01*
X7802D01*
Y-1350D01*
X7752Y-1096D01*
X7608Y-881D01*
X7393Y-738D01*
X7140Y-687D01*
X6640D01*
X6386Y-738D01*
X6188Y-870D01*
X6168Y-881D01*
X5643D01*
X5623Y-870D01*
X5425Y-738D01*
X5171Y-687D01*
X4671D01*
X4418Y-738D01*
X4219Y-870D01*
X4199Y-881D01*
X3675D01*
X3655Y-870D01*
X3456Y-738D01*
X3203Y-687D01*
X2703D01*
X2449Y-738D01*
X2270Y-857D01*
X2247Y-870D01*
X2123Y-873D01*
X1648Y-408D01*
X1647Y-383D01*
Y3782D01*
X1722Y3844D01*
X2156Y3920D01*
X2386Y3766D01*
X2657Y3712D01*
X3248D01*
X3519Y3766D01*
X3749Y3920D01*
X4184Y3844D01*
X4259Y3782D01*
Y2870D01*
X4149Y2848D01*
X3851Y2649D01*
X3652Y2351D01*
X3582Y2000D01*
Y1000D01*
X3652Y649D01*
X3851Y351D01*
X4149Y152D01*
X4500Y82D01*
X5500D01*
X5851Y152D01*
X6149Y351D01*
X6348Y649D01*
X6418Y1000D01*
Y2000D01*
X6348Y2351D01*
X6149Y2649D01*
X5851Y2848D01*
X5584Y2901D01*
Y3782D01*
X5658Y3844D01*
X6093Y3920D01*
X6323Y3766D01*
X6594Y3712D01*
X7185D01*
X7456Y3766D01*
X7686Y3920D01*
X8062D01*
X8292Y3766D01*
X8563Y3712D01*
X9154D01*
X9425Y3766D01*
X9449Y3782D01*
X9473Y3766D01*
X9744Y3712D01*
X10335D01*
X10606Y3766D01*
X10836Y3920D01*
X10990Y4150D01*
X11044Y4421D01*
Y9736D01*
X10990Y10007D01*
X10957Y10056D01*
Y10361D01*
X10887Y10712D01*
X10688Y11010D01*
X10588Y11110D01*
X10871Y11534D01*
X11044Y11462D01*
X11712D01*
X12329Y11718D01*
X12802Y12190D01*
X13058Y12808D01*
Y13476D01*
X12802Y14093D01*
X12329Y14566D01*
X11712Y14821D01*
X11044D01*
X10427Y14566D01*
X9954Y14093D01*
X9698Y13476D01*
Y12808D01*
X9770Y12635D01*
X9346Y12352D01*
X8800Y12898D01*
Y13159D01*
X8602Y13636D01*
X8418Y13821D01*
Y14579D01*
X8602Y14764D01*
X8800Y15241D01*
Y15759D01*
X8602Y16236D01*
X8418Y16421D01*
Y17479D01*
X8602Y17664D01*
X8800Y18141D01*
Y18659D01*
X8602Y19136D01*
X8236Y19502D01*
X7759Y19700D01*
D02*
G37*
%LPD*%
G36*
X6582Y17479D02*
Y16421D01*
X6398Y16236D01*
X6200Y15759D01*
Y15241D01*
X6398Y14764D01*
X6582Y14579D01*
Y13821D01*
X6398Y13636D01*
X6200Y13159D01*
Y12641D01*
X6398Y12164D01*
X6764Y11798D01*
X7241Y11600D01*
X7502D01*
X7941Y11162D01*
Y10669D01*
X7458Y10392D01*
X7441Y10394D01*
X7185Y10445D01*
X6594D01*
X6323Y10391D01*
X6093Y10238D01*
X5718D01*
X5488Y10391D01*
X5217Y10445D01*
X4626D01*
X4355Y10391D01*
X4125Y10238D01*
X3690Y10314D01*
X3616Y10375D01*
Y10889D01*
X3636Y10898D01*
X4002Y11264D01*
X4200Y11741D01*
Y12259D01*
X4002Y12736D01*
X3636Y13102D01*
X3159Y13300D01*
X2641D01*
X2164Y13102D01*
X2147Y13085D01*
X1647Y13293D01*
Y13816D01*
X1596Y14069D01*
X1453Y14284D01*
X369Y15369D01*
X154Y15512D01*
X-100Y15563D01*
X-2000D01*
X-2254Y15512D01*
X-2469Y15369D01*
X-3421Y14416D01*
X-3565Y14201D01*
X-3616Y13947D01*
Y10375D01*
X-3690Y10314D01*
X-4125Y10238D01*
X-4355Y10391D01*
X-4626Y10445D01*
X-5217D01*
X-5488Y10391D01*
X-5718Y10238D01*
X-6093D01*
X-6323Y10391D01*
X-6594Y10445D01*
X-7185D01*
X-7441Y10394D01*
X-7458Y10392D01*
X-7941Y10669D01*
Y11162D01*
X-7502Y11600D01*
X-7241D01*
X-6764Y11798D01*
X-6398Y12164D01*
X-6200Y12641D01*
Y13159D01*
X-6398Y13636D01*
X-6582Y13821D01*
Y14579D01*
X-6398Y14764D01*
X-6200Y15241D01*
Y15759D01*
X-6398Y16236D01*
X-6582Y16421D01*
Y17479D01*
X-6579Y17482D01*
X6579D01*
X6582Y17479D01*
D02*
G37*
D10*
X-7500Y18400D02*
X7500D01*
X11850Y-3600D02*
X14300D01*
X9400D02*
X11850D01*
X6890D02*
X9400D01*
X4921D02*
X6890D01*
X2953D02*
X4921D01*
X-10039Y7079D02*
Y10361D01*
X-7500Y12900D02*
Y15500D01*
Y18400D01*
X-8858Y7079D02*
Y11542D01*
X-7500Y12900D01*
X-10039Y10361D02*
X-8858Y11542D01*
X8858D02*
X10039Y10361D01*
X7500Y12900D02*
X8858Y11542D01*
Y7079D02*
Y11542D01*
X7500Y15500D02*
Y18400D01*
Y12900D02*
Y15500D01*
X10039Y7079D02*
Y10361D01*
D13*
X18563Y-16000D02*
D03*
X-18563D02*
D03*
D14*
X6890Y-3600D02*
D03*
X4921D02*
D03*
X2953D02*
D03*
X984D02*
D03*
X-984D02*
D03*
X-2953D02*
D03*
X-4921D02*
D03*
X-6890D02*
D03*
D15*
X13189Y7079D02*
D03*
X12008D02*
D03*
X10039D02*
D03*
X8858D02*
D03*
X6890D02*
D03*
X4921D02*
D03*
X2953D02*
D03*
X984D02*
D03*
X-984D02*
D03*
X-2953D02*
D03*
X-4921D02*
D03*
X-6890D02*
D03*
X-8858D02*
D03*
X-10039D02*
D03*
X-12008D02*
D03*
X-13189D02*
D03*
D16*
X5000Y1500D02*
D03*
X9000D02*
D03*
X-11000D02*
D03*
X-7000D02*
D03*
D25*
X-6890Y1610D02*
Y7079D01*
X4921Y1579D02*
Y7079D01*
X2953D02*
Y11947D01*
X2900Y12000D02*
X2953Y11947D01*
X-984Y7079D02*
Y12016D01*
X-100Y14900D02*
X984Y13816D01*
X-2000Y14900D02*
X-100D01*
X984Y7079D02*
Y13816D01*
X-2953Y7079D02*
Y13947D01*
X-2000Y14900D01*
X984Y-3600D02*
Y7079D01*
X-984Y-3600D02*
Y7079D01*
D26*
X-30000Y2000D02*
D03*
X30000D02*
D03*
D27*
X17028Y11173D02*
D03*
X-17028D02*
D03*
D28*
X17028Y26921D02*
D03*
X-17028D02*
D03*
D29*
X-11378Y13142D02*
D03*
X11378D02*
D03*
D30*
X4500Y16000D02*
D03*
X-4500D02*
D03*
X9400Y-3600D02*
D03*
X11850D02*
D03*
X14300D02*
D03*
X-7500Y12900D02*
D03*
Y15500D02*
D03*
Y18400D02*
D03*
X7500D02*
D03*
Y15500D02*
D03*
Y12900D02*
D03*
X2900Y12000D02*
D03*
X-984Y12016D02*
D03*
M02*
