G04*
G04 #@! TF.GenerationSoftware,Altium Limited,Altium Designer,22.0.2 (36)*
G04*
G04 Layer_Color=8388736*
%FSLAX25Y25*%
%MOIN*%
G70*
G04*
G04 #@! TF.SameCoordinates,E213EF3E-3606-43F0-864D-A49EEA771394*
G04*
G04*
G04 #@! TF.FilePolarity,Negative*
G04*
G01*
G75*
G04:AMPARAMS|DCode=17|XSize=92mil|YSize=78mil|CornerRadius=21mil|HoleSize=0mil|Usage=FLASHONLY|Rotation=270.000|XOffset=0mil|YOffset=0mil|HoleType=Round|Shape=RoundedRectangle|*
%AMROUNDEDRECTD17*
21,1,0.09200,0.03600,0,0,270.0*
21,1,0.05000,0.07800,0,0,270.0*
1,1,0.04200,-0.01800,-0.02500*
1,1,0.04200,-0.01800,0.02500*
1,1,0.04200,0.01800,0.02500*
1,1,0.04200,0.01800,-0.02500*
%
%ADD17ROUNDEDRECTD17*%
G04:AMPARAMS|DCode=18|XSize=56mil|YSize=16mil|CornerRadius=5.5mil|HoleSize=0mil|Usage=FLASHONLY|Rotation=90.000|XOffset=0mil|YOffset=0mil|HoleType=Round|Shape=RoundedRectangle|*
%AMROUNDEDRECTD18*
21,1,0.05600,0.00500,0,0,90.0*
21,1,0.04500,0.01600,0,0,90.0*
1,1,0.01100,0.00250,0.02250*
1,1,0.01100,0.00250,-0.02250*
1,1,0.01100,-0.00250,-0.02250*
1,1,0.01100,-0.00250,0.02250*
%
%ADD18ROUNDEDRECTD18*%
G04:AMPARAMS|DCode=19|XSize=65.06mil|YSize=17.81mil|CornerRadius=5.95mil|HoleSize=0mil|Usage=FLASHONLY|Rotation=270.000|XOffset=0mil|YOffset=0mil|HoleType=Round|Shape=RoundedRectangle|*
%AMROUNDEDRECTD19*
21,1,0.06506,0.00591,0,0,270.0*
21,1,0.05315,0.01781,0,0,270.0*
1,1,0.01191,-0.00295,-0.02657*
1,1,0.01191,-0.00295,0.02657*
1,1,0.01191,0.00295,0.02657*
1,1,0.01191,0.00295,-0.02657*
%
%ADD19ROUNDEDRECTD19*%
G04:AMPARAMS|DCode=20|XSize=26mil|YSize=26mil|CornerRadius=8mil|HoleSize=0mil|Usage=FLASHONLY|Rotation=90.000|XOffset=0mil|YOffset=0mil|HoleType=Round|Shape=RoundedRectangle|*
%AMROUNDEDRECTD20*
21,1,0.02600,0.01000,0,0,90.0*
21,1,0.01000,0.02600,0,0,90.0*
1,1,0.01600,0.00500,0.00500*
1,1,0.01600,0.00500,-0.00500*
1,1,0.01600,-0.00500,-0.00500*
1,1,0.01600,-0.00500,0.00500*
%
%ADD20ROUNDEDRECTD20*%
%ADD21C,0.16348*%
%ADD22O,0.04537X0.08868*%
%ADD23O,0.04537X0.06899*%
%ADD24C,0.03159*%
D17*
X18563Y-16000D02*
D03*
X-18563D02*
D03*
D18*
X6890Y-3600D02*
D03*
X4921D02*
D03*
X2953D02*
D03*
X984D02*
D03*
X-984D02*
D03*
X-2953D02*
D03*
X-4921D02*
D03*
X-6890D02*
D03*
D19*
X13189Y7079D02*
D03*
X12008D02*
D03*
X10039D02*
D03*
X8858D02*
D03*
X6890D02*
D03*
X4921D02*
D03*
X2953D02*
D03*
X984D02*
D03*
X-984D02*
D03*
X-2953D02*
D03*
X-4921D02*
D03*
X-6890D02*
D03*
X-8858D02*
D03*
X-10039D02*
D03*
X-12008D02*
D03*
X-13189D02*
D03*
D20*
X5000Y1500D02*
D03*
X9000D02*
D03*
X-11000D02*
D03*
X-7000D02*
D03*
D21*
X-30000Y2000D02*
D03*
X30000D02*
D03*
D22*
X17028Y11173D02*
D03*
X-17028D02*
D03*
D23*
X17028Y26921D02*
D03*
X-17028D02*
D03*
D24*
X-11378Y13142D02*
D03*
X11378D02*
D03*
M02*
