G04*
G04 #@! TF.GenerationSoftware,Altium Limited,Altium Designer,22.0.2 (36)*
G04*
G04 Layer_Physical_Order=2*
G04 Layer_Color=6736896*
%FSLAX25Y25*%
%MOIN*%
G70*
G04*
G04 #@! TF.SameCoordinates,E213EF3E-3606-43F0-864D-A49EEA771394*
G04*
G04*
G04 #@! TF.FilePolarity,Positive*
G04*
G01*
G75*
%ADD10C,0.01000*%
%ADD25C,0.00500*%
%ADD26C,0.15748*%
%ADD27O,0.03937X0.08268*%
%ADD28O,0.03937X0.06299*%
%ADD29C,0.02559*%
%ADD30C,0.01800*%
G36*
X19685Y31138D02*
X20465Y31035D01*
X21191Y30734D01*
X21815Y30256D01*
X22294Y29632D01*
X22595Y28905D01*
X22698Y28125D01*
X22704D01*
Y17748D01*
X22697D01*
X22796Y16999D01*
X23085Y16301D01*
X23545Y15702D01*
X24144Y15242D01*
X24842Y14953D01*
X25591Y14855D01*
Y14862D01*
X30000D01*
X30026Y14867D01*
X32013Y14711D01*
X33977Y14239D01*
X35842Y13466D01*
X37564Y12411D01*
X39100Y11100D01*
X40411Y9564D01*
X41467Y7842D01*
X42239Y5977D01*
X42711Y4013D01*
X42869Y2000D01*
X42711Y-13D01*
X42239Y-1977D01*
X41467Y-3842D01*
X40411Y-5564D01*
X39100Y-7100D01*
X37564Y-8411D01*
X35842Y-9466D01*
X33977Y-10239D01*
X32013Y-10711D01*
X30026Y-10867D01*
X30000Y-10862D01*
X26153D01*
Y-10855D01*
X25405Y-10953D01*
X24707Y-11242D01*
X24108Y-11702D01*
X23648Y-12301D01*
X23359Y-12999D01*
X23260Y-13748D01*
X23267D01*
Y-20001D01*
X23261D01*
X23158Y-20781D01*
X22857Y-21507D01*
X22378Y-22131D01*
X21754Y-22610D01*
X21028Y-22911D01*
X20248Y-23014D01*
Y-23020D01*
X-20248D01*
Y-23014D01*
X-21028Y-22911D01*
X-21754Y-22610D01*
X-22378Y-22131D01*
X-22857Y-21507D01*
X-23158Y-20781D01*
X-23261Y-20001D01*
X-23267D01*
Y-13748D01*
X-23260D01*
X-23359Y-12999D01*
X-23648Y-12301D01*
X-24108Y-11702D01*
X-24707Y-11242D01*
X-25405Y-10953D01*
X-26153Y-10855D01*
Y-10862D01*
X-30000D01*
X-30026Y-10867D01*
X-32013Y-10711D01*
X-33977Y-10239D01*
X-35842Y-9466D01*
X-37564Y-8411D01*
X-39100Y-7100D01*
X-40411Y-5564D01*
X-41467Y-3842D01*
X-42239Y-1977D01*
X-42711Y-13D01*
X-42869Y2000D01*
X-42711Y4013D01*
X-42239Y5977D01*
X-41467Y7842D01*
X-40411Y9564D01*
X-39100Y11100D01*
X-37564Y12411D01*
X-35842Y13466D01*
X-33977Y14239D01*
X-32013Y14711D01*
X-30026Y14867D01*
X-30000Y14862D01*
X-25591D01*
Y14855D01*
X-24842Y14953D01*
X-24144Y15242D01*
X-23545Y15702D01*
X-23085Y16301D01*
X-22796Y16999D01*
X-22697Y17748D01*
X-22704D01*
Y28125D01*
X-22698D01*
X-22595Y28905D01*
X-22294Y29632D01*
X-21815Y30256D01*
X-21191Y30734D01*
X-20465Y31035D01*
X-19685Y31138D01*
Y31145D01*
X19685D01*
Y31138D01*
D02*
G37*
%LPC*%
G36*
X-7241Y19700D02*
X-7759D01*
X-8236Y19502D01*
X-8602Y19136D01*
X-8800Y18659D01*
Y18141D01*
X-8602Y17664D01*
X-8236Y17298D01*
X-8050Y17221D01*
Y16679D01*
X-8236Y16602D01*
X-8602Y16236D01*
X-8800Y15759D01*
Y15241D01*
X-8602Y14764D01*
X-8339Y14501D01*
X-8277Y14200D01*
X-8339Y13899D01*
X-8602Y13636D01*
X-8800Y13159D01*
Y12641D01*
X-8602Y12164D01*
X-8236Y11798D01*
X-7759Y11600D01*
X-7241D01*
X-6764Y11798D01*
X-6398Y12164D01*
X-6200Y12641D01*
Y13159D01*
X-6398Y13636D01*
X-6661Y13899D01*
X-6723Y14200D01*
X-6661Y14501D01*
X-6398Y14764D01*
X-6200Y15241D01*
Y15759D01*
X-6398Y16236D01*
X-6764Y16602D01*
X-6950Y16679D01*
Y17221D01*
X-6764Y17298D01*
X-6398Y17664D01*
X-6200Y18141D01*
Y18659D01*
X-6398Y19136D01*
X-6764Y19502D01*
X-7241Y19700D01*
D02*
G37*
G36*
X11712Y14821D02*
X11044D01*
X10427Y14566D01*
X9954Y14093D01*
X9698Y13476D01*
Y12808D01*
X9954Y12190D01*
X10427Y11718D01*
X11044Y11462D01*
X11712D01*
X12329Y11718D01*
X12802Y12190D01*
X13058Y12808D01*
Y13476D01*
X12802Y14093D01*
X12329Y14566D01*
X11712Y14821D01*
D02*
G37*
G36*
X-11044D02*
X-11712D01*
X-12329Y14566D01*
X-12802Y14093D01*
X-13058Y13476D01*
Y12808D01*
X-12802Y12190D01*
X-12329Y11718D01*
X-11712Y11462D01*
X-11044D01*
X-10427Y11718D01*
X-9954Y12190D01*
X-9698Y12808D01*
Y13476D01*
X-9954Y14093D01*
X-10427Y14566D01*
X-11044Y14821D01*
D02*
G37*
G36*
X-726Y13316D02*
X-1243D01*
X-1721Y13118D01*
X-2086Y12752D01*
X-2284Y12274D01*
Y11757D01*
X-2086Y11279D01*
X-1721Y10914D01*
X-1243Y10716D01*
X-726D01*
X-248Y10914D01*
X118Y11279D01*
X142Y11337D01*
X1767D01*
X1798Y11264D01*
X2164Y10898D01*
X2641Y10700D01*
X3159D01*
X3636Y10898D01*
X4002Y11264D01*
X4200Y11741D01*
Y12259D01*
X4002Y12736D01*
X3636Y13102D01*
X3159Y13300D01*
X2641D01*
X2164Y13102D01*
X1798Y12736D01*
X1767Y12663D01*
X155D01*
X118Y12752D01*
X-248Y13118D01*
X-726Y13316D01*
D02*
G37*
G36*
X7759Y19700D02*
X7241D01*
X6764Y19502D01*
X6398Y19136D01*
X6200Y18659D01*
Y18141D01*
X6398Y17664D01*
X6582Y17479D01*
Y16421D01*
X6398Y16236D01*
X6200Y15759D01*
Y15241D01*
X6398Y14764D01*
X6582Y14579D01*
Y13821D01*
X6398Y13636D01*
X6200Y13159D01*
Y12641D01*
X6398Y12164D01*
X6582Y11979D01*
Y-1700D01*
X6652Y-2051D01*
X6851Y-2349D01*
X8100Y-3598D01*
Y-3859D01*
X8298Y-4336D01*
X8664Y-4702D01*
X9141Y-4900D01*
X9659D01*
X10136Y-4702D01*
X10321Y-4518D01*
X10929D01*
X11114Y-4702D01*
X11591Y-4900D01*
X12109D01*
X12586Y-4702D01*
X12771Y-4518D01*
X13379D01*
X13564Y-4702D01*
X14041Y-4900D01*
X14559D01*
X15036Y-4702D01*
X15402Y-4336D01*
X15600Y-3859D01*
Y-3341D01*
X15402Y-2864D01*
X15036Y-2498D01*
X14559Y-2300D01*
X14041D01*
X13564Y-2498D01*
X13379Y-2682D01*
X12771D01*
X12586Y-2498D01*
X12109Y-2300D01*
X11591D01*
X11114Y-2498D01*
X10929Y-2682D01*
X10321D01*
X10136Y-2498D01*
X9659Y-2300D01*
X9398D01*
X8418Y-1320D01*
Y11979D01*
X8602Y12164D01*
X8800Y12641D01*
Y13159D01*
X8602Y13636D01*
X8418Y13821D01*
Y14579D01*
X8602Y14764D01*
X8800Y15241D01*
Y15759D01*
X8602Y16236D01*
X8418Y16421D01*
Y17479D01*
X8602Y17664D01*
X8800Y18141D01*
Y18659D01*
X8602Y19136D01*
X8236Y19502D01*
X7759Y19700D01*
D02*
G37*
%LPD*%
D10*
X11850Y-3600D02*
X14300D01*
X9400D02*
X11850D01*
X7500Y15500D02*
Y18400D01*
Y12900D02*
Y15500D01*
Y-1700D02*
Y12900D01*
Y-1700D02*
X9400Y-3600D01*
D25*
X-969Y12000D02*
X2900D01*
D26*
X-30000Y2000D02*
D03*
X30000D02*
D03*
D27*
X17028Y11173D02*
D03*
X-17028D02*
D03*
D28*
X17028Y26921D02*
D03*
X-17028D02*
D03*
D29*
X-11378Y13142D02*
D03*
X11378D02*
D03*
D30*
X4500Y16000D02*
D03*
X-4500D02*
D03*
X9400Y-3600D02*
D03*
X11850D02*
D03*
X14300D02*
D03*
X-7500Y12900D02*
D03*
Y15500D02*
D03*
Y18400D02*
D03*
X7500D02*
D03*
Y15500D02*
D03*
Y12900D02*
D03*
X2900Y12000D02*
D03*
X-984Y12016D02*
D03*
M02*
