G04*
G04 #@! TF.GenerationSoftware,Altium Limited,Altium Designer,22.0.2 (36)*
G04*
G04 Layer_Color=2752767*
%FSLAX25Y25*%
%MOIN*%
G70*
G04*
G04 #@! TF.SameCoordinates,E213EF3E-3606-43F0-864D-A49EEA771394*
G04*
G04*
G04 #@! TF.FilePolarity,Positive*
G04*
G01*
G75*
%ADD31C,0.00200*%
%ADD32C,0.00267*%
D31*
X-30800Y1200D02*
Y2800D01*
X-29200D01*
Y1200D01*
X-30800D01*
X29200D02*
Y2800D01*
X30800D01*
Y1200D01*
X29200D01*
X17028Y26121D02*
X16228Y27721D01*
X17828D01*
X17028Y26121D01*
X-17028D02*
X-17828Y27721D01*
X-16228D01*
X-17028Y26121D01*
X-11378Y12342D02*
X-10978Y12742D01*
X-10578D01*
X-10978Y13142D01*
X-10578Y13542D01*
X-10978D01*
X-11378Y13942D01*
X-11778Y13542D01*
X-12178D01*
X-11778Y13142D01*
X-12178Y12742D01*
X-11778D01*
X-11378Y12342D01*
X11378D02*
X11778Y12742D01*
X12178D01*
X11778Y13142D01*
X12178Y13542D01*
X11778D01*
X11378Y13942D01*
X10978Y13542D01*
X10578D01*
X10978Y13142D01*
X10578Y12742D01*
X10978D01*
X11378Y12342D01*
X3700Y15200D02*
X4100Y16000D01*
X3700Y16800D01*
X4500Y16400D01*
X5300Y16800D01*
X4900Y16000D01*
X5300Y15200D01*
X4500Y15600D01*
X3700Y15200D01*
X-5300D02*
X-4900Y16000D01*
X-5300Y16800D01*
X-4500Y16400D01*
X-3700Y16800D01*
X-4100Y16000D01*
X-3700Y15200D01*
X-4500Y15600D01*
X-5300Y15200D01*
X8600Y-4400D02*
X9000Y-3600D01*
X8600Y-2800D01*
X9400Y-3200D01*
X10200Y-2800D01*
X9800Y-3600D01*
X10200Y-4400D01*
X9400Y-4000D01*
X8600Y-4400D01*
X11050D02*
X11450Y-3600D01*
X11050Y-2800D01*
X11850Y-3200D01*
X12650Y-2800D01*
X12250Y-3600D01*
X12650Y-4400D01*
X11850Y-4000D01*
X11050Y-4400D01*
X13500D02*
X13900Y-3600D01*
X13500Y-2800D01*
X14300Y-3200D01*
X15100Y-2800D01*
X14700Y-3600D01*
X15100Y-4400D01*
X14300Y-4000D01*
X13500Y-4400D01*
X-8300Y12100D02*
X-7900Y12900D01*
X-8300Y13700D01*
X-7500Y13300D01*
X-6700Y13700D01*
X-7100Y12900D01*
X-6700Y12100D01*
X-7500Y12500D01*
X-8300Y12100D01*
Y14700D02*
X-7900Y15500D01*
X-8300Y16300D01*
X-7500Y15900D01*
X-6700Y16300D01*
X-7100Y15500D01*
X-6700Y14700D01*
X-7500Y15100D01*
X-8300Y14700D01*
Y17600D02*
X-7900Y18400D01*
X-8300Y19200D01*
X-7500Y18800D01*
X-6700Y19200D01*
X-7100Y18400D01*
X-6700Y17600D01*
X-7500Y18000D01*
X-8300Y17600D01*
X6700D02*
X7100Y18400D01*
X6700Y19200D01*
X7500Y18800D01*
X8300Y19200D01*
X7900Y18400D01*
X8300Y17600D01*
X7500Y18000D01*
X6700Y17600D01*
Y14700D02*
X7100Y15500D01*
X6700Y16300D01*
X7500Y15900D01*
X8300Y16300D01*
X7900Y15500D01*
X8300Y14700D01*
X7500Y15100D01*
X6700Y14700D01*
Y12100D02*
X7100Y12900D01*
X6700Y13700D01*
X7500Y13300D01*
X8300Y13700D01*
X7900Y12900D01*
X8300Y12100D01*
X7500Y12500D01*
X6700Y12100D01*
X2100Y11200D02*
X2500Y12000D01*
X2100Y12800D01*
X2900Y12400D01*
X3700Y12800D01*
X3300Y12000D01*
X3700Y11200D01*
X2900Y11600D01*
X2100Y11200D01*
X-1784Y11216D02*
X-1384Y12016D01*
X-1784Y12816D01*
X-984Y12416D01*
X-184Y12816D01*
X-584Y12016D01*
X-184Y11216D01*
X-984Y11616D01*
X-1784Y11216D01*
D32*
X17828Y11173D02*
G03*
X17828Y11173I-800J0D01*
G01*
X-16228D02*
G03*
X-16228Y11173I-800J0D01*
G01*
M02*
