G04*
G04 #@! TF.GenerationSoftware,Altium Limited,Altium Designer,22.0.2 (36)*
G04*
G04 Layer_Color=128*
%FSLAX25Y25*%
%MOIN*%
G70*
G04*
G04 #@! TF.SameCoordinates,E213EF3E-3606-43F0-864D-A49EEA771394*
G04*
G04*
G04 #@! TF.FilePolarity,Positive*
G04*
G01*
G75*
%ADD31C,0.00200*%
D31*
X-34134Y2000D02*
X-25866D01*
X-30000Y-2134D02*
Y6134D01*
X25866Y2000D02*
X34134D01*
X30000Y-2134D02*
Y6134D01*
X15846Y11173D02*
X18209D01*
X17028Y9992D02*
Y12354D01*
X-18209Y11173D02*
X-15846D01*
X-17028Y9992D02*
Y12354D01*
X15846Y26921D02*
X18209D01*
X17028Y25740D02*
Y28102D01*
X-18209Y26921D02*
X-15846D01*
X-17028Y25740D02*
Y28102D01*
X-12657Y13142D02*
X-10098D01*
X-11378Y11862D02*
Y14421D01*
X10098Y13142D02*
X12657D01*
X11378Y11862D02*
Y14421D01*
X4000Y16000D02*
X5000D01*
X4500Y15500D02*
Y16500D01*
X-5000Y16000D02*
X-4000D01*
X-4500Y15500D02*
Y16500D01*
X8900Y-3600D02*
X9900D01*
X9400Y-4100D02*
Y-3100D01*
X11350Y-3600D02*
X12350D01*
X11850Y-4100D02*
Y-3100D01*
X13800Y-3600D02*
X14800D01*
X14300Y-4100D02*
Y-3100D01*
X-8000Y12900D02*
X-7000D01*
X-7500Y12400D02*
Y13400D01*
X-8000Y15500D02*
X-7000D01*
X-7500Y15000D02*
Y16000D01*
X-8000Y18400D02*
X-7000D01*
X-7500Y17900D02*
Y18900D01*
X7000Y18400D02*
X8000D01*
X7500Y17900D02*
Y18900D01*
X7000Y15500D02*
X8000D01*
X7500Y15000D02*
Y16000D01*
X7000Y12900D02*
X8000D01*
X7500Y12400D02*
Y13400D01*
X2400Y12000D02*
X3400D01*
X2900Y11500D02*
Y12500D01*
X-1484Y12016D02*
X-484D01*
X-984Y11516D02*
Y12516D01*
M02*
